<svg xmlns="http://www.w3.org/2000/svg" xmlns:xlink="http://www.w3.org/1999/xlink" viewBox="0 0 500 500" width="500" height="500" preserveAspectRatio="xMidYMid meet" style="width: 100%; height: 100%; transform: translate3d(0px, 0px, 0px); content-visibility: visible;"><defs><clipPath id="__lottie_element_10"><rect width="500" height="500" x="0" y="0"/></clipPath><clipPath id="__lottie_element_13"><path d="M0,0 L430,0 L430,430 L0,430z"/></clipPath><clipPath id="__lottie_element_17"><path d="M0,0 L430,0 L430,430 L0,430z"/></clipPath><clipPath id="__lottie_element_21"><path d="M0,0 L430,0 L430,430 L0,430z"/></clipPath><clipPath id="__lottie_element_25"><path d="M0,0 L430,0 L430,500 L0,500z"/></clipPath><clipPath id="__lottie_element_29"><path d="M0,0 L430,0 L430,430 L0,430z"/></clipPath><clipPath id="__lottie_element_33"><path d="M0,0 L430,0 L430,430 L0,430z"/></clipPath><clipPath id="__lottie_element_37"><path d="M0,0 L430,0 L430,430 L0,430z"/></clipPath><clipPath id="__lottie_element_41"><path d="M0,0 L430,0 L430,430 L0,430z"/></clipPath><g id="__lottie_element_57"><g transform="matrix(1,0,0,1,215,215)" opacity="1" style="display: block;"><g opacity="1" transform="matrix(1,0,0,1,0,0)"><path fill="rgb(255,0,0)" fill-opacity="1" d=" M0.6859999895095825,-111.75 C0.6859999895095825,-111.75 -94.82099914550781,-23.11400032043457 -94.82099914550781,-23.11400032043457 C-94.82099914550781,-23.11400032043457 -95,116 -95,116 C-95,116 95.65899658203125,116 95.65899658203125,116 C95.65899658203125,116 95.65899658203125,-22.246000289916992 95.65899658203125,-22.246000289916992 C95.65899658203125,-22.246000289916992 0.6859999895095825,-111.75 0.6859999895095825,-111.75z"/></g><g opacity="1" transform="matrix(1,0,0,1,81.51399993896484,-95.40799713134766)"><path fill="rgb(255,0,0)" fill-opacity="1" d=" M-6.013999938964844,-8.592000007629395 C-6.013999938964844,-8.592000007629395 -6.013999938964844,84.59200286865234 -6.013999938964844,84.59200286865234 C-6.013999938964844,84.59200286865234 -40.513999938964844,84.59200286865234 -40.513999938964844,84.59200286865234 C-40.513999938964844,84.59200286865234 -40.513999938964844,-8.592000007629395 -40.513999938964844,-8.592000007629395 C-40.513999938964844,-8.592000007629395 -6.013999938964844,-8.592000007629395 -6.013999938964844,-8.592000007629395z"/></g></g></g><filter id="__lottie_element_67" filterUnits="objectBoundingBox" x="0%" y="0%" width="100%" height="100%"><feComponentTransfer in="SourceGraphic"><feFuncA type="table" tableValues="1.0 0.0"/></feComponentTransfer></filter><mask id="__lottie_element_57_2" mask-type="alpha"><g filter="url(#__lottie_element_67)"><rect width="430" height="430" x="0" y="0" fill="#ffffff" opacity="0"/><use xmlns:ns1="http://www.w3.org/1999/xlink" ns1:href="#__lottie_element_57"/></g></mask><clipPath id="__lottie_element_69"><path d="M0,0 L430,0 L430,430 L0,430z"/></clipPath><clipPath id="__lottie_element_97"><path d="M0,0 L430,0 L430,430 L0,430z"/></clipPath><clipPath id="__lottie_element_107"><path d="M0,0 L430,0 L430,430 L0,430z"/></clipPath></defs><g clip-path="url(#__lottie_element_10)"><g clip-path="url(#__lottie_element_13)" transform="matrix(1,0,0,1,35,35)" opacity="0" style="display: block;"><g transform="matrix(1,0,0,1,215.25,206.25)" opacity="1" style="display: block;"><g opacity="1" transform="matrix(1,0,0,1,0,0)"><path stroke-linecap="round" stroke-linejoin="round" fill-opacity="0" stroke="rgb(8,168,138)" stroke-opacity="1" stroke-width="12" d=" M58.25,-13.149999618530273 C58.25,-13.149999618530273 160.25,-13.149999618530273 160.25,-13.149999618530273 M160.25,13.149999618530273 C160.25,13.149999618530273 58.25,13.149999618530273 58.25,13.149999618530273 M-160.25,-13.149999618530273 C-160.25,-13.149999618530273 -38.75,-13.149999618530273 -38.75,-13.149999618530273 M-38.75,13.149999618530273 C-38.75,13.149999618530273 -160.25,13.149999618530273 -160.25,13.149999618530273"/></g></g><g transform="matrix(1,0,0,1,115.69999694824219,282.3999938964844)" opacity="1" style="display: block;"><g opacity="1" transform="matrix(1,0,0,1,0,0)"><path stroke-linecap="round" stroke-linejoin="round" fill-opacity="0" stroke="rgb(18,19,49)" stroke-opacity="1" stroke-width="12" d=" M29.700000762939453,-29.700000762939453 C29.700000762939453,-29.700000762939453 -29.700000762939453,-29.700000762939453 -29.700000762939453,-29.700000762939453 C-29.700000762939453,-29.700000762939453 -29.700000762939453,29.700000762939453 -29.700000762939453,29.700000762939453 C-29.700000762939453,29.700000762939453 29.700000762939453,29.700000762939453 29.700000762939453,29.700000762939453 C29.700000762939453,29.700000762939453 29.700000762939453,-29.700000762939453 29.700000762939453,-29.700000762939453z"/></g></g><g transform="matrix(1,0,0,1,324.8999938964844,282.3999938964844)" opacity="1" style="display: block;"><g opacity="1" transform="matrix(1,0,0,1,0,0)"><path stroke-linecap="round" stroke-linejoin="round" fill-opacity="0" stroke="rgb(18,19,49)" stroke-opacity="1" stroke-width="12" d=" M29.700000762939453,-29.700000762939453 C29.700000762939453,-29.700000762939453 -29.700000762939453,-29.700000762939453 -29.700000762939453,-29.700000762939453 C-29.700000762939453,-29.700000762939453 -29.700000762939453,29.700000762939453 -29.700000762939453,29.700000762939453 C-29.700000762939453,29.700000762939453 29.700000762939453,29.700000762939453 29.700000762939453,29.700000762939453 C29.700000762939453,29.700000762939453 29.700000762939453,-29.700000762939453 29.700000762939453,-29.700000762939453z"/></g></g><g transform="matrix(1,0,0,1,115.69999694824219,156.89999389648438)" opacity="1" style="display: block;"><g opacity="1" transform="matrix(1,0,0,1,0,0)"><path stroke-linecap="round" stroke-linejoin="round" fill-opacity="0" stroke="rgb(18,19,49)" stroke-opacity="1" stroke-width="12" d=" M26,-10.699999809265137 C26,-10.699999809265137 -26,-10.699999809265137 -26,-10.699999809265137 C-26,-10.699999809265137 -26,10.699999809265137 -26,10.699999809265137 C-26,10.699999809265137 26,10.699999809265137 26,10.699999809265137 C26,10.699999809265137 26,-10.699999809265137 26,-10.699999809265137z"/></g></g><g transform="matrix(1,0,0,1,224.89999389648438,227)" opacity="1" style="display: block;"><g opacity="1" transform="matrix(1,0,0,1,0,0)"><path stroke-linecap="round" stroke-linejoin="round" fill-opacity="0" stroke="rgb(18,19,49)" stroke-opacity="1" stroke-width="12" d=" M26,-10.699999809265137 C26,-10.699999809265137 -26,-10.699999809265137 -26,-10.699999809265137 C-26,-10.699999809265137 -26,10.699999809265137 -26,10.699999809265137 C-26,10.699999809265137 26,10.699999809265137 26,10.699999809265137 C26,10.699999809265137 26,-10.699999809265137 26,-10.699999809265137z"/></g></g><g transform="matrix(1,0,0,1,115.75,215.25)" opacity="1" style="display: block;"><g opacity="1" transform="matrix(1,0,0,1,0,0)"><path stroke-linecap="round" stroke-linejoin="round" fill-opacity="0" stroke="rgb(18,19,49)" stroke-opacity="1" stroke-width="12" d=" M60.75,132.25 C60.75,132.25 60.75,-132.25 60.75,-132.25"/></g></g><g transform="matrix(5.275599956512451,0,0,5.275599956512451,325.0899963378906,190.02000427246094)" opacity="1" style="display: block;"><g opacity="1" transform="matrix(1,0,0,1,0,0)"><path stroke-linecap="round" stroke-linejoin="round" fill-opacity="0" stroke="rgb(18,19,49)" stroke-opacity="1" stroke-width="2.45" d=" M-27.985000610351562,-11.651000022888184 C-27.985000610351562,-11.651000022888184 -27.981000900268555,-11.661999702453613 -27.981000900268555,-11.661999702453613 C-27.981000900268555,-11.661999702453613 9.57699966430664,-3.6530001163482666 9.57699966430664,-3.6530001163482666 C9.57699966430664,-3.6530001163482666 9.57699966430664,29.993999481201172 9.57699966430664,29.993999481201172 C9.57699966430664,29.993999481201172 -9.843000411987305,30.0049991607666 -9.843000411987305,30.0049991607666"/><path stroke-linecap="round" stroke-linejoin="round" fill-opacity="0" stroke="rgb(8,168,138)" stroke-opacity="0" stroke-width="2.45" d=" M-27.985000610351562,-11.651000022888184 C-27.985000610351562,-11.651000022888184 -27.981000900268555,-11.661999702453613 -27.981000900268555,-11.661999702453613 C-27.981000900268555,-11.661999702453613 9.57699966430664,-3.6530001163482666 9.57699966430664,-3.6530001163482666 C9.57699966430664,-3.6530001163482666 9.57699966430664,29.993999481201172 9.57699966430664,29.993999481201172 C9.57699966430664,29.993999481201172 -9.843000411987305,30.0049991607666 -9.843000411987305,30.0049991607666"/></g></g><g transform="matrix(5.275599956512451,0,0,5.275599956512451,325.0899963378906,190.02000427246094)" opacity="1" style="display: block;"><g opacity="1" transform="matrix(1,0,0,1,0,0)"><path stroke-linecap="round" stroke-linejoin="round" fill-opacity="0" stroke="rgb(8,168,138)" stroke-opacity="1" stroke-width="2.45" d=" M-22.857999801635742,29.448999404907227 C-22.857999801635742,29.448999404907227 -22.857999801635742,15.930999755859375 -22.857999801635742,15.930999755859375 C-22.857999801635742,15.930999755859375 -15.086000442504883,15.930999755859375 -15.086000442504883,15.930999755859375 C-15.086000442504883,15.930999755859375 -15.086000442504883,29.448999404907227 -15.086000442504883,29.448999404907227"/></g><g opacity="1" transform="matrix(1,0,0,1,0,0)"><path stroke-linecap="round" stroke-linejoin="round" fill-opacity="0" stroke="rgb(18,19,49)" stroke-opacity="1" stroke-width="2.45" d=" M-51.106998443603516,-11.168999671936035 C-51.106998443603516,-11.168999671936035 -28.180999755859375,-20.176000595092773 -28.180999755859375,-20.176000595092773 M-28.007999420166016,-6.053999900817871 C-28.007999420166016,-6.053999900817871 -9.979999542236328,-2.5429999828338623 -9.979999542236328,-2.5429999828338623"/></g><g opacity="1" transform="matrix(1,0,0,1,0,0)"><path stroke-linecap="round" stroke-linejoin="round" fill-opacity="0" stroke="rgb(18,19,49)" stroke-opacity="1" stroke-width="2.45" d=" M-51.12799835205078,-11.102999687194824 C-51.12799835205078,-11.102999687194824 -51.12799835205078,-10.993000030517578 -51.12799835205078,-10.993000030517578 C-51.12799835205078,-10.993000030517578 -51.11399841308594,29.993999481201172 -51.11399841308594,29.993999481201172 C-51.11399841308594,29.993999481201172 -9.883000373840332,29.950000762939453 -9.883000373840332,29.950000762939453 C-9.883000373840332,29.950000762939453 -9.913000106811523,-2.4639999866485596 -9.913000106811523,-2.4639999866485596"/></g></g></g><g clip-path="url(#__lottie_element_17)" transform="matrix(1,0,0,1,35,35)" opacity="0" style="display: block;"><g mask="url(#__lottie_element_57_2)" style="display: block;"><g transform="matrix(1,0,0,1,215.14999389648438,186.0500030517578)" opacity="1"><g opacity="1" transform="matrix(1,0,0,1,0,0)"><path stroke-linecap="round" stroke-linejoin="round" fill-opacity="0" stroke="rgb(18,19,49)" stroke-opacity="1" stroke-width="12" d=" M188.14999389648438,-5.550000190734863 C188.14999389648438,-5.550000190734863 173.5500030517578,-19.25 173.5500030517578,-19.25 C173.5500030517578,-19.25 101.55000305175781,-87.05000305175781 101.55000305175781,-87.05000305175781 C101.55000305175781,-87.05000305175781 74.75,-61.849998474121094 74.75,-61.849998474121094 M173.5500030517578,-19.25 C173.5500030517578,-19.25 173.5500030517578,87.05000305175781 173.5500030517578,87.05000305175781 C173.5500030517578,87.05000305175781 95.8499984741211,87.05000305175781 95.8499984741211,87.05000305175781 M-49.45000076293945,-38.04999923706055 C-49.45000076293945,-38.04999923706055 -101.55000305175781,-87.05000305175781 -101.55000305175781,-87.05000305175781 C-101.55000305175781,-87.05000305175781 -173.64999389648438,-19.25 -173.64999389648438,-19.25 C-173.64999389648438,-19.25 -188.14999389648438,-5.550000190734863 -188.14999389648438,-5.550000190734863 M-94.75,87.05000305175781 C-94.75,87.05000305175781 -173.64999389648438,87.05000305175781 -173.64999389648438,87.05000305175781 C-173.64999389648438,87.05000305175781 -173.64999389648438,-19.25 -173.64999389648438,-19.25"/></g></g></g><g transform="matrix(5.275599956512451,0,0,5.275599956512451,325.0899963378906,190.02000427246094)" opacity="1" style="display: block;"><g opacity="1" transform="matrix(1,0,0,1,0,0)"><path stroke-linecap="round" stroke-linejoin="round" fill-opacity="0" stroke="rgb(8,168,138)" stroke-opacity="1" stroke-width="2.45" d=" M-13.14799976348877,-9.37600040435791 C-13.14799976348877,-9.37600040435791 -13.14799976348877,-14.932000160217285 -13.14799976348877,-14.932000160217285 C-13.14799976348877,-14.932000160217285 -6.534999847412109,-14.932000160217285 -6.534999847412109,-14.932000160217285 C-6.534999847412109,-14.932000160217285 -6.534999847412109,-3.6510000228881836 -6.534999847412109,-3.6510000228881836 C-6.534999847412109,-3.6510000228881836 -6.599999904632568,-3.7119998931884766 -6.599999904632568,-3.7119998931884766"/></g></g><g transform="matrix(5.275599956512451,0,0,5.275599956512451,325.0899963378906,190.02000427246094)" opacity="1" style="display: block;"><g opacity="1" transform="matrix(1,0,0,1,0,0)"><path stroke-linecap="round" stroke-linejoin="round" fill-opacity="0" stroke="rgb(8,168,138)" stroke-opacity="1" stroke-width="2.45" d=" M-25.95400047302246,26.645000457763672 C-25.95400047302246,26.645000457763672 -25.95400047302246,9.26200008392334 -25.95400047302246,9.26200008392334 C-25.95400047302246,9.26200008392334 -15.375,9.26200008392334 -15.375,9.26200008392334 C-15.375,9.26200008392334 -15.375,26.645000457763672 -15.375,26.645000457763672"/></g><g opacity="1" transform="matrix(1,0,0,1,0,0)"><path stroke-linecap="round" stroke-linejoin="round" fill-opacity="0" stroke="rgb(8,168,138)" stroke-opacity="1" stroke-width="2.45" d=" M-42.79399871826172,3.885999917984009 C-42.79399871826172,3.885999917984009 -20.854000091552734,-16.59000015258789 -20.854000091552734,-16.59000015258789 M-20.854000091552734,-16.59000015258789 C-20.854000091552734,-16.59000015258789 0.7760000228881836,3.4600000381469727 0.7760000228881836,3.4600000381469727 M-38.66699981689453,0.6669999957084656 C-38.66699981689453,0.6669999957084656 -38.66699981689453,0.7440000176429749 -38.66699981689453,0.7440000176429749 C-38.66699981689453,0.7440000176429749 -38.66699981689453,26.645000457763672 -38.66699981689453,26.645000457763672 C-38.66699981689453,26.645000457763672 -2.746999979019165,26.645000457763672 -2.746999979019165,26.645000457763672 C-2.746999979019165,26.645000457763672 -2.753999948501587,0.17499999701976776 -2.753999948501587,0.17499999701976776"/><path stroke-linecap="round" stroke-linejoin="round" fill-opacity="0" stroke="rgb(18,19,49)" stroke-opacity="0" stroke-width="2.45" d=" M-42.79399871826172,3.885999917984009 C-42.79399871826172,3.885999917984009 -20.854000091552734,-16.59000015258789 -20.854000091552734,-16.59000015258789 M-20.854000091552734,-16.59000015258789 C-20.854000091552734,-16.59000015258789 0.7760000228881836,3.4600000381469727 0.7760000228881836,3.4600000381469727 M-38.66699981689453,0.6669999957084656 C-38.66699981689453,0.6669999957084656 -38.66699981689453,0.7440000176429749 -38.66699981689453,0.7440000176429749 C-38.66699981689453,0.7440000176429749 -38.66699981689453,26.645000457763672 -38.66699981689453,26.645000457763672 C-38.66699981689453,26.645000457763672 -2.746999979019165,26.645000457763672 -2.746999979019165,26.645000457763672 C-2.746999979019165,26.645000457763672 -2.753999948501587,0.17499999701976776 -2.753999948501587,0.17499999701976776"/></g></g></g><g clip-path="url(#__lottie_element_21)" transform="matrix(1,0,0,1,35,35)" opacity="0" style="display: block;"><g clip-path="url(#__lottie_element_69)" transform="matrix(1,0,0,1,0,0)" opacity="1" style="display: block;"><g transform="matrix(1,0,0,1,294.5,272.5)" opacity="1" style="display: block;"><g opacity="1" transform="matrix(1,0,0,1,0,0)"><path stroke-linecap="round" stroke-linejoin="round" fill-opacity="0" stroke="rgb(8,168,138)" stroke-opacity="1" stroke-width="12" d=" M-210.49998474121094,33.5 C-210.49998474121094,33.5 -210.5,33.5 -210.5,33.5 M-210.49998474121094,33.5 C-210.49998474121094,33.5 -210.49998474121094,0 -210.49998474121094,0 C-210.49998474121094,0 -210.49998474121094,-33.5 -210.49998474121094,-33.5 C-210.49998474121094,-33.5 -210.5,-33.5 -210.5,-33.5 C-210.5,-33.5 -210.5,33.5 -210.5,33.5"/></g></g><g transform="matrix(1,0,0,1,137.5,272.5)" opacity="1" style="display: block;"><g opacity="1" transform="matrix(1,0,0,1,0,0)"><path stroke-linecap="round" stroke-linejoin="round" fill-opacity="0" stroke="rgb(8,168,138)" stroke-opacity="1" stroke-width="12" d=" M-54.499996185302734,33.5 C-54.499996185302734,33.5 -54.5,33.5 -54.5,33.5 M-54.499996185302734,33.5 C-54.499996185302734,33.5 -54.499996185302734,-33.5 -54.499996185302734,-33.5 C-54.499996185302734,-33.5 -54.5,-33.5 -54.5,-33.5 C-54.5,-33.5 -54.5,33.5 -54.5,33.5"/></g></g><g transform="matrix(1,0,0,1,215.5,273.5)" opacity="1" style="display: none;"><g opacity="1" transform="matrix(1,0,0,1,0,0)"><path stroke-linecap="round" stroke-linejoin="round" fill-opacity="0" stroke="rgb(8,168,138)" stroke-opacity="1" stroke-width="12" d=" M179.66876220703125,69.5 C179.66876220703125,69.5 179.66876220703125,2.5 179.66876220703125,2.5 M179.66876220703125,69.5 C179.66876220703125,69.5 179.66876220703125,2.5 179.66876220703125,2.5 M179.66876220703125,69.5 C179.66876220703125,69.5 179.66876220703125,2.5 179.66876220703125,2.5 M179.66876220703125,69.5 C179.66876220703125,69.5 179.66876220703125,2.5 179.66876220703125,2.5 M179.66876220703125,69.5 C179.66876220703125,69.5 179.66876220703125,2.5 179.66876220703125,2.5 M179.66876220703125,69.5 C179.66876220703125,69.5 179.66876220703125,2.5 179.66876220703125,2.5 M179.78782653808594,69.5 C179.78782653808594,69.5 158.8323516845703,69.5 158.8323516845703,69.5 M159.30860900878906,2.5 C159.30860900878906,2.5 159.30860900878906,-59.642433166503906 159.30860900878906,-59.642433166503906 C159.30860900878906,-59.642433166503906 159.30860900878906,-59.642433166503906 159.30860900878906,-59.642433166503906 C159.30860900878906,-59.642433166503906 159.30860900878906,2.5 159.30860900878906,2.5 M179.78782653808594,69.5 C179.78782653808594,69.5 179.78782653808594,2.5 179.78782653808594,2.5 C179.78782653808594,2.5 158.8323516845703,2.5 158.8323516845703,2.5 C158.8323516845703,2.5 158.8323516845703,69.5 158.8323516845703,69.5"/></g></g><g transform="matrix(5.275599956512451,0,0,5.275599956512451,583.4199829101562,190.02000427246094)" opacity="1" style="display: block;"><g opacity="1" transform="matrix(1,0,0,1,0,0)"><path stroke-linecap="round" stroke-linejoin="round" fill-opacity="0" stroke="rgb(18,19,49)" stroke-opacity="1" stroke-width="2.5" d=" M-94.60800170898438,35.91999816894531 C-94.60800170898438,35.91999816894531 -94.60800170898438,-1.830997109413147 -94.60800170898438,-1.830997109413147"/></g></g><g transform="matrix(5.275599956512451,0,0,5.275599956512451,325.0899963378906,190.02000427246094)" opacity="1" style="display: block;"><g opacity="1" transform="matrix(1,0,0,1,0,0)"><path stroke-linecap="round" stroke-linejoin="round" fill-opacity="0" stroke="rgb(18,19,49)" stroke-opacity="1" stroke-width="2.45" d=" M-20.314998626708984,-25.29400062561035 C-20.314998626708984,-25.29400062561035 10.511000633239746,3.2839999198913574 10.511000633239746,3.2839999198913574"/></g><g opacity="1" transform="matrix(1,0,0,1,0,0)"><path stroke-linecap="round" stroke-linejoin="round" fill-opacity="0" stroke="rgb(18,19,49)" stroke-opacity="1" stroke-width="2.45" d=" M-45.711997985839844,35.91699981689453 C-45.711997985839844,35.91699981689453 4.7590012550354,35.91699981689453 4.7590012550354,35.91699981689453 C4.7590012550354,35.91699981689453 4.750000953674316,-1.867999792098999 4.750000953674316,-1.867999792098999 C4.750000953674316,-1.867999792098999 4.750000953674316,-1.992999792098999 4.750000953674316,-1.992999792098999"/></g></g><g transform="matrix(1,0,0,1,215.5,273.5)" opacity="1" style="display: block;"><g opacity="1" transform="matrix(1,0,0,1,0,0)"><path stroke-linecap="round" stroke-linejoin="round" fill-opacity="0" stroke="rgb(8,168,138)" stroke-opacity="1" stroke-width="12" d=" M-55.49998474121094,69.5 C-55.49998474121094,69.5 -55.49998474121094,2.5 -55.49998474121094,2.5 M-33.4999885559082,69.5 C-33.4999885559082,69.5 -33.4999885559082,2.5 -33.4999885559082,2.5 M-11.499987602233887,69.5 C-11.499987602233887,69.5 -11.499987602233887,2.5 -11.499987602233887,2.5 M11.500011444091797,69.5 C11.500011444091797,69.5 11.500011444091797,2.5 11.500011444091797,2.5 M33.5000114440918,69.5 C33.5000114440918,69.5 33.5000114440918,2.5 33.5000114440918,2.5 M55.5000114440918,69.5 C55.5000114440918,69.5 55.5000114440918,2.5 55.5000114440918,2.5 M77.50000762939453,69.5 C77.50000762939453,69.5 -77.49998474121094,69.5 -77.49998474121094,69.5 M40.50000762939453,2.5 C40.50000762939453,2.5 40.50000762939453,-69.5 40.50000762939453,-69.5 C40.50000762939453,-69.5 -43.49998474121094,-69.5 -43.49998474121094,-69.5 C-43.49998474121094,-69.5 -43.49998474121094,2.5 -43.49998474121094,2.5 M77.50000762939453,69.5 C77.50000762939453,69.5 77.50000762939453,2.5 77.50000762939453,2.5 C77.50000762939453,2.5 -77.49998474121094,2.5 -77.49998474121094,2.5 C-77.49998474121094,2.5 -77.49998474121094,69.5 -77.49998474121094,69.5"/></g></g><g transform="matrix(5.275599956512451,0,0,5.275599956512451,583.4199829101562,190.02000427246094)" opacity="1" style="display: block;"><g opacity="1" transform="matrix(1,0,0,1,0,0)"><path stroke-linecap="round" stroke-linejoin="round" fill-opacity="0" stroke="rgb(18,19,49)" stroke-opacity="1" stroke-width="2.5" d=" M-94.70500183105469,35.941001892089844 C-94.70500183105469,35.941001892089844 -94.75,35.84000015258789 -94.75,35.84000015258789 C-94.75,35.84000015258789 -94.75,-1.3420000076293945 -94.75,-1.3420000076293945"/></g></g><g transform="matrix(5.275599956512451,0,0,5.275599956512451,583.4199829101562,190.02000427246094)" opacity="1" style="display: block;"><g opacity="1" transform="matrix(1,0,0,1,0,0)"><path stroke-linecap="round" stroke-linejoin="round" fill-opacity="0" stroke="rgb(18,19,49)" stroke-opacity="1" stroke-width="2.5" d=" M-79.0530014038086,-16.625001907348633 C-79.0530014038086,-16.625001907348633 -69.44499969482422,-25.232999801635742 -69.44499969482422,-25.232999801635742 M-100.72100067138672,3.2260000705718994 C-100.72100067138672,3.2260000705718994 -88.05599975585938,-8.285000801086426 -88.05599975585938,-8.285000801086426"/></g></g><g transform="matrix(5.275599956512451,0,0,5.275599956512451,325.0899963378906,190.02000427246094)" opacity="1" style="display: block;"><g opacity="0" transform="matrix(1,0,0,1,0,0)"><path stroke-linecap="round" stroke-linejoin="round" fill-opacity="0" stroke="rgb(8,168,138)" stroke-opacity="1" stroke-width="2.45" d=" M-27.183000564575195,-14.454999923706055 C-27.183000564575195,-14.454999923706055 -27.183000564575195,-18.768999099731445 -27.183000564575195,-18.768999099731445 C-27.183000564575195,-18.768999099731445 -27.25200080871582,-18.768999099731445 -27.25200080871582,-18.768999099731445 C-27.25200080871582,-18.768999099731445 -27.25200080871582,-8.24899959564209 -27.25200080871582,-8.24899959564209"/></g><g opacity="1" transform="matrix(1,0,0,1,0,0)"><path stroke-linecap="round" stroke-linejoin="round" fill-opacity="0" stroke="rgb(8,168,138)" stroke-opacity="1" stroke-width="2.45" d=" M-30.250999450683594,-16.576000213623047 C-30.250999450683594,-16.576000213623047 -30.250999450683594,-22.27400016784668 -30.250999450683594,-22.27400016784668 C-30.250999450683594,-22.27400016784668 -39.11199951171875,-22.256999969482422 -39.11199951171875,-22.256999969482422 C-39.11199951171875,-22.256999969482422 -39.016998291015625,-8.102999687194824 -39.016998291015625,-8.102999687194824"/></g><g opacity="1" transform="matrix(1,0,0,1,0,0)"><path stroke-linecap="round" stroke-linejoin="round" fill-opacity="0" stroke="rgb(8,168,138)" stroke-opacity="1" stroke-width="2.45" d=" M-39.1619987487793,-8.168999671936035 C-39.1619987487793,-8.168999671936035 -39.18400192260742,-22.302000045776367 -39.18400192260742,-22.302000045776367 C-39.18400192260742,-22.302000045776367 -39.064998626708984,-22.244998931884766 -39.064998626708984,-22.244998931884766 C-39.064998626708984,-22.244998931884766 -39.03499984741211,-8.074000358581543 -39.03499984741211,-8.074000358581543"/></g></g><g transform="matrix(5.275599956512451,0,0,5.275599956512451,583.4199829101562,190.02000427246094)" opacity="1" style="display: block;"><g opacity="1" transform="matrix(1,0,0,1,0,0)"><path stroke-linecap="round" stroke-linejoin="round" fill-opacity="0" stroke="rgb(18,19,49)" stroke-opacity="1" stroke-width="2.5" d=" M-82.19300079345703,-13.482999801635742 C-90.73699951171875,-5.673999786376953 -100.36699676513672,3.128000020980835 -100.36699676513672,3.128000020980835 C-100.36699676513672,3.128000020980835 -100.36800384521484,3.128999948501587 -100.36800384521484,3.128999948501587 M-69.21700286865234,-25.357999801635742 C-69.21700286865234,-25.357999801635742 -69.25699615478516,-25.305999755859375 -69.25699615478516,-25.305999755859375 C-69.25700378417969,-25.305999755859375 -75.37999725341797,-19.709999084472656 -82.19300079345703,-13.482999801635742"/></g></g><g transform="matrix(5.275599956512451,0,0,5.275599956512451,325.0899963378906,190.02000427246094)" opacity="1" style="display: none;"><g opacity="1" transform="matrix(1,0,0,1,0,0)"><path stroke-linecap="round" stroke-linejoin="round" fill-opacity="0" stroke="rgb(8,168,138)" stroke-opacity="1" stroke-width="2.45" d=" M-26.68494415283203,-14.457799911499023 C-26.68494415283203,-14.457799911499023 -26.68494415283203,-18.839632034301758 -26.68494415283203,-18.839632034301758 C-26.68494415283203,-18.839632034301758 -26.437448501586914,-18.839632034301758 -26.437448501586914,-18.839632034301758 C-26.437448501586914,-18.839632034301758 -26.437448501586914,-8.243400573730469 -26.437448501586914,-8.243400573730469"/></g><g opacity="0" transform="matrix(1,0,0,1,0,0)"><path stroke-linecap="round" stroke-linejoin="round" fill-opacity="0" stroke="rgb(8,168,138)" stroke-opacity="1" stroke-width="2.45" d=" M-14.814000129699707,-14.5 C-14.814000129699707,-14.5 -14.814000129699707,-18.815000534057617 -14.814000129699707,-18.815000534057617 C-14.814000129699707,-18.815000534057617 -14.883000373840332,-18.815000534057617 -14.883000373840332,-18.815000534057617 C-14.883000373840332,-18.815000534057617 -14.883000373840332,-8.295000076293945 -14.883000373840332,-8.295000076293945"/></g><g opacity="1" transform="matrix(1,0,0,1,0,0)"><path stroke-linecap="round" stroke-linejoin="round" fill-opacity="0" stroke="rgb(8,168,138)" stroke-opacity="1" stroke-width="2.45" d=" M-26.54213523864746,-8.232999801635742 C-26.54213523864746,-8.232999801635742 -26.50723648071289,-18.83793830871582 -26.50723648071289,-18.83793830871582 C-26.50723648071289,-18.83793830871582 -14.198654174804688,-18.789167404174805 -14.198654174804688,-18.789167404174805 C-14.198654174804688,-18.789167404174805 -14.221552848815918,-8.14522933959961 -14.221552848815918,-8.14522933959961"/></g></g><g transform="matrix(5.275599956512451,0,0,5.275599956512451,325.0899963378906,190.02000427246094)" opacity="1" style="display: none;"><g opacity="1" transform="matrix(1,0,0,1,0,0)"><path stroke-linecap="round" stroke-linejoin="round" fill-opacity="0" stroke="rgb(8,168,138)" stroke-opacity="1" stroke-width="2.45" d=" M-50.237918853759766,35.691829681396484 C-50.237918853759766,35.691829681396484 -50.237918853759766,9.715999603271484 -50.237918853759766,9.715999603271484 C-50.237918853759766,9.715999603271484 -49.75788879394531,9.715999603271484 -49.75788879394531,9.715999603271484 C-49.75788879394531,9.715999603271484 -49.75788879394531,35.691829681396484 -49.75788879394531,35.691829681396484"/></g><g opacity="1" transform="matrix(1,0,0,1,0,0)"><path stroke-linecap="round" stroke-linejoin="round" fill-opacity="0" stroke="rgb(18,19,49)" stroke-opacity="1" stroke-width="2.45" d=" M-56.25041580200195,3.256330966949463 C-56.25041580200195,3.256330966949463 -45.693939208984375,-25.5506534576416 -45.693939208984375,-25.5506534576416 C-45.693939208984375,-25.5506534576416 -54.372127532958984,3.256330966949463 -54.372127532958984,3.256330966949463"/></g><g opacity="1" transform="matrix(1,0,0,1,0,0)"><path stroke-linecap="round" stroke-linejoin="round" fill-opacity="0" stroke="rgb(18,19,49)" stroke-opacity="1" stroke-width="2.45" d=" M-50.74623107910156,3.5399999618530273 C-50.74623107910156,3.5399999618530273 -50.74623107910156,3.634999990463257 -50.74623107910156,3.634999990463257 C-50.74623107910156,3.634999990463257 -50.76612854003906,35.69155502319336 -50.76612854003906,35.69155502319336 C-50.76612854003906,35.69155502319336 -49.239959716796875,35.69155502319336 -49.239959716796875,35.69155502319336 C-49.239959716796875,35.69155502319336 -49.245304107666016,3.6117687225341797 -49.245304107666016,3.6117687225341797"/></g></g><g transform="matrix(5.275599956512451,0,0,5.275599956512451,325.0899963378906,190.02000427246094)" opacity="1" style="display: none;"><g opacity="1" transform="matrix(1,0,0,1,0,0)"><path stroke-linecap="round" stroke-linejoin="round" fill-opacity="0" stroke="rgb(18,19,49)" stroke-opacity="1" stroke-width="2.45" d=" M-45.71200180053711,-1.2940000295639038 C-45.71200180053711,-1.2940000295639038 -45.71200180053711,-1.184000015258789 -45.71200180053711,-1.184000015258789 C-45.71200180053711,-1.184000015258789 -45.71200180053711,35.91699981689453 -45.71200180053711,35.91699981689453"/></g></g><g transform="matrix(1,0,0,1,215.5,273.5)" opacity="1" style="display: none;"><g opacity="1" transform="matrix(1,0,0,1,0,0)"><path stroke-linecap="round" stroke-linejoin="round" fill-opacity="0" stroke="rgb(8,168,138)" stroke-opacity="1" stroke-width="12" d=" M-55.5,69.5 C-55.5,69.5 -55.5,2.5 -55.5,2.5 M-33.5,69.5 C-33.5,69.5 -33.5,2.5 -33.5,2.5 M-11.5,69.5 C-11.5,69.5 -11.5,2.5 -11.5,2.5 M11.5,69.5 C11.5,69.5 11.5,2.5 11.5,2.5 M33.5,69.5 C33.5,69.5 33.5,2.5 33.5,2.5 M55.5,69.5 C55.5,69.5 55.5,2.5 55.5,2.5 M77.5,69.5 C77.5,69.5 -77.5,69.5 -77.5,69.5 M40.5,2.5 C40.5,2.5 40.5,-69.5 40.5,-69.5 C40.5,-69.5 -43.5,-69.5 -43.5,-69.5 C-43.5,-69.5 -43.5,2.5 -43.5,2.5 M77.5,69.5 C77.5,69.5 77.5,2.5 77.5,2.5 C77.5,2.5 -77.5,2.5 -77.5,2.5 C-77.5,2.5 -77.5,69.5 -77.5,69.5"/></g></g><g transform="matrix(1,0,0,1,294.5,272.5)" opacity="1" style="display: none;"><g opacity="1" transform="matrix(1,0,0,1,0,0)"><path stroke-linecap="round" stroke-linejoin="round" fill-opacity="0" stroke="rgb(8,168,138)" stroke-opacity="1" stroke-width="12" d=" M54.5,33.5 C54.5,33.5 54.5,33.5 54.5,33.5 M54.5,33.5 C54.5,33.5 54.5,0 54.5,0 C54.5,0 54.5,-33.5 54.5,-33.5 C54.5,-33.5 54.5,-33.5 54.5,-33.5 C54.5,-33.5 54.5,33.5 54.5,33.5"/></g></g><g transform="matrix(1,0,0,1,137.5,272.5)" opacity="1" style="display: none;"><g opacity="1" transform="matrix(1,0,0,1,0,0)"><path stroke-linecap="round" stroke-linejoin="round" fill-opacity="0" stroke="rgb(8,168,138)" stroke-opacity="1" stroke-width="12" d=" M212.5,33.5 C212.5,33.5 212.5,33.5 212.5,33.5 M212.5,33.5 C212.5,33.5 212.5,-33.5 212.5,-33.5 C212.5,-33.5 212.5,-33.5 212.5,-33.5 C212.5,-33.5 212.5,33.5 212.5,33.5"/></g></g><g transform="matrix(5.275599956512451,0,0,5.275599956512451,583.4199829101562,190.02000427246094)" opacity="1" style="display: none;"><g opacity="1" transform="matrix(1,0,0,1,0,0)"><path stroke-linecap="round" stroke-linejoin="round" fill-opacity="0" stroke="rgb(18,19,49)" stroke-opacity="1" stroke-width="2.5" d=" M-44.393001556396484,35.92100143432617 C-44.393001556396484,35.92100143432617 -44.21799850463867,35.90700149536133 -44.21799850463867,35.90700149536133 C-44.21799850463867,35.90700149536133 -44.21799850463867,-1.6549999713897705 -44.21799850463867,-1.6549999713897705"/></g></g><g transform="matrix(5.275599956512451,0,0,5.275599956512451,583.4199829101562,190.02000427246094)" opacity="1" style="display: none;"><g opacity="1" transform="matrix(1,0,0,1,0,0)"><path stroke-linecap="round" stroke-linejoin="round" fill-opacity="0" stroke="rgb(18,19,49)" stroke-opacity="1" stroke-width="2.5" d=" M-68.86900329589844,-25.347999572753906 C-68.86900329589844,-25.347999572753906 -69.0989990234375,-25.292999267578125 -69.0989990234375,-25.292999267578125 C-69.0989990234375,-25.292999267578125 -38.27299880981445,3.2850000858306885 -38.27299880981445,3.2850000858306885 C-38.27299880981445,3.2850000858306885 -38.25,3.2850000858306885 -38.25,3.2850000858306885"/></g></g><g transform="matrix(5.275599956512451,0,0,5.275599956512451,325.0899963378906,190.02000427246094)" opacity="1" style="display: none;"><g opacity="1" transform="matrix(1,0,0,1,0,0)"><path stroke-linecap="round" stroke-linejoin="round" fill-opacity="0" stroke="rgb(18,19,49)" stroke-opacity="1" stroke-width="2.45" d=" M-45.71200180053711,35.91699981689453 C-45.71200180053711,35.91699981689453 4.758999824523926,35.91699981689453 4.758999824523926,35.91699981689453 C4.758999824523926,35.91699981689453 4.75,-1.9930000305175781 4.75,-1.9930000305175781"/></g></g><g transform="matrix(5.275599956512451,0,0,5.275599956512451,325.0899963378906,190.02000427246094)" opacity="1" style="display: none;"><g opacity="1" transform="matrix(1,0,0,1,0,0)"><path stroke-linecap="round" stroke-linejoin="round" fill-opacity="0" stroke="rgb(18,19,49)" stroke-opacity="1" stroke-width="2.45" d=" M-51.58100128173828,3.2839999198913574 C-51.58100128173828,3.2839999198913574 -20.315000534057617,-25.29400062561035 -20.315000534057617,-25.29400062561035 C-20.315000534057617,-25.29400062561035 10.51099967956543,3.2839999198913574 10.51099967956543,3.2839999198913574"/></g></g></g></g><g clip-path="url(#__lottie_element_25)" transform="matrix(1,0,0,1,35,0)" opacity="0" style="display: block;"><g transform="matrix(1,0,0,1,215,250)" opacity="0.2" style="display: none;"><g opacity="1" transform="matrix(1,0,0,1,0,0)"><path stroke-linecap="round" stroke-linejoin="round" fill-opacity="0" stroke="rgb(18,19,49)" stroke-opacity="1" stroke-width="12" d="M0 0"/></g></g><g transform="matrix(1,0,0,1,215,250)" opacity="0.2" style="display: none;"><g opacity="1" transform="matrix(1,0,0,1,0,0)"><path stroke-linecap="round" stroke-linejoin="round" fill-opacity="0" stroke="rgb(18,19,49)" stroke-opacity="1" stroke-width="12" d="M0 0"/></g></g><g transform="matrix(1,0,0,1,215,250)" opacity="0.2" style="display: none;"><g opacity="1" transform="matrix(1,0,0,1,0,0)"><path stroke-linecap="round" stroke-linejoin="round" fill-opacity="0" stroke="rgb(18,19,49)" stroke-opacity="1" stroke-width="12" d=" M191.99099731445312,-196.53599548339844 C191.99400329589844,-196.5240020751953 191.9969940185547,-196.51199340820312 192,-196.5"/></g></g><g transform="matrix(1,0,0,1,215,250)" opacity="0.2" style="display: block;"><g opacity="1" transform="matrix(1,0,0,1,0,0)"><path stroke-linecap="round" stroke-linejoin="round" fill-opacity="0" stroke="rgb(18,19,49)" stroke-opacity="1" stroke-width="12" d=" M109.83799743652344,-282.3030090332031 C110.22200012207031,-282.5400085449219 110.60900115966797,-282.77301025390625 111,-283"/></g></g><g transform="matrix(1,0,0,1,215,250)" opacity="0.2" style="display: block;"><g opacity="1" transform="matrix(1,0,0,1,0,0)"><path stroke-linecap="round" stroke-linejoin="round" fill-opacity="0" stroke="rgb(18,19,49)" stroke-opacity="1" stroke-width="12" d=" M-126.43099975585938,-210.09800720214844 C-126.66799926757812,-211.01699829101562 -126.85800170898438,-211.98399353027344 -127,-213 C-130.18899536132812,-235.781005859375 -100.26899719238281,-242.4320068359375 -92.86100006103516,-227.197998046875"/></g></g><g transform="matrix(1,0,0,1,215,250)" opacity="0.2" style="display: block;"><g opacity="1" transform="matrix(1,0,0,1,0,0)"><path stroke-linecap="round" stroke-linejoin="round" fill-opacity="0" stroke="rgb(18,19,49)" stroke-opacity="1" stroke-width="12" d=" M149.56100463867188,-195.06300354003906 C152.99400329589844,-208.9320068359375 183.64599609375,-214.49200439453125 190.9219970703125,-199.54400634765625"/></g></g><g transform="matrix(5.275599956512451,0,0,5.275599956512451,583.4199829101562,225.02000427246094)" opacity="1" style="display: block;"><g opacity="1" transform="matrix(1,0,0,1,0,0)"><path stroke-linecap="round" stroke-linejoin="round" fill-opacity="0" stroke="rgb(18,19,49)" stroke-opacity="1" stroke-width="2.45" d=" M-51.07500076293945,-8.583999633789062 C-44.33100128173828,-2.3310000896453857 -38.27299880981445,3.2850000858306885 -38.27299880981445,3.2850000858306885 C-38.27299880981445,3.2850000858306885 -38.25,3.2850000858306885 -38.25,3.2850000858306885 M-68.86900329589844,-25.347999572753906 C-68.86900329589844,-25.347999572753906 -69.0989990234375,-25.292999267578125 -69.0989990234375,-25.292999267578125 C-69.0989990234375,-25.292999267578125 -66.52400207519531,-22.905000686645508 -62.861000061035156,-19.510000228881836"/></g><g opacity="1" transform="matrix(1,0,0,1,0,0)"><path stroke-linecap="round" stroke-linejoin="round" fill-opacity="0" stroke="rgb(18,19,49)" stroke-opacity="1" stroke-width="2.45" d=" M-44.393001556396484,35.92100143432617 C-44.393001556396484,35.92100143432617 -44.21799850463867,35.90700149536133 -44.21799850463867,35.90700149536133 C-44.21799850463867,35.90700149536133 -44.21799850463867,3.2739999294281006 -44.21799850463867,3.2739999294281006"/></g><g opacity="1" transform="matrix(1,0,0,1,0,0)"><path stroke-linecap="round" stroke-linejoin="round" fill-opacity="0" stroke="rgb(8,168,138)" stroke-opacity="1" stroke-width="2.45" d=" M-50.80099868774414,-22.089000701904297 C-50.80099868774414,-22.089000701904297 -49.92399978637695,-22.072999954223633 -49.92399978637695,-22.072999954223633 C-49.92399978637695,-22.072999954223633 -49.89899826049805,-10.118000030517578 -49.89899826049805,-10.118000030517578"/></g></g><g transform="matrix(5.275599956512451,0,0,5.275599956512451,325.0899963378906,225.02000427246094)" opacity="1" style="display: block;"><g opacity="1" transform="matrix(1,0,0,1,0,0)"><path stroke-linecap="round" stroke-linejoin="round" fill-opacity="0" stroke="rgb(8,168,138)" stroke-opacity="1" stroke-width="2.45" d=" M-9.925999641418457,-16.437000274658203 C-9.925999641418457,-16.437000274658203 -9.925999641418457,-22.229000091552734 -9.925999641418457,-22.229000091552734 C-9.925999641418457,-22.229000091552734 -0.9909999966621399,-22.229000091552734 -0.9909999966621399,-22.229000091552734 C-0.9909999966621399,-22.229000091552734 -0.9909999966621399,-8.105999946594238 -0.9909999966621399,-8.105999946594238"/></g></g><g transform="matrix(5.275599956512451,0,0,5.275599956512451,325.0899963378906,225.02000427246094)" opacity="1" style="display: block;"><g opacity="1" transform="matrix(1,0,0,1,0,0)"><path stroke-linecap="round" stroke-linejoin="round" fill-opacity="0" stroke="rgb(8,168,138)" stroke-opacity="1" stroke-width="2.45" d=" M-28.242000579833984,35.91699981689453 C-28.242000579833984,35.91699981689453 -28.242000579833984,9.715999603271484 -28.242000579833984,9.715999603271484 C-28.242000579833984,9.715999603271484 -12.387999534606934,9.715999603271484 -12.387999534606934,9.715999603271484 C-12.387999534606934,9.715999603271484 -12.387999534606934,35.91699981689453 -12.387999534606934,35.91699981689453"/></g><g opacity="1" transform="matrix(1,0,0,1,0,0)"><path stroke-linecap="round" stroke-linejoin="round" fill-opacity="0" stroke="rgb(18,19,49)" stroke-opacity="1" stroke-width="2.45" d=" M-51.58100128173828,3.2839999198913574 C-51.58100128173828,3.2839999198913574 -20.315000534057617,-25.29400062561035 -20.315000534057617,-25.29400062561035 C-20.315000534057617,-25.29400062561035 10.51099967956543,3.2839999198913574 10.51099967956543,3.2839999198913574"/></g><g opacity="1" transform="matrix(1,0,0,1,0,0)"><path stroke-linecap="round" stroke-linejoin="round" fill-opacity="0" stroke="rgb(18,19,49)" stroke-opacity="1" stroke-width="2.45" d=" M-45.71200180053711,-1.2940000295639038 C-45.71200180053711,-1.2940000295639038 -45.71200180053711,35.91699981689453 -45.71200180053711,35.91699981689453 C-45.71200180053711,35.91699981689453 4.758999824523926,35.91699981689453 4.758999824523926,35.91699981689453 C4.758999824523926,35.91699981689453 4.75,-1.9930000305175781 4.75,-1.9930000305175781"/></g></g></g><g clip-path="url(#__lottie_element_29)" transform="matrix(1,0,0,1,35,35)" opacity="0" style="display: block;"><g clip-path="url(#__lottie_element_97)" transform="matrix(1,0,0,1,0,0)" opacity="1" style="display: block;"><g transform="matrix(1,0,0,1,294.5,272.5)" opacity="1" style="display: none;"><g opacity="1" transform="matrix(1,0,0,1,0,0)"><path stroke-linecap="round" stroke-linejoin="round" fill-opacity="0" stroke="rgb(8,168,138)" stroke-opacity="1" stroke-width="12" d=" M-210.5,33.5 C-210.5,33.5 -210.5,33.5 -210.5,33.5 M-210.5,33.5 C-210.5,33.5 -210.5,0 -210.5,0 C-210.5,0 -210.5,-33.5 -210.5,-33.5 C-210.5,-33.5 -210.5,-33.5 -210.5,-33.5 C-210.5,-33.5 -210.5,33.5 -210.5,33.5"/></g></g><g transform="matrix(1,0,0,1,137.5,272.5)" opacity="1" style="display: none;"><g opacity="1" transform="matrix(1,0,0,1,0,0)"><path stroke-linecap="round" stroke-linejoin="round" fill-opacity="0" stroke="rgb(8,168,138)" stroke-opacity="1" stroke-width="12" d=" M-54.5,33.5 C-54.5,33.5 -54.5,33.5 -54.5,33.5 M-54.5,33.5 C-54.5,33.5 -54.5,-33.5 -54.5,-33.5 C-54.5,-33.5 -54.5,-33.5 -54.5,-33.5 C-54.5,-33.5 -54.5,33.5 -54.5,33.5"/></g></g><g transform="matrix(1,0,0,1,215.5,273.5)" opacity="1" style="display: none;"><g opacity="1" transform="matrix(1,0,0,1,0,0)"><path stroke-linecap="round" stroke-linejoin="round" fill-opacity="0" stroke="rgb(8,168,138)" stroke-opacity="1" stroke-width="12" d=" M180.3749237060547,69.5 C180.3749237060547,69.5 180.3749237060547,2.5 180.3749237060547,2.5 M180.3749237060547,69.5 C180.3749237060547,69.5 180.3749237060547,2.5 180.3749237060547,2.5 M180.3749237060547,69.5 C180.3749237060547,69.5 180.3749237060547,2.5 180.3749237060547,2.5 M180.3749237060547,69.5 C180.3749237060547,69.5 180.3749237060547,2.5 180.3749237060547,2.5 M180.3749237060547,69.5 C180.3749237060547,69.5 180.3749237060547,2.5 180.3749237060547,2.5 M180.3749237060547,69.5 C180.3749237060547,69.5 180.3749237060547,2.5 180.3749237060547,2.5 M180.4999237060547,69.5 C180.4999237060547,69.5 158.50003051757812,69.5 158.50003051757812,69.5 M159.00003051757812,2.5 C159.00003051757812,2.5 159.00003051757812,-59.50001525878906 159.00003051757812,-59.50001525878906 C159.00003051757812,-59.50001525878906 159.00003051757812,-59.50001525878906 159.00003051757812,-59.50001525878906 C159.00003051757812,-59.50001525878906 159.00003051757812,2.5 159.00003051757812,2.5 M180.4999237060547,69.5 C180.4999237060547,69.5 180.4999237060547,2.5 180.4999237060547,2.5 C180.4999237060547,2.5 158.50003051757812,2.5 158.50003051757812,2.5 C158.50003051757812,2.5 158.50003051757812,69.5 158.50003051757812,69.5"/></g></g><g transform="matrix(5.275599956512451,0,0,5.275599956512451,583.4199829101562,190.02000427246094)" opacity="1" style="display: none;"><g opacity="1" transform="matrix(1,0,0,1,0,0)"><path stroke-linecap="round" stroke-linejoin="round" fill-opacity="0" stroke="rgb(18,19,49)" stroke-opacity="1" stroke-width="2.5" d=" M-94.60800170898438,35.91999816894531 C-94.60800170898438,35.91999816894531 -94.60800170898438,-1.8309999704360962 -94.60800170898438,-1.8309999704360962"/></g></g><g transform="matrix(5.275599956512451,0,0,5.275599956512451,325.0899963378906,190.02000427246094)" opacity="1" style="display: none;"><g opacity="1" transform="matrix(1,0,0,1,0,0)"><path stroke-linecap="round" stroke-linejoin="round" fill-opacity="0" stroke="rgb(18,19,49)" stroke-opacity="1" stroke-width="2.45" d=" M-20.315000534057617,-25.29400062561035 C-20.315000534057617,-25.29400062561035 10.51099967956543,3.2839999198913574 10.51099967956543,3.2839999198913574"/></g><g opacity="1" transform="matrix(1,0,0,1,0,0)"><path stroke-linecap="round" stroke-linejoin="round" fill-opacity="0" stroke="rgb(18,19,49)" stroke-opacity="1" stroke-width="2.45" d=" M-45.71200180053711,35.91699981689453 C-45.71200180053711,35.91699981689453 4.758999824523926,35.91699981689453 4.758999824523926,35.91699981689453 C4.758999824523926,35.91699981689453 4.75,-1.8680000305175781 4.75,-1.8680000305175781 C4.75,-1.8680000305175781 4.75,-1.9930000305175781 4.75,-1.9930000305175781"/></g></g><g transform="matrix(1,0,0,1,215.5,273.5)" opacity="1" style="display: none;"><g opacity="1" transform="matrix(1,0,0,1,0,0)"><path stroke-linecap="round" stroke-linejoin="round" fill-opacity="0" stroke="rgb(8,168,138)" stroke-opacity="1" stroke-width="12" d=" M-55.498809814453125,69.5 C-55.498809814453125,69.5 -55.498809814453125,2.5 -55.498809814453125,2.5 M-33.499000549316406,69.5 C-33.499000549316406,69.5 -33.499000549316406,2.5 -33.499000549316406,2.5 M-11.499044418334961,69.5 C-11.499044418334961,69.5 -11.499044418334961,2.5 -11.499044418334961,2.5 M11.500911712646484,69.5 C11.500911712646484,69.5 11.500911712646484,2.5 11.500911712646484,2.5 M33.50086975097656,69.5 C33.50086975097656,69.5 33.50086975097656,2.5 33.50086975097656,2.5 M55.50083541870117,69.5 C55.50083541870117,69.5 55.50083541870117,2.5 55.50083541870117,2.5 M77.50064086914062,69.5 C77.50064086914062,69.5 -77.49877166748047,69.5 -77.49877166748047,69.5 M40.50070571899414,2.5 C40.50070571899414,2.5 40.50070571899414,-69.49995422363281 40.50070571899414,-69.49995422363281 C40.50070571899414,-69.49995422363281 -43.49891662597656,-69.49995422363281 -43.49891662597656,-69.49995422363281 C-43.49891662597656,-69.49995422363281 -43.49891662597656,2.5 -43.49891662597656,2.5 M77.50064086914062,69.5 C77.50064086914062,69.5 77.50064086914062,2.5 77.50064086914062,2.5 C77.50064086914062,2.5 -77.49877166748047,2.5 -77.49877166748047,2.5 C-77.49877166748047,2.5 -77.49877166748047,69.5 -77.49877166748047,69.5"/></g></g><g transform="matrix(5.275599956512451,0,0,5.275599956512451,583.4199829101562,190.02000427246094)" opacity="1" style="display: none;"><g opacity="1" transform="matrix(1,0,0,1,0,0)"><path stroke-linecap="round" stroke-linejoin="round" fill-opacity="0" stroke="rgb(18,19,49)" stroke-opacity="1" stroke-width="2.5" d=" M-94.70500183105469,35.941001892089844 C-94.70500183105469,35.941001892089844 -94.75,35.84000015258789 -94.75,35.84000015258789 C-94.75,35.84000015258789 -94.75,-1.3420000076293945 -94.75,-1.3420000076293945"/></g></g><g transform="matrix(5.275599956512451,0,0,5.275599956512451,583.4199829101562,190.02000427246094)" opacity="1" style="display: none;"><g opacity="1" transform="matrix(1,0,0,1,0,0)"><path stroke-linecap="round" stroke-linejoin="round" fill-opacity="0" stroke="rgb(18,19,49)" stroke-opacity="1" stroke-width="2.5" d=" M-79.05317687988281,-16.625 C-79.05317687988281,-16.625 -69.44499969482422,-25.232999801635742 -69.44499969482422,-25.232999801635742 M-100.72100067138672,3.2260000705718994 C-100.72100067138672,3.2260000705718994 -88.05599975585938,-8.28499984741211 -88.05599975585938,-8.28499984741211"/></g></g><g transform="matrix(5.275599956512451,0,0,5.275599956512451,325.0899963378906,190.02000427246094)" opacity="1" style="display: block;"><g opacity="0" transform="matrix(1,0,0,1,0,0)"><path stroke-linecap="round" stroke-linejoin="round" fill-opacity="0" stroke="rgb(8,168,138)" stroke-opacity="1" stroke-width="2.45" d=" M-27.183000564575195,-14.454999923706055 C-27.183000564575195,-14.454999923706055 -27.183000564575195,-18.768999099731445 -27.183000564575195,-18.768999099731445 C-27.183000564575195,-18.768999099731445 -27.25200080871582,-18.768999099731445 -27.25200080871582,-18.768999099731445 C-27.25200080871582,-18.768999099731445 -27.25200080871582,-8.24899959564209 -27.25200080871582,-8.24899959564209"/></g><g opacity="1" transform="matrix(1,0,0,1,0,0)"><path stroke-linecap="round" stroke-linejoin="round" fill-opacity="0" stroke="rgb(8,168,138)" stroke-opacity="1" stroke-width="2.45" d="M0 0"/></g><g opacity="0" transform="matrix(1,0,0,1,0,0)"><path stroke-linecap="round" stroke-linejoin="round" fill-opacity="0" stroke="rgb(8,168,138)" stroke-opacity="1" stroke-width="2.45" d=" M-38.78300094604492,-6.558000087738037 C-38.78300094604492,-6.558000087738037 -38.80500030517578,-20.690000534057617 -38.80500030517578,-20.690000534057617 C-38.80500030517578,-20.690000534057617 -38.68600082397461,-20.634000778198242 -38.68600082397461,-20.634000778198242 C-38.68600082397461,-20.634000778198242 -38.65599822998047,-6.461999893188477 -38.65599822998047,-6.461999893188477"/></g></g><g transform="matrix(5.275599956512451,0,0,5.275599956512451,583.4199829101562,190.02000427246094)" opacity="1" style="display: none;"><g opacity="1" transform="matrix(1,0,0,1,0,0)"><path stroke-linecap="round" stroke-linejoin="round" fill-opacity="0" stroke="rgb(18,19,49)" stroke-opacity="1" stroke-width="2.5" d=" M-82.19300079345703,-13.482999801635742 C-90.73699951171875,-5.673999786376953 -100.36699676513672,3.128000020980835 -100.36699676513672,3.128000020980835 C-100.36699676513672,3.128000020980835 -100.36799621582031,3.128999948501587 -100.36799621582031,3.128999948501587 M-69.21700286865234,-25.357999801635742 C-69.21700286865234,-25.357999801635742 -69.25700378417969,-25.305999755859375 -69.25700378417969,-25.305999755859375 C-69.25700378417969,-25.305999755859375 -75.37999725341797,-19.709999084472656 -82.19300079345703,-13.482999801635742"/></g></g><g transform="matrix(5.275599956512451,0,0,5.275599956512451,325.0899963378906,190.02000427246094)" opacity="1" style="display: none;"><g opacity="1" transform="matrix(1,0,0,1,0,0)"><path stroke-linecap="round" stroke-linejoin="round" fill-opacity="0" stroke="rgb(8,168,138)" stroke-opacity="1" stroke-width="2.45" d=" M-27.182950973510742,-14.454999923706055 C-27.182950973510742,-14.454999923706055 -27.182950973510742,-18.769006729125977 -27.182950973510742,-18.769006729125977 C-27.182950973510742,-18.769006729125977 -27.25191879272461,-18.769006729125977 -27.25191879272461,-18.769006729125977 C-27.25191879272461,-18.769006729125977 -27.25191879272461,-8.24899959564209 -27.25191879272461,-8.24899959564209"/></g><g opacity="0" transform="matrix(1,0,0,1,0,0)"><path stroke-linecap="round" stroke-linejoin="round" fill-opacity="0" stroke="rgb(8,168,138)" stroke-opacity="1" stroke-width="2.45" d=" M-14.814000129699707,-14.5 C-14.814000129699707,-14.5 -14.814000129699707,-18.815000534057617 -14.814000129699707,-18.815000534057617 C-14.814000129699707,-18.815000534057617 -14.883000373840332,-18.815000534057617 -14.883000373840332,-18.815000534057617 C-14.883000373840332,-18.815000534057617 -14.883000373840332,-8.295000076293945 -14.883000373840332,-8.295000076293945"/></g><g opacity="1" transform="matrix(1,0,0,1,0,0)"><path stroke-linecap="round" stroke-linejoin="round" fill-opacity="0" stroke="rgb(8,168,138)" stroke-opacity="1" stroke-width="2.45" d=" M-27.360918045043945,-8.232999801635742 C-27.360918045043945,-8.232999801635742 -27.324918746948242,-18.764007568359375 -27.324918746948242,-18.764007568359375 C-27.324918746948242,-18.764007568359375 -14.811938285827637,-18.715007781982422 -14.811938285827637,-18.715007781982422 C-14.811938285827637,-18.715007781982422 -14.835938453674316,-8.145000457763672 -14.835938453674316,-8.145000457763672"/></g></g><g transform="matrix(5.275599956512451,0,0,5.275599956512451,325.0899963378906,190.02000427246094)" opacity="1" style="display: none;"><g opacity="1" transform="matrix(1,0,0,1,0,0)"><path stroke-linecap="round" stroke-linejoin="round" fill-opacity="0" stroke="rgb(8,168,138)" stroke-opacity="1" stroke-width="2.45" d=" M-9.925999641418457,-16.437000274658203 C-9.925999641418457,-16.437000274658203 -9.925999641418457,-22.229000091552734 -9.925999641418457,-22.229000091552734 C-9.925999641418457,-22.229000091552734 -0.9909999966621399,-22.229000091552734 -0.9909999966621399,-22.229000091552734 C-0.9909999966621399,-22.229000091552734 -0.9909999966621399,-8.105999946594238 -0.9909999966621399,-8.105999946594238"/></g></g><g transform="matrix(5.275599956512451,0,0,5.275599956512451,325.0899963378906,190.02000427246094)" opacity="1" style="display: none;"><g opacity="1" transform="matrix(1,0,0,1,0,0)"><path stroke-linecap="round" stroke-linejoin="round" fill-opacity="0" stroke="rgb(8,168,138)" stroke-opacity="1" stroke-width="2.45" d=" M-50.59374237060547,35.680999755859375 C-50.59374237060547,35.680999755859375 -50.59374237060547,9.80013370513916 -50.59374237060547,9.80013370513916 C-50.59374237060547,9.80013370513916 -50.62763214111328,9.80013370513916 -50.62763214111328,9.80013370513916 C-50.62763214111328,9.80013370513916 -50.62763214111328,35.680999755859375 -50.62763214111328,35.680999755859375"/></g><g opacity="1" transform="matrix(1,0,0,1,0,0)"><path stroke-linecap="round" stroke-linejoin="round" fill-opacity="0" stroke="rgb(18,19,49)" stroke-opacity="1" stroke-width="2.45" d=" M-56.12004852294922,3.255826711654663 C-56.12004852294922,3.255826711654663 -45.86733627319336,-25.5570125579834 -45.86733627319336,-25.5570125579834 C-45.86733627319336,-25.5570125579834 -56.255069732666016,3.255826711654663 -56.255069732666016,3.255826711654663"/></g><g opacity="1" transform="matrix(1,0,0,1,0,0)"><path stroke-linecap="round" stroke-linejoin="round" fill-opacity="0" stroke="rgb(18,19,49)" stroke-opacity="1" stroke-width="2.45" d=" M-50.55390167236328,3.5391733646392822 C-50.55390167236328,3.5391733646392822 -50.55390167236328,3.6341733932495117 -50.55390167236328,3.6341733932495117 C-50.55390167236328,3.6341733932495117 -50.55585479736328,35.680999755859375 -50.55585479736328,35.680999755859375 C-50.55585479736328,35.680999755859375 -50.665496826171875,35.680999755859375 -50.665496826171875,35.680999755859375 C-50.665496826171875,35.680999755859375 -50.663543701171875,3.596994638442993 -50.663543701171875,3.596994638442993"/></g></g><g transform="matrix(5.275599956512451,0,0,5.275599956512451,325.0899963378906,190.02000427246094)" opacity="1" style="display: block;"><g opacity="1" transform="matrix(1,0,0,1,0,0)"><path stroke-linecap="round" stroke-linejoin="round" fill-opacity="0" stroke="rgb(18,19,49)" stroke-opacity="1" stroke-width="2.45" d=" M-55.965999603271484,-1.85396409034729 C-55.965999603271484,-1.85396409034729 -55.80894470214844,-1.7384003400802612 -55.80894470214844,-1.7384003400802612 C-55.80894470214844,-1.7384003400802612 -55.81282043457031,35.91012191772461 -55.81282043457031,35.91012191772461"/></g></g><g transform="matrix(5.275599956512451,0,0,5.275599956512451,325.0899963378906,190.02000427246094)" opacity="1" style="display: none;"><g opacity="1" transform="matrix(1,0,0,1,0,0)"><path stroke-linecap="round" stroke-linejoin="round" fill-opacity="0" stroke="rgb(8,168,138)" stroke-opacity="1" stroke-width="2.45" d=" M-28.242000579833984,35.91699981689453 C-28.242000579833984,35.91699981689453 -28.242000579833984,9.715999603271484 -28.242000579833984,9.715999603271484 C-28.242000579833984,9.715999603271484 -12.387999534606934,9.715999603271484 -12.387999534606934,9.715999603271484 C-12.387999534606934,9.715999603271484 -12.387999534606934,35.91699981689453 -12.387999534606934,35.91699981689453"/></g></g><g transform="matrix(1,0,0,1,215.5,273.5)" opacity="1" style="display: block;"><g opacity="1" transform="matrix(1,0,0,1,0,0)"><path stroke-linecap="round" stroke-linejoin="round" fill-opacity="0" stroke="rgb(8,168,138)" stroke-opacity="1" stroke-width="12" d=" M-149.64718627929688,69.5 C-149.64718627929688,69.5 -149.64718627929688,2.5 -149.64718627929688,2.5 M-131.92967224121094,69.5 C-131.92967224121094,69.5 -131.92967224121094,2.5 -131.92967224121094,2.5 M-115.43634796142578,69.5 C-115.43634796142578,69.5 -115.43634796142578,2.5 -115.43634796142578,2.5 M-98.19355773925781,69.5 C-98.19355773925781,69.5 -98.19355773925781,2.5 -98.19355773925781,2.5 M-81.44686126708984,69.5 C-81.44686126708984,69.5 -81.44686126708984,2.5 -81.44686126708984,2.5 M-81.68956756591797,69.5 C-81.68956756591797,69.5 -81.68956756591797,2.5 -81.68956756591797,2.5 M-62.973388671875,69.5 C-62.973388671875,69.5 -149.40447998046875,69.5 -149.40447998046875,69.5 M-80.67632293701172,2.5 C-80.67632293701172,2.5 -80.67632293701172,-67.31299591064453 -80.67632293701172,-67.31299591064453 C-80.67632293701172,-67.31299591064453 -121.57954406738281,-67.31299591064453 -121.57954406738281,-67.31299591064453 C-121.57954406738281,-67.31299591064453 -121.57954406738281,2.5 -121.57954406738281,2.5 M-62.973388671875,69.5 C-62.973388671875,69.5 -62.973388671875,2.5 -62.973388671875,2.5 C-62.973388671875,2.5 -149.40447998046875,2.5 -149.40447998046875,2.5 C-149.40447998046875,2.5 -149.40447998046875,69.5 -149.40447998046875,69.5"/></g></g><g transform="matrix(1,0,0,1,294.5,272.5)" opacity="1" style="display: block;"><g opacity="1" transform="matrix(1,0,0,1,0,0)"><path stroke-linecap="round" stroke-linejoin="round" fill-opacity="0" stroke="rgb(8,168,138)" stroke-opacity="1" stroke-width="12" d=" M58.25598907470703,33.5 C58.25598907470703,33.5 23.778566360473633,33.5 23.778566360473633,33.5 M58.25598907470703,33.5 C58.25598907470703,33.5 58.25598907470703,0 58.25598907470703,0 C58.25598907470703,0 58.25598907470703,-33.5 58.25598907470703,-33.5 C58.25598907470703,-33.5 23.778566360473633,-33.5 23.778566360473633,-33.5 C23.778566360473633,-33.5 23.778566360473633,33.5 23.778566360473633,33.5"/></g></g><g transform="matrix(1,0,0,1,137.5,272.5)" opacity="1" style="display: block;"><g opacity="1" transform="matrix(1,0,0,1,0,0)"><path stroke-linecap="round" stroke-linejoin="round" fill-opacity="0" stroke="rgb(8,168,138)" stroke-opacity="1" stroke-width="12" d=" M147.57171630859375,33.5 C147.57171630859375,33.5 113.09429931640625,33.5 113.09429931640625,33.5 M147.57171630859375,33.5 C147.57171630859375,33.5 147.57171630859375,-33.5 147.57171630859375,-33.5 C147.57171630859375,-33.5 113.09429931640625,-33.5 113.09429931640625,-33.5 C113.09429931640625,-33.5 113.09429931640625,33.5 113.09429931640625,33.5"/></g></g><g transform="matrix(5.275599956512451,0,0,5.275599956512451,583.4199829101562,190.02000427246094)" opacity="1" style="display: none;"><g opacity="1" transform="matrix(1,0,0,1,0,0)"><path stroke-linecap="round" stroke-linejoin="round" fill-opacity="0" stroke="rgb(0,0,0)" stroke-opacity="1" stroke-width="2.5" d=" M-94.60800170898438,35.91999816894531 C-94.60800170898438,35.91999816894531 -94.60800170898438,-1.8309999704360962 -94.60800170898438,-1.8309999704360962"/></g></g><g transform="matrix(5.275599956512451,0,0,5.275599956512451,325.0899963378906,190.02000427246094)" opacity="1" style="display: none;"><g opacity="1" transform="matrix(1,0,0,1,0,0)"><path stroke-linecap="round" stroke-linejoin="round" fill-opacity="0" stroke="rgb(18,19,49)" stroke-opacity="1" stroke-width="2.45" d=" M-20.315000534057617,-25.29400062561035 C-20.315000534057617,-25.29400062561035 10.51099967956543,3.2839999198913574 10.51099967956543,3.2839999198913574"/></g><g opacity="1" transform="matrix(1,0,0,1,0,0)"><path stroke-linecap="round" stroke-linejoin="round" fill-opacity="0" stroke="rgb(18,19,49)" stroke-opacity="1" stroke-width="2.45" d=" M-45.71200180053711,35.91699981689453 C-45.71200180053711,35.91699981689453 4.758999824523926,35.91699981689453 4.758999824523926,35.91699981689453 C4.758999824523926,35.91699981689453 4.75,-1.8680000305175781 4.75,-1.8680000305175781 C4.75,-1.8680000305175781 4.75,-1.9930000305175781 4.75,-1.9930000305175781"/></g></g><g transform="matrix(5.275599956512451,0,0,5.275599956512451,583.4199829101562,190.02000427246094)" opacity="1" style="display: block;"><g opacity="1" transform="matrix(1,0,0,1,0,0)"><path stroke-linecap="round" stroke-linejoin="round" fill-opacity="0" stroke="rgb(18,19,49)" stroke-opacity="1" stroke-width="2.5" d=" M-69.8102798461914,35.9441032409668 C-69.8102798461914,35.9441032409668 -38.30171585083008,35.84600067138672 -38.30171585083008,35.84600067138672 C-38.30171585083008,35.84600067138672 -38.30171585083008,3.2130000591278076 -38.30171585083008,3.2130000591278076"/></g></g><g transform="matrix(5.275599956512451,0,0,5.275599956512451,583.4199829101562,190.02000427246094)" opacity="1" style="display: block;"><g opacity="1" transform="matrix(1,0,0,1,0,0)"><path stroke-linecap="round" stroke-linejoin="round" fill-opacity="0" stroke="rgb(18,19,49)" stroke-opacity="1" stroke-width="2.5" d=" M-87.07727813720703,-25.381000518798828 C-87.07727813720703,-25.381000518798828 -52.84357833862305,-25.31757926940918 -52.84357833862305,-25.31757926940918 C-52.84357833862305,-25.31757926940918 -32.367774963378906,3.196000099182129 -32.367774963378906,3.196000099182129 C-32.367774963378906,3.196000099182129 -66.32918548583984,3.3709497451782227 -66.32918548583984,3.3709497451782227"/></g></g><g transform="matrix(5.275599956512451,0,0,5.275599956512451,583.4199829101562,190.02000427246094)" opacity="1" style="display: none;"><g opacity="1" transform="matrix(1,0,0,1,0,0)"><path stroke-linecap="round" stroke-linejoin="round" fill-opacity="0" stroke="rgb(18,19,49)" stroke-opacity="1" stroke-width="2.5" d=" M-100.72100067138672,3.2260000705718994 C-100.72100067138672,3.2260000705718994 -69.3499984741211,-25.327999114990234 -69.3499984741211,-25.327999114990234"/></g></g><g transform="matrix(5.275599956512451,0,0,5.275599956512451,325.0899963378906,190.02000427246094)" opacity="1" style="display: block;"><g opacity="1" transform="matrix(1,0,0,1,0,0)"><path stroke-linecap="round" stroke-linejoin="round" fill-opacity="0" stroke="rgb(18,19,49)" stroke-opacity="1" stroke-width="2.45" d=" M-55.81282043457031,35.91012191772461 C-55.81282043457031,35.91012191772461 -21.304244995117188,35.91012191772461 -21.304244995117188,35.91012191772461 C-21.304244995117188,35.91012191772461 -21.311368942260742,-1.5730738639831543 -21.311368942260742,-1.5730738639831543"/></g></g><g transform="matrix(5.275599956512451,0,0,5.275599956512451,325.0899963378906,190.02000427246094)" opacity="1" style="display: block;"><g opacity="1" transform="matrix(1,0,0,1,0,0)"><path stroke-linecap="round" stroke-linejoin="round" fill-opacity="0" stroke="rgb(18,19,49)" stroke-opacity="1" stroke-width="2.45" d=" M-59.987125396728516,3.283153772354126 C-59.987125396728516,3.283153772354126 -38.316715240478516,-25.301849365234375 -38.316715240478516,-25.301849365234375 C-38.316715240478516,-25.301849365234375 -17.53502655029297,3.283153772354126 -17.53502655029297,3.283153772354126"/></g></g></g></g><g clip-path="url(#__lottie_element_33)" transform="matrix(1,0,0,1,35,35)" opacity="0" style="display: block;"><g clip-path="url(#__lottie_element_107)" transform="matrix(1,0,0,1,0,0)" opacity="1" style="display: block;"><g transform="matrix(1,0,0,1,294.5,272.5)" opacity="1" style="display: none;"><g opacity="1" transform="matrix(1,0,0,1,0,0)"><path stroke-linecap="round" stroke-linejoin="round" fill-opacity="0" stroke="rgb(8,168,138)" stroke-opacity="1" stroke-width="12" d=" M-206.35975646972656,33.5 C-206.35975646972656,33.5 -207.86734008789062,33.5 -207.86734008789062,33.5 M-206.35975646972656,33.5 C-206.35975646972656,33.5 -206.35975646972656,0 -206.35975646972656,0 C-206.35975646972656,0 -206.35975646972656,-33.5 -206.35975646972656,-33.5 C-206.35975646972656,-33.5 -207.86734008789062,-33.5 -207.86734008789062,-33.5 C-207.86734008789062,-33.5 -207.86734008789062,33.5 -207.86734008789062,33.5"/></g></g><g transform="matrix(1,0,0,1,137.5,272.5)" opacity="1" style="display: none;"><g opacity="1" transform="matrix(1,0,0,1,0,0)"><path stroke-linecap="round" stroke-linejoin="round" fill-opacity="0" stroke="rgb(8,168,138)" stroke-opacity="1" stroke-width="12" d=" M-53.41993713378906,33.5 C-53.41993713378906,33.5 -54.92752456665039,33.5 -54.92752456665039,33.5 M-53.41993713378906,33.5 C-53.41993713378906,33.5 -53.41993713378906,-33.5 -53.41993713378906,-33.5 C-53.41993713378906,-33.5 -54.92752456665039,-33.5 -54.92752456665039,-33.5 C-54.92752456665039,-33.5 -54.92752456665039,33.5 -54.92752456665039,33.5"/></g></g><g transform="matrix(1,0,0,1,215.5,273.5)" opacity="1" style="display: none;"><g opacity="1" transform="matrix(1,0,0,1,0,0)"><path stroke-linecap="round" stroke-linejoin="round" fill-opacity="0" stroke="rgb(8,168,138)" stroke-opacity="1" stroke-width="12" d=" M179.7627716064453,69.5 C179.7627716064453,69.5 179.7627716064453,2.5 179.7627716064453,2.5 M179.7627716064453,69.5 C179.7627716064453,69.5 179.7627716064453,2.5 179.7627716064453,2.5 M179.7627716064453,69.5 C179.7627716064453,69.5 179.7627716064453,2.5 179.7627716064453,2.5 M179.7627716064453,69.5 C179.7627716064453,69.5 179.7627716064453,2.5 179.7627716064453,2.5 M179.7627716064453,69.5 C179.7627716064453,69.5 179.7627716064453,2.5 179.7627716064453,2.5 M179.7627716064453,69.5 C179.7627716064453,69.5 179.7627716064453,2.5 179.7627716064453,2.5 M179.88262939453125,69.5 C179.88262939453125,69.5 158.78811645507812,69.5 158.78811645507812,69.5 M159.2675323486328,2.5 C159.2675323486328,2.5 159.2675323486328,-59.62347412109375 159.2675323486328,-59.62347412109375 C159.2675323486328,-59.62347412109375 159.2675323486328,-59.62347412109375 159.2675323486328,-59.62347412109375 C159.2675323486328,-59.62347412109375 159.2675323486328,2.5 159.2675323486328,2.5 M179.88262939453125,69.5 C179.88262939453125,69.5 179.88262939453125,2.5 179.88262939453125,2.5 C179.88262939453125,2.5 158.78811645507812,2.5 158.78811645507812,2.5 C158.78811645507812,2.5 158.78811645507812,69.5 158.78811645507812,69.5"/></g></g><g transform="matrix(5.275599956512451,0,0,5.275599956512451,583.4199829101562,190.02000427246094)" opacity="1" style="display: none;"><g opacity="1" transform="matrix(1,0,0,1,0,0)"><path stroke-linecap="round" stroke-linejoin="round" fill-opacity="0" stroke="rgb(18,19,49)" stroke-opacity="1" stroke-width="2.5" d=" M-94.9149169921875,35.91775131225586 C-94.9149169921875,35.91775131225586 -94.9149169921875,-0.6816322803497314 -94.9149169921875,-0.6816322803497314"/></g></g><g transform="matrix(5.275599956512451,0,0,5.275599956512451,325.0899963378906,190.02000427246094)" opacity="1" style="display: none;"><g opacity="1" transform="matrix(1,0,0,1,0,0)"><path stroke-linecap="round" stroke-linejoin="round" fill-opacity="0" stroke="rgb(18,19,49)" stroke-opacity="1" stroke-width="2.45" d=" M-19.581411361694336,-25.29746437072754 C-19.581411361694336,-25.29746437072754 10.860715866088867,3.278554677963257 10.860715866088867,3.278554677963257"/></g><g opacity="1" transform="matrix(1,0,0,1,0,0)"><path stroke-linecap="round" stroke-linejoin="round" fill-opacity="0" stroke="rgb(18,19,49)" stroke-opacity="1" stroke-width="2.45" d=" M-44.60308837890625,35.912906646728516 C-44.60308837890625,35.912906646728516 5.194085597991943,35.91281509399414 5.194085597991943,35.91281509399414 C5.194085597991943,35.91281509399414 5.186300754547119,-1.804186224937439 5.186300754547119,-1.804186224937439 C5.186300754547119,-1.804186224937439 5.186300754547119,-1.9290062189102173 5.186300754547119,-1.9290062189102173"/></g></g><g transform="matrix(1,0,0,1,215.5,273.5)" opacity="1" style="display: none;"><g opacity="1" transform="matrix(1,0,0,1,0,0)"><path stroke-linecap="round" stroke-linejoin="round" fill-opacity="0" stroke="rgb(8,168,138)" stroke-opacity="1" stroke-width="12" d=" M-49.49214553833008,69.5 C-49.49214553833008,69.5 -49.49214553833008,2.5 -49.49214553833008,2.5 M-28.470277786254883,69.5 C-28.470277786254883,69.5 -28.470277786254883,2.5 -28.470277786254883,2.5 M-6.681206226348877,69.5 C-6.681206226348877,69.5 -6.681206226348877,2.5 -6.681206226348877,2.5 M16.0985050201416,69.5 C16.0985050201416,69.5 16.0985050201416,2.5 16.0985050201416,2.5 M37.887760162353516,69.5 C37.887760162353516,69.5 37.887760162353516,2.5 37.887760162353516,2.5 M59.716209411621094,69.5 C59.716209411621094,69.5 59.716209411621094,2.5 59.716209411621094,2.5 M80.71768951416016,69.5 C80.71768951416016,69.5 -71.28963470458984,69.5 -71.28963470458984,69.5 M44.06645965576172,2.5 C44.06645965576172,2.5 44.06645965576172,-69.27498626708984 44.06645965576172,-69.27498626708984 C44.06645965576172,-69.27498626708984 -38.04343032836914,-69.27498626708984 -38.04343032836914,-69.27498626708984 C-38.04343032836914,-69.27498626708984 -38.04343032836914,2.5 -38.04343032836914,2.5 M80.71768951416016,69.5 C80.71768951416016,69.5 80.71768951416016,2.5 80.71768951416016,2.5 C80.71768951416016,2.5 -71.28963470458984,2.5 -71.28963470458984,2.5 C-71.28963470458984,2.5 -71.28963470458984,69.5 -71.28963470458984,69.5"/></g></g><g transform="matrix(5.275599956512451,0,0,5.275599956512451,583.4199829101562,190.02000427246094)" opacity="1" style="display: none;"><g opacity="1" transform="matrix(1,0,0,1,0,0)"><path stroke-linecap="round" stroke-linejoin="round" fill-opacity="0" stroke="rgb(18,19,49)" stroke-opacity="1" stroke-width="2.5" d=" M-94.92677307128906,35.93830108642578 C-94.92677307128906,35.93830108642578 -93.64104461669922,35.84027099609375 -93.64104461669922,35.84027099609375 C-93.64104461669922,35.84027099609375 -93.64104461669922,-1.3630611896514893 -93.64104461669922,-1.3630611896514893"/></g></g><g transform="matrix(5.275599956512451,0,0,5.275599956512451,583.4199829101562,190.02000427246094)" opacity="1" style="display: none;"><g opacity="1" transform="matrix(1,0,0,1,0,0)"><path stroke-linecap="round" stroke-linejoin="round" fill-opacity="0" stroke="rgb(18,19,49)" stroke-opacity="1" stroke-width="2.5" d=" M-78.89959716796875,-17.43572235107422 C-78.89959716796875,-17.43572235107422 -70.2084732055664,-25.23907470703125 -70.2084732055664,-25.23907470703125 M-101.0195541381836,3.230111598968506 C-101.0195541381836,3.230111598968506 -88.175048828125,-8.786186218261719 -88.175048828125,-8.786186218261719"/></g></g><g transform="matrix(5.275599956512451,0,0,5.275599956512451,325.0899963378906,190.02000427246094)" opacity="1" style="display: none;"><g opacity="0" transform="matrix(1,0,0,1,0,0)"><path stroke-linecap="round" stroke-linejoin="round" fill-opacity="0" stroke="rgb(8,168,138)" stroke-opacity="1" stroke-width="2.45" d=" M-27.183000564575195,-14.454999923706055 C-27.183000564575195,-14.454999923706055 -27.183000564575195,-18.768999099731445 -27.183000564575195,-18.768999099731445 C-27.183000564575195,-18.768999099731445 -27.25200080871582,-18.768999099731445 -27.25200080871582,-18.768999099731445 C-27.25200080871582,-18.768999099731445 -27.25200080871582,-8.24899959564209 -27.25200080871582,-8.24899959564209"/></g><g opacity="1" transform="matrix(1,0,0,1,0,0)"><path stroke-linecap="round" stroke-linejoin="round" fill-opacity="0" stroke="rgb(8,168,138)" stroke-opacity="1" stroke-width="2.45" d="M0 0"/></g><g opacity="0" transform="matrix(1,0,0,1,0,0)"><path stroke-linecap="round" stroke-linejoin="round" fill-opacity="0" stroke="rgb(8,168,138)" stroke-opacity="1" stroke-width="2.45" d=" M-38.78300094604492,-6.558000087738037 C-38.78300094604492,-6.558000087738037 -38.80500030517578,-20.690000534057617 -38.80500030517578,-20.690000534057617 C-38.80500030517578,-20.690000534057617 -38.68600082397461,-20.634000778198242 -38.68600082397461,-20.634000778198242 C-38.68600082397461,-20.634000778198242 -38.65599822998047,-6.461999893188477 -38.65599822998047,-6.461999893188477"/></g></g><g transform="matrix(5.275599956512451,0,0,5.275599956512451,583.4199829101562,190.02000427246094)" opacity="1" style="display: none;"><g opacity="1" transform="matrix(1,0,0,1,0,0)"><path stroke-linecap="round" stroke-linejoin="round" fill-opacity="0" stroke="rgb(18,19,49)" stroke-opacity="1" stroke-width="2.5" d=" M-81.14399719238281,-13.605999946594238 C-89.5979995727539,-5.765999794006348 -99.19000244140625,3.130000114440918 -99.19000244140625,3.130000114440918 C-99.1898193359375,3.1300251483917236 -100.68603515625,3.138315439224243 -100.68603515625,3.138315439224243 M-69.9761962890625,-25.357955932617188 C-69.9761962890625,-25.357955932617188 -68.52980041503906,-25.303930282592773 -68.52980041503906,-25.303930282592773 C-68.52999877929688,-25.304000854492188 -74.48400115966797,-19.781999588012695 -81.14399719238281,-13.605999946594238"/></g></g><g transform="matrix(5.275599956512451,0,0,5.275599956512451,325.0899963378906,190.02000427246094)" opacity="1" style="display: none;"><g opacity="1" transform="matrix(1,0,0,1,0,0)"><path stroke-linecap="round" stroke-linejoin="round" fill-opacity="0" stroke="rgb(8,168,138)" stroke-opacity="1" stroke-width="2.45" d=" M-26.751235961914062,-14.457427024841309 C-26.751235961914062,-14.457427024841309 -26.751235961914062,-18.830230712890625 -26.751235961914062,-18.830230712890625 C-26.751235961914062,-18.830230712890625 -26.545867919921875,-18.830230712890625 -26.545867919921875,-18.830230712890625 C-26.545867919921875,-18.830230712890625 -26.545867919921875,-8.244146347045898 -26.545867919921875,-8.244146347045898"/></g><g opacity="0" transform="matrix(1,0,0,1,0,0)"><path stroke-linecap="round" stroke-linejoin="round" fill-opacity="0" stroke="rgb(8,168,138)" stroke-opacity="1" stroke-width="2.45" d=" M-14.814000129699707,-14.5 C-14.814000129699707,-14.5 -14.814000129699707,-18.815000534057617 -14.814000129699707,-18.815000534057617 C-14.814000129699707,-18.815000534057617 -14.883000373840332,-18.815000534057617 -14.883000373840332,-18.815000534057617 C-14.883000373840332,-18.815000534057617 -14.883000373840332,-8.295000076293945 -14.883000373840332,-8.295000076293945"/></g><g opacity="1" transform="matrix(1,0,0,1,0,0)"><path stroke-linecap="round" stroke-linejoin="round" fill-opacity="0" stroke="rgb(8,168,138)" stroke-opacity="1" stroke-width="2.45" d=" M-26.6511287689209,-8.232999801635742 C-26.6511287689209,-8.232999801635742 -26.6160831451416,-18.828096389770508 -26.6160831451416,-18.828096389770508 C-26.6160831451416,-18.828096389770508 -14.280292510986328,-18.779294967651367 -14.280292510986328,-18.779294967651367 C-14.280292510986328,-18.779294967651367 -14.303337097167969,-8.145198822021484 -14.303337097167969,-8.145198822021484"/></g></g><g transform="matrix(5.275599956512451,0,0,5.275599956512451,325.0899963378906,190.02000427246094)" opacity="1" style="display: block;"><g opacity="1" transform="matrix(1,0,0,1,0,0)"><path stroke-linecap="round" stroke-linejoin="round" fill-opacity="0" stroke="rgb(8,168,138)" stroke-opacity="1" stroke-width="2.45" d="M0 0"/></g></g><g transform="matrix(5.275599956512451,0,0,5.275599956512451,325.0899963378906,190.02000427246094)" opacity="1" style="display: none;"><g opacity="1" transform="matrix(1,0,0,1,0,0)"><path stroke-linecap="round" stroke-linejoin="round" fill-opacity="0" stroke="rgb(8,168,138)" stroke-opacity="1" stroke-width="2.45" d=" M-50.279991149902344,35.69038772583008 C-50.279991149902344,35.69038772583008 -50.279991149902344,9.715999603271484 -50.279991149902344,9.715999603271484 C-50.279991149902344,9.715999603271484 -49.86838150024414,9.715999603271484 -49.86838150024414,9.715999603271484 C-49.86838150024414,9.715999603271484 -49.86838150024414,35.69038772583008 -49.86838150024414,35.69038772583008"/></g><g opacity="1" transform="matrix(1,0,0,1,0,0)"><path stroke-linecap="round" stroke-linejoin="round" fill-opacity="0" stroke="rgb(18,19,49)" stroke-opacity="1" stroke-width="2.45" d=" M-56.225738525390625,3.2561538219451904 C-56.225738525390625,3.2561538219451904 -45.74266052246094,-25.552297592163086 -45.74266052246094,-25.552297592163086 C-45.74266052246094,-25.552297592163086 -54.615421295166016,3.2561538219451904 -54.615421295166016,3.2561538219451904"/></g><g opacity="1" transform="matrix(1,0,0,1,0,0)"><path stroke-linecap="round" stroke-linejoin="round" fill-opacity="0" stroke="rgb(18,19,49)" stroke-opacity="1" stroke-width="2.45" d=" M-50.7153205871582,3.5399999618530273 C-50.7153205871582,3.5399999618530273 -50.7153205871582,3.634999990463257 -50.7153205871582,3.634999990463257 C-50.7153205871582,3.634999990463257 -50.73283767700195,35.69015121459961 -50.73283767700195,35.69015121459961 C-50.73283767700195,35.69015121459961 -49.42444610595703,35.69015121459961 -49.42444610595703,35.69015121459961 C-49.42444610595703,35.69015121459961 -49.428810119628906,3.609935998916626 -49.428810119628906,3.609935998916626"/></g></g><g transform="matrix(5.275599956512451,0,0,5.275599956512451,325.0899963378906,190.02000427246094)" opacity="1" style="display: none;"><g opacity="1" transform="matrix(1,0,0,1,0,0)"><path stroke-linecap="round" stroke-linejoin="round" fill-opacity="0" stroke="rgb(18,19,49)" stroke-opacity="1" stroke-width="2.45" d=" M-50.5172119140625,3.539933443069458 C-50.5172119140625,3.539933443069458 -50.5172119140625,3.6349334716796875 -50.5172119140625,3.6349334716796875 C-50.5172119140625,3.6349334716796875 -50.51920700073242,35.680999755859375 -50.51920700073242,35.680999755859375"/></g></g><g transform="matrix(5.275599956512451,0,0,5.275599956512451,325.0899963378906,190.02000427246094)" opacity="1" style="display: block;"><g opacity="1" transform="matrix(1,0,0,1,0,0)"><path stroke-linecap="round" stroke-linejoin="round" fill-opacity="0" stroke="rgb(8,168,138)" stroke-opacity="1" stroke-width="2.45" d=" M-12.021496772766113,35.80494689941406 C-12.021496772766113,35.80494689941406 -12.021496772766113,9.603130340576172 -12.021496772766113,9.603130340576172 C-12.021496772766113,9.603130340576172 -0.0017908848822116852,9.603130340576172 -0.0017908848822116852,9.603130340576172 C-0.0017908848822116852,9.603130340576172 -0.0017908848822116852,35.80494689941406 -0.0017908848822116852,35.80494689941406"/></g></g><g transform="matrix(1,0,0,1,215.5,273.5)" opacity="1" style="display: none;"><g opacity="1" transform="matrix(1,0,0,1,0,0)"><path stroke-linecap="round" stroke-linejoin="round" fill-opacity="0" stroke="rgb(8,168,138)" stroke-opacity="1" stroke-width="12" d=" M-167.43800354003906,69.5 C-167.43800354003906,69.5 -167.43800354003906,2.5 -167.43800354003906,2.5 M-167.43800354003906,69.5 C-167.43800354003906,69.5 -167.43800354003906,2.5 -167.43800354003906,2.5 M-167.43800354003906,69.5 C-167.43800354003906,69.5 -167.43800354003906,2.5 -167.43800354003906,2.5 M-167.43800354003906,69.5 C-167.43800354003906,69.5 -167.43800354003906,2.5 -167.43800354003906,2.5 M-167.43800354003906,69.5 C-167.43800354003906,69.5 -167.43800354003906,2.5 -167.43800354003906,2.5 M-167.43800354003906,69.5 C-167.43800354003906,69.5 -167.43800354003906,2.5 -167.43800354003906,2.5 M-167.6820068359375,69.5 C-167.6820068359375,69.5 -167.43800354003906,69.5 -167.43800354003906,69.5 M-167.68800354003906,2.5 C-167.68800354003906,2.5 -167.68800354003906,-62.75 -167.68800354003906,-62.75 C-167.68800354003906,-62.75 -167.68499755859375,-62.75 -167.68499755859375,-62.75 C-167.68499755859375,-62.75 -167.68499755859375,2.5 -167.68499755859375,2.5 M-167.6820068359375,69.5 C-167.6820068359375,69.5 -167.6820068359375,2.5 -167.6820068359375,2.5 C-167.6820068359375,2.5 -167.43800354003906,2.5 -167.43800354003906,2.5 C-167.43800354003906,2.5 -167.43800354003906,69.5 -167.43800354003906,69.5"/></g></g><g transform="matrix(1,0,0,1,294.5,272.5)" opacity="1" style="display: block;"><g opacity="1" transform="matrix(1,0,0,1,0,0)"><path stroke-linecap="round" stroke-linejoin="round" fill-opacity="0" stroke="rgb(8,168,138)" stroke-opacity="1" stroke-width="12" d=" M-135.2536163330078,33.5 C-135.2536163330078,33.5 -162.6531219482422,33.5 -162.6531219482422,33.5 M-135.2536163330078,33.5 C-135.2536163330078,33.5 -135.2536163330078,0 -135.2536163330078,0 C-135.2536163330078,0 -135.2536163330078,-33.5 -135.2536163330078,-33.5 C-135.2536163330078,-33.5 -162.6531219482422,-33.5 -162.6531219482422,-33.5 C-162.6531219482422,-33.5 -162.6531219482422,33.5 -162.6531219482422,33.5"/></g></g><g transform="matrix(1,0,0,1,137.5,272.5)" opacity="1" style="display: block;"><g opacity="1" transform="matrix(1,0,0,1,0,0)"><path stroke-linecap="round" stroke-linejoin="round" fill-opacity="0" stroke="rgb(8,168,138)" stroke-opacity="1" stroke-width="12" d=" M-34.87051010131836,33.5 C-34.87051010131836,33.5 -62.2700080871582,33.5 -62.2700080871582,33.5 M-34.87051010131836,33.5 C-34.87051010131836,33.5 -34.87051010131836,-33.5 -34.87051010131836,-33.5 C-34.87051010131836,-33.5 -62.2700080871582,-33.5 -62.2700080871582,-33.5 C-62.2700080871582,-33.5 -62.2700080871582,33.5 -62.2700080871582,33.5"/></g></g><g transform="matrix(5.275599956512451,0,0,5.275599956512451,583.4199829101562,190.02000427246094)" opacity="1" style="display: block;"><g opacity="1" transform="matrix(1,0,0,1,0,0)"><path stroke-linecap="round" stroke-linejoin="round" fill-opacity="0" stroke="rgb(0,0,0)" stroke-opacity="1" stroke-width="2.5" d=" M-100.18836212158203,35.879878997802734 C-100.18836212158203,35.879878997802734 -100.18836212158203,3.246105194091797 -100.18836212158203,3.246105194091797"/></g></g><g transform="matrix(5.275599956512451,0,0,5.275599956512451,325.0899963378906,190.02000427246094)" opacity="1" style="display: block;"><g opacity="1" transform="matrix(1,0,0,1,0,0)"><path stroke-linecap="round" stroke-linejoin="round" fill-opacity="0" stroke="rgb(18,19,49)" stroke-opacity="1" stroke-width="2.45" d=" M-6.982485771179199,-25.356977462768555 C-6.982485771179199,-25.356977462768555 16.866865158081055,3.18503475189209 16.866865158081055,3.18503475189209"/></g><g opacity="1" transform="matrix(1,0,0,1,0,0)"><path stroke-linecap="round" stroke-linejoin="round" fill-opacity="0" stroke="rgb(18,19,49)" stroke-opacity="1" stroke-width="2.45" d=" M-25.558237075805664,35.84257125854492 C-25.558237075805664,35.84257125854492 12.666413307189941,35.84093475341797 12.666413307189941,35.84093475341797 C12.666413307189941,35.84093475341797 12.679496765136719,-0.7082242369651794 12.679496765136719,-0.7082242369651794 C12.679496765136719,-0.7082242369651794 12.679496765136719,-0.8299526572227478 12.679496765136719,-0.8299526572227478"/></g></g><g transform="matrix(5.275599956512451,0,0,5.275599956512451,583.4199829101562,190.02000427246094)" opacity="1" style="display: block;"><g opacity="1" transform="matrix(1,0,0,1,0,0)"><path stroke-linecap="round" stroke-linejoin="round" fill-opacity="0" stroke="rgb(18,19,49)" stroke-opacity="1" stroke-width="2.5" d=" M-98.73558807373047,35.89192581176758 C-98.73558807373047,35.89192581176758 -74.59542083740234,35.844905853271484 -74.59542083740234,35.844905853271484 C-74.59542083740234,35.844905853271484 -74.59542083740234,-1.7247750759124756 -74.59542083740234,-1.7247750759124756"/></g></g><g transform="matrix(5.275599956512451,0,0,5.275599956512451,583.4199829101562,190.02000427246094)" opacity="1" style="display: block;"><g opacity="1" transform="matrix(1,0,0,1,0,0)"><path stroke-linecap="round" stroke-linejoin="round" fill-opacity="0" stroke="rgb(18,19,49)" stroke-opacity="1" stroke-width="2.5" d=" M-83.01490020751953,-25.357181549072266 C-83.01490020751953,-25.357181549072266 -56.040626525878906,-25.26837730407715 -56.040626525878906,-25.26837730407715 C-56.040626525878906,-25.26837730407715 -78.97248840332031,3.1648054122924805 -78.97248840332031,3.1648054122924805 C-78.97248840332031,3.1648054122924805 -106.14806365966797,3.298304319381714 -106.14806365966797,3.298304319381714"/></g></g><g transform="matrix(5.275599956512451,0,0,5.275599956512451,583.4199829101562,190.02000427246094)" opacity="1" style="display: block;"><g opacity="1" transform="matrix(1,0,0,1,0,0)"><path stroke-linecap="round" stroke-linejoin="round" fill-opacity="0" stroke="rgb(18,19,49)" stroke-opacity="1" stroke-width="2.5" d=" M-106.14691925048828,3.3004283905029297 C-106.14691925048828,3.3004283905029297 -83.30248260498047,-25.359079360961914 -83.30248260498047,-25.359079360961914"/></g></g><g transform="matrix(5.275599956512451,0,0,5.275599956512451,325.0899963378906,190.02000427246094)" opacity="1" style="display: none;"><g opacity="1" transform="matrix(1,0,0,1,0,0)"><path stroke-linecap="round" stroke-linejoin="round" fill-opacity="0" stroke="rgb(18,19,49)" stroke-opacity="1" stroke-width="2.45" d=" M-50.51920700073242,35.680999755859375 C-50.51920700073242,35.680999755859375 -50.629180908203125,35.680999755859375 -50.629180908203125,35.680999755859375 C-50.629180908203125,35.680999755859375 -50.62718200683594,3.59791898727417 -50.62718200683594,3.59791898727417"/></g></g><g transform="matrix(5.275599956512451,0,0,5.275599956512451,325.0899963378906,190.02000427246094)" opacity="1" style="display: none;"><g opacity="1" transform="matrix(1,0,0,1,0,0)"><path stroke-linecap="round" stroke-linejoin="round" fill-opacity="0" stroke="rgb(18,19,49)" stroke-opacity="1" stroke-width="2.45" d=" M-56.06943130493164,3.2550666332244873 C-56.06943130493164,3.2550666332244873 -46.044490814208984,-25.562517166137695 -46.044490814208984,-25.562517166137695 C-46.044490814208984,-25.562517166137695 -56.20443344116211,3.2550666332244873 -56.20443344116211,3.2550666332244873"/></g></g></g></g><g clip-path="url(#__lottie_element_37)" transform="matrix(1,0,0,1,35,35)" opacity="1" style="display: block;"><g transform="matrix(5.275599956512451,0,0,5.275599956512451,583.4199829101562,190.02000427246094)" opacity="1" style="display: block;"><g opacity="1" transform="matrix(1,0,0,1,0,0)"><path stroke-linecap="round" stroke-linejoin="round" fill-opacity="0" stroke="rgb(18,19,49)" stroke-opacity="1" stroke-width="2.45" d=" M-51.07500076293945,-8.583999633789062 C-44.33100128173828,-2.3310000896453857 -38.27299880981445,3.2850000858306885 -38.27299880981445,3.2850000858306885 C-38.27299880981445,3.2850000858306885 -38.25,3.2850000858306885 -38.25,3.2850000858306885 M-68.86900329589844,-25.347999572753906 C-68.86900329589844,-25.347999572753906 -69.0989990234375,-25.292999267578125 -69.0989990234375,-25.292999267578125 C-69.0989990234375,-25.292999267578125 -65.1449966430664,-21.628000259399414 -60.06999969482422,-16.92300033569336"/></g><g opacity="1" transform="matrix(1,0,0,1,0,0)"><path stroke-linecap="round" stroke-linejoin="round" fill-opacity="0" stroke="rgb(18,19,49)" stroke-opacity="1" stroke-width="2.45" d=" M-44.393001556396484,35.92100143432617 C-44.393001556396484,35.92100143432617 -44.21799850463867,35.90700149536133 -44.21799850463867,35.90700149536133 C-44.21799850463867,35.90700149536133 -44.21799850463867,3.2739999294281006 -44.21799850463867,3.2739999294281006"/></g><g opacity="1" transform="matrix(1,0,0,1,0,0)"><path stroke-linecap="round" stroke-linejoin="round" fill-opacity="0" stroke="rgb(8,168,138)" stroke-opacity="1" stroke-width="2.45" d=" M-50.80099868774414,-22.089000701904297 C-50.80099868774414,-22.089000701904297 -49.92399978637695,-22.072999954223633 -49.92399978637695,-22.072999954223633 C-49.92399978637695,-22.072999954223633 -49.89899826049805,-10.118000030517578 -49.89899826049805,-10.118000030517578"/></g></g><g transform="matrix(5.275599956512451,0,0,5.275599956512451,325.0899963378906,190.02000427246094)" opacity="1" style="display: block;"><g opacity="1" transform="matrix(1,0,0,1,0,0)"><path stroke-linecap="round" stroke-linejoin="round" fill-opacity="0" stroke="rgb(8,168,138)" stroke-opacity="1" stroke-width="2.45" d=" M-9.925999641418457,-16.437000274658203 C-9.925999641418457,-16.437000274658203 -9.925999641418457,-22.229000091552734 -9.925999641418457,-22.229000091552734 C-9.925999641418457,-22.229000091552734 -0.9909999966621399,-22.229000091552734 -0.9909999966621399,-22.229000091552734 C-0.9909999966621399,-22.229000091552734 -0.9909999966621399,-8.105999946594238 -0.9909999966621399,-8.105999946594238"/></g></g><g transform="matrix(5.275599956512451,0,0,5.275599956512451,325.0899963378906,190.02000427246094)" opacity="1" style="display: block;"><g opacity="1" transform="matrix(1,0,0,1,0,0)"><path stroke-linecap="round" stroke-linejoin="round" fill-opacity="0" stroke="rgb(8,168,138)" stroke-opacity="1" stroke-width="2.45" d=" M-28.242000579833984,35.91699981689453 C-28.242000579833984,35.91699981689453 -28.242000579833984,9.715999603271484 -28.242000579833984,9.715999603271484 C-28.242000579833984,9.715999603271484 -12.387999534606934,9.715999603271484 -12.387999534606934,9.715999603271484 C-12.387999534606934,9.715999603271484 -12.387999534606934,35.91699981689453 -12.387999534606934,35.91699981689453"/></g><g opacity="1" transform="matrix(1,0,0,1,0,0)"><path stroke-linecap="round" stroke-linejoin="round" fill-opacity="0" stroke="rgb(18,19,49)" stroke-opacity="1" stroke-width="2.45" d=" M-51.58100128173828,3.2839999198913574 C-51.58100128173828,3.2839999198913574 -20.315000534057617,-25.29400062561035 -20.315000534057617,-25.29400062561035 C-20.315000534057617,-25.29400062561035 10.51099967956543,3.2839999198913574 10.51099967956543,3.2839999198913574"/></g><g opacity="1" transform="matrix(1,0,0,1,0,0)"><path stroke-linecap="round" stroke-linejoin="round" fill-opacity="0" stroke="rgb(18,19,49)" stroke-opacity="1" stroke-width="2.45" d=" M-45.71200180053711,-1.2940000295639038 C-45.71200180053711,-1.2940000295639038 -45.71200180053711,35.91699981689453 -45.71200180053711,35.91699981689453 C-45.71200180053711,35.91699981689453 4.758999824523926,35.91699981689453 4.758999824523926,35.91699981689453 C4.758999824523926,35.91699981689453 4.758999824523926,-0.19300000369548798 4.758999824523926,-0.19300000369548798"/></g></g></g><g clip-path="url(#__lottie_element_41)" transform="matrix(1,0,0,1,35,35)" opacity="0" style="display: block;"><g transform="matrix(5.275599956512451,0,0,5.275599956512451,325.0899963378906,190.02000427246094)" opacity="1" style="display: block;"><g opacity="1" transform="matrix(1,0,0,1,0,0)"><path stroke-linecap="round" stroke-linejoin="round" fill-opacity="0" stroke="rgb(8,168,138)" stroke-opacity="1" stroke-width="2.45" d=" M-9.925999641418457,-16.437000274658203 C-9.925999641418457,-16.437000274658203 -9.925999641418457,-22.229000091552734 -9.925999641418457,-22.229000091552734 C-9.925999641418457,-22.229000091552734 -0.9909999966621399,-22.229000091552734 -0.9909999966621399,-22.229000091552734 C-0.9909999966621399,-22.229000091552734 -0.9909999966621399,-8.105999946594238 -0.9909999966621399,-8.105999946594238 C-0.9909999966621399,-8.105999946594238 -1.055999994277954,-8.166999816894531 -1.055999994277954,-8.166999816894531"/></g><g opacity="1" transform="matrix(1,0,0,1,0,0)"><path stroke-linecap="round" stroke-linejoin="round" fill-opacity="0" stroke="rgb(8,168,138)" stroke-opacity="1" stroke-width="2.45" d=" M-28.242000579833984,35.91699981689453 C-28.242000579833984,35.91699981689453 -28.242000579833984,9.715999603271484 -28.242000579833984,9.715999603271484 C-28.242000579833984,9.715999603271484 -12.387999534606934,9.715999603271484 -12.387999534606934,9.715999603271484 C-12.387999534606934,9.715999603271484 -12.387999534606934,35.91699981689453 -12.387999534606934,35.91699981689453"/></g><g opacity="1" transform="matrix(1,0,0,1,0,0)"><path stroke-linecap="round" stroke-linejoin="round" fill-opacity="0" stroke="rgb(8,168,138)" stroke-opacity="0" stroke-width="2.45" d=" M-51.58100128173828,3.2839999198913574 C-51.58100128173828,3.2839999198913574 -20.315000534057617,-25.29400062561035 -20.315000534057617,-25.29400062561035 M-20.315000534057617,-25.29400062561035 C-20.315000534057617,-25.29400062561035 10.51099967956543,3.2839999198913574 10.51099967956543,3.2839999198913574 M-45.71200180053711,-1.2940000295639038 C-45.71200180053711,-1.2940000295639038 -45.71200180053711,-1.184000015258789 -45.71200180053711,-1.184000015258789 C-45.71200180053711,-1.184000015258789 -45.71200180053711,35.91699981689453 -45.71200180053711,35.91699981689453 C-45.71200180053711,35.91699981689453 4.758999824523926,35.91699981689453 4.758999824523926,35.91699981689453 C4.758999824523926,35.91699981689453 4.75,-1.9930000305175781 4.75,-1.9930000305175781"/><path stroke-linecap="round" stroke-linejoin="round" fill-opacity="0" stroke="rgb(18,19,49)" stroke-opacity="1" stroke-width="2.45" d=" M-51.58100128173828,3.2839999198913574 C-51.58100128173828,3.2839999198913574 -20.315000534057617,-25.29400062561035 -20.315000534057617,-25.29400062561035 M-20.315000534057617,-25.29400062561035 C-20.315000534057617,-25.29400062561035 10.51099967956543,3.2839999198913574 10.51099967956543,3.2839999198913574 M-45.71200180053711,-1.2940000295639038 C-45.71200180053711,-1.2940000295639038 -45.71200180053711,-1.184000015258789 -45.71200180053711,-1.184000015258789 C-45.71200180053711,-1.184000015258789 -45.71200180053711,35.91699981689453 -45.71200180053711,35.91699981689453 C-45.71200180053711,35.91699981689453 4.758999824523926,35.91699981689453 4.758999824523926,35.91699981689453 C4.758999824523926,35.91699981689453 4.75,-1.9930000305175781 4.75,-1.9930000305175781"/></g></g></g><g style="display: none;"><path/></g></g></svg>