<svg xmlns="http://www.w3.org/2000/svg" xmlns:xlink="http://www.w3.org/1999/xlink" viewBox="0 0 500 500" width="500" height="500" preserveAspectRatio="xMidYMid meet" style="width: 100%; height: 100%; transform: translate3d(0px, 0px, 0px); content-visibility: visible;"><defs><clipPath id="__lottie_element_51"><rect width="500" height="500" x="0" y="0"/></clipPath><g id="__lottie_element_59"><g transform="matrix(1,0,0,1,250,211.95022583007812)" opacity="1" style="display: block;"><g opacity="1" transform="matrix(1,0,0,1,0,0)"><path fill="rgb(255,0,0)" fill-opacity="1" d=" M33.880001068115234,26.690000534057617 C33.880001068115234,26.690000534057617 41.5,26.690000534057617 41.5,26.690000534057617 C87.33999633789062,26.690000534057617 124.5,63.849998474121094 124.5,109.69000244140625 C124.5,109.69000244140625 124.5,137.4499969482422 124.5,137.4499969482422 C124.5,145.07000732421875 118.79000091552734,151.47999572753906 111.22000122070312,152.35000610351562 C111.22000122070312,152.35000610351562 82.18000030517578,155.7100067138672 82.18000030517578,155.7100067138672 C74.23999786376953,156.6300048828125 66.4800033569336,158.66000366210938 59.11000061035156,161.74000549316406 C40.20000076293945,169.64999389648438 20.110000610351562,173.6199951171875 0,173.66000366210938 C-0.10000000149011612,173.66000366210938 -0.20000000298023224,173.66000366210938 -0.30000001192092896,173.66000366210938 C-20.399999618530273,173.66000366210938 -40.5,169.72999572753906 -59.41999816894531,161.86000061035156 C-59.41999816894531,161.86000061035156 -59.619998931884766,161.77999877929688 -59.619998931884766,161.77999877929688 C-67.30999755859375,158.5800018310547 -75.41000366210938,156.47999572753906 -83.69000244140625,155.52000427246094 C-83.69000244140625,155.52000427246094 -111.22000122070312,152.35000610351562 -111.22000122070312,152.35000610351562 C-118.79000091552734,151.47999572753906 -124.5,145.07000732421875 -124.5,137.4499969482422 C-124.5,137.4499969482422 -124.5,109.69000244140625 -124.5,109.69000244140625 C-124.5,63.849998474121094 -87.33999633789062,26.690000534057617 -41.5,26.690000534057617 C-41.5,26.690000534057617 -33.869998931884766,26.690000534057617 -33.869998931884766,26.690000534057617"/></g></g></g><g id="__lottie_element_65"><g transform="matrix(1,0,0,1,250,206.01773071289062)" opacity="1" style="display: block;"><g opacity="1" transform="matrix(1,0,0,1,0,0)"><path fill="rgb(255,0,0)" fill-opacity="1" d=" M-1.940000057220459,-157 C-1.940000057220459,-157 1.940000057220459,-157 1.940000057220459,-157 C35.67399978637695,-157 62.6870002746582,-129.031005859375 61.513999938964844,-95.31800079345703 C61.513999938964844,-95.31800079345703 59.57400131225586,-39.5369987487793 59.57400131225586,-39.5369987487793 C58.45800018310547,-7.441999912261963 32.1150016784668,18 0,18 C0,18 0,18 0,18 C-32.1150016784668,18 -58.45800018310547,-7.441999912261963 -59.57400131225586,-39.5369987487793 C-59.57400131225586,-39.5369987487793 -61.513999938964844,-95.31800079345703 -61.513999938964844,-95.31800079345703 C-62.6870002746582,-129.031005859375 -35.67399978637695,-157 -1.940000057220459,-157z"/></g></g></g><filter id="__lottie_element_76" filterUnits="objectBoundingBox" x="0%" y="0%" width="100%" height="100%"><feComponentTransfer in="SourceGraphic"><feFuncA type="table" tableValues="1.0 0.0"/></feComponentTransfer></filter><mask id="__lottie_element_65_2" mask-type="alpha"><g filter="url(#__lottie_element_76)"><rect width="500" height="500" x="0" y="0" fill="#ffffff" opacity="0"/><use xmlns:ns1="http://www.w3.org/1999/xlink" ns1:href="#__lottie_element_65"/></g></mask><mask id="__lottie_element_59_1" mask-type="alpha"><use xmlns:ns2="http://www.w3.org/1999/xlink" ns2:href="#__lottie_element_59"/></mask></defs><g clip-path="url(#__lottie_element_51)"><g mask="url(#__lottie_element_59_1)" style="display: block;"><g transform="matrix(1,0,0,1,250,211.95022583007812)" opacity="1"><g opacity="1" transform="matrix(1,0,0,1,0,0)"><path stroke-linecap="round" stroke-linejoin="round" fill-opacity="0" stroke="rgb(8,168,138)" stroke-opacity="1" stroke-width="12.04" d=" M-72.62999725341797,32.72999954223633 C-72.62999725341797,32.72999954223633 -72.6130142211914,114.77599334716797 -72.6130142211914,114.77599334716797 C-72.6130142211914,114.77599334716797 -40.022186279296875,114.833740234375 -40.022186279296875,114.833740234375 C-40.022186279296875,114.833740234375 -40.01120376586914,56.571075439453125 -40.01120376586914,56.571075439453125 C-40.01120376586914,56.571075439453125 -40.01120376586914,53.70107650756836 -40.01120376586914,53.70107650756836"/></g><g opacity="1" transform="matrix(1,0,0,1,0,0)"><path stroke-linecap="round" stroke-linejoin="round" fill-opacity="0" stroke="rgb(8,168,138)" stroke-opacity="1" stroke-width="12.04" d=" M-72.62999725341797,157.50999450683594 C-72.62999725341797,157.50999450683594 -72.6130142211914,114.77599334716797 -72.6130142211914,114.77599334716797 C-72.6130142211914,114.77599334716797 -40.022186279296875,114.833740234375 -40.022186279296875,114.833740234375 C-40.022186279296875,114.833740234375 1.3367297649383545,114.833740234375 1.3367297649383545,114.833740234375 C1.3367297649383545,114.833740234375 40.037811279296875,114.833740234375 40.037811279296875,114.833740234375 C40.037811279296875,114.833740234375 72.64698028564453,114.77599334716797 72.64698028564453,114.77599334716797 C72.64698028564453,114.77599334716797 72.62999725341797,157.3699951171875 72.62999725341797,157.3699951171875"/></g><g opacity="1" transform="matrix(1,0,0,1,0,0)"><path stroke-linecap="round" stroke-linejoin="round" fill-opacity="0" stroke="rgb(8,168,138)" stroke-opacity="1" stroke-width="12.04" d=" M40.04879379272461,53.96107482910156 C40.04879379272461,53.96107482910156 40.04879379272461,56.76107406616211 40.04879379272461,56.76107406616211 C40.04879379272461,56.76107406616211 40.037811279296875,114.833740234375 40.037811279296875,114.833740234375 C40.037811279296875,114.833740234375 72.64698028564453,114.77599334716797 72.64698028564453,114.77599334716797 C72.64698028564453,114.77599334716797 72.62999725341797,32.72999954223633 72.62999725341797,32.72999954223633"/></g><g opacity="1" transform="matrix(1,0,0,1,0,0)"><path stroke-linecap="round" stroke-linejoin="round" fill-opacity="0" stroke="rgb(18,19,49)" stroke-opacity="1" stroke-width="12.04" d=" M-60.54999923706055,28.882999420166016 C-60.54999923706055,28.882999420166016 -20.952899932861328,72.54291534423828 -20.952899932861328,72.54291534423828 C-20.952899932861328,72.54291534423828 0.021512361243367195,53.775516510009766 0.021512361243367195,53.775516510009766"/></g><g opacity="1" transform="matrix(1,0,0,1,0,0)"><path stroke-linecap="round" stroke-linejoin="round" fill-opacity="0" stroke="rgb(18,19,49)" stroke-opacity="1" stroke-width="12.04" d=" M0.21151235699653625,53.775516510009766 C0.21151235699653625,53.775516510009766 20.73710060119629,72.54291534423828 20.73710060119629,72.54291534423828 C20.73710060119629,72.54291534423828 60.70000076293945,28.92300033569336 60.70000076293945,28.92300033569336"/></g></g></g><g mask="url(#__lottie_element_65_2)" style="display: block;"><g transform="matrix(1,0,0,1,250,211.95022583007812)" opacity="1"><g opacity="1" transform="matrix(1,0,0,1,0,0)"><path stroke-linecap="round" stroke-linejoin="round" fill-opacity="0" stroke="rgb(18,19,49)" stroke-opacity="1" stroke-width="12.04" d=" M33.77358627319336,-6.748432636260986 C33.77358627319336,-6.748432636260986 33.880001068115234,26.3799991607666 33.880001068115234,26.3799991607666 C33.880001068115234,26.3799991607666 0,52.61558151245117 0,52.61558151245117 C0,52.61558151245117 -33.869998931884766,26.3799991607666 -33.869998931884766,26.3799991607666 C-33.869998931884766,26.3799991607666 -33.97641372680664,-6.738432884216309 -33.97641372680664,-6.738432884216309"/></g></g></g><g transform="matrix(1,0,0,1,250,211.95022583007812)" opacity="1" style="display: block;"><g opacity="1" transform="matrix(1,0,0,1,0,0)"><path stroke-linecap="round" stroke-linejoin="round" fill-opacity="0" stroke="rgb(18,19,49)" stroke-opacity="1" stroke-width="12.04" d=" M33.880001068115234,26.690000534057617 C33.880001068115234,26.690000534057617 41.5,26.690000534057617 41.5,26.690000534057617 C87.33999633789062,26.690000534057617 124.5,63.849998474121094 124.5,109.69000244140625 C124.5,109.69000244140625 124.5,137.4499969482422 124.5,137.4499969482422 C124.5,145.07000732421875 118.79000091552734,151.47999572753906 111.22000122070312,152.35000610351562 C111.22000122070312,152.35000610351562 82.18000030517578,155.7100067138672 82.18000030517578,155.7100067138672 C74.23999786376953,156.6300048828125 66.4800033569336,158.66000366210938 59.11000061035156,161.74000549316406 C40.20000076293945,169.64999389648438 20.110000610351562,173.6199951171875 0,173.66000366210938 C-0.10000000149011612,173.66000366210938 -0.20000000298023224,173.66000366210938 -0.30000001192092896,173.66000366210938 C-20.399999618530273,173.66000366210938 -40.5,169.72999572753906 -59.41999816894531,161.86000061035156 C-59.41999816894531,161.86000061035156 -59.619998931884766,161.77999877929688 -59.619998931884766,161.77999877929688 C-67.30999755859375,158.5800018310547 -75.41000366210938,156.47999572753906 -83.69000244140625,155.52000427246094 C-83.69000244140625,155.52000427246094 -111.22000122070312,152.35000610351562 -111.22000122070312,152.35000610351562 C-118.79000091552734,151.47999572753906 -124.5,145.07000732421875 -124.5,137.4499969482422 C-124.5,137.4499969482422 -124.5,109.69000244140625 -124.5,109.69000244140625 C-124.5,63.849998474121094 -87.33999633789062,26.690000534057617 -41.5,26.690000534057617 C-41.5,26.690000534057617 -33.869998931884766,26.690000534057617 -33.869998931884766,26.690000534057617"/></g></g><g transform="matrix(1,0,0,1,250,206.01773071289062)" opacity="1" style="display: block;"><g opacity="1" transform="matrix(1,0,0,1,0,0)"><path stroke-linecap="round" stroke-linejoin="round" fill-opacity="0" stroke="rgb(18,19,49)" stroke-opacity="1" stroke-width="12.04" d=" M60.875999450683594,-76.96499633789062 C60.310001373291016,-60.70800018310547 59.57400131225586,-39.5369987487793 59.57400131225586,-39.5369987487793 C58.45800018310547,-7.441999912261963 32.1150016784668,18 0,18 C0,18 0,18 0,18 C-32.1150016784668,18 -58.45800018310547,-7.441999912261963 -59.57400131225586,-39.5369987487793 C-59.57400131225586,-39.5369987487793 -60.34199905395508,-61.61000061035156 -60.9109992980957,-77.98500061035156"/></g></g><g transform="matrix(1,0,0,1,250,206.01773071289062)" opacity="1" style="display: block;"><g opacity="1" transform="matrix(1,0,0,1,0,0)"><path stroke-linecap="round" stroke-linejoin="round" fill-opacity="0" stroke="rgb(8,168,138)" stroke-opacity="1" stroke-width="12.04" d=" M26.28617286682129,-162.6832275390625 C53.08016586303711,-152.95449829101562 69.99134063720703,-130.1056365966797 73.37971496582031,-98.15470123291016 M-74.35639953613281,-98.15470123291016 C-69.36473083496094,-131.41307067871094 -53.05094528198242,-153.8778839111328 -25.762908935546875,-163.1798858642578"/></g><g opacity="1" transform="matrix(1,0,0,1,0,0)"><path stroke-linecap="round" stroke-linejoin="round" fill-opacity="0" stroke="rgb(8,168,138)" stroke-opacity="1" stroke-width="12.04" d=" M79.7784652709961,-75.53041076660156 C79.7784652709961,-75.53041076660156 48.558876037597656,-83.87906646728516 -0.9060760140419006,-83.87906646728516 C-49.723121643066406,-83.87906646728516 -80.99163818359375,-74.95194244384766 -80.99163818359375,-74.95194244384766 C-82.61063385009766,-74.95194244384766 -83.92263793945312,-76.26394653320312 -83.92263793945312,-77.88294219970703 C-83.92263793945312,-77.88294219970703 -83.92263793945312,-91.29094696044922 -83.92263793945312,-91.29094696044922 C-83.92263793945312,-92.90994262695312 -82.61063385009766,-94.2219467163086 -80.99163818359375,-94.2219467163086 C-80.99163818359375,-94.2219467163086 -50.85182189941406,-103.14895629882812 -2.6003403663635254,-103.14895629882812 C47.429290771484375,-103.14895629882812 79.7784652709961,-94.8004150390625 79.7784652709961,-94.8004150390625 C81.39746856689453,-94.8004150390625 82.70946502685547,-93.48829650878906 82.70946502685547,-91.86930084228516 C82.70946502685547,-91.86930084228516 82.70946502685547,-78.46141052246094 82.70946502685547,-78.46141052246094 C82.70946502685547,-76.84241485595703 81.39746856689453,-75.53041076660156 79.7784652709961,-75.53041076660156z M-25.751697540283203,-140.1758575439453 C-25.751697540283203,-140.1758575439453 -25.75,-173.25 -25.75,-173.25 C-25.75,-173.25 26.25,-173.25 26.25,-173.25 C26.25,-173.25 26.25,-162.75 26.25,-162.75 C26.25,-162.75 26.248302459716797,-139.3173828125 26.248302459716797,-139.3173828125 M0.5032834410667419,-141.17047119140625 C0.5032834410667419,-141.17047119140625 0.5,-173.25 0.5,-173.25"/></g></g><g class="com" transform="matrix(2.65159010887146,0,0,2.65159010887146,37.9818115234375,480.39056396484375)" opacity="0.2" style="display: block;"><g opacity="1" transform="matrix(1,0,0,1,0,0)"><path fill="rgb(0,0,0)" fill-opacity="1" d=" M141.6959991455078,0 C141.6959991455078,0 144.6699981689453,0 144.6699981689453,0 C144.6699981689453,0 144.6699981689453,-12.715999603271484 144.6699981689453,-12.715999603271484 C144.6699981689453,-12.715999603271484 148.62899780273438,0 148.62899780273438,0 C148.62899780273438,0 151.25399780273438,0 151.25399780273438,0 C151.25399780273438,0 155.2949981689453,-12.715999603271484 155.2949981689453,-12.715999603271484 C155.2949981689453,-12.715999603271484 155.2949981689453,0 155.2949981689453,0 C155.2949981689453,0 158.4530029296875,0 158.4530029296875,0 C158.4530029296875,0 158.4530029296875,-14.829000473022461 158.4530029296875,-14.829000473022461 C158.4530029296875,-14.829000473022461 153.4080047607422,-14.829000473022461 153.4080047607422,-14.829000473022461 C153.4080047607422,-14.829000473022461 150.0240020751953,-4.040999889373779 150.0240020751953,-4.040999889373779 C150.0240020751953,-4.040999889373779 146.88499450683594,-14.829000473022461 146.88499450683594,-14.829000473022461 C146.88499450683594,-14.829000473022461 141.6959991455078,-14.829000473022461 141.6959991455078,-14.829000473022461 C141.6959991455078,-14.829000473022461 141.6959991455078,0 141.6959991455078,0z"/></g><g opacity="1" transform="matrix(1,0,0,1,0,0)"><path fill="rgb(0,0,0)" fill-opacity="1" d=" M128.80499267578125,-7.302000045776367 C128.80499267578125,-8.984000205993652 129.05099487304688,-10.583000183105469 129.89199829101562,-11.609000205993652 C130.48699951171875,-12.368000030517578 131.42999267578125,-12.859999656677246 132.6199951171875,-12.859999656677246 C134.13800048828125,-12.859999656677246 135.38900756835938,-12.0600004196167 136.00399780273438,-10.234999656677246 C136.31199645996094,-9.333000183105469 136.3730010986328,-8.307000160217285 136.3730010986328,-7.589000225067139 C136.3730010986328,-5.230000019073486 135.86000061035156,-4.080999851226807 135.3679962158203,-3.3429999351501465 C134.7729949951172,-2.4200000762939453 133.89100646972656,-1.968999981880188 132.5989990234375,-1.968999981880188 C131.1219940185547,-1.968999981880188 130.36300659179688,-2.5439999103546143 129.91200256347656,-3.1589999198913574 C129.02999877929688,-4.308000087738037 128.80499267578125,-5.88700008392334 128.80499267578125,-7.302000045776367z M125.48200225830078,-7.198999881744385 C125.48200225830078,-5.84499979019165 125.68800354003906,-3.384000062942505 127.30799865722656,-1.6610000133514404 C128.66200256347656,-0.2460000067949295 130.60899353027344,0.36899998784065247 132.55799865722656,0.36899998784065247 C133.78900146484375,0.36899998784065247 136.18800354003906,0.10300000011920929 137.82899475097656,-1.7430000305175781 C139.03900146484375,-3.0969998836517334 139.6959991455078,-5.394000053405762 139.6959991455078,-7.547999858856201 C139.6959991455078,-9.003999710083008 139.38800048828125,-11.321999549865723 137.8090057373047,-13.126999855041504 C136.35299682617188,-14.767999649047852 134.17799377441406,-15.13700008392334 132.5989990234375,-15.13700008392334 C127.26599884033203,-15.13700008392334 125.48200225830078,-11.13700008392334 125.48200225830078,-7.198999881744385z"/></g><g opacity="1" transform="matrix(1,0,0,1,0,0)"><path fill="rgb(0,0,0)" fill-opacity="1" d=" M124.04000091552734,-9.98900032043457 C124.04000091552734,-12.942999839782715 121.76399993896484,-14.91100025177002 118.52300262451172,-14.91100025177002 C114.35900115966797,-14.91100025177002 111.73400115966797,-11.793999671936035 111.73400115966797,-7.0970001220703125 C111.73400115966797,-3.4260001182556152 113.3949966430664,0.3490000069141388 118.50199890136719,0.3490000069141388 C119.85600280761719,0.3490000069141388 121.51699829101562,0.04100000113248825 122.83000183105469,-1.312999963760376 C124.0199966430664,-2.5439999103546143 124.10099792480469,-3.9170000553131104 124.16300201416016,-4.798999786376953 C124.16300201416016,-4.798999786376953 120.81999969482422,-4.798999786376953 120.81999969482422,-4.798999786376953 C120.75800323486328,-2.8299999237060547 119.48699951171875,-1.9900000095367432 118.15399932861328,-1.9900000095367432 C115.05699920654297,-1.9900000095367432 115.05699920654297,-6.193999767303467 115.05699920654297,-7.076000213623047 C115.05699920654297,-10.131999969482422 116.04100036621094,-12.593000411987305 118.4000015258789,-12.593000411987305 C120.55400085449219,-12.593000411987305 120.73799896240234,-10.501999855041504 120.80000305175781,-9.98900032043457 C120.80000305175781,-9.98900032043457 124.04000091552734,-9.98900032043457 124.04000091552734,-9.98900032043457z"/></g><g opacity="1" transform="matrix(1,0,0,1,0,0)"><path fill="rgb(0,0,0)" fill-opacity="1" d=" M106.89299774169922,0 C106.89299774169922,0 109.49700164794922,0 109.49700164794922,0 C109.49700164794922,0 109.49700164794922,-2.7279999256134033 109.49700164794922,-2.7279999256134033 C109.49700164794922,-2.7279999256134033 106.89299774169922,-2.7279999256134033 106.89299774169922,-2.7279999256134033 C106.89299774169922,-2.7279999256134033 106.89299774169922,0 106.89299774169922,0z"/></g><g opacity="1" transform="matrix(1,0,0,1,0,0)"><path fill="rgb(0,0,0)" fill-opacity="1" d=" M91.00700378417969,0 C91.00700378417969,0 94.0009994506836,0 94.0009994506836,0 C94.0009994506836,0 94.0009994506836,-12.305999755859375 94.0009994506836,-12.305999755859375 C94.0009994506836,-12.305999755859375 99.74400329589844,0 99.74400329589844,0 C99.74400329589844,0 104.11299896240234,0 104.11299896240234,0 C104.11299896240234,0 104.11299896240234,-14.829000473022461 104.11299896240234,-14.829000473022461 C104.11299896240234,-14.829000473022461 101.15899658203125,-14.829000473022461 101.15899658203125,-14.829000473022461 C101.15899658203125,-14.829000473022461 101.15899658203125,-3.1589999198913574 101.15899658203125,-3.1589999198913574 C101.15899658203125,-3.1589999198913574 95.60099792480469,-14.829000473022461 95.60099792480469,-14.829000473022461 C95.60099792480469,-14.829000473022461 91.00700378417969,-14.829000473022461 91.00700378417969,-14.829000473022461 C91.00700378417969,-14.829000473022461 91.00700378417969,0 91.00700378417969,0z"/></g><g opacity="1" transform="matrix(1,0,0,1,0,0)"><path fill="rgb(0,0,0)" fill-opacity="1" d=" M77.86900329589844,-7.302000045776367 C77.86900329589844,-8.984000205993652 78.11499786376953,-10.583000183105469 78.95600128173828,-11.609000205993652 C79.5510025024414,-12.368000030517578 80.49400329589844,-12.859999656677246 81.68399810791016,-12.859999656677246 C83.2020034790039,-12.859999656677246 84.4530029296875,-12.0600004196167 85.06800079345703,-10.234999656677246 C85.3759994506836,-9.333000183105469 85.43699645996094,-8.307000160217285 85.43699645996094,-7.589000225067139 C85.43699645996094,-5.230000019073486 84.92400360107422,-4.080999851226807 84.43199920654297,-3.3429999351501465 C83.83699798583984,-2.4200000762939453 82.95500183105469,-1.968999981880188 81.66300201416016,-1.968999981880188 C80.18599700927734,-1.968999981880188 79.4280014038086,-2.5439999103546143 78.97699737548828,-3.1589999198913574 C78.09500122070312,-4.308000087738037 77.86900329589844,-5.88700008392334 77.86900329589844,-7.302000045776367z M74.5459976196289,-7.198999881744385 C74.5459976196289,-5.84499979019165 74.75199890136719,-3.384000062942505 76.37200164794922,-1.6610000133514404 C77.72599792480469,-0.2460000067949295 79.6729965209961,0.36899998784065247 81.62200164794922,0.36899998784065247 C82.85299682617188,0.36899998784065247 85.25299835205078,0.10300000011920929 86.89399719238281,-1.7430000305175781 C88.10399627685547,-3.0969998836517334 88.76000213623047,-5.394000053405762 88.76000213623047,-7.547999858856201 C88.76000213623047,-9.003999710083008 88.4520034790039,-11.321999549865723 86.87300109863281,-13.126999855041504 C85.41699981689453,-14.767999649047852 83.24199676513672,-15.13700008392334 81.66300201416016,-15.13700008392334 C76.33000183105469,-15.13700008392334 74.5459976196289,-11.13700008392334 74.5459976196289,-7.198999881744385z"/></g><g opacity="1" transform="matrix(1,0,0,1,0,0)"><path fill="rgb(0,0,0)" fill-opacity="1" d=" M73.10399627685547,-9.98900032043457 C73.10399627685547,-12.942999839782715 70.8280029296875,-14.91100025177002 67.58699798583984,-14.91100025177002 C63.42300033569336,-14.91100025177002 60.79800033569336,-11.793999671936035 60.79800033569336,-7.0970001220703125 C60.79800033569336,-3.4260001182556152 62.45899963378906,0.3490000069141388 67.56600189208984,0.3490000069141388 C68.91999816894531,0.3490000069141388 70.58100128173828,0.04100000113248825 71.89399719238281,-1.312999963760376 C73.08399963378906,-2.5439999103546143 73.16500091552734,-3.9170000553131104 73.22699737548828,-4.798999786376953 C73.22699737548828,-4.798999786376953 69.88400268554688,-4.798999786376953 69.88400268554688,-4.798999786376953 C69.8219985961914,-2.8299999237060547 68.5510025024414,-1.9900000095367432 67.21800231933594,-1.9900000095367432 C64.12100219726562,-1.9900000095367432 64.12100219726562,-6.193999767303467 64.12100219726562,-7.076000213623047 C64.12100219726562,-10.131999969482422 65.1050033569336,-12.593000411987305 67.46399688720703,-12.593000411987305 C69.61799621582031,-12.593000411987305 69.802001953125,-10.501999855041504 69.86399841308594,-9.98900032043457 C69.86399841308594,-9.98900032043457 73.10399627685547,-9.98900032043457 73.10399627685547,-9.98900032043457z"/></g><g opacity="1" transform="matrix(1,0,0,1,0,0)"><path fill="rgb(0,0,0)" fill-opacity="1" d=" M55.66899871826172,0 C55.66899871826172,0 58.8489990234375,0 58.8489990234375,0 C58.8489990234375,0 58.8489990234375,-14.869999885559082 58.8489990234375,-14.869999885559082 C58.8489990234375,-14.869999885559082 55.66899871826172,-14.869999885559082 55.66899871826172,-14.869999885559082 C55.66899871826172,-14.869999885559082 55.66899871826172,0 55.66899871826172,0z"/></g><g opacity="1" transform="matrix(1,0,0,1,0,0)"><path fill="rgb(0,0,0)" fill-opacity="1" d=" M44.28799819946289,-12.387999534606934 C46.112998962402344,-12.470000267028809 46.95500183105469,-12.368000030517578 47.611000061035156,-12.182999610900879 C49.60100173950195,-11.628999710083008 50.31800079345703,-9.701000213623047 50.31800079345703,-7.609000205993652 C50.31800079345703,-6.890999794006348 50.236000061035156,-4.676000118255615 48.98500061035156,-3.424999952316284 C48.0620002746582,-2.502000093460083 46.893001556396484,-2.4000000953674316 45.53900146484375,-2.4000000953674316 C45.16999816894531,-2.4000000953674316 44.637001037597656,-2.4200000762939453 44.28799819946289,-2.440999984741211 C44.28799819946289,-2.440999984741211 44.28799819946289,-12.387999534606934 44.28799819946289,-12.387999534606934z M41.06800079345703,0 C41.06800079345703,0 45.68299865722656,0 45.68299865722656,0 C47.18000030517578,0 47.79499816894531,-0.061000000685453415 48.3489990234375,-0.164000004529953 C51.159000396728516,-0.6769999861717224 53.599998474121094,-3.055999994277954 53.599998474121094,-7.609000205993652 C53.599998474121094,-9.722000122070312 52.94300079345703,-12.0600004196167 51.07699966430664,-13.434000015258789 C49.292999267578125,-14.746999740600586 46.790000915527344,-14.767999649047852 45.970001220703125,-14.767999649047852 C45.970001220703125,-14.767999649047852 41.06800079345703,-14.788000106811523 41.06800079345703,-14.788000106811523 C41.06800079345703,-14.788000106811523 41.06800079345703,0 41.06800079345703,0z"/></g><g opacity="1" transform="matrix(1,0,0,1,0,0)"><path fill="rgb(0,0,0)" fill-opacity="1" d=" M30.518999099731445,-12.491000175476074 C30.518999099731445,-12.491000175476074 32.652000427246094,-12.491000175476074 32.652000427246094,-12.491000175476074 C33.65700149536133,-12.491000175476074 34.25199890136719,-12.491000175476074 34.74399948120117,-12.142000198364258 C35.03099822998047,-11.956999778747559 35.52399826049805,-11.486000061035156 35.52399826049805,-10.480999946594238 C35.52399826049805,-9.4350004196167 34.92900085449219,-8.92199993133545 34.702999114990234,-8.758000373840332 C34.189998626708984,-8.347999572753906 33.45199966430664,-8.347999572753906 33.08300018310547,-8.347999572753906 C33.08300018310547,-8.347999572753906 30.518999099731445,-8.347999572753906 30.518999099731445,-8.347999572753906 C30.518999099731445,-8.347999572753906 30.518999099731445,-12.491000175476074 30.518999099731445,-12.491000175476074z M27.381000518798828,0 C27.381000518798828,0 30.621999740600586,0 30.621999740600586,0 C30.621999740600586,0 30.621999740600586,-5.988999843597412 30.621999740600586,-5.988999843597412 C30.621999740600586,-5.988999843597412 33.4109992980957,-5.988999843597412 33.4109992980957,-5.988999843597412 C33.944000244140625,-5.988999843597412 34.7239990234375,-5.988999843597412 35.01100158691406,-5.1479997634887695 C35.215999603271484,-4.573999881744385 35.66699981689453,-0.8199999928474426 35.81100082397461,0 C35.81100082397461,0 39.31800079345703,0 39.31800079345703,0 C39.15399932861328,-0.2460000067949295 39.03099822998047,-0.41100001335144043 38.867000579833984,-1.0670000314712524 C38.763999938964844,-1.4769999980926514 38.641998291015625,-2.194999933242798 38.41600036621094,-3.937999963760376 C38.14899826049805,-5.866000175476074 37.98500061035156,-7.138000011444092 35.749000549316406,-7.3429999351501465 C36.46699905395508,-7.547999858856201 38.84700012207031,-8.204000473022461 38.84700012207031,-10.972999572753906 C38.84700012207031,-11.937000274658203 38.47700119018555,-13.02400016784668 37.55400085449219,-13.824000358581543 C36.36399841308594,-14.850000381469727 34.70399856567383,-14.850000381469727 33.0629997253418,-14.829000473022461 C33.0629997253418,-14.829000473022461 27.381000518798828,-14.829000473022461 27.381000518798828,-14.829000473022461 C27.381000518798828,-14.829000473022461 27.381000518798828,0 27.381000518798828,0z"/></g><g opacity="1" transform="matrix(1,0,0,1,0,0)"><path fill="rgb(0,0,0)" fill-opacity="1" d=" M14.489999771118164,-7.302000045776367 C14.489999771118164,-8.984000205993652 14.736000061035156,-10.583000183105469 15.57699966430664,-11.609000205993652 C16.172000885009766,-12.368000030517578 17.114999771118164,-12.859999656677246 18.30500030517578,-12.859999656677246 C19.822999954223633,-12.859999656677246 21.073999404907227,-12.0600004196167 21.68899917602539,-10.234999656677246 C21.996999740600586,-9.333000183105469 22.058000564575195,-8.307000160217285 22.058000564575195,-7.589000225067139 C22.058000564575195,-5.230000019073486 21.545000076293945,-4.080999851226807 21.05299949645996,-3.3429999351501465 C20.45800018310547,-2.4200000762939453 19.576000213623047,-1.968999981880188 18.284000396728516,-1.968999981880188 C16.80699920654297,-1.968999981880188 16.04800033569336,-2.5439999103546143 15.597000122070312,-3.1589999198913574 C14.71500015258789,-4.308000087738037 14.489999771118164,-5.88700008392334 14.489999771118164,-7.302000045776367z M11.166999816894531,-7.198999881744385 C11.166999816894531,-5.84499979019165 11.371999740600586,-3.384000062942505 12.991999626159668,-1.6610000133514404 C14.345999717712402,-0.2460000067949295 16.29400062561035,0.36899998784065247 18.243000030517578,0.36899998784065247 C19.474000930786133,0.36899998784065247 21.87299919128418,0.10300000011920929 23.513999938964844,-1.7430000305175781 C24.724000930786133,-3.0969998836517334 25.381000518798828,-5.394000053405762 25.381000518798828,-7.547999858856201 C25.381000518798828,-9.003999710083008 25.072999954223633,-11.321999549865723 23.493999481201172,-13.126999855041504 C22.038000106811523,-14.767999649047852 19.863000869750977,-15.13700008392334 18.284000396728516,-15.13700008392334 C12.951000213623047,-15.13700008392334 11.166999816894531,-11.13700008392334 11.166999816894531,-7.198999881744385z"/></g><g opacity="1" transform="matrix(1,0,0,1,0,0)"><path fill="rgb(0,0,0)" fill-opacity="1" d=" M1.4149999618530273,0 C1.4149999618530273,0 11.013999938964844,0 11.013999938964844,0 C11.013999938964844,0 11.013999938964844,-2.5230000019073486 11.013999938964844,-2.5230000019073486 C11.013999938964844,-2.5230000019073486 4.656000137329102,-2.5230000019073486 4.656000137329102,-2.5230000019073486 C4.656000137329102,-2.5230000019073486 4.656000137329102,-14.809000015258789 4.656000137329102,-14.809000015258789 C4.656000137329102,-14.809000015258789 1.4149999618530273,-14.809000015258789 1.4149999618530273,-14.809000015258789 C1.4149999618530273,-14.809000015258789 1.4149999618530273,0 1.4149999618530273,0z"/></g></g></g></svg>