<svg xmlns="http://www.w3.org/2000/svg" xmlns:xlink="http://www.w3.org/1999/xlink" viewBox="0 0 500 500" width="500" height="500" preserveAspectRatio="xMidYMid meet" style="width: 100%; height: 100%; transform: translate3d(0px, 0px, 0px); content-visibility: visible;"><defs><clipPath id="__lottie_element_51"><rect width="500" height="500" x="0" y="0"/></clipPath></defs><g clip-path="url(#__lottie_element_51)"><g transform="matrix(0.9799799919128418,-0.006262495648115873,0.006262495648115873,0.9799799919128418,49.74420166015625,25.701568603515625)" opacity="1" style="display: block;"><g opacity="1" transform="matrix(1,0,0,1,197.5800018310547,186.85800170898438)"><path fill="rgb(235,230,239)" fill-opacity="1" d=" M125.96299743652344,33.858001708984375 C107.09300231933594,3.73799991607666 69.21099853515625,-35.132999420166016 45.20100021362305,-35.132999420166016 C45.20100021362305,-35.132999420166016 -70.177001953125,-34.62300109863281 -70.177001953125,-34.62300109863281 C-94.45899963378906,-33.63999938964844 -118.05000305175781,9.517000198364258 -128.00399780273438,33.474998474121094 C-128.00399780273438,33.474998474121094 125.96299743652344,33.858001708984375 125.96299743652344,33.858001708984375z"/></g><g opacity="1" transform="matrix(1,0,0,1,250.02099609375,233.07200622558594)"><path fill="rgb(242,76,0)" fill-opacity="1" d=" M193.60000610351562,56.79199981689453 C193.60000610351562,56.79199981689453 192.3990020751953,40.20199966430664 192.3990020751953,40.20199966430664 C192.38699340820312,40.03900146484375 192.36399841308594,39.875 192.32899475097656,39.71500015258789 C189.09300231933594,24.735000610351562 179.47799682617188,14.842000007629395 166.39599609375,6.789000034332275 C159.9550018310547,2.828000068664551 155.4409942626953,0.8690000176429749 147.9709930419922,-0.28700000047683716 C147.9709930419922,-0.28700000047683716 73.59100341796875,-12.628999710083008 73.59100341796875,-12.628999710083008 C55.76100158691406,-40.45800018310547 19.173999786376953,-81.02100372314453 -7.370999813079834,-81.02100372314453 C-7.370999813079834,-81.02100372314453 -122.11100006103516,-81.02100372314453 -122.11100006103516,-81.02100372314453 C-122.15799713134766,-81.02100372314453 -122.20600128173828,-81.0199966430664 -122.25299835205078,-81.01799774169922 C-157.1719970703125,-79.60600280761719 -184.2550048828125,-3.8410000801086426 -186.7010040283203,3.319999933242798 C-199.56700134277344,23.42099952697754 -191.22999572753906,37.2869987487793 -187.531005859375,42.415000915527344 C-189.6959991455078,48.02299880981445 -194.88299560546875,63.75 -189.86300659179688,80.41300201416016 C-189.41799926757812,81.89199829101562 -188.05599975585938,82.90299987792969 -186.51199340820312,82.90299987792969 C-186.51199340820312,82.90299987792969 -155.96099853515625,82.90299987792969 -155.96099853515625,82.90299987792969 C-154.0279998779297,82.90299987792969 -152.46099853515625,83.79100036621094 -152.46099853515625,81.85800170898438 C-152.46099853515625,81.85800170898438 136.22799682617188,81.85800170898438 136.22799682617188,81.85800170898438 C136.22799682617188,83.79100036621094 137.7949981689453,82.99800109863281 139.72799682617188,82.99800109863281 C139.72799682617188,82.99800109863281 167.20899963378906,82.99800109863281 167.20899963378906,82.99800109863281 C184.41700744628906,83.34400177001953 193.60800170898438,71.60199737548828 193.60800170898438,57.04399871826172 C193.60800170898438,56.959999084472656 193.6060028076172,56.875999450683594 193.60000610351562,56.79199981689453z M-180.53199768066406,-12.305000305175781 C-169.48599243164062,-38.465999603271484 -147.7259979248047,-78.39099884033203 -122.03700256347656,-81 C-122.03700256347656,-81 -7.370999813079834,-81 -7.370999813079834,-81 C13.550999641418457,-81 51.50899887084961,-47.90599822998047 73.11299896240234,-12.725000381469727 C73.11299896240234,-12.725000381469727 -180.53199768066406,-12.305000305175781 -180.53199768066406,-12.305000305175781z"/></g><g opacity="1" transform="matrix(1,0,0,1,73.68099975585938,254.86900329589844)"><path fill="rgb(146,20,12)" fill-opacity="1" d=" M-8.184000015258789,19.524999618530273 C-0.49799999594688416,13.607000350952148 4.190000057220459,7.6579999923706055 11.876999855041504,1.7400000095367432 C15.904999732971191,-1.8049999475479126 14.63700008392334,-8.373000144958496 9.579000473022461,-10.164999961853027 C2.9639999866485596,-12.463000297546387 -0.6539999842643738,-14.730999946594238 -7.269000053405762,-17.02899932861328 C-8.604999542236328,-17.020000457763672 -9.942000389099121,-17.010000228881836 -11.277999877929688,-17.000999450683594 C-21.41699981689453,0.007000000216066837 -16.48699951171875,13.32699966430664 -12.689000129699707,19.707000732421875"/></g><g opacity="1" transform="matrix(1,0,0,1,418.5830078125,254.89599609375)"><path fill="rgb(255,199,56)" fill-opacity="1" d=" M-9.175000190734863,-12.866000175476074 C-9.87399959564209,-12.946999549865723 -14.562000274658203,-13.562999725341797 -18.174999237060547,-10.031999588012695 C-21.292999267578125,-6.985000133514404 -22.08300018310547,-3.51200008392334 -22.000999450683594,-0.9610000252723694 C-22.350000381469727,3.5739998817443848 -19.92799949645996,13.678000450134277 -16.583999633789062,16.60300064086914 C-13.611000061035156,19.202999114990234 -9.758000373840332,19.400999069213867 -7.433000087738037,19.437999725341797 C6.931000232696533,19.665000915527344 20.55900001525879,19.33799934387207 23.815000534057617,19.2549991607666 C22.61199951171875,15.04800033569336 18.163000106811523,4.275000095367432 13.979000091552734,-1.944000005722046 C10.428000450134277,-7.223999977111816 4.535999774932861,-10.29800033569336 1.4910000562667847,-12.892000198364258 C-2.9189999103546143,-12.467000007629395 -4.764999866485596,-13.291000366210938 -9.175000190734863,-12.866000175476074z"/></g></g><g transform="matrix(0.999979555606842,-0.006390301510691643,0.006390301510691643,0.999979555606842,288.79949951171875,333.3175354003906)" opacity="1" style="display: block;"><g opacity="1" transform="matrix(1,0,0,1,0,0)"><path stroke-linecap="round" stroke-linejoin="round" fill-opacity="0" stroke="rgb(18,19,49)" stroke-opacity="1" stroke-width="7" d=" M80.13500213623047,0 C80.13500213623047,0 -80.13500213623047,0 -80.13500213623047,0"/></g></g><g transform="matrix(0.999979555606842,-0.006390301510691643,0.006390301510691643,0.999979555606842,48.092681884765625,2.049957275390625)" opacity="1" style="display: block;"><g opacity="1" transform="matrix(1,0,0,1,18.236000061035156,182.83299255371094)"><path stroke-linecap="round" stroke-linejoin="round" fill-opacity="0" stroke="rgb(18,19,49)" stroke-opacity="1" stroke-width="7" d=" M0,0"/></g><g opacity="1" transform="matrix(1,0,0,1,413.0199890136719,276.0190124511719)"><path stroke-linecap="round" stroke-linejoin="round" fill-opacity="0" stroke="rgb(18,19,49)" stroke-opacity="1" stroke-width="7" d=" M22.520000457763672,17 C22.520000457763672,17 -7.409999847412109,17 -7.409999847412109,17 C-15.760000228881836,17 -22.520000457763672,10.239999771118164 -22.520000457763672,1.899999976158142 C-22.520000457763672,1.899999976158142 -22.520000457763672,-1.8899999856948853 -22.520000457763672,-1.8899999856948853 C-22.520000457763672,-10.229999542236328 -15.760000228881836,-17 -7.409999847412109,-17 C-7.409999847412109,-17 -1.9900000095367432,-17 -1.9900000095367432,-17"/></g><g opacity="1" transform="matrix(1,0,0,1,75.4209976196289,275.53900146484375)"><path stroke-linecap="round" stroke-linejoin="round" fill-opacity="0" stroke="rgb(18,19,49)" stroke-opacity="1" stroke-width="7" d=" M-12.230999946594238,-19.170000076293945 C-12.230999946594238,-19.170000076293945 7.545000076293945,-12.164999961853027 7.545000076293945,-12.164999961853027 C12.602999687194824,-10.37399959564209 13.871000289916992,-3.805000066757202 9.843000411987305,-0.25999999046325684 C9.843000411987305,-0.25999999046325684 -12.230999946594238,19.170000076293945 -12.230999946594238,19.170000076293945"/></g><g opacity="1" transform="matrix(1,0,0,1,246.67999267578125,252.85400390625)"><path stroke-linecap="round" stroke-linejoin="round" fill-opacity="0" stroke="rgb(18,19,49)" stroke-opacity="1" stroke-width="7" d=" M-155.94000244140625,79.94499969482422 C-155.94000244140625,79.94499969482422 -186.49000549316406,79.94499969482422 -186.49000549316406,79.94499969482422 C-192.25,60.82500076293945 -183.49000549316406,41.85499954223633 -183.49000549316406,41.85499954223633 C-183.49000549316406,41.85499954223633 -198.42999267578125,26.454999923706055 -183.49000549316406,3.515000104904175 C-183.49000549316406,3.515000104904175 -155.94000244140625,-78.57499694824219 -122.08999633789062,-79.94499969482422 C-122.08999633789062,-79.94499969482422 -7.349999904632568,-79.94499969482422 -7.349999904632568,-79.94499969482422 C16.65999984741211,-79.94499969482422 53.650001525878906,-42.60499954223633 72.5199966430664,-12.484999656677246 C72.5199966430664,-12.484999656677246 145.13999938964844,-0.7850000262260437 145.13999938964844,-0.7850000262260437 C152.30999755859375,0.32499998807907104 158.97000122070312,2.8450000286102295 164.83999633789062,6.454999923706055 C177.0399932861328,13.96500015258789 185.85000610351562,26.204999923706055 188.92999267578125,40.45500183105469 C188.92999267578125,40.45500183105469 190.1300048828125,57.04499816894531 190.1300048828125,57.04499816894531 C190.1300048828125,69.69200134277344 179.8769989013672,79.94499969482422 167.22999572753906,79.94499969482422 C167.22999572753906,79.94499969482422 139.75,79.94499969482422 139.75,79.94499969482422"/></g><g opacity="1" transform="matrix(1,0,0,1,194.25999450683594,240.36900329589844)"><path stroke-linecap="round" stroke-linejoin="round" fill-opacity="0" stroke="rgb(18,19,49)" stroke-opacity="1" stroke-width="7" d=" M124.94000244140625,0 C124.94000244140625,0 -124.94000244140625,0 -124.94000244140625,0"/></g><g opacity="1" transform="matrix(1,0,0,1,130.4600067138672,206.63900756835938)"><path stroke-linecap="round" stroke-linejoin="round" fill-opacity="0" stroke="rgb(18,19,49)" stroke-opacity="1" stroke-width="7" d=" M13.720000267028809,-33.72999954223633 C13.720000267028809,-33.72999954223633 -13.720000267028809,33.72999954223633 -13.720000267028809,33.72999954223633"/></g><g opacity="1" transform="matrix(1,0,0,1,199.60899353027344,206.63900756835938)"><path stroke-linecap="round" stroke-linejoin="round" fill-opacity="0" stroke="rgb(18,19,49)" stroke-opacity="1" stroke-width="7" d=" M4.059000015258789,33.72999954223633 C4.059000015258789,33.72999954223633 -4.059000015258789,-33.72999954223633 -4.059000015258789,-33.72999954223633"/></g><g opacity="1" transform="matrix(1,0,0,1,203.66700744628906,286.5820007324219)"><path stroke-linecap="round" stroke-linejoin="round" fill-opacity="0" stroke="rgb(18,19,49)" stroke-opacity="1" stroke-width="7" d=" M0,-46.2140007019043 C0,-46.2140007019043 0,46.2140007019043 0,46.2140007019043"/></g><g opacity="1" transform="matrix(1,0,0,1,240.98800659179688,269.66400146484375)"><path stroke-linecap="round" stroke-linejoin="round" fill-opacity="0" stroke="rgb(18,19,49)" stroke-opacity="1" stroke-width="7" d=" M-10.673999786376953,0 C-10.673999786376953,0 10.673999786376953,0 10.673999786376953,0"/></g></g><g transform="matrix(1.013774037361145,0,0,0.9693390130996704,45.281707763671875,11.241973876953125)" opacity="1" style="display: block;"><path fill="rgb(58,51,71)" fill-opacity="1" d=" M352.47,332.8 C352.47,332.8 352.68,332.8 352.68,332.8 M318.72,332.8 C318.72,351.49 333.88,366.65 352.58,366.65 C371.27,366.65 386.43,351.49 386.43,332.8 C386.43,314.1 371.27,298.94 352.58,298.94 C333.88,298.94 318.72,314.1 318.72,332.8z"/><g opacity="1" transform="matrix(1,0,0,1,352.57501220703125,332.7959899902344)"><path stroke-linecap="round" stroke-linejoin="round" fill-opacity="0" stroke="rgb(18,19,49)" stroke-opacity="1" stroke-width="12.04" d=" M-0.10199999809265137,0 C-0.10199999809265137,0 0.10199999809265137,0 0.10199999809265137,0"/></g><g opacity="1" transform="matrix(1,0,0,1,352.57501220703125,332.7959899902344)"><path stroke-linecap="round" stroke-linejoin="round" fill-opacity="0" stroke="rgb(18,19,49)" stroke-opacity="1" stroke-width="7" d=" M-33.858001708984375,0 C-33.858001708984375,18.698999404907227 -18.698999404907227,33.858001708984375 0,33.858001708984375 C18.698999404907227,33.858001708984375 33.858001708984375,18.698999404907227 33.858001708984375,0 C33.858001708984375,-18.698999404907227 18.698999404907227,-33.858001708984375 0,-33.858001708984375 C-18.698999404907227,-33.858001708984375 -33.858001708984375,-18.698999404907227 -33.858001708984375,0z"/></g></g><g transform="matrix(1.013774037361145,0,0,0.9693390130996704,48.421966552734375,11.241973876953125)" opacity="1" style="display: block;"><path fill="rgb(58,51,71)" fill-opacity="1" d=" M90.74,332.8 C90.74,351.49 105.9,366.65 124.59,366.65 C143.29,366.65 158.45,351.49 158.45,332.8 C158.45,314.1 143.29,298.94 124.59,298.94 C105.9,298.94 90.74,314.1 90.74,332.8z M124.49,332.8 C124.49,332.8 124.7,332.8 124.7,332.8"/><g opacity="1" transform="matrix(1,0,0,1,124.59400177001953,332.7959899902344)"><path stroke-linecap="round" stroke-linejoin="round" fill-opacity="0" stroke="rgb(18,19,49)" stroke-opacity="1" stroke-width="7" d=" M-33.858001708984375,0 C-33.858001708984375,18.698999404907227 -18.698999404907227,33.858001708984375 0,33.858001708984375 C18.698999404907227,33.858001708984375 33.858001708984375,18.698999404907227 33.858001708984375,0 C33.858001708984375,-18.698999404907227 18.698999404907227,-33.858001708984375 0,-33.858001708984375 C-18.698999404907227,-33.858001708984375 -33.858001708984375,-18.698999404907227 -33.858001708984375,0z"/></g><g opacity="1" transform="matrix(1,0,0,1,124.59400177001953,332.7959899902344)"><path stroke-linecap="round" stroke-linejoin="round" fill-opacity="0" stroke="rgb(18,19,49)" stroke-opacity="1" stroke-width="12.04" d=" M-0.10199999809265137,0 C-0.10199999809265137,0 0.10199999809265137,0 0.10199999809265137,0"/></g></g><g class="com" transform="matrix(2.65159010887146,0,0,2.65159010887146,37.9818115234375,480.39056396484375)" opacity="0.2" style="display: none;"><g opacity="1" transform="matrix(1,0,0,1,0,0)"><path fill="rgb(0,0,0)" fill-opacity="1" d=" M141.6959991455078,0 C141.6959991455078,0 144.6699981689453,0 144.6699981689453,0 C144.6699981689453,0 144.6699981689453,-12.715999603271484 144.6699981689453,-12.715999603271484 C144.6699981689453,-12.715999603271484 148.62899780273438,0 148.62899780273438,0 C148.62899780273438,0 151.25399780273438,0 151.25399780273438,0 C151.25399780273438,0 155.2949981689453,-12.715999603271484 155.2949981689453,-12.715999603271484 C155.2949981689453,-12.715999603271484 155.2949981689453,0 155.2949981689453,0 C155.2949981689453,0 158.4530029296875,0 158.4530029296875,0 C158.4530029296875,0 158.4530029296875,-14.829000473022461 158.4530029296875,-14.829000473022461 C158.4530029296875,-14.829000473022461 153.4080047607422,-14.829000473022461 153.4080047607422,-14.829000473022461 C153.4080047607422,-14.829000473022461 150.0240020751953,-4.040999889373779 150.0240020751953,-4.040999889373779 C150.0240020751953,-4.040999889373779 146.88499450683594,-14.829000473022461 146.88499450683594,-14.829000473022461 C146.88499450683594,-14.829000473022461 141.6959991455078,-14.829000473022461 141.6959991455078,-14.829000473022461 C141.6959991455078,-14.829000473022461 141.6959991455078,0 141.6959991455078,0z"/></g><g opacity="1" transform="matrix(1,0,0,1,0,0)"><path fill="rgb(0,0,0)" fill-opacity="1" d=" M128.80499267578125,-7.302000045776367 C128.80499267578125,-8.984000205993652 129.05099487304688,-10.583000183105469 129.89199829101562,-11.609000205993652 C130.48699951171875,-12.368000030517578 131.42999267578125,-12.859999656677246 132.6199951171875,-12.859999656677246 C134.13800048828125,-12.859999656677246 135.38900756835938,-12.0600004196167 136.00399780273438,-10.234999656677246 C136.31199645996094,-9.333000183105469 136.3730010986328,-8.307000160217285 136.3730010986328,-7.589000225067139 C136.3730010986328,-5.230000019073486 135.86000061035156,-4.080999851226807 135.3679962158203,-3.3429999351501465 C134.7729949951172,-2.4200000762939453 133.89100646972656,-1.968999981880188 132.5989990234375,-1.968999981880188 C131.1219940185547,-1.968999981880188 130.36300659179688,-2.5439999103546143 129.91200256347656,-3.1589999198913574 C129.02999877929688,-4.308000087738037 128.80499267578125,-5.88700008392334 128.80499267578125,-7.302000045776367z M125.48200225830078,-7.198999881744385 C125.48200225830078,-5.84499979019165 125.68800354003906,-3.384000062942505 127.30799865722656,-1.6610000133514404 C128.66200256347656,-0.2460000067949295 130.60899353027344,0.36899998784065247 132.55799865722656,0.36899998784065247 C133.78900146484375,0.36899998784065247 136.18800354003906,0.10300000011920929 137.82899475097656,-1.7430000305175781 C139.03900146484375,-3.0969998836517334 139.6959991455078,-5.394000053405762 139.6959991455078,-7.547999858856201 C139.6959991455078,-9.003999710083008 139.38800048828125,-11.321999549865723 137.8090057373047,-13.126999855041504 C136.35299682617188,-14.767999649047852 134.17799377441406,-15.13700008392334 132.5989990234375,-15.13700008392334 C127.26599884033203,-15.13700008392334 125.48200225830078,-11.13700008392334 125.48200225830078,-7.198999881744385z"/></g><g opacity="1" transform="matrix(1,0,0,1,0,0)"><path fill="rgb(0,0,0)" fill-opacity="1" d=" M124.04000091552734,-9.98900032043457 C124.04000091552734,-12.942999839782715 121.76399993896484,-14.91100025177002 118.52300262451172,-14.91100025177002 C114.35900115966797,-14.91100025177002 111.73400115966797,-11.793999671936035 111.73400115966797,-7.0970001220703125 C111.73400115966797,-3.4260001182556152 113.3949966430664,0.3490000069141388 118.50199890136719,0.3490000069141388 C119.85600280761719,0.3490000069141388 121.51699829101562,0.04100000113248825 122.83000183105469,-1.312999963760376 C124.0199966430664,-2.5439999103546143 124.10099792480469,-3.9170000553131104 124.16300201416016,-4.798999786376953 C124.16300201416016,-4.798999786376953 120.81999969482422,-4.798999786376953 120.81999969482422,-4.798999786376953 C120.75800323486328,-2.8299999237060547 119.48699951171875,-1.9900000095367432 118.15399932861328,-1.9900000095367432 C115.05699920654297,-1.9900000095367432 115.05699920654297,-6.193999767303467 115.05699920654297,-7.076000213623047 C115.05699920654297,-10.131999969482422 116.04100036621094,-12.593000411987305 118.4000015258789,-12.593000411987305 C120.55400085449219,-12.593000411987305 120.73799896240234,-10.501999855041504 120.80000305175781,-9.98900032043457 C120.80000305175781,-9.98900032043457 124.04000091552734,-9.98900032043457 124.04000091552734,-9.98900032043457z"/></g><g opacity="1" transform="matrix(1,0,0,1,0,0)"><path fill="rgb(0,0,0)" fill-opacity="1" d=" M106.89299774169922,0 C106.89299774169922,0 109.49700164794922,0 109.49700164794922,0 C109.49700164794922,0 109.49700164794922,-2.7279999256134033 109.49700164794922,-2.7279999256134033 C109.49700164794922,-2.7279999256134033 106.89299774169922,-2.7279999256134033 106.89299774169922,-2.7279999256134033 C106.89299774169922,-2.7279999256134033 106.89299774169922,0 106.89299774169922,0z"/></g><g opacity="1" transform="matrix(1,0,0,1,0,0)"><path fill="rgb(0,0,0)" fill-opacity="1" d=" M91.00700378417969,0 C91.00700378417969,0 94.0009994506836,0 94.0009994506836,0 C94.0009994506836,0 94.0009994506836,-12.305999755859375 94.0009994506836,-12.305999755859375 C94.0009994506836,-12.305999755859375 99.74400329589844,0 99.74400329589844,0 C99.74400329589844,0 104.11299896240234,0 104.11299896240234,0 C104.11299896240234,0 104.11299896240234,-14.829000473022461 104.11299896240234,-14.829000473022461 C104.11299896240234,-14.829000473022461 101.15899658203125,-14.829000473022461 101.15899658203125,-14.829000473022461 C101.15899658203125,-14.829000473022461 101.15899658203125,-3.1589999198913574 101.15899658203125,-3.1589999198913574 C101.15899658203125,-3.1589999198913574 95.60099792480469,-14.829000473022461 95.60099792480469,-14.829000473022461 C95.60099792480469,-14.829000473022461 91.00700378417969,-14.829000473022461 91.00700378417969,-14.829000473022461 C91.00700378417969,-14.829000473022461 91.00700378417969,0 91.00700378417969,0z"/></g><g opacity="1" transform="matrix(1,0,0,1,0,0)"><path fill="rgb(0,0,0)" fill-opacity="1" d=" M77.86900329589844,-7.302000045776367 C77.86900329589844,-8.984000205993652 78.11499786376953,-10.583000183105469 78.95600128173828,-11.609000205993652 C79.5510025024414,-12.368000030517578 80.49400329589844,-12.859999656677246 81.68399810791016,-12.859999656677246 C83.2020034790039,-12.859999656677246 84.4530029296875,-12.0600004196167 85.06800079345703,-10.234999656677246 C85.3759994506836,-9.333000183105469 85.43699645996094,-8.307000160217285 85.43699645996094,-7.589000225067139 C85.43699645996094,-5.230000019073486 84.92400360107422,-4.080999851226807 84.43199920654297,-3.3429999351501465 C83.83699798583984,-2.4200000762939453 82.95500183105469,-1.968999981880188 81.66300201416016,-1.968999981880188 C80.18599700927734,-1.968999981880188 79.4280014038086,-2.5439999103546143 78.97699737548828,-3.1589999198913574 C78.09500122070312,-4.308000087738037 77.86900329589844,-5.88700008392334 77.86900329589844,-7.302000045776367z M74.5459976196289,-7.198999881744385 C74.5459976196289,-5.84499979019165 74.75199890136719,-3.384000062942505 76.37200164794922,-1.6610000133514404 C77.72599792480469,-0.2460000067949295 79.6729965209961,0.36899998784065247 81.62200164794922,0.36899998784065247 C82.85299682617188,0.36899998784065247 85.25299835205078,0.10300000011920929 86.89399719238281,-1.7430000305175781 C88.10399627685547,-3.0969998836517334 88.76000213623047,-5.394000053405762 88.76000213623047,-7.547999858856201 C88.76000213623047,-9.003999710083008 88.4520034790039,-11.321999549865723 86.87300109863281,-13.126999855041504 C85.41699981689453,-14.767999649047852 83.24199676513672,-15.13700008392334 81.66300201416016,-15.13700008392334 C76.33000183105469,-15.13700008392334 74.5459976196289,-11.13700008392334 74.5459976196289,-7.198999881744385z"/></g><g opacity="1" transform="matrix(1,0,0,1,0,0)"><path fill="rgb(0,0,0)" fill-opacity="1" d=" M73.10399627685547,-9.98900032043457 C73.10399627685547,-12.942999839782715 70.8280029296875,-14.91100025177002 67.58699798583984,-14.91100025177002 C63.42300033569336,-14.91100025177002 60.79800033569336,-11.793999671936035 60.79800033569336,-7.0970001220703125 C60.79800033569336,-3.4260001182556152 62.45899963378906,0.3490000069141388 67.56600189208984,0.3490000069141388 C68.91999816894531,0.3490000069141388 70.58100128173828,0.04100000113248825 71.89399719238281,-1.312999963760376 C73.08399963378906,-2.5439999103546143 73.16500091552734,-3.9170000553131104 73.22699737548828,-4.798999786376953 C73.22699737548828,-4.798999786376953 69.88400268554688,-4.798999786376953 69.88400268554688,-4.798999786376953 C69.8219985961914,-2.8299999237060547 68.5510025024414,-1.9900000095367432 67.21800231933594,-1.9900000095367432 C64.12100219726562,-1.9900000095367432 64.12100219726562,-6.193999767303467 64.12100219726562,-7.076000213623047 C64.12100219726562,-10.131999969482422 65.1050033569336,-12.593000411987305 67.46399688720703,-12.593000411987305 C69.61799621582031,-12.593000411987305 69.802001953125,-10.501999855041504 69.86399841308594,-9.98900032043457 C69.86399841308594,-9.98900032043457 73.10399627685547,-9.98900032043457 73.10399627685547,-9.98900032043457z"/></g><g opacity="1" transform="matrix(1,0,0,1,0,0)"><path fill="rgb(0,0,0)" fill-opacity="1" d=" M55.66899871826172,0 C55.66899871826172,0 58.8489990234375,0 58.8489990234375,0 C58.8489990234375,0 58.8489990234375,-14.869999885559082 58.8489990234375,-14.869999885559082 C58.8489990234375,-14.869999885559082 55.66899871826172,-14.869999885559082 55.66899871826172,-14.869999885559082 C55.66899871826172,-14.869999885559082 55.66899871826172,0 55.66899871826172,0z"/></g><g opacity="1" transform="matrix(1,0,0,1,0,0)"><path fill="rgb(0,0,0)" fill-opacity="1" d=" M44.28799819946289,-12.387999534606934 C46.112998962402344,-12.470000267028809 46.95500183105469,-12.368000030517578 47.611000061035156,-12.182999610900879 C49.60100173950195,-11.628999710083008 50.31800079345703,-9.701000213623047 50.31800079345703,-7.609000205993652 C50.31800079345703,-6.890999794006348 50.236000061035156,-4.676000118255615 48.98500061035156,-3.424999952316284 C48.0620002746582,-2.502000093460083 46.893001556396484,-2.4000000953674316 45.53900146484375,-2.4000000953674316 C45.16999816894531,-2.4000000953674316 44.637001037597656,-2.4200000762939453 44.28799819946289,-2.440999984741211 C44.28799819946289,-2.440999984741211 44.28799819946289,-12.387999534606934 44.28799819946289,-12.387999534606934z M41.06800079345703,0 C41.06800079345703,0 45.68299865722656,0 45.68299865722656,0 C47.18000030517578,0 47.79499816894531,-0.061000000685453415 48.3489990234375,-0.164000004529953 C51.159000396728516,-0.6769999861717224 53.599998474121094,-3.055999994277954 53.599998474121094,-7.609000205993652 C53.599998474121094,-9.722000122070312 52.94300079345703,-12.0600004196167 51.07699966430664,-13.434000015258789 C49.292999267578125,-14.746999740600586 46.790000915527344,-14.767999649047852 45.970001220703125,-14.767999649047852 C45.970001220703125,-14.767999649047852 41.06800079345703,-14.788000106811523 41.06800079345703,-14.788000106811523 C41.06800079345703,-14.788000106811523 41.06800079345703,0 41.06800079345703,0z"/></g><g opacity="1" transform="matrix(1,0,0,1,0,0)"><path fill="rgb(0,0,0)" fill-opacity="1" d=" M30.518999099731445,-12.491000175476074 C30.518999099731445,-12.491000175476074 32.652000427246094,-12.491000175476074 32.652000427246094,-12.491000175476074 C33.65700149536133,-12.491000175476074 34.25199890136719,-12.491000175476074 34.74399948120117,-12.142000198364258 C35.03099822998047,-11.956999778747559 35.52399826049805,-11.486000061035156 35.52399826049805,-10.480999946594238 C35.52399826049805,-9.4350004196167 34.92900085449219,-8.92199993133545 34.702999114990234,-8.758000373840332 C34.189998626708984,-8.347999572753906 33.45199966430664,-8.347999572753906 33.08300018310547,-8.347999572753906 C33.08300018310547,-8.347999572753906 30.518999099731445,-8.347999572753906 30.518999099731445,-8.347999572753906 C30.518999099731445,-8.347999572753906 30.518999099731445,-12.491000175476074 30.518999099731445,-12.491000175476074z M27.381000518798828,0 C27.381000518798828,0 30.621999740600586,0 30.621999740600586,0 C30.621999740600586,0 30.621999740600586,-5.988999843597412 30.621999740600586,-5.988999843597412 C30.621999740600586,-5.988999843597412 33.4109992980957,-5.988999843597412 33.4109992980957,-5.988999843597412 C33.944000244140625,-5.988999843597412 34.7239990234375,-5.988999843597412 35.01100158691406,-5.1479997634887695 C35.215999603271484,-4.573999881744385 35.66699981689453,-0.8199999928474426 35.81100082397461,0 C35.81100082397461,0 39.31800079345703,0 39.31800079345703,0 C39.15399932861328,-0.2460000067949295 39.03099822998047,-0.41100001335144043 38.867000579833984,-1.0670000314712524 C38.763999938964844,-1.4769999980926514 38.641998291015625,-2.194999933242798 38.41600036621094,-3.937999963760376 C38.14899826049805,-5.866000175476074 37.98500061035156,-7.138000011444092 35.749000549316406,-7.3429999351501465 C36.46699905395508,-7.547999858856201 38.84700012207031,-8.204000473022461 38.84700012207031,-10.972999572753906 C38.84700012207031,-11.937000274658203 38.47700119018555,-13.02400016784668 37.55400085449219,-13.824000358581543 C36.36399841308594,-14.850000381469727 34.70399856567383,-14.850000381469727 33.0629997253418,-14.829000473022461 C33.0629997253418,-14.829000473022461 27.381000518798828,-14.829000473022461 27.381000518798828,-14.829000473022461 C27.381000518798828,-14.829000473022461 27.381000518798828,0 27.381000518798828,0z"/></g><g opacity="1" transform="matrix(1,0,0,1,0,0)"><path fill="rgb(0,0,0)" fill-opacity="1" d=" M14.489999771118164,-7.302000045776367 C14.489999771118164,-8.984000205993652 14.736000061035156,-10.583000183105469 15.57699966430664,-11.609000205993652 C16.172000885009766,-12.368000030517578 17.114999771118164,-12.859999656677246 18.30500030517578,-12.859999656677246 C19.822999954223633,-12.859999656677246 21.073999404907227,-12.0600004196167 21.68899917602539,-10.234999656677246 C21.996999740600586,-9.333000183105469 22.058000564575195,-8.307000160217285 22.058000564575195,-7.589000225067139 C22.058000564575195,-5.230000019073486 21.545000076293945,-4.080999851226807 21.05299949645996,-3.3429999351501465 C20.45800018310547,-2.4200000762939453 19.576000213623047,-1.968999981880188 18.284000396728516,-1.968999981880188 C16.80699920654297,-1.968999981880188 16.04800033569336,-2.5439999103546143 15.597000122070312,-3.1589999198913574 C14.71500015258789,-4.308000087738037 14.489999771118164,-5.88700008392334 14.489999771118164,-7.302000045776367z M11.166999816894531,-7.198999881744385 C11.166999816894531,-5.84499979019165 11.371999740600586,-3.384000062942505 12.991999626159668,-1.6610000133514404 C14.345999717712402,-0.2460000067949295 16.29400062561035,0.36899998784065247 18.243000030517578,0.36899998784065247 C19.474000930786133,0.36899998784065247 21.87299919128418,0.10300000011920929 23.513999938964844,-1.7430000305175781 C24.724000930786133,-3.0969998836517334 25.381000518798828,-5.394000053405762 25.381000518798828,-7.547999858856201 C25.381000518798828,-9.003999710083008 25.072999954223633,-11.321999549865723 23.493999481201172,-13.126999855041504 C22.038000106811523,-14.767999649047852 19.863000869750977,-15.13700008392334 18.284000396728516,-15.13700008392334 C12.951000213623047,-15.13700008392334 11.166999816894531,-11.13700008392334 11.166999816894531,-7.198999881744385z"/></g><g opacity="1" transform="matrix(1,0,0,1,0,0)"><path fill="rgb(0,0,0)" fill-opacity="1" d=" M1.4149999618530273,0 C1.4149999618530273,0 11.013999938964844,0 11.013999938964844,0 C11.013999938964844,0 11.013999938964844,-2.5230000019073486 11.013999938964844,-2.5230000019073486 C11.013999938964844,-2.5230000019073486 4.656000137329102,-2.5230000019073486 4.656000137329102,-2.5230000019073486 C4.656000137329102,-2.5230000019073486 4.656000137329102,-14.809000015258789 4.656000137329102,-14.809000015258789 C4.656000137329102,-14.809000015258789 1.4149999618530273,-14.809000015258789 1.4149999618530273,-14.809000015258789 C1.4149999618530273,-14.809000015258789 1.4149999618530273,0 1.4149999618530273,0z"/></g></g></g></svg>