<svg xmlns="http://www.w3.org/2000/svg" xmlns:xlink="http://www.w3.org/1999/xlink" viewBox="0 0 500 500" width="500" height="500" preserveAspectRatio="xMidYMid meet" style="width: 100%; height: 100%; transform: translate3d(0px, 0px, 0px); content-visibility: visible;"><defs><clipPath id="__lottie_element_2"><rect width="500" height="500" x="0" y="0"/></clipPath></defs><g clip-path="url(#__lottie_element_2)"><g transform="matrix(-0.637630820274353,-0.7686141133308411,0.7791980504989624,-0.6289698481559753,36.81602478027344,224.7246551513672)" opacity="1" style="display: block;"><g opacity="1" transform="matrix(1,0,0,1,0,0)"><path stroke-linecap="round" stroke-linejoin="round" fill-opacity="0" stroke="rgb(18,19,49)" stroke-opacity="1" stroke-width="7" d=" M-38.70100021362305,37.029998779296875 C-38.70100021362305,77.56099700927734 -71.55799865722656,110.41799926757812 -112.08899688720703,110.41799926757812 C-152.6199951171875,110.41799926757812 -185.4770050048828,77.56099700927734 -185.4770050048828,37.029998779296875 C-185.4770050048828,-3.500999927520752 -152.6199951171875,-36.358001708984375 -112.08899688720703,-36.358001708984375 C-71.55799865722656,-36.358001708984375 -38.70100021362305,-3.500999927520752 -38.70100021362305,37.029998779296875z"/></g><g opacity="1" transform="matrix(1,0,0,1,0,0)"><path stroke-linecap="round" stroke-linejoin="round" fill-opacity="0" stroke="rgb(18,19,49)" stroke-opacity="1" stroke-width="7" d=" M-112.08899688720703,86.7229995727539 C-139.53399658203125,86.7229995727539 -161.7830047607422,64.4749984741211 -161.7830047607422,37.029998779296875"/></g></g><g transform="matrix(-0.637630820274353,-0.7686141133308411,0.7791980504989624,-0.6289698481559753,263.35455322265625,224.7246551513672)" opacity="1" style="display: block;"><g opacity="1" transform="matrix(1,0,0,1,0,0)"><path stroke-linecap="round" stroke-linejoin="round" fill-opacity="0" stroke="rgb(18,19,49)" stroke-opacity="1" stroke-width="7" d=" M-38.70100021362305,37.029998779296875 C-38.70100021362305,77.56099700927734 -71.55799865722656,110.41799926757812 -112.08899688720703,110.41799926757812 C-152.6199951171875,110.41799926757812 -185.4770050048828,77.56099700927734 -185.4770050048828,37.029998779296875 C-185.4770050048828,-3.500999927520752 -152.6199951171875,-36.358001708984375 -112.08899688720703,-36.358001708984375 C-71.55799865722656,-36.358001708984375 -38.70100021362305,-3.500999927520752 -38.70100021362305,37.029998779296875z"/></g><g opacity="1" transform="matrix(1,0,0,1,0,0)"><path stroke-linecap="round" stroke-linejoin="round" fill-opacity="0" stroke="rgb(18,19,49)" stroke-opacity="1" stroke-width="7" d=" M-112.08899688720703,86.7229995727539 C-139.53399658203125,86.7229995727539 -161.7830047607422,64.4749984741211 -161.7830047607422,37.029998779296875"/></g></g><g transform="matrix(1.0068379640579224,0,0,0.9931619763374329,249.99658203125,250.810302734375)" opacity="1" style="display: block;"><g opacity="1" transform="matrix(1,0,0,1,0,0)"><path stroke-linecap="round" stroke-linejoin="round" fill-opacity="0" stroke="rgb(242,76,0)" stroke-opacity="1" stroke-width="7" d=" M-112.08899688720703,37.029998779296875 C-112.08899688720703,37.029998779296875 -40.029998779296875,-57.6510009765625 -40.029998779296875,-57.6510009765625 C-40.029998779296875,-57.6510009765625 0,37.029998779296875 0,37.029998779296875 C0,37.029998779296875 -112.08899688720703,37.029998779296875 -112.08899688720703,37.029998779296875z"/></g><g opacity="1" transform="matrix(1,0,0,1,0,0)"><path stroke-linecap="round" stroke-linejoin="round" fill-opacity="0" stroke="rgb(242,76,0)" stroke-opacity="1" stroke-width="7" d=" M0,37.029998779296875 C0,37.029998779296875 80.05999755859375,-83.05999755859375 80.05999755859375,-83.05999755859375 C80.05999755859375,-83.05999755859375 -40.029998779296875,-57.6510009765625 -40.029998779296875,-57.6510009765625 C-40.029998779296875,-57.6510009765625 -62.715999603271484,-109.427001953125 -62.715999603271484,-109.427001953125"/></g><g opacity="1" transform="matrix(1,0,0,1,0,0)"><path stroke-linecap="round" stroke-linejoin="round" fill-opacity="0" stroke="rgb(242,76,0)" stroke-opacity="1" stroke-width="7" d=" M113.41799926757812,37.029998779296875 C113.41799926757812,37.029998779296875 80.05999755859375,-83.05999755859375 80.05999755859375,-83.05999755859375 C80.05999755859375,-83.05999755859375 73.70500183105469,-109.74600219726562 73.70500183105469,-109.74600219726562 C73.70500183105469,-109.74600219726562 105.07499694824219,-109.74600219726562 105.07499694824219,-109.74600219726562 C112.44400024414062,-109.74600219726562 118.41799926757812,-103.77200317382812 118.41799926757812,-96.40299987792969 C118.41799926757812,-96.40299987792969 118.41799926757812,-96.40299987792969 118.41799926757812,-96.40299987792969 C118.41799926757812,-89.03399658203125 112.44400024414062,-83.05999755859375 105.07499694824219,-83.05999755859375"/></g><g opacity="1" transform="matrix(1,0,0,1,0,0)"><path stroke-linecap="round" stroke-linejoin="round" fill-opacity="0" stroke="rgb(18,19,49)" stroke-opacity="1" stroke-width="7" d=" M73.70500183105469,-109.74600219726562 C73.70500183105469,-109.74600219726562 105.07499694824219,-109.74600219726562 105.07499694824219,-109.74600219726562 C112.44400024414062,-109.74600219726562 118.41799926757812,-103.77200317382812 118.41799926757812,-96.40299987792969 C118.41799926757812,-96.40299987792969 118.41799926757812,-96.40299987792969 118.41799926757812,-96.40299987792969 C118.41799926757812,-89.03399658203125 112.44400024414062,-83.05999755859375 105.07499694824219,-83.05999755859375"/></g><g opacity="1" transform="matrix(1,0,0,1,0,0)"><path stroke-linecap="round" stroke-linejoin="round" fill-opacity="0" stroke="rgb(18,19,49)" stroke-opacity="1" stroke-width="7" d=" M-86.73100280761719,-110.06600189208984 C-86.73100280761719,-110.06600189208984 -46.70100021362305,-110.06600189208984 -46.70100021362305,-110.06600189208984"/></g></g><g class="com" style="display: none;"><g><path/></g><g><path/></g><g><path/></g><g><path/></g><g><path/></g><g><path/></g><g><path/></g><g><path/></g><g><path/></g><g><path/></g><g><path/></g><g><path/></g></g></g></svg>