<svg xmlns="http://www.w3.org/2000/svg" xmlns:xlink="http://www.w3.org/1999/xlink" viewBox="0 0 500 500" width="500" height="500" preserveAspectRatio="xMidYMid meet" style="width: 100%; height: 100%; transform: translate3d(0px, 0px, 0px); content-visibility: visible;"><defs><clipPath id="__lottie_element_51"><rect width="500" height="500" x="0" y="0"/></clipPath><g id="__lottie_element_95"><g transform="matrix(1,0,0,1,250,250)" opacity="1" style="display: block;"><path fill="rgb(255,0,0)" fill-opacity="1" d=" M89.87999725341797,-69.27999877929688 C89.87999725341797,-69.27999877929688 110.11000061035156,-21.229999542236328 110.11000061035156,-21.229999542236328 C110.11000061035156,-21.229999542236328 109.7300033569336,5.070000171661377 109.7300033569336,5.070000171661377 C109.7300033569336,5.070000171661377 109.20999908447266,40.900001525878906 109.20999908447266,40.900001525878906 C109.20999908447266,40.900001525878906 132.35000610351562,49.84000015258789 140.80999755859375,27.5 C140.80999755859375,27.5 141.55999755859375,-27.6299991607666 141.55999755859375,-27.6299991607666 C141.55999755859375,-27.6299991607666 119.69999694824219,-79.80999755859375 119.69999694824219,-79.80999755859375 C119.69999694824219,-79.80999755859375 119.69000244140625,-79.83999633789062 119.69000244140625,-79.83999633789062 C119.69000244140625,-79.83999633789062 117.0999984741211,-86.01000213623047 117.0999984741211,-86.01000213623047"/><g opacity="1" transform="matrix(1,0,0,1,0,0)"><path stroke-linecap="round" stroke-linejoin="round" fill-opacity="0" stroke="rgb(8,168,138)" stroke-opacity="1" stroke-width="0" d=" M89.87999725341797,-69.27999877929688 C89.87999725341797,-69.27999877929688 110.11000061035156,-21.229999542236328 110.11000061035156,-21.229999542236328 C110.11000061035156,-21.229999542236328 109.7300033569336,5.070000171661377 109.7300033569336,5.070000171661377 C109.7300033569336,5.070000171661377 109.20999908447266,40.900001525878906 109.20999908447266,40.900001525878906 C109.20999908447266,40.900001525878906 132.35000610351562,49.84000015258789 140.80999755859375,27.5 C140.80999755859375,27.5 141.55999755859375,-27.6299991607666 141.55999755859375,-27.6299991607666 C141.55999755859375,-27.6299991607666 119.69999694824219,-79.80999755859375 119.69999694824219,-79.80999755859375 C119.69999694824219,-79.80999755859375 119.69000244140625,-79.83999633789062 119.69000244140625,-79.83999633789062 C119.69000244140625,-79.83999633789062 117.0999984741211,-86.01000213623047 117.0999984741211,-86.01000213623047"/></g></g></g><g id="__lottie_element_107"><g transform="matrix(1,0,0,1,250,250)" opacity="1" style="display: block;"><g opacity="1" transform="matrix(1,0,0,1,0,0)"><path fill="rgb(255,255,255)" fill-opacity="1" d=" M-69.6709976196289,-69.66600036621094 C-69.6709976196289,-69.66600036621094 -36.112998962402344,-27.052000045776367 -36.112998962402344,-27.052000045776367 C-36.112998962402344,-27.052000045776367 17.719999313354492,3.13700008392334 17.719999313354492,3.13700008392334 C17.719999313354492,3.13700008392334 14.394000053405762,26.280000686645508 -8.777999877929688,21.927000045776367 C-8.777999877929688,21.927000045776367 -56.62900161743164,-4.7870001792907715 -56.62900161743164,-4.7870001792907715 C-56.62900161743164,-4.7870001792907715 -105.39399719238281,-69.58200073242188 -105.39399719238281,-69.58200073242188"/></g></g></g><g id="__lottie_element_103"><g transform="matrix(1,0,0,1,250,250)" opacity="1" style="display: block;"><g opacity="1" transform="matrix(1,0,0,1,0,0)"><path fill="rgb(255,255,255)" fill-opacity="1" d=" M-69.6709976196289,-69.66600036621094 C-69.6709976196289,-69.66600036621094 -36.112998962402344,-27.052000045776367 -36.112998962402344,-27.052000045776367 C-36.112998962402344,-27.052000045776367 17.719999313354492,3.13700008392334 17.719999313354492,3.13700008392334 C17.719999313354492,3.13700008392334 14.394000053405762,26.280000686645508 -8.777999877929688,21.927000045776367 C-8.777999877929688,21.927000045776367 -56.62900161743164,-4.7870001792907715 -56.62900161743164,-4.7870001792907715 C-56.62900161743164,-4.7870001792907715 -105.39399719238281,-69.58200073242188 -105.39399719238281,-69.58200073242188"/></g></g></g><filter id="__lottie_element_123" filterUnits="objectBoundingBox" x="0%" y="0%" width="100%" height="100%"><feComponentTransfer in="SourceGraphic"><feFuncA type="table" tableValues="1.0 0.0"/></feComponentTransfer></filter><mask id="__lottie_element_103_2" mask-type="alpha"><g filter="url(#__lottie_element_123)"><rect width="500" height="500" x="0" y="0" fill="#ffffff" opacity="0"/><use xmlns:ns1="http://www.w3.org/1999/xlink" ns1:href="#__lottie_element_103"/></g></mask><filter id="__lottie_element_124" filterUnits="objectBoundingBox" x="0%" y="0%" width="100%" height="100%"><feComponentTransfer in="SourceGraphic"><feFuncA type="table" tableValues="1.0 0.0"/></feComponentTransfer></filter><mask id="__lottie_element_107_2" mask-type="alpha"><g filter="url(#__lottie_element_124)"><rect width="500" height="500" x="0" y="0" fill="#ffffff" opacity="0"/><use xmlns:ns2="http://www.w3.org/1999/xlink" ns2:href="#__lottie_element_107"/></g></mask><filter id="__lottie_element_125" filterUnits="objectBoundingBox" x="0%" y="0%" width="100%" height="100%"><feComponentTransfer in="SourceGraphic"><feFuncA type="table" tableValues="1.0 0.0"/></feComponentTransfer></filter><mask id="__lottie_element_95_2" mask-type="alpha"><g filter="url(#__lottie_element_125)"><rect width="500" height="500" x="0" y="0" fill="#ffffff" opacity="0"/><use xmlns:ns3="http://www.w3.org/1999/xlink" ns3:href="#__lottie_element_95"/></g></mask></defs><g clip-path="url(#__lottie_element_51)"><g transform="matrix(1,0,0,1,-2.5,0)" opacity="1" style="display: block;"><g opacity="1" transform="matrix(1,0,0,1,152.343994140625,94.62999725341797)"><path fill="rgb(249,201,192)" fill-opacity="1" d=" M29.663000106811523,-10.645999908447266 C29.663000106811523,-10.645999908447266 29.663000106811523,21.172000885009766 29.663000106811523,21.172000885009766 C29.663000106811523,22.908000946044922 28.951000213623047,24.493999481201172 27.80699920654297,25.63800048828125 C27.777000427246094,25.67799949645996 27.73699951171875,25.70800018310547 27.707000732421875,25.72800064086914 C26.562999725341797,26.82200050354004 25.027999877929688,27.4950008392334 23.341999053955078,27.4950008392334 C23.341999053955078,27.4950008392334 5.070000171661377,27.4950008392334 5.070000171661377,27.4950008392334 C3.11299991607666,27.444000244140625 1.315999984741211,27.31399917602539 -0.3190000057220459,27.10300064086914 C-0.3490000069141388,27.10300064086914 -0.36899998784065247,27.10300064086914 -0.3889999985694885,27.093000411987305 C-10.062000274658203,25.16699981689453 -17.406999588012695,16.586999893188477 -17.406999588012695,6.372000217437744 C-17.406999588012695,6.372000217437744 -17.406999588012695,-10.645999908447266 -17.406999588012695,-10.645999908447266 C-17.406999588012695,-14.218000411987305 -16.503000259399414,-17.599000930786133 -14.918000221252441,-20.55900001525879 C-14.47700023651123,-21.381000518798828 -13.975000381469727,-22.163999557495117 -13.432999610900879,-22.926000595092773 C-13.293000221252441,-23.117000579833984 -13.152000427246094,-23.30900001525879 -13.01200008392334,-23.499000549316406 C-12.66100025177002,-23.951000213623047 -12.300000190734863,-24.39299964904785 -11.907999992370605,-24.823999404907227 C-9.510000228881836,-27.46299934387207 -6.455999851226807,-29.479000091552734 -3.0179998874664307,-30.652999877929688 C-0.9010000228881836,-31.375999450683594 1.3669999837875366,-31.767000198364258 3.7149999141693115,-31.767000198364258 C3.7149999141693115,-31.767000198364258 8.531000137329102,-31.767000198364258 8.531000137329102,-31.767000198364258 C20.149999618530273,-31.767000198364258 29.663000106811523,-22.2549991607666 29.663000106811523,-10.645999908447266z"/></g><g opacity="1" transform="matrix(1,0,0,1,152.343994140625,74.01399993896484)"><path fill="rgb(178,104,54)" fill-opacity="1" d=" M27.878999710083008,1.284999966621399 C24.465999603271484,-6.235000133514404 16.350000381469727,-11.10099983215332 7.739999771118164,-10.821000099182129 C7.739999771118164,-10.821000099182129 4.810999870300293,-10.819000244140625 4.810999870300293,-10.819000244140625 C-6.23799991607666,-11.262999534606934 -16.077999114990234,-3.0490000247955322 -17.117000579833984,7.466000080108643 C-17.22800064086914,8.588000297546387 -17.236000061035156,15.229000091552734 -17.20199966430664,16.312999725341797 C-17.183000564575195,16.947999954223633 -16.68600082397461,17.475000381469727 -16.03499984741211,17.552000045776367 C-15.36400032043457,17.634000778198242 -14.770000457763672,17.235000610351562 -14.592000007629395,16.624000549316406 C-13.963000297546387,14.467000007629395 -12.583999633789062,12.850000381469727 -10.604000091552734,11.946000099182129 C-7.728000164031982,10.633999824523926 -3.8919999599456787,10.925999641418457 0.48899999260902405,12.788999557495117 C4.8420000076293945,14.640000343322754 8.718000411987305,12.437000274658203 12.140000343322754,10.494999885559082 C15.741999626159668,8.449999809265137 18.101999282836914,7.310999870300293 20.47800064086914,8.692999839782715 C25.520000457763672,11.62600040435791 26.430999755859375,14.418999671936035 27.033000946044922,16.267000198364258 C27.033000946044922,16.267000198364258 27.170000076293945,16.677000045776367 27.170000076293945,16.677000045776367 C27.351999282836914,17.211999893188477 27.865999221801758,17.562000274658203 28.433000564575195,17.562000274658203 C28.503000259399414,17.562000274658203 28.572999954223633,17.55699920654297 28.643999099731445,17.54599952697754 C29.288999557495117,17.445999145507812 29.763999938964844,16.906999588012695 29.763999938964844,16.274999618530273 C29.763999938964844,12.51200008392334 29.124000549316406,3.8529999256134033 27.878999710083008,1.284999966621399z"/></g></g><g transform="matrix(1,0,0,1,2.5,0)" opacity="1" style="display: block;"><g opacity="1" transform="matrix(1,0,0,1,328.1499938964844,94.36799621582031)"><path fill="rgb(178,104,54)" fill-opacity="1" d=" M24.334999084472656,-10.387999534606934 C24.334999084472656,-10.387999534606934 24.29400062561035,5.770999908447266 24.29400062561035,5.770999908447266 C24.29400062561035,10.357999801635742 22.804000854492188,14.600000381469727 20.28700065612793,18.062999725341797 C16.886999130249023,22.73900032043457 11.623000144958496,25.9689998626709 5.60099983215332,26.62700080871582 C5.560999870300293,26.62700080871582 5.521999835968018,26.63800048828125 5.48199987411499,26.63800048828125 C4.77400016784668,26.716999053955078 4.046000003814697,26.756999969482422 3.308000087738037,26.756999969482422 C3.308000087738037,26.756999969482422 -16.19300079345703,26.756999969482422 -16.19300079345703,26.756999969482422 C-16.472000122070312,26.756999969482422 -16.740999221801758,26.73699951171875 -17.010000228881836,26.69700050354004 C-17.010000228881836,26.69700050354004 -17.020000457763672,26.69700050354004 -17.020000457763672,26.69700050354004 C-20.08099937438965,26.288000106811523 -22.464000701904297,23.64699935913086 -22.464000701904297,20.47599983215332 C-22.464000701904297,20.47599983215332 -22.423999786376953,-10.387999534606934 -22.423999786376953,-10.387999534606934 C-22.423999786376953,-11.215999603271484 -22.374000549316406,-12.032999992370605 -22.27400016784668,-12.831000328063965 C-22.27400016784668,-12.850000381469727 -22.27400016784668,-12.880999565124512 -22.263999938964844,-12.91100025177002 C-21.28700065612793,-21.006000518798828 -15.64900016784668,-27.701000213623047 -8.13700008392334,-30.267000198364258 C-6.0329999923706055,-30.986000061035156 -3.7799999713897705,-31.374000549316406 -1.437000036239624,-31.374000549316406 C-1.437000036239624,-31.374000549316406 3.3480000495910645,-31.374000549316406 3.3480000495910645,-31.374000549316406 C14.892999649047852,-31.374000549316406 24.334999084472656,-21.933000564575195 24.334999084472656,-10.387999534606934z"/></g><g opacity="1" transform="matrix(1,0,0,1,328.1499938964844,74.01399993896484)"><path fill="rgb(58,51,71)" fill-opacity="1" d=" M22.285999298095703,0.949999988079071 C18.92099952697754,-6.519000053405762 10.918000221252441,-11.35200023651123 2.427999973297119,-11.074000358581543 C2.427999973297119,-11.074000358581543 -0.46000000834465027,-11.071999549865723 -0.46000000834465027,-11.071999549865723 C-11.354000091552734,-11.512999534606934 -21.05699920654297,-3.3540000915527344 -22.082000732421875,7.090000152587891 C-22.19099998474121,8.204000473022461 -22.22800064086914,9.269000053405762 -22.19499969482422,10.345999717712402 C-22.176000595092773,10.97700023651123 -21.68600082397461,11.5 -21.04400062561035,11.57699966430664 C-20.382999420166016,11.659000396728516 -19.797000885009766,11.26200008392334 -19.621000289916992,10.654999732971191 C-19.000999450683594,8.512999534606934 -17.642000198364258,6.906000137329102 -15.689000129699707,6.007999897003174 C-12.852999687194824,4.703999996185303 -9.071000099182129,4.994999885559082 -4.750999927520752,6.84499979019165 C-0.45899999141693115,8.682999610900879 3.36299991607666,6.495999813079834 6.73799991607666,4.566999912261963 C10.289999961853027,2.5360000133514404 12.616000175476074,1.4049999713897705 14.958999633789062,2.7780001163482666 C19.930999755859375,5.690999984741211 20.829999923706055,8.46500015258789 21.423999786376953,10.300999641418457 C21.423999786376953,10.300999641418457 21.558000564575195,10.708000183105469 21.558000564575195,10.708000183105469 C21.73699951171875,11.23900032043457 22.243999481201172,11.586999893188477 22.80299949645996,11.586999893188477 C22.871999740600586,11.586999893188477 22.941999435424805,11.581000328063965 23.011999130249023,11.569999694824219 C23.648000717163086,11.470999717712402 24.115999221801758,10.935999870300293 24.115999221801758,10.307999610900879 C24.115999221801758,6.571000099182129 23.513999938964844,3.500999927520752 22.285999298095703,0.949999988079071z"/></g></g><g transform="matrix(1,0,0,1,3,0.0000152587890625)" opacity="1" style="display: block;"><g opacity="1" transform="matrix(1,0,0,1,144.36000061035156,338.20001220703125)"><path fill="rgb(100,110,120)" fill-opacity="1" d=" M33.125,-82.2300033569336 C33.125,-82.2300033569336 25.934999465942383,73.29000091552734 25.934999465942383,73.29000091552734 C25.934999465942383,73.29000091552734 -10.204999923706055,79.5999984741211 -10.204999923706055,79.5999984741211 C-10.204999923706055,79.5999984741211 -25.415000915527344,82.25 -25.415000915527344,82.25 C-25.415000915527344,82.25 -30.875,-82.2300033569336 -30.875,-82.2300033569336 C-30.875,-82.2300033569336 33.125,-82.2300033569336 33.125,-82.2300033569336z"/></g><g opacity="0.5" transform="matrix(1,0,0,1,122.69499969482422,338.20001220703125)" style="mix-blend-mode: multiply;"><path fill="rgb(100,110,120)" fill-opacity="1" d=" M11.460000038146973,79.5999984741211 C11.460000038146973,79.5999984741211 -3.75,82.25 -3.75,82.25 C-3.75,82.25 -9.210000038146973,-82.2300033569336 -9.210000038146973,-82.2300033569336 C-9.210000038146973,-82.2300033569336 6.110000133514404,-82.2300033569336 6.110000133514404,-82.2300033569336 C6.110000133514404,-82.2300033569336 11.460000038146973,79.5999984741211 11.460000038146973,79.5999984741211z"/></g><g opacity="1" transform="matrix(1,0,0,1,0,0)"><g opacity="1" transform="matrix(1,0,0,1,156.16799926757812,424.3450012207031)"><g opacity="1" transform="matrix(1,0,0,1,0,0)"><path fill="rgb(235,230,239)" fill-opacity="1" d=" M-0.3580000102519989,-12.854999542236328 C-0.3580000102519989,-12.854999542236328 0.6740000247955322,-12.854999542236328 0.6740000247955322,-12.854999542236328 C0.6740000247955322,-12.854999542236328 14.131999969482422,-12.854999542236328 14.131999969482422,-12.854999542236328 C14.131999969482422,-12.854999542236328 46.9119987487793,-0.22499999403953552 38.61199951171875,12.875 C38.61199951171875,12.875 18.15399932861328,12.875 18.15399932861328,12.875 C18.15399932861328,12.875 17.121999740600586,12.875 17.121999740600586,12.875 C17.121999740600586,12.875 -20.336000442504883,12.875 -20.336000442504883,12.875 C-20.336000442504883,12.875 -34.92300033569336,12.875 -34.92300033569336,12.875 C-36.00199890136719,12.875 -36.88600158691406,12.020000457763672 -36.922000885009766,10.940999984741211 C-36.922000885009766,10.940999984741211 -37.70899963378906,-12.854999542236328 -37.70899963378906,-12.854999542236328 C-37.70899963378906,-12.854999542236328 -0.3580000102519989,-12.854999542236328 -0.3580000102519989,-12.854999542236328z"/></g></g><g opacity="1" transform="matrix(1,0,0,1,125.40799713134766,424.3450012207031)" style="mix-blend-mode: multiply;"><g opacity="1" transform="matrix(1,0,0,1,0,0)"><path fill="rgb(235,230,239)" fill-opacity="1" d=" M-6.948999881744385,-12.854999542236328 C-6.948999881744385,-12.854999542236328 -6.1620001792907715,10.940999984741211 -6.1620001792907715,10.940999984741211 C-6.1579999923706055,11.074000358581543 -6.139999866485596,11.20199966430664 -6.111000061035156,11.32699966430664 C-5.901000022888184,12.206999778747559 -5.114999771118164,12.857999801635742 -4.176000118255615,12.859999656677246 C-1.718000054359436,12.864999771118164 2.8940000534057617,12.87399959564209 8.404000282287598,12.875 C8.404000282287598,12.875 9.199000358581543,12.875 9.199000358581543,12.875 C9.199000358581543,12.875 8.347999572753906,-12.854999542236328 8.347999572753906,-12.854999542236328 C8.347999572753906,-12.854999542236328 -6.948999881744385,-12.854999542236328 -6.948999881744385,-12.854999542236328z"/></g></g></g></g><g transform="matrix(1,0,0,1,4.5,0)" opacity="1" style="display: block;"><g opacity="1" transform="matrix(1,0,0,1,334.5799865722656,337.9049987792969)"><path fill="rgb(100,110,120)" fill-opacity="1" d=" M26.25,82.53500366210938 C26.25,82.53500366210938 -13.470000267028809,75.03500366210938 -13.470000267028809,75.03500366210938 C-13.470000267028809,75.03500366210938 -24.280000686645508,72.99500274658203 -24.280000686645508,72.99500274658203 C-24.280000686645508,72.99500274658203 -31.469999313354492,-82.53500366210938 -31.469999313354492,-82.53500366210938 C-31.469999313354492,-82.53500366210938 32.72999954223633,-82.56999969482422 32.72999954223633,-82.56999969482422 C32.72999954223633,-82.56999969482422 26.25,82.53500366210938 26.25,82.53500366210938z"/></g><g opacity="0.5" transform="matrix(1,0,0,1,313.9549865722656,334.1549987792969)" style="mix-blend-mode: multiply;"><path fill="rgb(100,110,120)" fill-opacity="1" d=" M10.835000038146973,76.74500274658203 C10.835000038146973,76.74500274658203 9.324999809265137,77.48500061035156 7.15500020980835,78.78500366210938 C7.15500020980835,78.78500366210938 -3.6549999713897705,76.74500274658203 -3.6549999713897705,76.74500274658203 C-3.6549999713897705,76.74500274658203 -10.835000038146973,-78.78500366210938 -10.835000038146973,-78.78500366210938 C-10.835000038146973,-78.78500366210938 7.625,-78.78500366210938 7.625,-78.78500366210938 C7.625,-78.78500366210938 10.835000038146973,76.74500274658203 10.835000038146973,76.74500274658203z"/></g><g opacity="1" transform="matrix(1,0,0,1,0,0)"><g opacity="1" transform="matrix(1,0,0,1,323.31201171875,423.7650146484375)"><path fill="rgb(235,230,239)" fill-opacity="1" d=" M1.4830000400543213,-12.864999771118164 C1.4830000400543213,-12.864999771118164 0.45100000500679016,-12.864999771118164 0.45100000500679016,-12.864999771118164 C0.45100000500679016,-12.864999771118164 -13.006999969482422,-12.864999771118164 -13.006999969482422,-12.864999771118164 C-13.006999969482422,-12.864999771118164 -45.7869987487793,-0.23499999940395355 -37.48699951171875,12.864999771118164 C-37.48699951171875,12.864999771118164 -17.02899932861328,12.864999771118164 -17.02899932861328,12.864999771118164 C-17.02899932861328,12.864999771118164 -15.996999740600586,12.864999771118164 -15.996999740600586,12.864999771118164 C-15.996999740600586,12.864999771118164 21.461000442504883,12.864999771118164 21.461000442504883,12.864999771118164 C21.461000442504883,12.864999771118164 36.04800033569336,12.864999771118164 36.04800033569336,12.864999771118164 C37.12699890136719,12.864999771118164 38.01100158691406,12.010000228881836 38.047000885009766,10.930999755859375 C38.047000885009766,10.930999755859375 38.83399963378906,-12.864999771118164 38.83399963378906,-12.864999771118164 C38.83399963378906,-12.864999771118164 1.4830000400543213,-12.864999771118164 1.4830000400543213,-12.864999771118164z"/></g><g opacity="0.5" transform="matrix(1,0,0,1,304.6369934082031,423.7650146484375)" style="mix-blend-mode: multiply;"><path fill="rgb(235,230,239)" fill-opacity="1" d=" M-18.812000274658203,12.864999771118164 C-18.812000274658203,12.864999771118164 2.677999973297119,12.864999771118164 2.677999973297119,12.864999771118164 C-5.622000217437744,-0.23499999940395355 20.158000946044922,-12.864999771118164 20.158000946044922,-12.864999771118164 C20.158000946044922,-12.864999771118164 5.668000221252441,-12.864999771118164 5.668000221252441,-12.864999771118164 C5.668000221252441,-12.864999771118164 -27.11199951171875,-0.23499999940395355 -18.812000274658203,12.864999771118164z"/></g></g></g><g transform="matrix(1,0,0,1,250,250)" opacity="1" style="display: block;"><g opacity="1" transform="matrix(1,0,0,1,0,0)"><path fill="rgb(255,199,56)" fill-opacity="1" d=" M60.47800064086914,-63.63199996948242 C60.47800064086914,-63.63199996948242 29.420000076293945,-25.643999099731445 29.420000076293945,-25.643999099731445 C29.420000076293945,-25.643999099731445 -24.413000106811523,4.546000003814697 -24.413000106811523,4.546000003814697 C-24.413000106811523,4.546000003814697 -21.086999893188477,27.687999725341797 2.0850000381469727,23.334999084472656 C2.0850000381469727,23.334999084472656 49.93600082397461,-3.378999948501587 49.93600082397461,-3.378999948501587 C49.93600082397461,-3.378999948501587 60.57600021362305,-16.048999786376953 60.57600021362305,-16.048999786376953"/><path fill="rgb(255,199,56)" fill-opacity="1" d=" M60.47800064086914,-63.63199996948242 C60.47800064086914,-63.63199996948242 29.420000076293945,-25.643999099731445 29.420000076293945,-25.643999099731445 C29.420000076293945,-25.643999099731445 -24.413000106811523,4.546000003814697 -24.413000106811523,4.546000003814697 C-24.413000106811523,4.546000003814697 -21.086999893188477,27.687999725341797 2.0850000381469727,23.334999084472656 C2.0850000381469727,23.334999084472656 49.93600082397461,-3.378999948501587 49.93600082397461,-3.378999948501587 C49.93600082397461,-3.378999948501587 60.57600021362305,-16.048999786376953 60.57600021362305,-16.048999786376953"/></g></g><g transform="matrix(1,0,0,1,298.4519958496094,219.25999450683594)" opacity="0.5" style="mix-blend-mode: multiply; display: block;"><g opacity="1" transform="matrix(1,0,0,1,0,0)" style="mix-blend-mode: multiply;"><path fill="rgb(255,199,56)" fill-opacity="1" d=" M-7.663000106811523,-9.206999778747559 C-7.663000106811523,-9.206999778747559 14.913000106811523,-36.90999984741211 14.913000106811523,-36.90999984741211 C14.913000106811523,-36.90999984741211 14.913000106811523,10.989999771118164 14.913000106811523,10.989999771118164 C14.913000106811523,10.989999771118164 0.5730000138282776,28.65999984741211 0.5730000138282776,28.65999984741211 C0.5730000138282776,28.65999984741211 0.5730000138282776,28.65999984741211 0.5730000138282776,28.65999984741211 C0,13.055999755859375 -3.2090001106262207,0 -7.663000106811523,-9.206999778747559z"/></g></g><g transform="matrix(1,0,0,1,250,250)" opacity="1" style="display: block;"><g opacity="1" transform="matrix(1,0,0,1,0,0)"><path fill="rgb(255,199,56)" fill-opacity="1" d=" M117.0999984741211,-86.01000213623047 C116.93000030517578,-86.33000183105469 116.75,-86.6500015258789 116.55000305175781,-86.95999908447266 C110.9800033569336,-96.33999633789062 100.73999786376953,-102.62999725341797 89.02999877929688,-102.62999725341797 C80.19000244140625,-102.62999725341797 72.19000244140625,-99.05000305175781 66.4000015258789,-93.26000213623047 C60.61000061035156,-87.47000122070312 57.029998779296875,-79.4800033569336 57.029998779296875,-70.63999938964844 C57.029998779296875,-70.63999938964844 57.279998779296875,6.820000171661377 57.279998779296875,6.820000171661377 C57.279998779296875,6.820000171661377 109.9800033569336,6.820000171661377 109.9800033569336,6.820000171661377 C109.9800033569336,6.820000171661377 121.27999877929688,6.820000171661377 121.27999877929688,6.820000171661377 C121.27999877929688,6.820000171661377 121.02999877929688,-70.63999938964844 121.02999877929688,-70.63999938964844 C121.02999877929688,-73.83999633789062 120.55999755859375,-76.93000030517578 119.69000244140625,-79.83999633789062"/></g></g><g transform="matrix(1,0,0,1,351.75201416015625,223.67098999023438)" opacity="0.5" style="mix-blend-mode: multiply; display: block;"><g opacity="1" transform="matrix(1,0,0,1,0,0)" style="mix-blend-mode: multiply;"><path fill="rgb(255,199,56)" fill-opacity="1" d=" M-8.442999839782715,-33.198001861572266 C-8.442999839782715,-33.198001861572266 8.442999839782715,6.89900016784668 8.442999839782715,6.89900016784668 C8.442999839782715,6.89900016784668 8.36299991607666,12.178000450134277 8.36299991607666,12.178000450134277 C8.36299991607666,12.178000450134277 8.062999725341797,33.198001861572266 8.062999725341797,33.198001861572266 C8.062999725341797,33.198001861572266 -6.660999774932861,33.198001861572266 -6.660999774932861,33.198001861572266 C-3.4010000228881836,16.937999725341797 -0.22300000488758087,-11.008999824523926 -8.442999839782715,-33.198001861572266z"/></g></g><g transform="matrix(1,0,0,1,250,250)" opacity="1" style="display: block;"><g opacity="1" transform="matrix(1,0,0,1,0,0)"><path fill="rgb(255,199,56)" fill-opacity="1" d=" M89.87999725341797,-69.27999877929688 C89.87999725341797,-69.27999877929688 110.11000061035156,-21.229999542236328 110.11000061035156,-21.229999542236328 C110.11000061035156,-21.229999542236328 109.7300033569336,5.070000171661377 109.7300033569336,5.070000171661377 C109.7300033569336,5.070000171661377 109.20999908447266,40.900001525878906 109.20999908447266,40.900001525878906 C109.20999908447266,40.900001525878906 132.35000610351562,49.84000015258789 140.80999755859375,27.5 C140.80999755859375,27.5 141.55999755859375,-27.6299991607666 141.55999755859375,-27.6299991607666 C141.55999755859375,-27.6299991607666 119.69999694824219,-79.80999755859375 119.69999694824219,-79.80999755859375 C119.69999694824219,-79.80999755859375 119.69000244140625,-79.83999633789062 119.69000244140625,-79.83999633789062 C119.69000244140625,-79.83999633789062 117.0999984741211,-86.01000213623047 117.0999984741211,-86.01000213623047"/></g></g><g transform="matrix(1,0,0,1,250,250)" opacity="1" style="display: block;"><g opacity="1" transform="matrix(1,0,0,1,0,0)"><path fill="rgb(75,179,253)" fill-opacity="1" d=" M-69.7030029296875,6.9120001792907715 C-69.7030029296875,6.9120001792907715 -133.6999969482422,6.9120001792907715 -133.6999969482422,6.9120001792907715 C-133.6999969482422,6.9120001792907715 -133.72500610351562,-70.04399871826172 -133.72500610351562,-70.04399871826172 C-133.72500610351562,-87.71600341796875 -119.39900207519531,-102.04199981689453 -101.72699737548828,-102.04199981689453 C-101.72699737548828,-102.04199981689453 -101.72699737548828,-102.04199981689453 -101.72699737548828,-102.04199981689453 C-84.05500030517578,-102.04199981689453 -69.72799682617188,-87.71600341796875 -69.72799682617188,-70.04399871826172 C-69.72799682617188,-70.04399871826172 -69.7030029296875,6.9120001792907715 -69.7030029296875,6.9120001792907715z"/></g></g><g transform="matrix(1,0,0,1,250,250)" opacity="1" style="display: block;"><g opacity="1" transform="matrix(1,0,0,1,0,0)"><path fill="rgb(75,179,253)" fill-opacity="1" d=" M-69.6709976196289,-69.66600036621094 C-69.6709976196289,-69.66600036621094 -36.112998962402344,-27.052000045776367 -36.112998962402344,-27.052000045776367 C-36.112998962402344,-27.052000045776367 17.719999313354492,3.13700008392334 17.719999313354492,3.13700008392334 C17.719999313354492,3.13700008392334 14.394000053405762,26.280000686645508 -8.777999877929688,21.927000045776367 C-8.777999877929688,21.927000045776367 -56.62900161743164,-4.7870001792907715 -56.62900161743164,-4.7870001792907715 C-56.62900161743164,-4.7870001792907715 -105.39399719238281,-69.58200073242188 -105.39399719238281,-69.58200073242188"/></g></g><g transform="matrix(1,0,0,1,164.6020050048828,216.71499633789062)" opacity="0.5" style="mix-blend-mode: multiply; display: block;"><g opacity="1" transform="matrix(1,0,0,1,0,0)" style="mix-blend-mode: multiply;"><path fill="rgb(75,179,253)" fill-opacity="1" d=" M15.253000259399414,11.734999656677246 C15.253000259399414,11.734999656677246 15.253000259399414,28.80500030517578 15.253000259399414,28.80500030517578 C15.253000259399414,27.80500030517578 -6.7820000648498535,2.0350000858306885 -11.097999572753906,-7.039999961853027 C-14.01099967956543,-13.164999961853027 -15.253000259399414,-28.80500030517578 -15.253000259399414,-28.80500030517578 C-15.253000259399414,-28.80500030517578 15.253000259399414,11.734999656677246 15.253000259399414,11.734999656677246z"/></g></g><g transform="matrix(1,0,0,1,250,250)" opacity="1" style="display: block;"><g opacity="1" transform="matrix(1,0,0,1,0,0)"><path stroke-linecap="round" stroke-linejoin="round" fill-opacity="0" stroke="rgb(18,19,49)" stroke-opacity="1" stroke-width="7" d=" M83.8280029296875,-128.45799255371094 C83.8280029296875,-128.45799255371094 64.27100372314453,-128.45799255371094 64.27100372314453,-128.45799255371094 C60.80799865722656,-128.45799255371094 57.9739990234375,-131.29200744628906 57.9739990234375,-134.7550048828125 C57.9739990234375,-134.7550048828125 57.9739990234375,-166.46400451660156 57.9739990234375,-166.46400451660156 C57.9739990234375,-178.04299926757812 67.4469985961914,-187.51600646972656 79.0260009765625,-187.51600646972656 C79.0260009765625,-187.51600646972656 83.8280029296875,-187.51600646972656 83.8280029296875,-187.51600646972656 C95.40699768066406,-187.51600646972656 104.87999725341797,-178.04299926757812 104.87999725341797,-166.46400451660156 C104.87999725341797,-166.46400451660156 104.87999725341797,-149.51100158691406 104.87999725341797,-149.51100158691406 C104.87999725341797,-137.9320068359375 95.40699768066406,-128.45799255371094 83.8280029296875,-128.45799255371094z"/></g></g><g mask="url(#__lottie_element_103_2)" style="display: block;"><g transform="matrix(1,0,0,1,250,250)" opacity="1"><g opacity="1" transform="matrix(1,0,0,1,0,0)"><path stroke-linecap="round" stroke-linejoin="round" fill-opacity="0" stroke="rgb(18,19,49)" stroke-opacity="1" stroke-width="7" d=" M56.72800064086914,-60.38199996948242 C56.72800064086914,-60.38199996948242 29.420000076293945,-25.643999099731445 29.420000076293945,-25.643999099731445 C29.420000076293945,-25.643999099731445 -24.413000106811523,4.546000003814697 -24.413000106811523,4.546000003814697 C-24.413000106811523,4.546000003814697 -21.086999893188477,27.687999725341797 2.0850000381469727,23.334999084472656 C2.0850000381469727,23.334999084472656 49.93600082397461,-3.378999948501587 49.93600082397461,-3.378999948501587 C49.93600082397461,-3.378999948501587 56.82600021362305,-12.798999786376953 56.82600021362305,-12.798999786376953"/></g></g></g><g mask="url(#__lottie_element_95_2)" style="display: block;"><g transform="matrix(1,0,0,1,250,250)" opacity="1"><g opacity="1" transform="matrix(1,0,0,1,0,0)"><path stroke-linecap="round" stroke-linejoin="round" fill-opacity="0" stroke="rgb(18,19,49)" stroke-opacity="1" stroke-width="7" d=" M57.02000045776367,5.070000171661377 C57.02000045776367,5.070000171661377 64.22000122070312,160.60000610351562 64.22000122070312,160.60000610351562 C64.22000122070312,160.60000610351562 31.440000534057617,173.22999572753906 39.7400016784668,186.3300018310547 C42.88999938964844,186.3300018310547 51.5,186.3300018310547 61.22999954223633,186.3300018310547 C66.62999725341797,186.3300018310547 85.76000213623047,186.3300018310547 99.72000122070312,186.3300018310547"/></g><g opacity="1" transform="matrix(1,0,0,1,0,0)"><path stroke-linecap="round" stroke-linejoin="round" fill-opacity="0" stroke="rgb(18,19,49)" stroke-opacity="1" stroke-width="7" d=" M121.1969985961914,5.084000110626221 C121.1969985961914,5.084000110626221 115.21299743652344,186.33299255371094 115.21299743652344,186.33299255371094 C115.21299743652344,186.33299255371094 70.02999877929688,186.33299255371094 61.224998474121094,186.33299255371094 C52.92900085449219,173.23300170898438 78.70999908447266,160.5959930419922 78.70999908447266,160.5959930419922 C78.70999908447266,160.5959930419922 75.50499725341797,5.071000099182129 75.50499725341797,5.071000099182129"/></g><g opacity="1" transform="matrix(1,0,0,1,0,0)"><path stroke-linecap="round" stroke-linejoin="round" fill-opacity="0" stroke="rgb(18,19,49)" stroke-opacity="1" stroke-width="7" d=" M117.0999984741211,-86.01000213623047 C116.93000030517578,-86.33000183105469 116.75,-86.6500015258789 116.55000305175781,-86.95999908447266 C110.9800033569336,-96.33999633789062 100.73999786376953,-102.62999725341797 89.02999877929688,-102.62999725341797 C80.19000244140625,-102.62999725341797 72.19000244140625,-99.05000305175781 66.4000015258789,-93.26000213623047 C60.61000061035156,-87.47000122070312 57.029998779296875,-79.4800033569336 57.029998779296875,-70.63999938964844 C57.029998779296875,-70.63999938964844 57.029998779296875,5.070000171661377 57.029998779296875,5.070000171661377 C57.029998779296875,5.070000171661377 109.7300033569336,5.070000171661377 109.7300033569336,5.070000171661377 C109.7300033569336,5.070000171661377 121.02999877929688,5.070000171661377 121.02999877929688,5.070000171661377 C121.02999877929688,5.070000171661377 121.02999877929688,-70.63999938964844 121.02999877929688,-70.63999938964844 C121.02999877929688,-73.83999633789062 120.55999755859375,-76.93000030517578 119.69000244140625,-79.83999633789062"/></g></g></g><g transform="matrix(1,0,0,1,250,250)" opacity="1" style="display: block;"><g opacity="1" transform="matrix(1,0,0,1,0,0)"><path stroke-linecap="round" stroke-linejoin="round" fill-opacity="0" stroke="rgb(18,19,49)" stroke-opacity="1" stroke-width="7" d=" M89.87999725341797,-69.27999877929688 C89.87999725341797,-69.27999877929688 110.11000061035156,-21.229999542236328 110.11000061035156,-21.229999542236328 C110.11000061035156,-21.229999542236328 109.7300033569336,5.070000171661377 109.7300033569336,5.070000171661377 C109.7300033569336,5.070000171661377 109.20999908447266,40.900001525878906 109.20999908447266,40.900001525878906 C109.20999908447266,40.900001525878906 132.35000610351562,49.84000015258789 140.80999755859375,27.5 C140.80999755859375,27.5 141.55999755859375,-27.6299991607666 141.55999755859375,-27.6299991607666 C141.55999755859375,-27.6299991607666 119.69999694824219,-79.80999755859375 119.69999694824219,-79.80999755859375 C119.69999694824219,-79.80999755859375 119.69000244140625,-79.83999633789062 119.69000244140625,-79.83999633789062 C119.69000244140625,-79.83999633789062 117.0999984741211,-86.01000213623047 117.0999984741211,-86.01000213623047"/></g></g><g transform="matrix(1,0,0,1,250,250)" opacity="1" style="display: block;"><g opacity="1" transform="matrix(1,0,0,1,0,0)"><path stroke-linecap="round" stroke-linejoin="round" fill-opacity="0" stroke="rgb(18,19,49)" stroke-opacity="1" stroke-width="7" d=" M-96.52100372314453,-127.86699676513672 C-96.52100372314453,-127.86699676513672 -76.96399688720703,-127.86699676513672 -76.96399688720703,-127.86699676513672 C-73.5009994506836,-127.86699676513672 -70.66699981689453,-130.7010040283203 -70.66699981689453,-134.16400146484375 C-70.66699981689453,-134.16400146484375 -70.66699981689453,-165.8719940185547 -70.66699981689453,-165.8719940185547 C-70.66699981689453,-177.4510040283203 -80.14099884033203,-186.9250030517578 -91.72000122070312,-186.9250030517578 C-91.72000122070312,-186.9250030517578 -96.52100372314453,-186.9250030517578 -96.52100372314453,-186.9250030517578 C-108.0999984741211,-186.9250030517578 -117.5739974975586,-177.4510040283203 -117.5739974975586,-165.8719940185547 C-117.5739974975586,-165.8719940185547 -117.5739974975586,-148.9199981689453 -117.5739974975586,-148.9199981689453 C-117.5739974975586,-137.34100341796875 -108.0999984741211,-127.86699676513672 -96.52100372314453,-127.86699676513672z"/></g></g><g mask="url(#__lottie_element_107_2)" style="display: block;"><g transform="matrix(1,0,0,1,250,250)" opacity="1"><g opacity="1" transform="matrix(1,0,0,1,0,0)"><path stroke-linecap="round" stroke-linejoin="round" fill-opacity="0" stroke="rgb(18,19,49)" stroke-opacity="1" stroke-width="7" d=" M-88,5.659999847412109 C-88,5.659999847412109 -88,5.630000114440918 -88,5.630000114440918"/></g><g opacity="1" transform="matrix(1,0,0,1,0,0)"><path stroke-linecap="round" stroke-linejoin="round" fill-opacity="0" stroke="rgb(18,19,49)" stroke-opacity="1" stroke-width="7" d=" M-112.41999816894531,186.89999389648438 C-121.08999633789062,186.89999389648438 -127.70999908447266,186.89999389648438 -127.70999908447266,186.89999389648438 C-127.70999908447266,186.89999389648438 -133.69000244140625,5.659999847412109 -133.69000244140625,5.659999847412109 C-133.69000244140625,5.659999847412109 -133.69000244140625,5.650000095367432 -133.69000244140625,5.650000095367432"/></g><g opacity="1" transform="matrix(1,0,0,1,0,0)"><path stroke-linecap="round" stroke-linejoin="round" fill-opacity="0" stroke="rgb(18,19,49)" stroke-opacity="1" stroke-width="7" d=" M-118.4020004272461,5.676000118255615 C-118.4020004272461,5.676000118255615 -112.41799926757812,186.9250030517578 -112.41799926757812,186.9250030517578 C-112.41799926757812,186.9250030517578 -61.23500061035156,186.9250030517578 -52.43000030517578,186.9250030517578 C-44.13399887084961,173.8249969482422 -76.91500091552734,161.18699645996094 -76.91500091552734,161.18699645996094 C-76.91500091552734,161.18699645996094 -69.70999908447266,5.663000106811523 -69.70999908447266,5.663000106811523"/></g><g opacity="1" transform="matrix(1,0,0,1,0,0)"><path stroke-linecap="round" stroke-linejoin="round" fill-opacity="0" stroke="rgb(18,19,49)" stroke-opacity="1" stroke-width="7" d=" M-69.72799682617188,5.6620001792907715 C-69.72799682617188,5.6620001792907715 -133.72500610351562,5.6620001792907715 -133.72500610351562,5.6620001792907715 C-133.72500610351562,5.6620001792907715 -133.72500610351562,-70.04399871826172 -133.72500610351562,-70.04399871826172 C-133.72500610351562,-87.71600341796875 -119.39900207519531,-102.04199981689453 -101.72699737548828,-102.04199981689453 C-101.72699737548828,-102.04199981689453 -101.72699737548828,-102.04199981689453 -101.72699737548828,-102.04199981689453 C-84.05500030517578,-102.04199981689453 -69.72799682617188,-87.71600341796875 -69.72799682617188,-70.04399871826172 C-69.72799682617188,-70.04399871826172 -69.72799682617188,5.6620001792907715 -69.72799682617188,5.6620001792907715z"/></g></g></g><g transform="matrix(1,0,0,1,250,250)" opacity="1" style="display: block;"><g opacity="1" transform="matrix(1,0,0,1,0,0)"><path stroke-linecap="round" stroke-linejoin="round" fill-opacity="0" stroke="rgb(18,19,49)" stroke-opacity="1" stroke-width="7" d=" M-69.6709976196289,-69.66600036621094 C-69.6709976196289,-69.66600036621094 -36.112998962402344,-27.052000045776367 -36.112998962402344,-27.052000045776367 C-36.112998962402344,-27.052000045776367 17.719999313354492,3.13700008392334 17.719999313354492,3.13700008392334 C17.719999313354492,3.13700008392334 14.394000053405762,26.280000686645508 -8.777999877929688,21.927000045776367 C-8.777999877929688,21.927000045776367 -56.62900161743164,-4.7870001792907715 -56.62900161743164,-4.7870001792907715 C-56.62900161743164,-4.7870001792907715 -105.39399719238281,-69.58200073242188 -105.39399719238281,-69.58200073242188"/></g></g><g class="com" transform="matrix(2.65159010887146,0,0,2.65159010887146,37.9818115234375,480.39056396484375)" opacity="0.2" style="display: none;"><g opacity="1" transform="matrix(1,0,0,1,0,0)"><path fill="rgb(0,0,0)" fill-opacity="1" d=" M141.6959991455078,0 C141.6959991455078,0 144.6699981689453,0 144.6699981689453,0 C144.6699981689453,0 144.6699981689453,-12.715999603271484 144.6699981689453,-12.715999603271484 C144.6699981689453,-12.715999603271484 148.62899780273438,0 148.62899780273438,0 C148.62899780273438,0 151.25399780273438,0 151.25399780273438,0 C151.25399780273438,0 155.2949981689453,-12.715999603271484 155.2949981689453,-12.715999603271484 C155.2949981689453,-12.715999603271484 155.2949981689453,0 155.2949981689453,0 C155.2949981689453,0 158.4530029296875,0 158.4530029296875,0 C158.4530029296875,0 158.4530029296875,-14.829000473022461 158.4530029296875,-14.829000473022461 C158.4530029296875,-14.829000473022461 153.4080047607422,-14.829000473022461 153.4080047607422,-14.829000473022461 C153.4080047607422,-14.829000473022461 150.0240020751953,-4.040999889373779 150.0240020751953,-4.040999889373779 C150.0240020751953,-4.040999889373779 146.88499450683594,-14.829000473022461 146.88499450683594,-14.829000473022461 C146.88499450683594,-14.829000473022461 141.6959991455078,-14.829000473022461 141.6959991455078,-14.829000473022461 C141.6959991455078,-14.829000473022461 141.6959991455078,0 141.6959991455078,0z"/><path stroke-linecap="butt" stroke-linejoin="miter" fill-opacity="0" stroke-miterlimit="4" stroke="rgb(18,19,49)" stroke-opacity="1" stroke-width="0" d=" M141.6959991455078,0 C141.6959991455078,0 144.6699981689453,0 144.6699981689453,0 C144.6699981689453,0 144.6699981689453,-12.715999603271484 144.6699981689453,-12.715999603271484 C144.6699981689453,-12.715999603271484 148.62899780273438,0 148.62899780273438,0 C148.62899780273438,0 151.25399780273438,0 151.25399780273438,0 C151.25399780273438,0 155.2949981689453,-12.715999603271484 155.2949981689453,-12.715999603271484 C155.2949981689453,-12.715999603271484 155.2949981689453,0 155.2949981689453,0 C155.2949981689453,0 158.4530029296875,0 158.4530029296875,0 C158.4530029296875,0 158.4530029296875,-14.829000473022461 158.4530029296875,-14.829000473022461 C158.4530029296875,-14.829000473022461 153.4080047607422,-14.829000473022461 153.4080047607422,-14.829000473022461 C153.4080047607422,-14.829000473022461 150.0240020751953,-4.040999889373779 150.0240020751953,-4.040999889373779 C150.0240020751953,-4.040999889373779 146.88499450683594,-14.829000473022461 146.88499450683594,-14.829000473022461 C146.88499450683594,-14.829000473022461 141.6959991455078,-14.829000473022461 141.6959991455078,-14.829000473022461 C141.6959991455078,-14.829000473022461 141.6959991455078,0 141.6959991455078,0z"/></g><g opacity="1" transform="matrix(1,0,0,1,0,0)"><path fill="rgb(0,0,0)" fill-opacity="1" d=" M128.80499267578125,-7.302000045776367 C128.80499267578125,-8.984000205993652 129.05099487304688,-10.583000183105469 129.89199829101562,-11.609000205993652 C130.48699951171875,-12.368000030517578 131.42999267578125,-12.859999656677246 132.6199951171875,-12.859999656677246 C134.13800048828125,-12.859999656677246 135.38900756835938,-12.0600004196167 136.00399780273438,-10.234999656677246 C136.31199645996094,-9.333000183105469 136.3730010986328,-8.307000160217285 136.3730010986328,-7.589000225067139 C136.3730010986328,-5.230000019073486 135.86000061035156,-4.080999851226807 135.3679962158203,-3.3429999351501465 C134.7729949951172,-2.4200000762939453 133.89100646972656,-1.968999981880188 132.5989990234375,-1.968999981880188 C131.1219940185547,-1.968999981880188 130.36300659179688,-2.5439999103546143 129.91200256347656,-3.1589999198913574 C129.02999877929688,-4.308000087738037 128.80499267578125,-5.88700008392334 128.80499267578125,-7.302000045776367z M125.48200225830078,-7.198999881744385 C125.48200225830078,-5.84499979019165 125.68800354003906,-3.384000062942505 127.30799865722656,-1.6610000133514404 C128.66200256347656,-0.2460000067949295 130.60899353027344,0.36899998784065247 132.55799865722656,0.36899998784065247 C133.78900146484375,0.36899998784065247 136.18800354003906,0.10300000011920929 137.82899475097656,-1.7430000305175781 C139.03900146484375,-3.0969998836517334 139.6959991455078,-5.394000053405762 139.6959991455078,-7.547999858856201 C139.6959991455078,-9.003999710083008 139.38800048828125,-11.321999549865723 137.8090057373047,-13.126999855041504 C136.35299682617188,-14.767999649047852 134.17799377441406,-15.13700008392334 132.5989990234375,-15.13700008392334 C127.26599884033203,-15.13700008392334 125.48200225830078,-11.13700008392334 125.48200225830078,-7.198999881744385z"/><path stroke-linecap="butt" stroke-linejoin="miter" fill-opacity="0" stroke-miterlimit="4" stroke="rgb(18,19,49)" stroke-opacity="1" stroke-width="0" d=" M128.80499267578125,-7.302000045776367 C128.80499267578125,-8.984000205993652 129.05099487304688,-10.583000183105469 129.89199829101562,-11.609000205993652 C130.48699951171875,-12.368000030517578 131.42999267578125,-12.859999656677246 132.6199951171875,-12.859999656677246 C134.13800048828125,-12.859999656677246 135.38900756835938,-12.0600004196167 136.00399780273438,-10.234999656677246 C136.31199645996094,-9.333000183105469 136.3730010986328,-8.307000160217285 136.3730010986328,-7.589000225067139 C136.3730010986328,-5.230000019073486 135.86000061035156,-4.080999851226807 135.3679962158203,-3.3429999351501465 C134.7729949951172,-2.4200000762939453 133.89100646972656,-1.968999981880188 132.5989990234375,-1.968999981880188 C131.1219940185547,-1.968999981880188 130.36300659179688,-2.5439999103546143 129.91200256347656,-3.1589999198913574 C129.02999877929688,-4.308000087738037 128.80499267578125,-5.88700008392334 128.80499267578125,-7.302000045776367z M125.48200225830078,-7.198999881744385 C125.48200225830078,-5.84499979019165 125.68800354003906,-3.384000062942505 127.30799865722656,-1.6610000133514404 C128.66200256347656,-0.2460000067949295 130.60899353027344,0.36899998784065247 132.55799865722656,0.36899998784065247 C133.78900146484375,0.36899998784065247 136.18800354003906,0.10300000011920929 137.82899475097656,-1.7430000305175781 C139.03900146484375,-3.0969998836517334 139.6959991455078,-5.394000053405762 139.6959991455078,-7.547999858856201 C139.6959991455078,-9.003999710083008 139.38800048828125,-11.321999549865723 137.8090057373047,-13.126999855041504 C136.35299682617188,-14.767999649047852 134.17799377441406,-15.13700008392334 132.5989990234375,-15.13700008392334 C127.26599884033203,-15.13700008392334 125.48200225830078,-11.13700008392334 125.48200225830078,-7.198999881744385z"/></g><g opacity="1" transform="matrix(1,0,0,1,0,0)"><path fill="rgb(0,0,0)" fill-opacity="1" d=" M124.04000091552734,-9.98900032043457 C124.04000091552734,-12.942999839782715 121.76399993896484,-14.91100025177002 118.52300262451172,-14.91100025177002 C114.35900115966797,-14.91100025177002 111.73400115966797,-11.793999671936035 111.73400115966797,-7.0970001220703125 C111.73400115966797,-3.4260001182556152 113.3949966430664,0.3490000069141388 118.50199890136719,0.3490000069141388 C119.85600280761719,0.3490000069141388 121.51699829101562,0.04100000113248825 122.83000183105469,-1.312999963760376 C124.0199966430664,-2.5439999103546143 124.10099792480469,-3.9170000553131104 124.16300201416016,-4.798999786376953 C124.16300201416016,-4.798999786376953 120.81999969482422,-4.798999786376953 120.81999969482422,-4.798999786376953 C120.75800323486328,-2.8299999237060547 119.48699951171875,-1.9900000095367432 118.15399932861328,-1.9900000095367432 C115.05699920654297,-1.9900000095367432 115.05699920654297,-6.193999767303467 115.05699920654297,-7.076000213623047 C115.05699920654297,-10.131999969482422 116.04100036621094,-12.593000411987305 118.4000015258789,-12.593000411987305 C120.55400085449219,-12.593000411987305 120.73799896240234,-10.501999855041504 120.80000305175781,-9.98900032043457 C120.80000305175781,-9.98900032043457 124.04000091552734,-9.98900032043457 124.04000091552734,-9.98900032043457z"/><path stroke-linecap="butt" stroke-linejoin="miter" fill-opacity="0" stroke-miterlimit="4" stroke="rgb(18,19,49)" stroke-opacity="1" stroke-width="0" d=" M124.04000091552734,-9.98900032043457 C124.04000091552734,-12.942999839782715 121.76399993896484,-14.91100025177002 118.52300262451172,-14.91100025177002 C114.35900115966797,-14.91100025177002 111.73400115966797,-11.793999671936035 111.73400115966797,-7.0970001220703125 C111.73400115966797,-3.4260001182556152 113.3949966430664,0.3490000069141388 118.50199890136719,0.3490000069141388 C119.85600280761719,0.3490000069141388 121.51699829101562,0.04100000113248825 122.83000183105469,-1.312999963760376 C124.0199966430664,-2.5439999103546143 124.10099792480469,-3.9170000553131104 124.16300201416016,-4.798999786376953 C124.16300201416016,-4.798999786376953 120.81999969482422,-4.798999786376953 120.81999969482422,-4.798999786376953 C120.75800323486328,-2.8299999237060547 119.48699951171875,-1.9900000095367432 118.15399932861328,-1.9900000095367432 C115.05699920654297,-1.9900000095367432 115.05699920654297,-6.193999767303467 115.05699920654297,-7.076000213623047 C115.05699920654297,-10.131999969482422 116.04100036621094,-12.593000411987305 118.4000015258789,-12.593000411987305 C120.55400085449219,-12.593000411987305 120.73799896240234,-10.501999855041504 120.80000305175781,-9.98900032043457 C120.80000305175781,-9.98900032043457 124.04000091552734,-9.98900032043457 124.04000091552734,-9.98900032043457z"/></g><g opacity="1" transform="matrix(1,0,0,1,0,0)"><path fill="rgb(0,0,0)" fill-opacity="1" d=" M106.89299774169922,0 C106.89299774169922,0 109.49700164794922,0 109.49700164794922,0 C109.49700164794922,0 109.49700164794922,-2.7279999256134033 109.49700164794922,-2.7279999256134033 C109.49700164794922,-2.7279999256134033 106.89299774169922,-2.7279999256134033 106.89299774169922,-2.7279999256134033 C106.89299774169922,-2.7279999256134033 106.89299774169922,0 106.89299774169922,0z"/><path stroke-linecap="butt" stroke-linejoin="miter" fill-opacity="0" stroke-miterlimit="4" stroke="rgb(18,19,49)" stroke-opacity="1" stroke-width="0" d=" M106.89299774169922,0 C106.89299774169922,0 109.49700164794922,0 109.49700164794922,0 C109.49700164794922,0 109.49700164794922,-2.7279999256134033 109.49700164794922,-2.7279999256134033 C109.49700164794922,-2.7279999256134033 106.89299774169922,-2.7279999256134033 106.89299774169922,-2.7279999256134033 C106.89299774169922,-2.7279999256134033 106.89299774169922,0 106.89299774169922,0z"/></g><g opacity="1" transform="matrix(1,0,0,1,0,0)"><path fill="rgb(0,0,0)" fill-opacity="1" d=" M91.00700378417969,0 C91.00700378417969,0 94.0009994506836,0 94.0009994506836,0 C94.0009994506836,0 94.0009994506836,-12.305999755859375 94.0009994506836,-12.305999755859375 C94.0009994506836,-12.305999755859375 99.74400329589844,0 99.74400329589844,0 C99.74400329589844,0 104.11299896240234,0 104.11299896240234,0 C104.11299896240234,0 104.11299896240234,-14.829000473022461 104.11299896240234,-14.829000473022461 C104.11299896240234,-14.829000473022461 101.15899658203125,-14.829000473022461 101.15899658203125,-14.829000473022461 C101.15899658203125,-14.829000473022461 101.15899658203125,-3.1589999198913574 101.15899658203125,-3.1589999198913574 C101.15899658203125,-3.1589999198913574 95.60099792480469,-14.829000473022461 95.60099792480469,-14.829000473022461 C95.60099792480469,-14.829000473022461 91.00700378417969,-14.829000473022461 91.00700378417969,-14.829000473022461 C91.00700378417969,-14.829000473022461 91.00700378417969,0 91.00700378417969,0z"/><path stroke-linecap="butt" stroke-linejoin="miter" fill-opacity="0" stroke-miterlimit="4" stroke="rgb(18,19,49)" stroke-opacity="1" stroke-width="0" d=" M91.00700378417969,0 C91.00700378417969,0 94.0009994506836,0 94.0009994506836,0 C94.0009994506836,0 94.0009994506836,-12.305999755859375 94.0009994506836,-12.305999755859375 C94.0009994506836,-12.305999755859375 99.74400329589844,0 99.74400329589844,0 C99.74400329589844,0 104.11299896240234,0 104.11299896240234,0 C104.11299896240234,0 104.11299896240234,-14.829000473022461 104.11299896240234,-14.829000473022461 C104.11299896240234,-14.829000473022461 101.15899658203125,-14.829000473022461 101.15899658203125,-14.829000473022461 C101.15899658203125,-14.829000473022461 101.15899658203125,-3.1589999198913574 101.15899658203125,-3.1589999198913574 C101.15899658203125,-3.1589999198913574 95.60099792480469,-14.829000473022461 95.60099792480469,-14.829000473022461 C95.60099792480469,-14.829000473022461 91.00700378417969,-14.829000473022461 91.00700378417969,-14.829000473022461 C91.00700378417969,-14.829000473022461 91.00700378417969,0 91.00700378417969,0z"/></g><g opacity="1" transform="matrix(1,0,0,1,0,0)"><path fill="rgb(0,0,0)" fill-opacity="1" d=" M77.86900329589844,-7.302000045776367 C77.86900329589844,-8.984000205993652 78.11499786376953,-10.583000183105469 78.95600128173828,-11.609000205993652 C79.5510025024414,-12.368000030517578 80.49400329589844,-12.859999656677246 81.68399810791016,-12.859999656677246 C83.2020034790039,-12.859999656677246 84.4530029296875,-12.0600004196167 85.06800079345703,-10.234999656677246 C85.3759994506836,-9.333000183105469 85.43699645996094,-8.307000160217285 85.43699645996094,-7.589000225067139 C85.43699645996094,-5.230000019073486 84.92400360107422,-4.080999851226807 84.43199920654297,-3.3429999351501465 C83.83699798583984,-2.4200000762939453 82.95500183105469,-1.968999981880188 81.66300201416016,-1.968999981880188 C80.18599700927734,-1.968999981880188 79.4280014038086,-2.5439999103546143 78.97699737548828,-3.1589999198913574 C78.09500122070312,-4.308000087738037 77.86900329589844,-5.88700008392334 77.86900329589844,-7.302000045776367z M74.5459976196289,-7.198999881744385 C74.5459976196289,-5.84499979019165 74.75199890136719,-3.384000062942505 76.37200164794922,-1.6610000133514404 C77.72599792480469,-0.2460000067949295 79.6729965209961,0.36899998784065247 81.62200164794922,0.36899998784065247 C82.85299682617188,0.36899998784065247 85.25299835205078,0.10300000011920929 86.89399719238281,-1.7430000305175781 C88.10399627685547,-3.0969998836517334 88.76000213623047,-5.394000053405762 88.76000213623047,-7.547999858856201 C88.76000213623047,-9.003999710083008 88.4520034790039,-11.321999549865723 86.87300109863281,-13.126999855041504 C85.41699981689453,-14.767999649047852 83.24199676513672,-15.13700008392334 81.66300201416016,-15.13700008392334 C76.33000183105469,-15.13700008392334 74.5459976196289,-11.13700008392334 74.5459976196289,-7.198999881744385z"/><path stroke-linecap="butt" stroke-linejoin="miter" fill-opacity="0" stroke-miterlimit="4" stroke="rgb(18,19,49)" stroke-opacity="1" stroke-width="0" d=" M77.86900329589844,-7.302000045776367 C77.86900329589844,-8.984000205993652 78.11499786376953,-10.583000183105469 78.95600128173828,-11.609000205993652 C79.5510025024414,-12.368000030517578 80.49400329589844,-12.859999656677246 81.68399810791016,-12.859999656677246 C83.2020034790039,-12.859999656677246 84.4530029296875,-12.0600004196167 85.06800079345703,-10.234999656677246 C85.3759994506836,-9.333000183105469 85.43699645996094,-8.307000160217285 85.43699645996094,-7.589000225067139 C85.43699645996094,-5.230000019073486 84.92400360107422,-4.080999851226807 84.43199920654297,-3.3429999351501465 C83.83699798583984,-2.4200000762939453 82.95500183105469,-1.968999981880188 81.66300201416016,-1.968999981880188 C80.18599700927734,-1.968999981880188 79.4280014038086,-2.5439999103546143 78.97699737548828,-3.1589999198913574 C78.09500122070312,-4.308000087738037 77.86900329589844,-5.88700008392334 77.86900329589844,-7.302000045776367z M74.5459976196289,-7.198999881744385 C74.5459976196289,-5.84499979019165 74.75199890136719,-3.384000062942505 76.37200164794922,-1.6610000133514404 C77.72599792480469,-0.2460000067949295 79.6729965209961,0.36899998784065247 81.62200164794922,0.36899998784065247 C82.85299682617188,0.36899998784065247 85.25299835205078,0.10300000011920929 86.89399719238281,-1.7430000305175781 C88.10399627685547,-3.0969998836517334 88.76000213623047,-5.394000053405762 88.76000213623047,-7.547999858856201 C88.76000213623047,-9.003999710083008 88.4520034790039,-11.321999549865723 86.87300109863281,-13.126999855041504 C85.41699981689453,-14.767999649047852 83.24199676513672,-15.13700008392334 81.66300201416016,-15.13700008392334 C76.33000183105469,-15.13700008392334 74.5459976196289,-11.13700008392334 74.5459976196289,-7.198999881744385z"/></g><g opacity="1" transform="matrix(1,0,0,1,0,0)"><path fill="rgb(0,0,0)" fill-opacity="1" d=" M73.10399627685547,-9.98900032043457 C73.10399627685547,-12.942999839782715 70.8280029296875,-14.91100025177002 67.58699798583984,-14.91100025177002 C63.42300033569336,-14.91100025177002 60.79800033569336,-11.793999671936035 60.79800033569336,-7.0970001220703125 C60.79800033569336,-3.4260001182556152 62.45899963378906,0.3490000069141388 67.56600189208984,0.3490000069141388 C68.91999816894531,0.3490000069141388 70.58100128173828,0.04100000113248825 71.89399719238281,-1.312999963760376 C73.08399963378906,-2.5439999103546143 73.16500091552734,-3.9170000553131104 73.22699737548828,-4.798999786376953 C73.22699737548828,-4.798999786376953 69.88400268554688,-4.798999786376953 69.88400268554688,-4.798999786376953 C69.8219985961914,-2.8299999237060547 68.5510025024414,-1.9900000095367432 67.21800231933594,-1.9900000095367432 C64.12100219726562,-1.9900000095367432 64.12100219726562,-6.193999767303467 64.12100219726562,-7.076000213623047 C64.12100219726562,-10.131999969482422 65.1050033569336,-12.593000411987305 67.46399688720703,-12.593000411987305 C69.61799621582031,-12.593000411987305 69.802001953125,-10.501999855041504 69.86399841308594,-9.98900032043457 C69.86399841308594,-9.98900032043457 73.10399627685547,-9.98900032043457 73.10399627685547,-9.98900032043457z"/><path stroke-linecap="butt" stroke-linejoin="miter" fill-opacity="0" stroke-miterlimit="4" stroke="rgb(18,19,49)" stroke-opacity="1" stroke-width="0" d=" M73.10399627685547,-9.98900032043457 C73.10399627685547,-12.942999839782715 70.8280029296875,-14.91100025177002 67.58699798583984,-14.91100025177002 C63.42300033569336,-14.91100025177002 60.79800033569336,-11.793999671936035 60.79800033569336,-7.0970001220703125 C60.79800033569336,-3.4260001182556152 62.45899963378906,0.3490000069141388 67.56600189208984,0.3490000069141388 C68.91999816894531,0.3490000069141388 70.58100128173828,0.04100000113248825 71.89399719238281,-1.312999963760376 C73.08399963378906,-2.5439999103546143 73.16500091552734,-3.9170000553131104 73.22699737548828,-4.798999786376953 C73.22699737548828,-4.798999786376953 69.88400268554688,-4.798999786376953 69.88400268554688,-4.798999786376953 C69.8219985961914,-2.8299999237060547 68.5510025024414,-1.9900000095367432 67.21800231933594,-1.9900000095367432 C64.12100219726562,-1.9900000095367432 64.12100219726562,-6.193999767303467 64.12100219726562,-7.076000213623047 C64.12100219726562,-10.131999969482422 65.1050033569336,-12.593000411987305 67.46399688720703,-12.593000411987305 C69.61799621582031,-12.593000411987305 69.802001953125,-10.501999855041504 69.86399841308594,-9.98900032043457 C69.86399841308594,-9.98900032043457 73.10399627685547,-9.98900032043457 73.10399627685547,-9.98900032043457z"/></g><g opacity="1" transform="matrix(1,0,0,1,0,0)"><path fill="rgb(0,0,0)" fill-opacity="1" d=" M55.66899871826172,0 C55.66899871826172,0 58.8489990234375,0 58.8489990234375,0 C58.8489990234375,0 58.8489990234375,-14.869999885559082 58.8489990234375,-14.869999885559082 C58.8489990234375,-14.869999885559082 55.66899871826172,-14.869999885559082 55.66899871826172,-14.869999885559082 C55.66899871826172,-14.869999885559082 55.66899871826172,0 55.66899871826172,0z"/><path stroke-linecap="butt" stroke-linejoin="miter" fill-opacity="0" stroke-miterlimit="4" stroke="rgb(18,19,49)" stroke-opacity="1" stroke-width="0" d=" M55.66899871826172,0 C55.66899871826172,0 58.8489990234375,0 58.8489990234375,0 C58.8489990234375,0 58.8489990234375,-14.869999885559082 58.8489990234375,-14.869999885559082 C58.8489990234375,-14.869999885559082 55.66899871826172,-14.869999885559082 55.66899871826172,-14.869999885559082 C55.66899871826172,-14.869999885559082 55.66899871826172,0 55.66899871826172,0z"/></g><g opacity="1" transform="matrix(1,0,0,1,0,0)"><path fill="rgb(0,0,0)" fill-opacity="1" d=" M44.28799819946289,-12.387999534606934 C46.112998962402344,-12.470000267028809 46.95500183105469,-12.368000030517578 47.611000061035156,-12.182999610900879 C49.60100173950195,-11.628999710083008 50.31800079345703,-9.701000213623047 50.31800079345703,-7.609000205993652 C50.31800079345703,-6.890999794006348 50.236000061035156,-4.676000118255615 48.98500061035156,-3.424999952316284 C48.0620002746582,-2.502000093460083 46.893001556396484,-2.4000000953674316 45.53900146484375,-2.4000000953674316 C45.16999816894531,-2.4000000953674316 44.637001037597656,-2.4200000762939453 44.28799819946289,-2.440999984741211 C44.28799819946289,-2.440999984741211 44.28799819946289,-12.387999534606934 44.28799819946289,-12.387999534606934z M41.06800079345703,0 C41.06800079345703,0 45.68299865722656,0 45.68299865722656,0 C47.18000030517578,0 47.79499816894531,-0.061000000685453415 48.3489990234375,-0.164000004529953 C51.159000396728516,-0.6769999861717224 53.599998474121094,-3.055999994277954 53.599998474121094,-7.609000205993652 C53.599998474121094,-9.722000122070312 52.94300079345703,-12.0600004196167 51.07699966430664,-13.434000015258789 C49.292999267578125,-14.746999740600586 46.790000915527344,-14.767999649047852 45.970001220703125,-14.767999649047852 C45.970001220703125,-14.767999649047852 41.06800079345703,-14.788000106811523 41.06800079345703,-14.788000106811523 C41.06800079345703,-14.788000106811523 41.06800079345703,0 41.06800079345703,0z"/><path stroke-linecap="butt" stroke-linejoin="miter" fill-opacity="0" stroke-miterlimit="4" stroke="rgb(18,19,49)" stroke-opacity="1" stroke-width="0" d=" M44.28799819946289,-12.387999534606934 C46.112998962402344,-12.470000267028809 46.95500183105469,-12.368000030517578 47.611000061035156,-12.182999610900879 C49.60100173950195,-11.628999710083008 50.31800079345703,-9.701000213623047 50.31800079345703,-7.609000205993652 C50.31800079345703,-6.890999794006348 50.236000061035156,-4.676000118255615 48.98500061035156,-3.424999952316284 C48.0620002746582,-2.502000093460083 46.893001556396484,-2.4000000953674316 45.53900146484375,-2.4000000953674316 C45.16999816894531,-2.4000000953674316 44.637001037597656,-2.4200000762939453 44.28799819946289,-2.440999984741211 C44.28799819946289,-2.440999984741211 44.28799819946289,-12.387999534606934 44.28799819946289,-12.387999534606934z M41.06800079345703,0 C41.06800079345703,0 45.68299865722656,0 45.68299865722656,0 C47.18000030517578,0 47.79499816894531,-0.061000000685453415 48.3489990234375,-0.164000004529953 C51.159000396728516,-0.6769999861717224 53.599998474121094,-3.055999994277954 53.599998474121094,-7.609000205993652 C53.599998474121094,-9.722000122070312 52.94300079345703,-12.0600004196167 51.07699966430664,-13.434000015258789 C49.292999267578125,-14.746999740600586 46.790000915527344,-14.767999649047852 45.970001220703125,-14.767999649047852 C45.970001220703125,-14.767999649047852 41.06800079345703,-14.788000106811523 41.06800079345703,-14.788000106811523 C41.06800079345703,-14.788000106811523 41.06800079345703,0 41.06800079345703,0z"/></g><g opacity="1" transform="matrix(1,0,0,1,0,0)"><path fill="rgb(0,0,0)" fill-opacity="1" d=" M30.518999099731445,-12.491000175476074 C30.518999099731445,-12.491000175476074 32.652000427246094,-12.491000175476074 32.652000427246094,-12.491000175476074 C33.65700149536133,-12.491000175476074 34.25199890136719,-12.491000175476074 34.74399948120117,-12.142000198364258 C35.03099822998047,-11.956999778747559 35.52399826049805,-11.486000061035156 35.52399826049805,-10.480999946594238 C35.52399826049805,-9.4350004196167 34.92900085449219,-8.92199993133545 34.702999114990234,-8.758000373840332 C34.189998626708984,-8.347999572753906 33.45199966430664,-8.347999572753906 33.08300018310547,-8.347999572753906 C33.08300018310547,-8.347999572753906 30.518999099731445,-8.347999572753906 30.518999099731445,-8.347999572753906 C30.518999099731445,-8.347999572753906 30.518999099731445,-12.491000175476074 30.518999099731445,-12.491000175476074z M27.381000518798828,0 C27.381000518798828,0 30.621999740600586,0 30.621999740600586,0 C30.621999740600586,0 30.621999740600586,-5.988999843597412 30.621999740600586,-5.988999843597412 C30.621999740600586,-5.988999843597412 33.4109992980957,-5.988999843597412 33.4109992980957,-5.988999843597412 C33.944000244140625,-5.988999843597412 34.7239990234375,-5.988999843597412 35.01100158691406,-5.1479997634887695 C35.215999603271484,-4.573999881744385 35.66699981689453,-0.8199999928474426 35.81100082397461,0 C35.81100082397461,0 39.31800079345703,0 39.31800079345703,0 C39.15399932861328,-0.2460000067949295 39.03099822998047,-0.41100001335144043 38.867000579833984,-1.0670000314712524 C38.763999938964844,-1.4769999980926514 38.641998291015625,-2.194999933242798 38.41600036621094,-3.937999963760376 C38.14899826049805,-5.866000175476074 37.98500061035156,-7.138000011444092 35.749000549316406,-7.3429999351501465 C36.46699905395508,-7.547999858856201 38.84700012207031,-8.204000473022461 38.84700012207031,-10.972999572753906 C38.84700012207031,-11.937000274658203 38.47700119018555,-13.02400016784668 37.55400085449219,-13.824000358581543 C36.36399841308594,-14.850000381469727 34.70399856567383,-14.850000381469727 33.0629997253418,-14.829000473022461 C33.0629997253418,-14.829000473022461 27.381000518798828,-14.829000473022461 27.381000518798828,-14.829000473022461 C27.381000518798828,-14.829000473022461 27.381000518798828,0 27.381000518798828,0z"/><path stroke-linecap="butt" stroke-linejoin="miter" fill-opacity="0" stroke-miterlimit="4" stroke="rgb(18,19,49)" stroke-opacity="1" stroke-width="0" d=" M30.518999099731445,-12.491000175476074 C30.518999099731445,-12.491000175476074 32.652000427246094,-12.491000175476074 32.652000427246094,-12.491000175476074 C33.65700149536133,-12.491000175476074 34.25199890136719,-12.491000175476074 34.74399948120117,-12.142000198364258 C35.03099822998047,-11.956999778747559 35.52399826049805,-11.486000061035156 35.52399826049805,-10.480999946594238 C35.52399826049805,-9.4350004196167 34.92900085449219,-8.92199993133545 34.702999114990234,-8.758000373840332 C34.189998626708984,-8.347999572753906 33.45199966430664,-8.347999572753906 33.08300018310547,-8.347999572753906 C33.08300018310547,-8.347999572753906 30.518999099731445,-8.347999572753906 30.518999099731445,-8.347999572753906 C30.518999099731445,-8.347999572753906 30.518999099731445,-12.491000175476074 30.518999099731445,-12.491000175476074z M27.381000518798828,0 C27.381000518798828,0 30.621999740600586,0 30.621999740600586,0 C30.621999740600586,0 30.621999740600586,-5.988999843597412 30.621999740600586,-5.988999843597412 C30.621999740600586,-5.988999843597412 33.4109992980957,-5.988999843597412 33.4109992980957,-5.988999843597412 C33.944000244140625,-5.988999843597412 34.7239990234375,-5.988999843597412 35.01100158691406,-5.1479997634887695 C35.215999603271484,-4.573999881744385 35.66699981689453,-0.8199999928474426 35.81100082397461,0 C35.81100082397461,0 39.31800079345703,0 39.31800079345703,0 C39.15399932861328,-0.2460000067949295 39.03099822998047,-0.41100001335144043 38.867000579833984,-1.0670000314712524 C38.763999938964844,-1.4769999980926514 38.641998291015625,-2.194999933242798 38.41600036621094,-3.937999963760376 C38.14899826049805,-5.866000175476074 37.98500061035156,-7.138000011444092 35.749000549316406,-7.3429999351501465 C36.46699905395508,-7.547999858856201 38.84700012207031,-8.204000473022461 38.84700012207031,-10.972999572753906 C38.84700012207031,-11.937000274658203 38.47700119018555,-13.02400016784668 37.55400085449219,-13.824000358581543 C36.36399841308594,-14.850000381469727 34.70399856567383,-14.850000381469727 33.0629997253418,-14.829000473022461 C33.0629997253418,-14.829000473022461 27.381000518798828,-14.829000473022461 27.381000518798828,-14.829000473022461 C27.381000518798828,-14.829000473022461 27.381000518798828,0 27.381000518798828,0z"/></g><g opacity="1" transform="matrix(1,0,0,1,0,0)"><path fill="rgb(0,0,0)" fill-opacity="1" d=" M14.489999771118164,-7.302000045776367 C14.489999771118164,-8.984000205993652 14.736000061035156,-10.583000183105469 15.57699966430664,-11.609000205993652 C16.172000885009766,-12.368000030517578 17.114999771118164,-12.859999656677246 18.30500030517578,-12.859999656677246 C19.822999954223633,-12.859999656677246 21.073999404907227,-12.0600004196167 21.68899917602539,-10.234999656677246 C21.996999740600586,-9.333000183105469 22.058000564575195,-8.307000160217285 22.058000564575195,-7.589000225067139 C22.058000564575195,-5.230000019073486 21.545000076293945,-4.080999851226807 21.05299949645996,-3.3429999351501465 C20.45800018310547,-2.4200000762939453 19.576000213623047,-1.968999981880188 18.284000396728516,-1.968999981880188 C16.80699920654297,-1.968999981880188 16.04800033569336,-2.5439999103546143 15.597000122070312,-3.1589999198913574 C14.71500015258789,-4.308000087738037 14.489999771118164,-5.88700008392334 14.489999771118164,-7.302000045776367z M11.166999816894531,-7.198999881744385 C11.166999816894531,-5.84499979019165 11.371999740600586,-3.384000062942505 12.991999626159668,-1.6610000133514404 C14.345999717712402,-0.2460000067949295 16.29400062561035,0.36899998784065247 18.243000030517578,0.36899998784065247 C19.474000930786133,0.36899998784065247 21.87299919128418,0.10300000011920929 23.513999938964844,-1.7430000305175781 C24.724000930786133,-3.0969998836517334 25.381000518798828,-5.394000053405762 25.381000518798828,-7.547999858856201 C25.381000518798828,-9.003999710083008 25.072999954223633,-11.321999549865723 23.493999481201172,-13.126999855041504 C22.038000106811523,-14.767999649047852 19.863000869750977,-15.13700008392334 18.284000396728516,-15.13700008392334 C12.951000213623047,-15.13700008392334 11.166999816894531,-11.13700008392334 11.166999816894531,-7.198999881744385z"/><path stroke-linecap="butt" stroke-linejoin="miter" fill-opacity="0" stroke-miterlimit="4" stroke="rgb(18,19,49)" stroke-opacity="1" stroke-width="0" d=" M14.489999771118164,-7.302000045776367 C14.489999771118164,-8.984000205993652 14.736000061035156,-10.583000183105469 15.57699966430664,-11.609000205993652 C16.172000885009766,-12.368000030517578 17.114999771118164,-12.859999656677246 18.30500030517578,-12.859999656677246 C19.822999954223633,-12.859999656677246 21.073999404907227,-12.0600004196167 21.68899917602539,-10.234999656677246 C21.996999740600586,-9.333000183105469 22.058000564575195,-8.307000160217285 22.058000564575195,-7.589000225067139 C22.058000564575195,-5.230000019073486 21.545000076293945,-4.080999851226807 21.05299949645996,-3.3429999351501465 C20.45800018310547,-2.4200000762939453 19.576000213623047,-1.968999981880188 18.284000396728516,-1.968999981880188 C16.80699920654297,-1.968999981880188 16.04800033569336,-2.5439999103546143 15.597000122070312,-3.1589999198913574 C14.71500015258789,-4.308000087738037 14.489999771118164,-5.88700008392334 14.489999771118164,-7.302000045776367z M11.166999816894531,-7.198999881744385 C11.166999816894531,-5.84499979019165 11.371999740600586,-3.384000062942505 12.991999626159668,-1.6610000133514404 C14.345999717712402,-0.2460000067949295 16.29400062561035,0.36899998784065247 18.243000030517578,0.36899998784065247 C19.474000930786133,0.36899998784065247 21.87299919128418,0.10300000011920929 23.513999938964844,-1.7430000305175781 C24.724000930786133,-3.0969998836517334 25.381000518798828,-5.394000053405762 25.381000518798828,-7.547999858856201 C25.381000518798828,-9.003999710083008 25.072999954223633,-11.321999549865723 23.493999481201172,-13.126999855041504 C22.038000106811523,-14.767999649047852 19.863000869750977,-15.13700008392334 18.284000396728516,-15.13700008392334 C12.951000213623047,-15.13700008392334 11.166999816894531,-11.13700008392334 11.166999816894531,-7.198999881744385z"/></g><g opacity="1" transform="matrix(1,0,0,1,0,0)"><path fill="rgb(0,0,0)" fill-opacity="1" d=" M1.4149999618530273,0 C1.4149999618530273,0 11.013999938964844,0 11.013999938964844,0 C11.013999938964844,0 11.013999938964844,-2.5230000019073486 11.013999938964844,-2.5230000019073486 C11.013999938964844,-2.5230000019073486 4.656000137329102,-2.5230000019073486 4.656000137329102,-2.5230000019073486 C4.656000137329102,-2.5230000019073486 4.656000137329102,-14.809000015258789 4.656000137329102,-14.809000015258789 C4.656000137329102,-14.809000015258789 1.4149999618530273,-14.809000015258789 1.4149999618530273,-14.809000015258789 C1.4149999618530273,-14.809000015258789 1.4149999618530273,0 1.4149999618530273,0z"/></g></g></g></svg>