<svg xmlns="http://www.w3.org/2000/svg" xmlns:xlink="http://www.w3.org/1999/xlink" viewBox="0 0 500 500" width="500" height="500" preserveAspectRatio="xMidYMid meet" style="width: 100%; height: 100%; transform: translate3d(0px, 0px, 0px); content-visibility: visible;"><defs><clipPath id="__lottie_element_10"><rect width="500" height="500" x="0" y="0"/></clipPath><clipPath id="__lottie_element_13"><path d="M0,0 L500,0 L500,500 L0,500z"/></clipPath><clipPath id="__lottie_element_17"><path d="M0,0 L500,0 L500,500 L0,500z"/></clipPath></defs><g clip-path="url(#__lottie_element_10)"><g clip-path="url(#__lottie_element_13)" transform="matrix(1,0,0,1,0,0)" opacity="0" style="display: block;"><g transform="matrix(0.5170300006866455,0,0,0.5170300006866455,288.93499755859375,329.22100830078125)" opacity="1" style="display: none;"><g opacity="1" transform="matrix(1,0,0,1,0,0)"><path fill="rgb(235,230,239)" fill-opacity="1" d=" M177.08799743652344,159.2989959716797 C177.08799743652344,159.2989959716797 176.1580047607422,159.63800048828125 176.1580047607422,159.63800048828125 C176.1580047607422,159.63800048828125 176.15899658203125,-223.11199951171875 176.15899658203125,-223.11199951171875 C176.15899658203125,-223.11199951171875 177.09800720214844,-223.4499969482422 177.09800720214844,-223.4499969482422 C177.09800720214844,-223.4499969482422 177.0970001220703,156.2989959716797 177.0970001220703,156.2989959716797 C177.0970001220703,157.95599365234375 177.09300231933594,159.2989959716797 177.08799743652344,159.2989959716797z"/><path fill="rgb(235,230,239)" fill-opacity="0.5" d=" M177.08799743652344,159.2989959716797 C177.08799743652344,159.2989959716797 176.1580047607422,159.63800048828125 176.1580047607422,159.63800048828125 C176.1580047607422,159.63800048828125 176.15899658203125,-223.11199951171875 176.15899658203125,-223.11199951171875 C176.15899658203125,-223.11199951171875 177.09800720214844,-223.4499969482422 177.09800720214844,-223.4499969482422 C177.09800720214844,-223.4499969482422 177.0970001220703,156.2989959716797 177.0970001220703,156.2989959716797 C177.0970001220703,157.95599365234375 177.09300231933594,159.2989959716797 177.08799743652344,159.2989959716797z" style="mix-blend-mode: multiply;"/><path stroke-linecap="round" stroke-linejoin="round" fill-opacity="0" stroke="rgb(19,20,50)" stroke-opacity="1" stroke-width="12.04" d=" M177.08799743652344,159.2989959716797 C177.08799743652344,159.2989959716797 176.1580047607422,159.63800048828125 176.1580047607422,159.63800048828125 C176.1580047607422,159.63800048828125 176.15899658203125,-223.11199951171875 176.15899658203125,-223.11199951171875 C176.15899658203125,-223.11199951171875 177.09800720214844,-223.4499969482422 177.09800720214844,-223.4499969482422 C177.09800720214844,-223.4499969482422 177.0970001220703,156.2989959716797 177.0970001220703,156.2989959716797 C177.0970001220703,157.95599365234375 177.09300231933594,159.2989959716797 177.08799743652344,159.2989959716797z"/></g></g><g transform="matrix(5.275599956512451,0,0,5.275599956512451,618.4199829101562,225.02000427246094)" opacity="1" style="display: none;"><g opacity="1" transform="matrix(1,0,0,1,0,0)"><path fill="rgb(242,76,0)" fill-opacity="1" d=" M-69.64600372314453,-24.433000564575195 C-69.64600372314453,-24.433000564575195 -69.43800354003906,-24.402999877929688 -69.43800354003906,-24.402999877929688 C-69.43800354003906,-24.402999877929688 -38.952999114990234,3.0380001068115234 -38.952999114990234,3.0380001068115234 C-38.952999114990234,3.0380001068115234 -40.83300018310547,5.484000205993652 -40.83300018310547,5.484000205993652 C-40.83300018310547,5.484000205993652 -40.80799865722656,5.484000205993652 -40.80799865722656,5.484000205993652 M-38.9379997253418,3.0199999809265137 C-38.9379997253418,3.0199999809265137 -38.9119987487793,3.0199999809265137 -38.9119987487793,3.0199999809265137"/><path stroke-linecap="round" stroke-linejoin="round" fill-opacity="0" stroke="rgb(19,20,50)" stroke-opacity="1" stroke-width="1.4000000000000001" d=" M-69.64600372314453,-24.433000564575195 C-69.64600372314453,-24.433000564575195 -69.43800354003906,-24.402999877929688 -69.43800354003906,-24.402999877929688 C-69.43800354003906,-24.402999877929688 -38.952999114990234,3.0380001068115234 -38.952999114990234,3.0380001068115234 C-38.952999114990234,3.0380001068115234 -40.83300018310547,5.484000205993652 -40.83300018310547,5.484000205993652 C-40.83300018310547,5.484000205993652 -40.80799865722656,5.484000205993652 -40.80799865722656,5.484000205993652 M-38.9379997253418,3.0199999809265137 C-38.9379997253418,3.0199999809265137 -38.9119987487793,3.0199999809265137 -38.9119987487793,3.0199999809265137"/></g></g><g transform="matrix(1,0,0,1,362.69000244140625,171.3000030517578)" opacity="1" style="display: block;"><g opacity="1" transform="matrix(1,0,0,1,-10,-14.5)"><path fill="rgb(146,20,12)" fill-opacity="1" d=" M-0.3970000147819519,30.672000885009766 C-0.3970000147819519,30.672000885009766 -0.6190000176429749,30.527999877929688 -0.6190000176429749,30.527999877929688 C-0.6190000176429749,30.527999877929688 -43.61199951171875,-15.38700008392334 -43.61199951171875,-15.38700008392334 C-43.61199951171875,-15.38700008392334 -43.58599853515625,-47.49100112915039 -43.58599853515625,-47.49100112915039 C-43.58599853515625,-47.49100112915039 -0.3319999873638153,-47.43199920654297 -0.3319999873638153,-47.43199920654297 C-0.3319999873638153,-47.43199920654297 -0.3970000147819519,30.672000885009766 -0.3970000147819519,30.672000885009766z"/><path fill="rgb(146,20,12)" fill-opacity="0.5" d=" M-0.3970000147819519,30.672000885009766 C-0.3970000147819519,30.672000885009766 -0.6190000176429749,30.527999877929688 -0.6190000176429749,30.527999877929688 C-0.6190000176429749,30.527999877929688 -43.61199951171875,-15.38700008392334 -43.61199951171875,-15.38700008392334 C-43.61199951171875,-15.38700008392334 -43.58599853515625,-47.49100112915039 -43.58599853515625,-47.49100112915039 C-43.58599853515625,-47.49100112915039 -0.3319999873638153,-47.43199920654297 -0.3319999873638153,-47.43199920654297 C-0.3319999873638153,-47.43199920654297 -0.3970000147819519,30.672000885009766 -0.3970000147819519,30.672000885009766z" style="mix-blend-mode: multiply;"/><path stroke-linecap="round" stroke-linejoin="round" fill-opacity="0" stroke="rgb(19,20,50)" stroke-opacity="1" stroke-width="7" d=" M-0.3970000147819519,30.672000885009766 C-0.3970000147819519,30.672000885009766 -0.6190000176429749,30.527999877929688 -0.6190000176429749,30.527999877929688 C-0.6190000176429749,30.527999877929688 -43.61199951171875,-15.38700008392334 -43.61199951171875,-15.38700008392334 C-43.61199951171875,-15.38700008392334 -43.58599853515625,-47.49100112915039 -43.58599853515625,-47.49100112915039 C-43.58599853515625,-47.49100112915039 -0.3319999873638153,-47.43199920654297 -0.3319999873638153,-47.43199920654297 C-0.3319999873638153,-47.43199920654297 -0.3970000147819519,30.672000885009766 -0.3970000147819519,30.672000885009766z"/></g></g><g transform="matrix(0.8845700025558472,0,0,0.8845700025558472,39.97613525390625,17.759750366210938)" opacity="1" style="display: block;"><g opacity="1" transform="matrix(1,0,0,1,328.99700927734375,146.27699279785156)"><path fill="rgb(146,20,12)" fill-opacity="1" d=" M23.56599998474121,-44.9379997253418 C23.56599998474121,-44.9379997253418 -23.57200050354004,-44.9379997253418 -23.57200050354004,-44.9379997253418 C-25.5049991607666,-44.9379997253418 -27.07200050354004,-43.37099838256836 -27.07200050354004,-41.4379997253418 C-27.07200050354004,-41.4379997253418 -27.07200050354004,-6.796999931335449 -27.07200050354004,-6.796999931335449 C-27.07200050354004,-5.822999954223633 -26.666000366210938,-4.892000198364258 -25.95199966430664,-4.230000019073486 C-25.95199966430664,-4.230000019073486 27.06599998474121,44.9379997253418 27.06599998474121,44.9379997253418 C27.07900047302246,40.404998779296875 27.06599998474121,-41.4379997253418 27.06599998474121,-41.4379997253418 C27.06599998474121,-43.37099838256836 25.499000549316406,-44.9379997253418 23.56599998474121,-44.9379997253418z"/></g><g opacity="0.5" transform="matrix(1,0,0,1,311.5169982910156,129.86399841308594)" style="mix-blend-mode: multiply;"><path fill="rgb(146,20,12)" fill-opacity="1" d=" M9.156000137329102,-24.26099967956543 C9.156000137329102,-25.808000564575195 9.314000129699707,-27.260000228881836 9.590999603271484,-28.524999618530273 C9.590999603271484,-28.524999618530273 -6.091000080108643,-28.524999618530273 -6.091000080108643,-28.524999618530273 C-8.02400016784668,-28.524999618530273 -9.590999603271484,-26.95800018310547 -9.590999603271484,-25.024999618530273 C-9.590999603271484,-25.024999618530273 -9.590999603271484,9.616999626159668 -9.590999603271484,9.616999626159668 C-9.590999603271484,10.590999603271484 -9.1850004196167,11.520999908447266 -8.470999717712402,12.182999610900879 C-8.470999717712402,12.182999610900879 9.156000137329102,28.524999618530273 9.156000137329102,28.524999618530273 C9.156000137329102,28.524999618530273 9.156000137329102,-24.26099967956543 9.156000137329102,-24.26099967956543z"/></g><g opacity="1" transform="matrix(1,0,0,1,328.99700927734375,146.27699279785156)"><path stroke-linecap="round" stroke-linejoin="round" fill-opacity="0" stroke="rgb(19,20,50)" stroke-opacity="1" stroke-width="7" d=" M23.56599998474121,-44.9379997253418 C23.56599998474121,-44.9379997253418 -23.57200050354004,-44.9379997253418 -23.57200050354004,-44.9379997253418 C-25.5049991607666,-44.9379997253418 -27.07200050354004,-43.37099838256836 -27.07200050354004,-41.4379997253418 C-27.07200050354004,-41.4379997253418 -27.07200050354004,-6.796999931335449 -27.07200050354004,-6.796999931335449 C-27.07200050354004,-5.822999954223633 -26.666000366210938,-4.892000198364258 -25.95199966430664,-4.230000019073486 C-25.95199966430664,-4.230000019073486 27.06599998474121,44.9379997253418 27.06599998474121,44.9379997253418 C27.07900047302246,40.404998779296875 27.06599998474121,-41.4379997253418 27.06599998474121,-41.4379997253418 C27.06599998474121,-43.37099838256836 25.499000549316406,-44.9379997253418 23.56599998474121,-44.9379997253418z"/></g></g><g transform="matrix(1,0,0,1,0,3)" opacity="1" style="display: block;"><g opacity="1" transform="matrix(1,0,0,1,250,257.9700012207031)"><path fill="rgb(235,230,239)" fill-opacity="1" d=" M133.1300048828125,-31.670000076293945 C133.1300048828125,-31.670000076293945 133.1300048828125,148.6199951171875 133.1300048828125,148.6199951171875 C133.1300048828125,150.82899475097656 131.33900451660156,152.6199951171875 129.1300048828125,152.6199951171875 C129.1300048828125,152.6199951171875 -129.1300048828125,152.6199951171875 -129.1300048828125,152.6199951171875 C-131.33900451660156,152.6199951171875 -133.1300048828125,150.82899475097656 -133.1300048828125,148.6199951171875 C-133.1300048828125,148.6199951171875 -133.1300048828125,-31.829999923706055 -133.1300048828125,-31.829999923706055 C-133.1300048828125,-31.829999923706055 0,-152.6199951171875 0,-152.6199951171875 C0,-152.6199951171875 23.040000915527344,-131.69000244140625 23.040000915527344,-131.69000244140625 C23.040000915527344,-131.69000244140625 133.1300048828125,-31.670000076293945 133.1300048828125,-31.670000076293945z"/></g><g opacity="0.5" transform="matrix(1,0,0,1,194.9550018310547,257.9700012207031)" style="mix-blend-mode: multiply;"><path fill="rgb(235,230,239)" fill-opacity="1" d=" M78.08499908447266,-131.69000244140625 C78.08499908447266,-131.69000244140625 -56.23500061035156,-9.829999923706055 -56.23500061035156,-9.829999923706055 C-56.23500061035156,-9.829999923706055 -56.23500061035156,152.6199951171875 -56.23500061035156,152.6199951171875 C-56.23500061035156,152.6199951171875 -74.08499908447266,152.6199951171875 -74.08499908447266,152.6199951171875 C-76.29399871826172,152.6199951171875 -78.08499908447266,150.82899475097656 -78.08499908447266,148.6199951171875 C-78.08499908447266,148.6199951171875 -78.08499908447266,-31.829999923706055 -78.08499908447266,-31.829999923706055 C-78.08499908447266,-31.829999923706055 55.04499816894531,-152.6199951171875 55.04499816894531,-152.6199951171875 C55.04499816894531,-152.6199951171875 78.08499908447266,-131.69000244140625 78.08499908447266,-131.69000244140625z"/></g><g opacity="1" transform="matrix(1,0,0,1,250,341.7720031738281)"><path fill="rgb(178,104,54)" fill-opacity="1" d=" M-45.9010009765625,68.8219985961914 C-45.9010009765625,68.8219985961914 -45.9010009765625,-64.8219985961914 -45.9010009765625,-64.8219985961914 C-45.9010009765625,-67.03099822998047 -44.11000061035156,-68.8219985961914 -41.9010009765625,-68.8219985961914 C-41.9010009765625,-68.8219985961914 41.9010009765625,-68.8219985961914 41.9010009765625,-68.8219985961914 C44.11000061035156,-68.8219985961914 45.9010009765625,-67.03099822998047 45.9010009765625,-64.8219985961914 C45.9010009765625,-64.8219985961914 45.9010009765625,68.8219985961914 45.9010009765625,68.8219985961914 C45.9010009765625,68.8219985961914 -45.9010009765625,68.8219985961914 -45.9010009765625,68.8219985961914z"/></g><g opacity="0.5" transform="matrix(1,0,0,1,214.18899536132812,341.7720031738281)" style="mix-blend-mode: multiply;"><path fill="rgb(178,104,54)" fill-opacity="1" d=" M10.09000015258789,-68.8219985961914 C10.09000015258789,-68.8219985961914 -6.090000152587891,-68.8219985961914 -6.090000152587891,-68.8219985961914 C-8.298999786376953,-68.8219985961914 -10.09000015258789,-67.03099822998047 -10.09000015258789,-64.8219985961914 C-10.09000015258789,-64.8219985961914 -10.09000015258789,68.8219985961914 -10.09000015258789,68.8219985961914 C-10.09000015258789,68.8219985961914 10.09000015258789,68.8219985961914 10.09000015258789,68.8219985961914 C10.09000015258789,68.8219985961914 10.09000015258789,-68.8219985961914 10.09000015258789,-68.8219985961914z"/></g><g opacity="1" transform="matrix(1,0,0,1,250,341.7720031738281)"><path stroke-linecap="round" stroke-linejoin="round" fill-opacity="0" stroke="rgb(19,20,50)" stroke-opacity="1" stroke-width="7" d=" M-45.9010009765625,68.8219985961914 C-45.9010009765625,68.8219985961914 -45.9010009765625,-64.8219985961914 -45.9010009765625,-64.8219985961914 C-45.9010009765625,-67.03099822998047 -44.11000061035156,-68.8219985961914 -41.9010009765625,-68.8219985961914 C-41.9010009765625,-68.8219985961914 41.9010009765625,-68.8219985961914 41.9010009765625,-68.8219985961914 C44.11000061035156,-68.8219985961914 45.9010009765625,-67.03099822998047 45.9010009765625,-64.8219985961914 C45.9010009765625,-64.8219985961914 45.9010009765625,68.8219985961914 45.9010009765625,68.8219985961914 C45.9010009765625,68.8219985961914 -45.9010009765625,68.8219985961914 -45.9010009765625,68.8219985961914z"/></g><g opacity="1" transform="matrix(1,0,0,1,276.989990234375,342.4809875488281)"><path stroke-linecap="round" stroke-linejoin="miter" fill-opacity="0" stroke-miterlimit="21.1" stroke="rgb(19,20,50)" stroke-opacity="1" stroke-width="12.04" d=" M0,0 C0,0 0,0 0,0"/></g><g opacity="1" transform="matrix(1,0,0,1,250,257.9700012207031)"><path stroke-linecap="round" stroke-linejoin="round" fill-opacity="0" stroke="rgb(19,20,50)" stroke-opacity="1" stroke-width="7" d=" M133.1300048828125,-31.670000076293945 C133.1300048828125,-31.670000076293945 133.1300048828125,148.6199951171875 133.1300048828125,148.6199951171875 C133.1300048828125,150.82899475097656 131.33900451660156,152.6199951171875 129.1300048828125,152.6199951171875 C129.1300048828125,152.6199951171875 -129.1300048828125,152.6199951171875 -129.1300048828125,152.6199951171875 C-131.33900451660156,152.6199951171875 -133.1300048828125,150.82899475097656 -133.1300048828125,148.6199951171875 C-133.1300048828125,148.6199951171875 -133.1300048828125,-31.829999923706055 -133.1300048828125,-31.829999923706055 C-133.1300048828125,-31.829999923706055 0,-152.6199951171875 0,-152.6199951171875 C0,-152.6199951171875 23.040000915527344,-131.69000244140625 23.040000915527344,-131.69000244140625 C23.040000915527344,-131.69000244140625 133.1300048828125,-31.670000076293945 133.1300048828125,-31.670000076293945z"/></g><g opacity="1" transform="matrix(1,0,0,1,250,172.31900024414062)"><g opacity="1" transform="matrix(1,0,0,1,0,0)"><path fill="rgb(242,76,0)" fill-opacity="1" d=" M149.31300354003906,81.93099975585938 C149.31300354003906,81.93099975585938 0.020999999716877937,-53.5890007019043 0.020999999716877937,-53.5890007019043 C0.020999999716877937,-53.5890007019043 -149.3159942626953,81.9020004272461 -149.3159942626953,81.9020004272461 C-150.95199584960938,83.38600158691406 -153.48300170898438,83.26300048828125 -154.9669952392578,81.62699890136719 C-154.9669952392578,81.62699890136719 -166.38999938964844,69.03700256347656 -166.38999938964844,69.03700256347656 C-167.87399291992188,67.4010009765625 -167.75100708007812,64.87100219726562 -166.11500549316406,63.387001037597656 C-166.11500549316406,63.387001037597656 -8.37600040435791,-79.72599792480469 -8.37600040435791,-79.72599792480469 C-3.6089999675750732,-84.0510025024414 3.6589999198913574,-84.04900360107422 8.423999786376953,-79.7239990234375 C8.423999786376953,-79.7239990234375 166.11599731445312,63.41999816894531 166.11599731445312,63.41999816894531 C167.7519989013672,64.90499877929688 167.87399291992188,67.43399810791016 166.38900756835938,69.06999969482422 C166.38900756835938,69.06999969482422 154.96299743652344,81.65699768066406 154.96299743652344,81.65699768066406 C153.47799682617188,83.29299926757812 150.94900512695312,83.41600036621094 149.31300354003906,81.93099975585938z"/><path stroke-linecap="round" stroke-linejoin="round" fill-opacity="0" stroke="rgb(19,20,50)" stroke-opacity="1" stroke-width="7" d=" M149.31300354003906,81.93099975585938 C149.31300354003906,81.93099975585938 0.020999999716877937,-53.5890007019043 0.020999999716877937,-53.5890007019043 C0.020999999716877937,-53.5890007019043 -149.3159942626953,81.9020004272461 -149.3159942626953,81.9020004272461 C-150.95199584960938,83.38600158691406 -153.48300170898438,83.26300048828125 -154.9669952392578,81.62699890136719 C-154.9669952392578,81.62699890136719 -166.38999938964844,69.03700256347656 -166.38999938964844,69.03700256347656 C-167.87399291992188,67.4010009765625 -167.75100708007812,64.87100219726562 -166.11500549316406,63.387001037597656 C-166.11500549316406,63.387001037597656 -8.37600040435791,-79.72599792480469 -8.37600040435791,-79.72599792480469 C-3.6089999675750732,-84.0510025024414 3.6589999198913574,-84.04900360107422 8.423999786376953,-79.7239990234375 C8.423999786376953,-79.7239990234375 166.11599731445312,63.41999816894531 166.11599731445312,63.41999816894531 C167.7519989013672,64.90499877929688 167.87399291992188,67.43399810791016 166.38900756835938,69.06999969482422 C166.38900756835938,69.06999969482422 154.96299743652344,81.65699768066406 154.96299743652344,81.65699768066406 C153.47799682617188,83.29299926757812 150.94900512695312,83.41600036621094 149.31300354003906,81.93099975585938z"/></g></g></g><g transform="matrix(1,0,0,1,250,250)" opacity="0.2" style="display: block;"><g opacity="1" transform="matrix(1,0,0,1,0,0)"><path stroke-linecap="round" stroke-linejoin="round" fill-opacity="0" stroke="rgb(19,20,50)" stroke-opacity="1" stroke-width="7" d=" M88.8489990234375,-259.0360107421875 C93.67500305175781,-268.010009765625 100.00199890136719,-275.6449890136719 107.93199920654297,-281.06298828125"/></g></g><g transform="matrix(1,0,0,1,250,250)" opacity="0.2" style="display: block;"><g opacity="1" transform="matrix(1,0,0,1,0,0)"><path stroke-linecap="round" stroke-linejoin="round" fill-opacity="0" stroke="rgb(19,20,50)" stroke-opacity="1" stroke-width="7" d=" M-16.899999618530273,-223.16600036621094 C-26.062999725341797,-221.77099609375 -35.79800033569336,-218.80999755859375 -46,-214 C-74.61699676513672,-200.50900268554688 -98.18399810791016,-193.66099548339844 -112.447998046875,-196.89700317382812"/></g></g><g transform="matrix(1,0,0,1,250,250)" opacity="0.2" style="display: block;"><g opacity="1" transform="matrix(1,0,0,1,0,0)"><path stroke-linecap="round" stroke-linejoin="round" fill-opacity="0" stroke="rgb(19,20,50)" stroke-opacity="1" stroke-width="7" d=" M122.38600158691406,-212.5570068359375 C134.3679962158203,-224.9080047607422 151.8459930419922,-232.45599365234375 176.677001953125,-233.1790008544922 C208.01499938964844,-234.09100341796875 226.5,-215 222.08799743652344,-186.5709991455078 C217.05099487304688,-154.11700439453125 174.14300537109375,-153.02200317382812 156.50999450683594,-171.29400634765625"/></g></g><g transform="matrix(1,0,0,1,250,250)" opacity="0.2" style="display: none;"><g opacity="1" transform="matrix(1,0,0,1,0,0)"><path stroke-linecap="round" stroke-linejoin="round" fill-opacity="0" stroke="rgb(19,20,50)" stroke-opacity="1" stroke-width="7" d=" M97,-143 C84.9000015258789,-154.68299865722656 77.8479995727539,-176.63800048828125 76.86299896240234,-200.0749969482422"/></g></g><g transform="matrix(1,0,0,1,250,250)" opacity="0.2" style="display: none;"><g opacity="1" transform="matrix(1,0,0,1,0,0)"><path stroke-linecap="round" stroke-linejoin="round" fill-opacity="0" stroke="rgb(19,20,50)" stroke-opacity="1" stroke-width="7" d=" M64.53299713134766,-147.1300048828125 C66.4990005493164,-167.0590057373047 59.77000045776367,-187.22500610351562 46.47800064086914,-201.91700744628906"/></g></g></g><g clip-path="url(#__lottie_element_17)" transform="matrix(1,0,0,1,0,0)" opacity="1" style="display: block;"><g transform="matrix(0.5170300006866455,0,0,0.5170300006866455,288.93499755859375,329.22100830078125)" opacity="1" style="display: none;"><g opacity="1" transform="matrix(1,0,0,1,0,0)"><path fill="rgb(235,230,239)" fill-opacity="1" d=" M272.3211364746094,163.60850524902344 C272.3211364746094,163.60850524902344 -36.17304611206055,163.94650268554688 -36.17304611206055,163.94650268554688 C-36.17304611206055,163.94650268554688 -35.89372253417969,-223.62574768066406 -35.89372253417969,-223.62574768066406 C-35.89372253417969,-223.62574768066406 275.59320068359375,-223.96475219726562 275.59320068359375,-223.96475219726562 C275.59320068359375,-223.96475219726562 275.3138732910156,160.60850524902344 275.3138732910156,160.60850524902344 C275.3138732910156,162.2655029296875 273.97412109375,163.60850524902344 272.3211364746094,163.60850524902344z"/><path fill="rgb(235,230,239)" fill-opacity="0.5" d=" M272.3211364746094,163.60850524902344 C272.3211364746094,163.60850524902344 -36.17304611206055,163.94650268554688 -36.17304611206055,163.94650268554688 C-36.17304611206055,163.94650268554688 -35.89372253417969,-223.62574768066406 -35.89372253417969,-223.62574768066406 C-35.89372253417969,-223.62574768066406 275.59320068359375,-223.96475219726562 275.59320068359375,-223.96475219726562 C275.59320068359375,-223.96475219726562 275.3138732910156,160.60850524902344 275.3138732910156,160.60850524902344 C275.3138732910156,162.2655029296875 273.97412109375,163.60850524902344 272.3211364746094,163.60850524902344z" style="mix-blend-mode: multiply;"/><path stroke-linecap="round" stroke-linejoin="round" fill-opacity="0" stroke="rgb(19,20,50)" stroke-opacity="1" stroke-width="12.04" d=" M272.3211364746094,163.60850524902344 C272.3211364746094,163.60850524902344 -36.17304611206055,163.94650268554688 -36.17304611206055,163.94650268554688 C-36.17304611206055,163.94650268554688 -35.89372253417969,-223.62574768066406 -35.89372253417969,-223.62574768066406 C-35.89372253417969,-223.62574768066406 275.59320068359375,-223.96475219726562 275.59320068359375,-223.96475219726562 C275.59320068359375,-223.96475219726562 275.3138732910156,160.60850524902344 275.3138732910156,160.60850524902344 C275.3138732910156,162.2655029296875 273.97412109375,163.60850524902344 272.3211364746094,163.60850524902344z"/></g></g><g transform="matrix(5.275599956512451,0,0,5.275599956512451,618.4199829101562,225.02000427246094)" opacity="1" style="display: none;"><g opacity="1" transform="matrix(1,0,0,1,0,0)"><path fill="rgb(242,76,0)" fill-opacity="1" d=" M-87.13641357421875,-25.07244300842285 C-87.13641357421875,-25.07244300842285 -59.793479919433594,-24.99655532836914 -59.793479919433594,-24.99655532836914 C-59.793479919433594,-24.99655532836914 -29.308481216430664,3.2943758964538574 -29.308481216430664,3.2943758964538574 C-29.308481216430664,3.2943758964538574 -31.000938415527344,6.3079938888549805 -31.000938415527344,6.3079938888549805 C-31.000938415527344,6.3079938888549805 -62.36451721191406,6.3259501457214355 -62.36451721191406,6.3259501457214355 M-29.861099243164062,3.2404632568359375 C-29.861099243164062,3.2404632568359375 -59.995670318603516,3.2943320274353027 -59.995670318603516,3.2943320274353027"/><path stroke-linecap="round" stroke-linejoin="round" fill-opacity="0" stroke="rgb(19,20,50)" stroke-opacity="1" stroke-width="1.4000000000000001" d=" M-87.13641357421875,-25.07244300842285 C-87.13641357421875,-25.07244300842285 -59.793479919433594,-24.99655532836914 -59.793479919433594,-24.99655532836914 C-59.793479919433594,-24.99655532836914 -29.308481216430664,3.2943758964538574 -29.308481216430664,3.2943758964538574 C-29.308481216430664,3.2943758964538574 -31.000938415527344,6.3079938888549805 -31.000938415527344,6.3079938888549805 C-31.000938415527344,6.3079938888549805 -62.36451721191406,6.3259501457214355 -62.36451721191406,6.3259501457214355 M-29.861099243164062,3.2404632568359375 C-29.861099243164062,3.2404632568359375 -59.995670318603516,3.2943320274353027 -59.995670318603516,3.2943320274353027"/></g></g><g transform="matrix(1,0,0,1,362.69000244140625,171.3000030517578)" opacity="1" style="display: block;"><g opacity="1" transform="matrix(1,0,0,1,-10,-14.5)"><path fill="rgb(146,20,12)" fill-opacity="1" d=" M-0.3970000147819519,30.672000885009766 C-0.3970000147819519,30.672000885009766 -0.6190000176429749,30.527999877929688 -0.6190000176429749,30.527999877929688 C-0.6190000176429749,30.527999877929688 -43.61199951171875,-15.38700008392334 -43.61199951171875,-15.38700008392334 C-43.61199951171875,-15.38700008392334 -43.58599853515625,-47.49100112915039 -43.58599853515625,-47.49100112915039 C-43.58599853515625,-47.49100112915039 -0.3319999873638153,-47.43199920654297 -0.3319999873638153,-47.43199920654297 C-0.3319999873638153,-47.43199920654297 -0.3970000147819519,30.672000885009766 -0.3970000147819519,30.672000885009766z"/><path fill="rgb(146,20,12)" fill-opacity="0.5" d=" M-0.3970000147819519,30.672000885009766 C-0.3970000147819519,30.672000885009766 -0.6190000176429749,30.527999877929688 -0.6190000176429749,30.527999877929688 C-0.6190000176429749,30.527999877929688 -43.61199951171875,-15.38700008392334 -43.61199951171875,-15.38700008392334 C-43.61199951171875,-15.38700008392334 -43.58599853515625,-47.49100112915039 -43.58599853515625,-47.49100112915039 C-43.58599853515625,-47.49100112915039 -0.3319999873638153,-47.43199920654297 -0.3319999873638153,-47.43199920654297 C-0.3319999873638153,-47.43199920654297 -0.3970000147819519,30.672000885009766 -0.3970000147819519,30.672000885009766z" style="mix-blend-mode: multiply;"/><path stroke-linecap="round" stroke-linejoin="round" fill-opacity="0" stroke="rgb(19,20,50)" stroke-opacity="1" stroke-width="7" d=" M-0.3970000147819519,30.672000885009766 C-0.3970000147819519,30.672000885009766 -0.6190000176429749,30.527999877929688 -0.6190000176429749,30.527999877929688 C-0.6190000176429749,30.527999877929688 -43.61199951171875,-15.38700008392334 -43.61199951171875,-15.38700008392334 C-43.61199951171875,-15.38700008392334 -43.58599853515625,-47.49100112915039 -43.58599853515625,-47.49100112915039 C-43.58599853515625,-47.49100112915039 -0.3319999873638153,-47.43199920654297 -0.3319999873638153,-47.43199920654297 C-0.3319999873638153,-47.43199920654297 -0.3970000147819519,30.672000885009766 -0.3970000147819519,30.672000885009766z"/></g></g><g transform="matrix(0.8845700025558472,0,0,0.8845700025558472,39.97613525390625,17.759750366210938)" opacity="1" style="display: block;"><g opacity="1" transform="matrix(1,0,0,1,328.99700927734375,146.27699279785156)"><path fill="rgb(146,20,12)" fill-opacity="1" d=" M23.56599998474121,-44.9379997253418 C23.56599998474121,-44.9379997253418 -23.57200050354004,-44.9379997253418 -23.57200050354004,-44.9379997253418 C-25.5049991607666,-44.9379997253418 -27.07200050354004,-43.37099838256836 -27.07200050354004,-41.4379997253418 C-27.07200050354004,-41.4379997253418 -27.07200050354004,-6.796999931335449 -27.07200050354004,-6.796999931335449 C-27.07200050354004,-5.822999954223633 -26.666000366210938,-4.892000198364258 -25.95199966430664,-4.230000019073486 C-25.95199966430664,-4.230000019073486 27.06599998474121,44.9379997253418 27.06599998474121,44.9379997253418 C27.07900047302246,40.404998779296875 27.06599998474121,-41.4379997253418 27.06599998474121,-41.4379997253418 C27.06599998474121,-43.37099838256836 25.499000549316406,-44.9379997253418 23.56599998474121,-44.9379997253418z"/></g><g opacity="0.5" transform="matrix(1,0,0,1,311.5169982910156,129.86399841308594)" style="mix-blend-mode: multiply;"><path fill="rgb(146,20,12)" fill-opacity="1" d=" M9.156000137329102,-24.26099967956543 C9.156000137329102,-25.808000564575195 9.314000129699707,-27.260000228881836 9.590999603271484,-28.524999618530273 C9.590999603271484,-28.524999618530273 -6.091000080108643,-28.524999618530273 -6.091000080108643,-28.524999618530273 C-8.02400016784668,-28.524999618530273 -9.590999603271484,-26.95800018310547 -9.590999603271484,-25.024999618530273 C-9.590999603271484,-25.024999618530273 -9.590999603271484,9.616999626159668 -9.590999603271484,9.616999626159668 C-9.590999603271484,10.590999603271484 -9.1850004196167,11.520999908447266 -8.470999717712402,12.182999610900879 C-8.470999717712402,12.182999610900879 9.156000137329102,28.524999618530273 9.156000137329102,28.524999618530273 C9.156000137329102,28.524999618530273 9.156000137329102,-24.26099967956543 9.156000137329102,-24.26099967956543z"/></g><g opacity="1" transform="matrix(1,0,0,1,328.99700927734375,146.27699279785156)"><path stroke-linecap="round" stroke-linejoin="round" fill-opacity="0" stroke="rgb(19,20,50)" stroke-opacity="1" stroke-width="7" d=" M23.56599998474121,-44.9379997253418 C23.56599998474121,-44.9379997253418 -23.57200050354004,-44.9379997253418 -23.57200050354004,-44.9379997253418 C-25.5049991607666,-44.9379997253418 -27.07200050354004,-43.37099838256836 -27.07200050354004,-41.4379997253418 C-27.07200050354004,-41.4379997253418 -27.07200050354004,-6.796999931335449 -27.07200050354004,-6.796999931335449 C-27.07200050354004,-5.822999954223633 -26.666000366210938,-4.892000198364258 -25.95199966430664,-4.230000019073486 C-25.95199966430664,-4.230000019073486 27.06599998474121,44.9379997253418 27.06599998474121,44.9379997253418 C27.07900047302246,40.404998779296875 27.06599998474121,-41.4379997253418 27.06599998474121,-41.4379997253418 C27.06599998474121,-43.37099838256836 25.499000549316406,-44.9379997253418 23.56599998474121,-44.9379997253418z"/></g></g><g transform="matrix(1,0,0,1,0,3)" opacity="1" style="display: block;"><g opacity="1" transform="matrix(1,0,0,1,250,257.9700012207031)"><path fill="rgb(235,230,239)" fill-opacity="1" d=" M133.1300048828125,-31.670000076293945 C133.1300048828125,-31.670000076293945 133.1300048828125,148.6199951171875 133.1300048828125,148.6199951171875 C133.1300048828125,150.82899475097656 131.33900451660156,152.6199951171875 129.1300048828125,152.6199951171875 C129.1300048828125,152.6199951171875 -129.1300048828125,152.6199951171875 -129.1300048828125,152.6199951171875 C-131.33900451660156,152.6199951171875 -133.1300048828125,150.82899475097656 -133.1300048828125,148.6199951171875 C-133.1300048828125,148.6199951171875 -133.1300048828125,-31.829999923706055 -133.1300048828125,-31.829999923706055 C-133.1300048828125,-31.829999923706055 0,-152.6199951171875 0,-152.6199951171875 C0,-152.6199951171875 23.040000915527344,-131.69000244140625 23.040000915527344,-131.69000244140625 C23.040000915527344,-131.69000244140625 133.1300048828125,-31.670000076293945 133.1300048828125,-31.670000076293945z"/></g><g opacity="0.5" transform="matrix(1,0,0,1,194.9550018310547,257.9700012207031)" style="mix-blend-mode: multiply;"><path fill="rgb(235,230,239)" fill-opacity="1" d=" M78.08499908447266,-131.69000244140625 C78.08499908447266,-131.69000244140625 -56.23500061035156,-9.829999923706055 -56.23500061035156,-9.829999923706055 C-56.23500061035156,-9.829999923706055 -56.23500061035156,152.6199951171875 -56.23500061035156,152.6199951171875 C-56.23500061035156,152.6199951171875 -74.08499908447266,152.6199951171875 -74.08499908447266,152.6199951171875 C-76.29399871826172,152.6199951171875 -78.08499908447266,150.82899475097656 -78.08499908447266,148.6199951171875 C-78.08499908447266,148.6199951171875 -78.08499908447266,-31.829999923706055 -78.08499908447266,-31.829999923706055 C-78.08499908447266,-31.829999923706055 55.04499816894531,-152.6199951171875 55.04499816894531,-152.6199951171875 C55.04499816894531,-152.6199951171875 78.08499908447266,-131.69000244140625 78.08499908447266,-131.69000244140625z"/></g><g opacity="1" transform="matrix(1,0,0,1,250,341.7720031738281)"><path fill="rgb(178,104,54)" fill-opacity="1" d=" M-45.9010009765625,68.8219985961914 C-45.9010009765625,68.8219985961914 -45.9010009765625,-64.8219985961914 -45.9010009765625,-64.8219985961914 C-45.9010009765625,-67.03099822998047 -44.11000061035156,-68.8219985961914 -41.9010009765625,-68.8219985961914 C-41.9010009765625,-68.8219985961914 41.9010009765625,-68.8219985961914 41.9010009765625,-68.8219985961914 C44.11000061035156,-68.8219985961914 45.9010009765625,-67.03099822998047 45.9010009765625,-64.8219985961914 C45.9010009765625,-64.8219985961914 45.9010009765625,68.8219985961914 45.9010009765625,68.8219985961914 C45.9010009765625,68.8219985961914 -45.9010009765625,68.8219985961914 -45.9010009765625,68.8219985961914z"/></g><g opacity="0.5" transform="matrix(1,0,0,1,214.18899536132812,341.7720031738281)" style="mix-blend-mode: multiply;"><path fill="rgb(178,104,54)" fill-opacity="1" d=" M10.09000015258789,-68.8219985961914 C10.09000015258789,-68.8219985961914 -6.090000152587891,-68.8219985961914 -6.090000152587891,-68.8219985961914 C-8.298999786376953,-68.8219985961914 -10.09000015258789,-67.03099822998047 -10.09000015258789,-64.8219985961914 C-10.09000015258789,-64.8219985961914 -10.09000015258789,68.8219985961914 -10.09000015258789,68.8219985961914 C-10.09000015258789,68.8219985961914 10.09000015258789,68.8219985961914 10.09000015258789,68.8219985961914 C10.09000015258789,68.8219985961914 10.09000015258789,-68.8219985961914 10.09000015258789,-68.8219985961914z"/></g><g opacity="1" transform="matrix(1,0,0,1,250,341.7720031738281)"><path stroke-linecap="round" stroke-linejoin="round" fill-opacity="0" stroke="rgb(19,20,50)" stroke-opacity="1" stroke-width="7" d=" M-45.9010009765625,68.8219985961914 C-45.9010009765625,68.8219985961914 -45.9010009765625,-64.8219985961914 -45.9010009765625,-64.8219985961914 C-45.9010009765625,-67.03099822998047 -44.11000061035156,-68.8219985961914 -41.9010009765625,-68.8219985961914 C-41.9010009765625,-68.8219985961914 41.9010009765625,-68.8219985961914 41.9010009765625,-68.8219985961914 C44.11000061035156,-68.8219985961914 45.9010009765625,-67.03099822998047 45.9010009765625,-64.8219985961914 C45.9010009765625,-64.8219985961914 45.9010009765625,68.8219985961914 45.9010009765625,68.8219985961914 C45.9010009765625,68.8219985961914 -45.9010009765625,68.8219985961914 -45.9010009765625,68.8219985961914z"/></g><g opacity="1" transform="matrix(1,0,0,1,276.989990234375,342.4809875488281)"><path stroke-linecap="round" stroke-linejoin="miter" fill-opacity="0" stroke-miterlimit="21.1" stroke="rgb(19,20,50)" stroke-opacity="1" stroke-width="12.04" d=" M0,0 C0,0 0,0 0,0"/></g><g opacity="1" transform="matrix(1,0,0,1,250,257.9700012207031)"><path stroke-linecap="round" stroke-linejoin="round" fill-opacity="0" stroke="rgb(19,20,50)" stroke-opacity="1" stroke-width="7" d=" M133.1300048828125,-31.670000076293945 C133.1300048828125,-31.670000076293945 133.1300048828125,148.6199951171875 133.1300048828125,148.6199951171875 C133.1300048828125,150.82899475097656 131.33900451660156,152.6199951171875 129.1300048828125,152.6199951171875 C129.1300048828125,152.6199951171875 -129.1300048828125,152.6199951171875 -129.1300048828125,152.6199951171875 C-131.33900451660156,152.6199951171875 -133.1300048828125,150.82899475097656 -133.1300048828125,148.6199951171875 C-133.1300048828125,148.6199951171875 -133.1300048828125,-31.829999923706055 -133.1300048828125,-31.829999923706055 C-133.1300048828125,-31.829999923706055 0,-152.6199951171875 0,-152.6199951171875 C0,-152.6199951171875 23.040000915527344,-131.69000244140625 23.040000915527344,-131.69000244140625 C23.040000915527344,-131.69000244140625 133.1300048828125,-31.670000076293945 133.1300048828125,-31.670000076293945z"/></g><g opacity="1" transform="matrix(1,0,0,1,250,172.31900024414062)"><g opacity="1" transform="matrix(1,0,0,1,0,0)"><path fill="rgb(242,76,0)" fill-opacity="1" d=" M149.31300354003906,81.93099975585938 C149.31300354003906,81.93099975585938 0.020999999716877937,-53.5890007019043 0.020999999716877937,-53.5890007019043 C0.020999999716877937,-53.5890007019043 -149.3159942626953,81.9020004272461 -149.3159942626953,81.9020004272461 C-150.95199584960938,83.38600158691406 -153.48300170898438,83.26300048828125 -154.9669952392578,81.62699890136719 C-154.9669952392578,81.62699890136719 -166.38999938964844,69.03700256347656 -166.38999938964844,69.03700256347656 C-167.87399291992188,67.4010009765625 -167.75100708007812,64.87100219726562 -166.11500549316406,63.387001037597656 C-166.11500549316406,63.387001037597656 -8.37600040435791,-79.72599792480469 -8.37600040435791,-79.72599792480469 C-3.6089999675750732,-84.0510025024414 3.6589999198913574,-84.04900360107422 8.423999786376953,-79.7239990234375 C8.423999786376953,-79.7239990234375 166.11599731445312,63.41999816894531 166.11599731445312,63.41999816894531 C167.7519989013672,64.90499877929688 167.87399291992188,67.43399810791016 166.38900756835938,69.06999969482422 C166.38900756835938,69.06999969482422 154.96299743652344,81.65699768066406 154.96299743652344,81.65699768066406 C153.47799682617188,83.29299926757812 150.94900512695312,83.41600036621094 149.31300354003906,81.93099975585938z"/><path stroke-linecap="round" stroke-linejoin="round" fill-opacity="0" stroke="rgb(19,20,50)" stroke-opacity="1" stroke-width="7" d=" M149.31300354003906,81.93099975585938 C149.31300354003906,81.93099975585938 0.020999999716877937,-53.5890007019043 0.020999999716877937,-53.5890007019043 C0.020999999716877937,-53.5890007019043 -149.3159942626953,81.9020004272461 -149.3159942626953,81.9020004272461 C-150.95199584960938,83.38600158691406 -153.48300170898438,83.26300048828125 -154.9669952392578,81.62699890136719 C-154.9669952392578,81.62699890136719 -166.38999938964844,69.03700256347656 -166.38999938964844,69.03700256347656 C-167.87399291992188,67.4010009765625 -167.75100708007812,64.87100219726562 -166.11500549316406,63.387001037597656 C-166.11500549316406,63.387001037597656 -8.37600040435791,-79.72599792480469 -8.37600040435791,-79.72599792480469 C-3.6089999675750732,-84.0510025024414 3.6589999198913574,-84.04900360107422 8.423999786376953,-79.7239990234375 C8.423999786376953,-79.7239990234375 166.11599731445312,63.41999816894531 166.11599731445312,63.41999816894531 C167.7519989013672,64.90499877929688 167.87399291992188,67.43399810791016 166.38900756835938,69.06999969482422 C166.38900756835938,69.06999969482422 154.96299743652344,81.65699768066406 154.96299743652344,81.65699768066406 C153.47799682617188,83.29299926757812 150.94900512695312,83.41600036621094 149.31300354003906,81.93099975585938z"/></g></g></g></g><g class="com" style="display: none;"><g><path/></g><g><path/></g><g><path/></g><g><path/></g><g><path/></g><g><path/></g><g><path/></g><g><path/></g><g><path/></g><g><path/></g><g><path/></g><g><path/></g></g></g></svg>