<svg xmlns="http://www.w3.org/2000/svg" xmlns:xlink="http://www.w3.org/1999/xlink" viewBox="0 0 500 500" width="500" height="500" preserveAspectRatio="xMidYMid meet" style="width: 100%; height: 100%; transform: translate3d(0px, 0px, 0px); content-visibility: visible;"><defs><clipPath id="__lottie_element_51"><rect width="500" height="500" x="0" y="0"/></clipPath></defs><g clip-path="url(#__lottie_element_51)"><g transform="matrix(1,0,0,1.0092154741287231,244.52792358398438,247.9951171875)" opacity="1" style="display: block;"><g opacity="1" transform="matrix(1,0,0,1,0,0)"><path stroke-linecap="round" stroke-linejoin="round" fill-opacity="0" stroke-dasharray=" 109 61" stroke-dashoffset="71.53074645996094" stroke="rgb(18,19,49)" stroke-opacity="1" stroke-width="7" d=" M-281,109 C-281,109 -120,109 -120,109"/></g></g><g transform="matrix(1,0,0,0.9900093078613281,-7.1060791015625,2.5872650146484375)" opacity="1" style="display: block;"><g opacity="1" transform="matrix(1,0,-0.06986159831285477,1,25.208114624023438,0)"><g opacity="1" transform="matrix(1,0,0,1,128.7830047607422,300.5790100097656)"><path fill="rgb(58,51,71)" fill-opacity="1" d=" M0.34700000286102295,-57.07899856567383 C-31.48200035095215,-57.07899856567383 -57.28300094604492,-31.322999954223633 -57.28300094604492,0.4490000009536743 C-57.28300094604492,32.22100067138672 -31.48200035095215,57.97800064086914 0.34700000286102295,57.97800064086914 C32.17599868774414,57.97800064086914 57.97800064086914,32.22100067138672 57.97800064086914,0.4490000009536743 C57.97800064086914,-31.322999954223633 32.17599868774414,-57.07899856567383 0.34700000286102295,-57.07899856567383z M2.2149999141693115,35.808998107910156 C-16.767000198364258,35.808998107910156 -32.154998779296875,20.44700050354004 -32.154998779296875,1.4989999532699585 C-32.154998779296875,-17.448999404907227 -16.767000198364258,-32.810001373291016 2.2149999141693115,-32.810001373291016 C21.19700050354004,-32.810001373291016 36.584999084472656,-17.448999404907227 36.584999084472656,1.4989999532699585 C36.584999084472656,20.44700050354004 21.19700050354004,35.808998107910156 2.2149999141693115,35.808998107910156z"/></g><g opacity="1" transform="matrix(1,0,0,1,377.864013671875,300.7489929199219)"><path fill="rgb(58,51,71)" fill-opacity="1" d=" M0,-57.310001373291016 C-31.650999069213867,-57.310001373291016 -57.310001373291016,-31.650999069213867 -57.310001373291016,0 C-57.310001373291016,31.650999069213867 -31.650999069213867,57.310001373291016 0,57.310001373291016 C31.650999069213867,57.310001373291016 57.310001373291016,31.650999069213867 57.310001373291016,0 C57.310001373291016,-31.650999069213867 31.650999069213867,-57.310001373291016 0,-57.310001373291016z M0.11100000143051147,36.19599914550781 C-19.643999099731445,36.19599914550781 -35.659000396728516,20.180999755859375 -35.659000396728516,0.4259999990463257 C-35.659000396728516,-19.32900047302246 -19.643999099731445,-35.34400177001953 0.11100000143051147,-35.34400177001953 C19.865999221801758,-35.34400177001953 35.88100051879883,-19.32900047302246 35.88100051879883,0.4259999990463257 C35.88100051879883,20.180999755859375 19.865999221801758,36.19599914550781 0.11100000143051147,36.19599914550781z"/></g><g opacity="1" transform="matrix(1,0,0,1,274.9679870605469,201.92999267578125)"><path fill="rgb(58,51,71)" fill-opacity="1" d=" M65.01799774169922,-4.1539998054504395 C43.018001556396484,-10.154000282287598 9.017999649047852,-25.15399932861328 -15.982000350952148,-25.15399932861328 C-22.34000015258789,-25.15399932861328 -37.18600082397461,-25.143999099731445 -52.24399948120117,-17.149999618530273 C-62.981998443603516,-10.154000282287598 -65.98200225830078,-5.1539998054504395 -68.98200225830078,-0.15399999916553497 C-69.98200225830078,0.8460000157356262 -70.99800109863281,10.336000442504883 -68.47799682617188,11.76099967956543 C-68.14299774169922,11.949999809265137 -67.322998046875,12.140000343322754 -66.37899780273438,12.140000343322754 C-64.56900024414062,12.140000343322754 -63.768001556396484,9.972000122070312 -61.768001556396484,9.972000122070312 C-61.58599853515625,9.972000122070312 -61.43899917602539,9.98799991607666 -61.356998443603516,9.998000144958496 C-51.96799850463867,16.972999572753906 -41.55500030517578,23.808000564575195 -32.527000427246094,30.832000732421875 C-24.958999633789062,28.38599967956543 -16.29599952697754,27.486000061035156 -6.708000183105469,28.444000244140625 C-6.708000183105469,28.444000244140625 25.422000885009766,33.65399932861328 25.422000885009766,33.65399932861328 C38.53799819946289,35.229000091552734 52.51499938964844,29.19499969482422 59.801998138427734,19.985000610351562 C62.85499954223633,16.663999557495117 65.23699951171875,12.711000442504883 66.99600219726562,8.392000198364258 C66.7969970703125,8.348999977111816 66.5989990234375,8.295999526977539 66.4010009765625,8.232000350952148 C65.80799865722656,8.039999961853027 72.99299621582031,6.625999927520752 73.70899963378906,4.119999885559082 C74.16899871826172,2.509999990463257 73.28500366210938,0.7689999938011169 65.01799774169922,-4.1539998054504395z"/></g><g opacity="1" transform="matrix(1,0,0,1,152.64100646972656,222.2209930419922)"><path fill="rgb(242,76,0)" fill-opacity="1" d=" M53.70000076293945,54.81999969482422 C53.70000076293945,54.81999969482422 -84.96399688720703,-45.22100067138672 -84.96399688720703,-45.22100067138672 C-89.13600158691406,-48.23099899291992 -87.00499725341797,-54.82099914550781 -81.86100006103516,-54.81999969482422 C-81.86100006103516,-54.81999969482422 -0.531000018119812,-54.805999755859375 -0.531000018119812,-54.805999755859375 C-0.531000018119812,-54.805999755859375 -0.7009999752044678,-24.908000946044922 -0.7009999752044678,-24.908000946044922 C-0.7009999752044678,-24.908000946044922 53.70000076293945,-19.295000076293945 53.70000076293945,-19.295000076293945 C53.70000076293945,-19.295000076293945 87.1729965209961,5.129000186920166 87.1729965209961,5.129000186920166"/></g><g opacity="0.5" transform="matrix(1,0,0,1,153.10800170898438,222.5189971923828)" style="mix-blend-mode: multiply;"><path fill="rgb(242,76,0)" fill-opacity="1" d=" M54.16600036621094,55.117000579833984 C58.51100158691406,42.762001037597656 58.51100158691406,42.762001037597656 67.20099639892578,18.052000045776367 C58.51100158691406,42.762001037597656 58.51100158691406,42.762001037597656 54.16600036621094,55.117000579833984 C54.16600036621094,55.117000579833984 -84.49700164794922,-44.92300033569336 -84.49700164794922,-44.92300033569336 C-87.12000274658203,-46.417999267578125 -88.5739974975586,-49.36000061035156 -86.97000122070312,-52.03499984741211 C-86.18399810791016,-53.88999938964844 -84.79399871826172,-55.117000579833984 -82.24500274658203,-55.117000579833984 C-55.1349983215332,-55.112998962402344 -28.024999618530273,-55.108001708984375 -0.9150000214576721,-55.104000091552734 C-0.972000002861023,-45.13800048828125 -1.027999997138977,-35.172000885009766 -1.0850000381469727,-25.20599937438965 C17.75200080871582,-23.430999755859375 34.479000091552734,-21.367000579833984 53.316001892089844,-19.591999053955078 C64.05400085449219,-11.156000137329102 76.9020004272461,-3.009000062942505 87.63999938964844,5.427000045776367"/></g><g opacity="1" transform="matrix(1,0,0,1,314.7569885253906,241.8260040283203)"><path fill="rgb(242,76,0)" fill-opacity="1" d=" M-108.5479965209961,33.45399856567383 C-108.30999755859375,0.041999999433755875 -85.22899627685547,-22.15999984741211 -49.34199905395508,-18.576000213623047 C-49.34199905395508,-18.576000213623047 -17.211999893188477,-13.366000175476074 -17.211999893188477,-13.366000175476074 C-4.0960001945495605,-11.791000366210938 9.880999565124512,-17.826000213623047 17.167999267578125,-27.035999298095703 C24.58799934387207,-35.10599899291992 28.107999801635742,-46.875999450683594 28.107999801635742,-58.69599914550781 C28.107999801635742,-74.2959976196289 20.238000869750977,-88.0459976196289 8.248000144958496,-96.20600128173828 C8.248000144958496,-96.20600128173828 8.753000259399414,-96.322998046875 8.753000259399414,-96.322998046875 C8.753000259399414,-96.322998046875 44.04600143432617,-100.38500213623047 44.04600143432617,-100.38500213623047 C44.04600143432617,-100.38500213623047 75.0479965209961,-95.07599639892578 108.50199890136719,-46.180999755859375 C108.50199890136719,-46.180999755859375 108.5479965209961,-28.076000213623047 108.5479965209961,-28.076000213623047 C108.5479965209961,-28.076000213623047 -9.243000030517578,72.6449966430664 -9.243000030517578,72.6449966430664 C-9.243000030517578,72.6449966430664 -9.265000343322754,100.38500213623047 -9.265000343322754,100.38500213623047 C-9.265000343322754,100.38500213623047 -89.89399719238281,100.38500213623047 -89.89399719238281,100.38500213623047 C-100.19599914550781,100.38500213623047 -108.5479965209961,92.03299713134766 -108.5479965209961,81.73100280761719 C-108.5479965209961,81.73100280761719 -108.5479965209961,33.45399856567383 -108.5479965209961,33.45399856567383"/></g><g opacity="1" transform="matrix(1,0,0,1,409.7080078125,202.26199340820312)"><path fill="rgb(235,230,239)" fill-opacity="1" d=" M-14.319999694824219,0.3199999928474426 C-14.359999656677246,10.390000343322754 -8.319999694824219,19.059999465942383 0.3400000035762787,22.860000610351562 C0.3400000035762787,22.860000610351562 0.3400000035762787,22.860000610351562 0.3400000035762787,22.860000610351562 C0.3409999907016754,22.860000610351562 0.3440000116825104,22.860000610351562 0.3449999988079071,22.860000610351562 C5.002999782562256,18.87700080871582 9.661999702453613,14.894000053405762 14.319999694824219,10.91100025177002 C14.303999900817871,4.875999927520752 14.289999961853027,-1.159999966621399 14.27400016784668,-7.195000171661377 C12.440999984741211,-9.883000373840332 10.463000297546387,-12.647000312805176 8.333000183105469,-15.465999603271484 C6.366000175476074,-18.069000244140625 4.409999847412109,-20.533000946044922 2.4809999465942383,-22.860000610351562 C2.4769999980926514,-22.860000610351562 2.4739999771118164,-22.860000610351562 2.4700000286102295,-22.860000610351562 C-7.25,-19.649999618530273 -14.279999732971191,-10.489999771118164 -14.319999694824219,0.3199999928474426z"/></g><g opacity="0.5" transform="matrix(1,0,0,1,245.1020050048828,197.4810028076172)" style="mix-blend-mode: multiply;"><path fill="rgb(58,51,71)" fill-opacity="1" d=" M7.748000144958496,0 C7.748000144958496,3.234999895095825 4.2789998054504395,5.857999801635742 0,5.857999801635742 C-4.2789998054504395,5.857999801635742 -7.748000144958496,3.234999895095825 -7.748000144958496,0 C-7.748000144958496,-3.234999895095825 -4.2789998054504395,-5.857999801635742 0,-5.857999801635742 C4.2789998054504395,-5.857999801635742 7.748000144958496,-3.234999895095825 7.748000144958496,0z"/></g></g></g><g transform="matrix(1,0,0,0.9900093078613281,2.3939208984375,3.5772705078125)" opacity="1" style="display: block;"><g opacity="1" transform="matrix(1,0,-0.06986159831285477,1,25.010528564453125,0)"><g opacity="1" transform="matrix(1,0,0,1,393.2550048828125,203.33999633789062)"><path stroke-linecap="round" stroke-linejoin="round" fill-opacity="0" stroke="rgb(18,19,49)" stroke-opacity="1" stroke-width="7" d=" M6.264999866485596,22.860000610351562 C-2.3949999809265137,19.059999465942383 -8.4350004196167,10.390000343322754 -8.395000457763672,0.3199999928474426 C-8.354999542236328,-10.489999771118164 -1.3250000476837158,-19.649999618530273 8.395000457763672,-22.860000610351562"/></g><g opacity="1" transform="matrix(1,0,0,1,360.0690002441406,283.9179992675781)"><path stroke-linecap="round" stroke-linejoin="round" fill-opacity="0" stroke="rgb(18,19,49)" stroke-opacity="1" stroke-width="7" d=" M8.362000465393066,16.829999923706055 C8.362000465393066,16.829999923706055 -8.362000465393066,-16.829999923706055 -8.362000465393066,-16.829999923706055"/></g><g opacity="1" transform="matrix(1,0,0,1,234.51600646972656,242.3260040283203)"><path stroke-linecap="round" stroke-linejoin="round" fill-opacity="0" stroke="rgb(18,19,49)" stroke-opacity="1" stroke-width="7" d=" M-4.638000011444092,-16.236000061035156 C-4.638000011444092,-16.236000061035156 -38.11199951171875,-40.65999984741211 -38.11199951171875,-40.65999984741211 C-38.11199951171875,-40.65999984741211 -92.51200103759766,-46.27299880981445 -92.51200103759766,-46.27299880981445 C-92.51200103759766,-46.27299880981445 -92.34200286865234,-76.1719970703125 -92.34200286865234,-76.1719970703125 C-92.34200286865234,-76.1719970703125 -173.67300415039062,-76.18499755859375 -173.67300415039062,-76.18499755859375 C-178.81700134277344,-76.18599700927734 -180.94700622558594,-69.59600067138672 -176.77499389648438,-66.58599853515625 C-176.77499389648438,-66.58599853515625 -38.11199951171875,33.45399856567383 -38.11199951171875,33.45399856567383 C-38.11199951171875,33.45399856567383 -38.11199951171875,81.73100280761719 -38.11199951171875,81.73100280761719 C-38.11199951171875,92.03299713134766 -29.760000228881836,100.38500213623047 -19.45800018310547,100.38500213623047 C-19.45800018310547,100.38500213623047 61.172000885009766,100.38500213623047 61.172000885009766,100.38500213623047 C61.172000885009766,100.38500213623047 61.194000244140625,72.6449966430664 61.194000244140625,72.6449966430664 C61.194000244140625,72.6449966430664 178.98399353027344,-28.076000213623047 178.98399353027344,-28.076000213623047 C178.98399353027344,-28.076000213623047 178.93800354003906,-46.180999755859375 178.93800354003906,-46.180999755859375 C145.48399353027344,-95.07599639892578 114.48300170898438,-100.38500213623047 114.48300170898438,-100.38500213623047 C114.48300170898438,-100.38500213623047 79.19000244140625,-96.322998046875 79.19000244140625,-96.322998046875"/></g><g opacity="1" transform="matrix(1,0,0,1,263.59600830078125,188.90899658203125)"><path stroke-linecap="round" stroke-linejoin="round" fill-opacity="0" stroke="rgb(18,19,49)" stroke-opacity="1" stroke-width="7" d=" M-67.19200134277344,12.756999969482422 C-67.19200134277344,12.756999969482422 -51.59600067138672,-29.312999725341797 22.90399932861328,-5.410999774932861 C22.90399932861328,-5.410999774932861 67.19200134277344,8.918999671936035 67.19200134277344,8.918999671936035"/></g><g opacity="1" transform="matrix(1,0,0,1,119.64700317382812,300.7489929199219)"><path stroke-linecap="round" stroke-linejoin="round" fill-opacity="0" stroke="rgb(18,19,49)" stroke-opacity="1" stroke-width="7" d=" M-57.310001373291016,0 C-57.310001373291016,-31.650999069213867 -31.650999069213867,-57.310001373291016 0,-57.310001373291016 C31.650999069213867,-57.310001373291016 57.310001373291016,-31.650999069213867 57.310001373291016,0 C57.310001373291016,31.650999069213867 31.650999069213867,57.310001373291016 0,57.310001373291016 C-31.650999069213867,57.310001373291016 -57.310001373291016,31.650999069213867 -57.310001373291016,0z"/></g><g opacity="1" transform="matrix(1,0,0,1,368.55499267578125,301.17498779296875)"><path stroke-linecap="round" stroke-linejoin="round" fill-opacity="0" stroke="rgb(18,19,49)" stroke-opacity="1" stroke-width="7" d=" M9.8149995803833,-56.8849983215332 C36.78499984741211,-52.244998931884766 57.30500030517578,-28.725000381469727 57.30500030517578,-0.42500001192092896 C57.30500030517578,31.225000381469727 31.645000457763672,56.8849983215332 -0.004999999888241291,56.8849983215332 C-31.344999313354492,56.8849983215332 -56.814998626708984,31.725000381469727 -57.30500030517578,0.5049999952316284"/></g><g opacity="1" transform="matrix(1,0,0,1,158.0260009765625,300.7489929199219)"><path stroke-linecap="round" stroke-linejoin="round" fill-opacity="0" stroke="rgb(18,19,49)" stroke-opacity="1" stroke-width="7" d=" M-38.37900161743164,0 C-38.37900161743164,0 38.37900161743164,0 38.37900161743164,0"/></g><g opacity="1" transform="matrix(1,0,0,1,196.6269989013672,228.95899963378906)"><path stroke-linecap="round" stroke-linejoin="round" fill-opacity="0" stroke="rgb(18,19,49)" stroke-opacity="1" stroke-width="7" d=" M0,0"/></g><g opacity="1" transform="matrix(1,0,0,1,134.33900451660156,271.1759948730469)"><path stroke-linecap="round" stroke-linejoin="round" fill-opacity="0" stroke="rgb(18,19,49)" stroke-opacity="1" stroke-width="7" d=" M-14.692000389099121,29.572999954223633 C-14.692000389099121,29.572999954223633 14.692000389099121,-29.572999954223633 14.692000389099121,-29.572999954223633"/></g><g opacity="1" transform="matrix(1,0,0,1,264.73199462890625,210.9499969482422)"><path stroke-linecap="round" stroke-linejoin="round" fill-opacity="0" stroke="rgb(18,19,49)" stroke-opacity="1" stroke-width="7" d=" M48.46799850463867,-64.83000183105469 C60.45800018310547,-56.66999816894531 68.3280029296875,-42.91999816894531 68.3280029296875,-27.31999969482422 C68.3280029296875,-15.5 64.80799865722656,-3.7300000190734863 57.38800048828125,4.340000152587891 C50.10100173950195,13.550000190734863 36.124000549316406,19.584999084472656 23.007999420166016,18.010000228881836 C23.007999420166016,18.010000228881836 -9.121999740600586,12.800000190734863 -9.121999740600586,12.800000190734863 C-45.00899887084961,9.215999603271484 -68.08999633789062,31.417999267578125 -68.3280029296875,64.83000183105469"/></g><g opacity="1" transform="matrix(1,0,0,1,323.218994140625,169.33399963378906)"><path stroke-linecap="round" stroke-linejoin="round" fill-opacity="0" stroke="rgb(18,19,49)" stroke-opacity="1" stroke-width="7" d=" M21.2189998626709,0 C21.2189998626709,0 -21.2189998626709,0 -21.2189998626709,0"/></g><g opacity="1" transform="matrix(1,0,0,1,265.3320007324219,267.12200927734375)"><path stroke-linecap="round" stroke-linejoin="round" fill-opacity="0" stroke="rgb(18,19,49)" stroke-opacity="1" stroke-width="7" d=" M-16.31100082397461,-11.767999649047852 C-16.31100082397461,-11.767999649047852 16.31100082397461,11.767000198364258 16.31100082397461,11.767000198364258"/></g><g opacity="1" transform="matrix(1,0,0,1,246.07200622558594,293.8179931640625)"><path stroke-linecap="round" stroke-linejoin="round" fill-opacity="0" stroke="rgb(18,19,49)" stroke-opacity="1" stroke-width="7" d=" M-16.31100082397461,-11.767000198364258 C-16.31100082397461,-11.767000198364258 16.31100082397461,11.767000198364258 16.31100082397461,11.767000198364258"/></g></g></g><g transform="matrix(1,0,0,1,250,187)" opacity="1" style="display: none;"><g opacity="1" transform="matrix(1,0,0,1,0,0)"><path stroke-linecap="round" stroke-linejoin="round" fill-opacity="0" stroke="rgb(18,19,49)" stroke-opacity="1" stroke-width="7" d="M0 0"/></g></g><g transform="matrix(1,0,0,1,250,187)" opacity="1" style="display: none;"><g opacity="1" transform="matrix(1,0,0,1,0,0)"><path stroke-linecap="round" stroke-linejoin="round" fill-opacity="0" stroke="rgb(18,19,49)" stroke-opacity="1" stroke-width="7" d="M0 0"/></g></g><g transform="matrix(1,0,0,1,250,187)" opacity="1" style="display: none;"><g opacity="1" transform="matrix(1,0,0,1,0,0)"><path stroke-linecap="round" stroke-linejoin="round" fill-opacity="0" stroke="rgb(18,19,49)" stroke-opacity="1" stroke-width="7" d="M0 0"/></g></g><g transform="matrix(1,0,0,1,250,187)" opacity="1" style="display: none;"><g opacity="1" transform="matrix(1,0,0,1,0,0)"><path stroke-linecap="round" stroke-linejoin="round" fill-opacity="0" stroke="rgb(18,19,49)" stroke-opacity="1" stroke-width="7" d="M0 0"/></g></g><g transform="matrix(1,0,0,1,250,187)" opacity="1" style="display: none;"><g opacity="1" transform="matrix(1,0,0,1,0,0)"><path stroke-linecap="round" stroke-linejoin="round" fill-opacity="0" stroke="rgb(18,19,49)" stroke-opacity="1" stroke-width="7" d="M0 0"/></g></g><g transform="matrix(1,0,0,1,250,187)" opacity="1" style="display: none;"><g opacity="1" transform="matrix(1,0,0,1,0,0)"><path stroke-linecap="round" stroke-linejoin="round" fill-opacity="0" stroke="rgb(18,19,49)" stroke-opacity="1" stroke-width="7" d="M0 0"/></g></g><g transform="matrix(1,0,0,1,250,187)" opacity="1" style="display: block;"><g opacity="1" transform="matrix(1,0,0,1,0,0)"><path stroke-linecap="round" stroke-linejoin="round" fill-opacity="0" stroke="rgb(18,19,49)" stroke-opacity="1" stroke-width="7" d=" M174.906005859375,-44.362998962402344 C142.49000549316406,-66.82599639892578 88.74299621582031,-76.52799987792969 51.79199981689453,-66.00399780273438 C51.79199981689453,-66.00399780273438 48.16899871826172,-64.97200012207031 44.21200180053711,-63.845001220703125"/></g></g><g transform="matrix(1,0,0,1,250,159)" opacity="1" style="display: none;"><g opacity="1" transform="matrix(1,0,0,1,0,0)"><path stroke-linecap="round" stroke-linejoin="round" fill-opacity="0" stroke="rgb(18,19,49)" stroke-opacity="1" stroke-width="7" d="M0 0"/></g></g><g transform="matrix(1,0,0,1,250,159)" opacity="1" style="display: none;"><g opacity="1" transform="matrix(1,0,0,1,0,0)"><path stroke-linecap="round" stroke-linejoin="round" fill-opacity="0" stroke="rgb(18,19,49)" stroke-opacity="1" stroke-width="7" d="M0 0"/></g></g><g transform="matrix(1,0,0,1,250,159)" opacity="1" style="display: block;"><g opacity="1" transform="matrix(1,0,0,1,0,0)"><path stroke-linecap="round" stroke-linejoin="round" fill-opacity="0" stroke="rgb(18,19,49)" stroke-opacity="1" stroke-width="7" d=" M364,28 C364,28 351.87701416015625,26.756999969482422 341.14898681640625,25.6560001373291"/></g></g><g class="com" transform="matrix(2.65159010887146,0,0,2.65159010887146,37.9818115234375,480.39056396484375)" opacity="0.2" style="display: block;"><g opacity="1" transform="matrix(1,0,0,1,0,0)"><path fill="rgb(0,0,0)" fill-opacity="1" d=" M141.6959991455078,0 C141.6959991455078,0 144.6699981689453,0 144.6699981689453,0 C144.6699981689453,0 144.6699981689453,-12.715999603271484 144.6699981689453,-12.715999603271484 C144.6699981689453,-12.715999603271484 148.62899780273438,0 148.62899780273438,0 C148.62899780273438,0 151.25399780273438,0 151.25399780273438,0 C151.25399780273438,0 155.2949981689453,-12.715999603271484 155.2949981689453,-12.715999603271484 C155.2949981689453,-12.715999603271484 155.2949981689453,0 155.2949981689453,0 C155.2949981689453,0 158.4530029296875,0 158.4530029296875,0 C158.4530029296875,0 158.4530029296875,-14.829000473022461 158.4530029296875,-14.829000473022461 C158.4530029296875,-14.829000473022461 153.4080047607422,-14.829000473022461 153.4080047607422,-14.829000473022461 C153.4080047607422,-14.829000473022461 150.0240020751953,-4.040999889373779 150.0240020751953,-4.040999889373779 C150.0240020751953,-4.040999889373779 146.88499450683594,-14.829000473022461 146.88499450683594,-14.829000473022461 C146.88499450683594,-14.829000473022461 141.6959991455078,-14.829000473022461 141.6959991455078,-14.829000473022461 C141.6959991455078,-14.829000473022461 141.6959991455078,0 141.6959991455078,0z"/></g><g opacity="1" transform="matrix(1,0,0,1,0,0)"><path fill="rgb(0,0,0)" fill-opacity="1" d=" M128.80499267578125,-7.302000045776367 C128.80499267578125,-8.984000205993652 129.05099487304688,-10.583000183105469 129.89199829101562,-11.609000205993652 C130.48699951171875,-12.368000030517578 131.42999267578125,-12.859999656677246 132.6199951171875,-12.859999656677246 C134.13800048828125,-12.859999656677246 135.38900756835938,-12.0600004196167 136.00399780273438,-10.234999656677246 C136.31199645996094,-9.333000183105469 136.3730010986328,-8.307000160217285 136.3730010986328,-7.589000225067139 C136.3730010986328,-5.230000019073486 135.86000061035156,-4.080999851226807 135.3679962158203,-3.3429999351501465 C134.7729949951172,-2.4200000762939453 133.89100646972656,-1.968999981880188 132.5989990234375,-1.968999981880188 C131.1219940185547,-1.968999981880188 130.36300659179688,-2.5439999103546143 129.91200256347656,-3.1589999198913574 C129.02999877929688,-4.308000087738037 128.80499267578125,-5.88700008392334 128.80499267578125,-7.302000045776367z M125.48200225830078,-7.198999881744385 C125.48200225830078,-5.84499979019165 125.68800354003906,-3.384000062942505 127.30799865722656,-1.6610000133514404 C128.66200256347656,-0.2460000067949295 130.60899353027344,0.36899998784065247 132.55799865722656,0.36899998784065247 C133.78900146484375,0.36899998784065247 136.18800354003906,0.10300000011920929 137.82899475097656,-1.7430000305175781 C139.03900146484375,-3.0969998836517334 139.6959991455078,-5.394000053405762 139.6959991455078,-7.547999858856201 C139.6959991455078,-9.003999710083008 139.38800048828125,-11.321999549865723 137.8090057373047,-13.126999855041504 C136.35299682617188,-14.767999649047852 134.17799377441406,-15.13700008392334 132.5989990234375,-15.13700008392334 C127.26599884033203,-15.13700008392334 125.48200225830078,-11.13700008392334 125.48200225830078,-7.198999881744385z"/></g><g opacity="1" transform="matrix(1,0,0,1,0,0)"><path fill="rgb(0,0,0)" fill-opacity="1" d=" M124.04000091552734,-9.98900032043457 C124.04000091552734,-12.942999839782715 121.76399993896484,-14.91100025177002 118.52300262451172,-14.91100025177002 C114.35900115966797,-14.91100025177002 111.73400115966797,-11.793999671936035 111.73400115966797,-7.0970001220703125 C111.73400115966797,-3.4260001182556152 113.3949966430664,0.3490000069141388 118.50199890136719,0.3490000069141388 C119.85600280761719,0.3490000069141388 121.51699829101562,0.04100000113248825 122.83000183105469,-1.312999963760376 C124.0199966430664,-2.5439999103546143 124.10099792480469,-3.9170000553131104 124.16300201416016,-4.798999786376953 C124.16300201416016,-4.798999786376953 120.81999969482422,-4.798999786376953 120.81999969482422,-4.798999786376953 C120.75800323486328,-2.8299999237060547 119.48699951171875,-1.9900000095367432 118.15399932861328,-1.9900000095367432 C115.05699920654297,-1.9900000095367432 115.05699920654297,-6.193999767303467 115.05699920654297,-7.076000213623047 C115.05699920654297,-10.131999969482422 116.04100036621094,-12.593000411987305 118.4000015258789,-12.593000411987305 C120.55400085449219,-12.593000411987305 120.73799896240234,-10.501999855041504 120.80000305175781,-9.98900032043457 C120.80000305175781,-9.98900032043457 124.04000091552734,-9.98900032043457 124.04000091552734,-9.98900032043457z"/></g><g opacity="1" transform="matrix(1,0,0,1,0,0)"><path fill="rgb(0,0,0)" fill-opacity="1" d=" M106.89299774169922,0 C106.89299774169922,0 109.49700164794922,0 109.49700164794922,0 C109.49700164794922,0 109.49700164794922,-2.7279999256134033 109.49700164794922,-2.7279999256134033 C109.49700164794922,-2.7279999256134033 106.89299774169922,-2.7279999256134033 106.89299774169922,-2.7279999256134033 C106.89299774169922,-2.7279999256134033 106.89299774169922,0 106.89299774169922,0z"/></g><g opacity="1" transform="matrix(1,0,0,1,0,0)"><path fill="rgb(0,0,0)" fill-opacity="1" d=" M91.00700378417969,0 C91.00700378417969,0 94.0009994506836,0 94.0009994506836,0 C94.0009994506836,0 94.0009994506836,-12.305999755859375 94.0009994506836,-12.305999755859375 C94.0009994506836,-12.305999755859375 99.74400329589844,0 99.74400329589844,0 C99.74400329589844,0 104.11299896240234,0 104.11299896240234,0 C104.11299896240234,0 104.11299896240234,-14.829000473022461 104.11299896240234,-14.829000473022461 C104.11299896240234,-14.829000473022461 101.15899658203125,-14.829000473022461 101.15899658203125,-14.829000473022461 C101.15899658203125,-14.829000473022461 101.15899658203125,-3.1589999198913574 101.15899658203125,-3.1589999198913574 C101.15899658203125,-3.1589999198913574 95.60099792480469,-14.829000473022461 95.60099792480469,-14.829000473022461 C95.60099792480469,-14.829000473022461 91.00700378417969,-14.829000473022461 91.00700378417969,-14.829000473022461 C91.00700378417969,-14.829000473022461 91.00700378417969,0 91.00700378417969,0z"/></g><g opacity="1" transform="matrix(1,0,0,1,0,0)"><path fill="rgb(0,0,0)" fill-opacity="1" d=" M77.86900329589844,-7.302000045776367 C77.86900329589844,-8.984000205993652 78.11499786376953,-10.583000183105469 78.95600128173828,-11.609000205993652 C79.5510025024414,-12.368000030517578 80.49400329589844,-12.859999656677246 81.68399810791016,-12.859999656677246 C83.2020034790039,-12.859999656677246 84.4530029296875,-12.0600004196167 85.06800079345703,-10.234999656677246 C85.3759994506836,-9.333000183105469 85.43699645996094,-8.307000160217285 85.43699645996094,-7.589000225067139 C85.43699645996094,-5.230000019073486 84.92400360107422,-4.080999851226807 84.43199920654297,-3.3429999351501465 C83.83699798583984,-2.4200000762939453 82.95500183105469,-1.968999981880188 81.66300201416016,-1.968999981880188 C80.18599700927734,-1.968999981880188 79.4280014038086,-2.5439999103546143 78.97699737548828,-3.1589999198913574 C78.09500122070312,-4.308000087738037 77.86900329589844,-5.88700008392334 77.86900329589844,-7.302000045776367z M74.5459976196289,-7.198999881744385 C74.5459976196289,-5.84499979019165 74.75199890136719,-3.384000062942505 76.37200164794922,-1.6610000133514404 C77.72599792480469,-0.2460000067949295 79.6729965209961,0.36899998784065247 81.62200164794922,0.36899998784065247 C82.85299682617188,0.36899998784065247 85.25299835205078,0.10300000011920929 86.89399719238281,-1.7430000305175781 C88.10399627685547,-3.0969998836517334 88.76000213623047,-5.394000053405762 88.76000213623047,-7.547999858856201 C88.76000213623047,-9.003999710083008 88.4520034790039,-11.321999549865723 86.87300109863281,-13.126999855041504 C85.41699981689453,-14.767999649047852 83.24199676513672,-15.13700008392334 81.66300201416016,-15.13700008392334 C76.33000183105469,-15.13700008392334 74.5459976196289,-11.13700008392334 74.5459976196289,-7.198999881744385z"/></g><g opacity="1" transform="matrix(1,0,0,1,0,0)"><path fill="rgb(0,0,0)" fill-opacity="1" d=" M73.10399627685547,-9.98900032043457 C73.10399627685547,-12.942999839782715 70.8280029296875,-14.91100025177002 67.58699798583984,-14.91100025177002 C63.42300033569336,-14.91100025177002 60.79800033569336,-11.793999671936035 60.79800033569336,-7.0970001220703125 C60.79800033569336,-3.4260001182556152 62.45899963378906,0.3490000069141388 67.56600189208984,0.3490000069141388 C68.91999816894531,0.3490000069141388 70.58100128173828,0.04100000113248825 71.89399719238281,-1.312999963760376 C73.08399963378906,-2.5439999103546143 73.16500091552734,-3.9170000553131104 73.22699737548828,-4.798999786376953 C73.22699737548828,-4.798999786376953 69.88400268554688,-4.798999786376953 69.88400268554688,-4.798999786376953 C69.8219985961914,-2.8299999237060547 68.5510025024414,-1.9900000095367432 67.21800231933594,-1.9900000095367432 C64.12100219726562,-1.9900000095367432 64.12100219726562,-6.193999767303467 64.12100219726562,-7.076000213623047 C64.12100219726562,-10.131999969482422 65.1050033569336,-12.593000411987305 67.46399688720703,-12.593000411987305 C69.61799621582031,-12.593000411987305 69.802001953125,-10.501999855041504 69.86399841308594,-9.98900032043457 C69.86399841308594,-9.98900032043457 73.10399627685547,-9.98900032043457 73.10399627685547,-9.98900032043457z"/></g><g opacity="1" transform="matrix(1,0,0,1,0,0)"><path fill="rgb(0,0,0)" fill-opacity="1" d=" M55.66899871826172,0 C55.66899871826172,0 58.8489990234375,0 58.8489990234375,0 C58.8489990234375,0 58.8489990234375,-14.869999885559082 58.8489990234375,-14.869999885559082 C58.8489990234375,-14.869999885559082 55.66899871826172,-14.869999885559082 55.66899871826172,-14.869999885559082 C55.66899871826172,-14.869999885559082 55.66899871826172,0 55.66899871826172,0z"/></g><g opacity="1" transform="matrix(1,0,0,1,0,0)"><path fill="rgb(0,0,0)" fill-opacity="1" d=" M44.28799819946289,-12.387999534606934 C46.112998962402344,-12.470000267028809 46.95500183105469,-12.368000030517578 47.611000061035156,-12.182999610900879 C49.60100173950195,-11.628999710083008 50.31800079345703,-9.701000213623047 50.31800079345703,-7.609000205993652 C50.31800079345703,-6.890999794006348 50.236000061035156,-4.676000118255615 48.98500061035156,-3.424999952316284 C48.0620002746582,-2.502000093460083 46.893001556396484,-2.4000000953674316 45.53900146484375,-2.4000000953674316 C45.16999816894531,-2.4000000953674316 44.637001037597656,-2.4200000762939453 44.28799819946289,-2.440999984741211 C44.28799819946289,-2.440999984741211 44.28799819946289,-12.387999534606934 44.28799819946289,-12.387999534606934z M41.06800079345703,0 C41.06800079345703,0 45.68299865722656,0 45.68299865722656,0 C47.18000030517578,0 47.79499816894531,-0.061000000685453415 48.3489990234375,-0.164000004529953 C51.159000396728516,-0.6769999861717224 53.599998474121094,-3.055999994277954 53.599998474121094,-7.609000205993652 C53.599998474121094,-9.722000122070312 52.94300079345703,-12.0600004196167 51.07699966430664,-13.434000015258789 C49.292999267578125,-14.746999740600586 46.790000915527344,-14.767999649047852 45.970001220703125,-14.767999649047852 C45.970001220703125,-14.767999649047852 41.06800079345703,-14.788000106811523 41.06800079345703,-14.788000106811523 C41.06800079345703,-14.788000106811523 41.06800079345703,0 41.06800079345703,0z"/></g><g opacity="1" transform="matrix(1,0,0,1,0,0)"><path fill="rgb(0,0,0)" fill-opacity="1" d=" M30.518999099731445,-12.491000175476074 C30.518999099731445,-12.491000175476074 32.652000427246094,-12.491000175476074 32.652000427246094,-12.491000175476074 C33.65700149536133,-12.491000175476074 34.25199890136719,-12.491000175476074 34.74399948120117,-12.142000198364258 C35.03099822998047,-11.956999778747559 35.52399826049805,-11.486000061035156 35.52399826049805,-10.480999946594238 C35.52399826049805,-9.4350004196167 34.92900085449219,-8.92199993133545 34.702999114990234,-8.758000373840332 C34.189998626708984,-8.347999572753906 33.45199966430664,-8.347999572753906 33.08300018310547,-8.347999572753906 C33.08300018310547,-8.347999572753906 30.518999099731445,-8.347999572753906 30.518999099731445,-8.347999572753906 C30.518999099731445,-8.347999572753906 30.518999099731445,-12.491000175476074 30.518999099731445,-12.491000175476074z M27.381000518798828,0 C27.381000518798828,0 30.621999740600586,0 30.621999740600586,0 C30.621999740600586,0 30.621999740600586,-5.988999843597412 30.621999740600586,-5.988999843597412 C30.621999740600586,-5.988999843597412 33.4109992980957,-5.988999843597412 33.4109992980957,-5.988999843597412 C33.944000244140625,-5.988999843597412 34.7239990234375,-5.988999843597412 35.01100158691406,-5.1479997634887695 C35.215999603271484,-4.573999881744385 35.66699981689453,-0.8199999928474426 35.81100082397461,0 C35.81100082397461,0 39.31800079345703,0 39.31800079345703,0 C39.15399932861328,-0.2460000067949295 39.03099822998047,-0.41100001335144043 38.867000579833984,-1.0670000314712524 C38.763999938964844,-1.4769999980926514 38.641998291015625,-2.194999933242798 38.41600036621094,-3.937999963760376 C38.14899826049805,-5.866000175476074 37.98500061035156,-7.138000011444092 35.749000549316406,-7.3429999351501465 C36.46699905395508,-7.547999858856201 38.84700012207031,-8.204000473022461 38.84700012207031,-10.972999572753906 C38.84700012207031,-11.937000274658203 38.47700119018555,-13.02400016784668 37.55400085449219,-13.824000358581543 C36.36399841308594,-14.850000381469727 34.70399856567383,-14.850000381469727 33.0629997253418,-14.829000473022461 C33.0629997253418,-14.829000473022461 27.381000518798828,-14.829000473022461 27.381000518798828,-14.829000473022461 C27.381000518798828,-14.829000473022461 27.381000518798828,0 27.381000518798828,0z"/></g><g opacity="1" transform="matrix(1,0,0,1,0,0)"><path fill="rgb(0,0,0)" fill-opacity="1" d=" M14.489999771118164,-7.302000045776367 C14.489999771118164,-8.984000205993652 14.736000061035156,-10.583000183105469 15.57699966430664,-11.609000205993652 C16.172000885009766,-12.368000030517578 17.114999771118164,-12.859999656677246 18.30500030517578,-12.859999656677246 C19.822999954223633,-12.859999656677246 21.073999404907227,-12.0600004196167 21.68899917602539,-10.234999656677246 C21.996999740600586,-9.333000183105469 22.058000564575195,-8.307000160217285 22.058000564575195,-7.589000225067139 C22.058000564575195,-5.230000019073486 21.545000076293945,-4.080999851226807 21.05299949645996,-3.3429999351501465 C20.45800018310547,-2.4200000762939453 19.576000213623047,-1.968999981880188 18.284000396728516,-1.968999981880188 C16.80699920654297,-1.968999981880188 16.04800033569336,-2.5439999103546143 15.597000122070312,-3.1589999198913574 C14.71500015258789,-4.308000087738037 14.489999771118164,-5.88700008392334 14.489999771118164,-7.302000045776367z M11.166999816894531,-7.198999881744385 C11.166999816894531,-5.84499979019165 11.371999740600586,-3.384000062942505 12.991999626159668,-1.6610000133514404 C14.345999717712402,-0.2460000067949295 16.29400062561035,0.36899998784065247 18.243000030517578,0.36899998784065247 C19.474000930786133,0.36899998784065247 21.87299919128418,0.10300000011920929 23.513999938964844,-1.7430000305175781 C24.724000930786133,-3.0969998836517334 25.381000518798828,-5.394000053405762 25.381000518798828,-7.547999858856201 C25.381000518798828,-9.003999710083008 25.072999954223633,-11.321999549865723 23.493999481201172,-13.126999855041504 C22.038000106811523,-14.767999649047852 19.863000869750977,-15.13700008392334 18.284000396728516,-15.13700008392334 C12.951000213623047,-15.13700008392334 11.166999816894531,-11.13700008392334 11.166999816894531,-7.198999881744385z"/></g><g opacity="1" transform="matrix(1,0,0,1,0,0)"><path fill="rgb(0,0,0)" fill-opacity="1" d=" M1.4149999618530273,0 C1.4149999618530273,0 11.013999938964844,0 11.013999938964844,0 C11.013999938964844,0 11.013999938964844,-2.5230000019073486 11.013999938964844,-2.5230000019073486 C11.013999938964844,-2.5230000019073486 4.656000137329102,-2.5230000019073486 4.656000137329102,-2.5230000019073486 C4.656000137329102,-2.5230000019073486 4.656000137329102,-14.809000015258789 4.656000137329102,-14.809000015258789 C4.656000137329102,-14.809000015258789 1.4149999618530273,-14.809000015258789 1.4149999618530273,-14.809000015258789 C1.4149999618530273,-14.809000015258789 1.4149999618530273,0 1.4149999618530273,0z"/></g></g></g></svg>