<svg xmlns="http://www.w3.org/2000/svg" xmlns:xlink="http://www.w3.org/1999/xlink" viewBox="0 0 500 500" width="500" height="500" preserveAspectRatio="xMidYMid meet" style="width: 100%; height: 100%; transform: translate3d(0px, 0px, 0px); content-visibility: visible;"><defs><clipPath id="__lottie_element_85"><rect width="500" height="500" x="0" y="0"/></clipPath><g id="__lottie_element_103"><g transform="matrix(1.000003695487976,0,0,0.9999963641166687,250,127.53306579589844)" opacity="1" style="display: block;"><g opacity="1" transform="matrix(1,0,0,1,0,0)"><path fill="rgb(255,0,0)" fill-opacity="1" d=" M65.62200164794922,25.756999969482422 C65.62200164794922,25.756999969482422 65.64600372314453,38.9739990234375 65.64600372314453,38.9739990234375 C65.64600372314453,38.9739990234375 39.82099914550781,38.9739990234375 39.82099914550781,38.9739990234375 C39.82099914550781,38.9739990234375 28.917999267578125,6.4629998207092285 28.917999267578125,6.4629998207092285 C28.917999267578125,6.4629998207092285 6.066999912261963,38.9739990234375 6.066999912261963,38.9739990234375 C6.066999912261963,38.9739990234375 -65.64600372314453,38.9739990234375 -65.64600372314453,38.9739990234375 C-65.64600372314453,38.9739990234375 -65.62200164794922,25.756999969482422 -65.62200164794922,25.756999969482422 C-65.56900024414062,-3.614000082015991 -46.6609992980957,-27.874000549316406 -18.513999938964844,-36.266998291015625 C-12.819999694824219,-37.96500015258789 -6.644000053405762,-38.9739990234375 0,-38.9739990234375 C6.644000053405762,-38.9739990234375 12.819999694824219,-37.96500015258789 18.513999938964844,-36.266998291015625 C46.6609992980957,-27.874000549316406 65.56900024414062,-3.614000082015991 65.62200164794922,25.756999969482422z"/></g></g></g><g id="__lottie_element_133"><g transform="matrix(1.000003695487976,0,0,0.9999963641166687,250,250.00062561035156)" opacity="1" style="display: block;"><path fill="rgb(255,0,0)" fill-opacity="1" d=" M60.89799880981445,-76.63200378417969 C60.89799880981445,-76.63200378417969 59.57400131225586,-39.5369987487793 59.57400131225586,-39.5369987487793 C58.45800018310547,-7.441999912261963 32.1150016784668,18 0,18 C0,18 0,18 0,18 C-32.1150016784668,18 -58.45800018310547,-7.441999912261963 -59.57400131225586,-39.5369987487793 C-59.57400131225586,-39.5369987487793 -60.64400100708008,-79.66200256347656 -60.64400100708008,-79.66200256347656"/><g opacity="1" transform="matrix(1,0,0,1,0,0)"/></g></g><filter id="__lottie_element_147" filterUnits="objectBoundingBox" x="0%" y="0%" width="100%" height="100%"><feComponentTransfer in="SourceGraphic"><feFuncA type="table" tableValues="1.0 0.0"/></feComponentTransfer></filter><mask id="__lottie_element_133_2" mask-type="alpha"><g filter="url(#__lottie_element_147)"><rect width="500" height="500" x="0" y="0" fill="#ffffff" opacity="0"/><use xmlns:ns1="http://www.w3.org/1999/xlink" ns1:href="#__lottie_element_133"/></g></mask><filter id="__lottie_element_148" filterUnits="objectBoundingBox" x="0%" y="0%" width="100%" height="100%"><feComponentTransfer in="SourceGraphic"><feFuncA type="table" tableValues="1.0 0.0"/></feComponentTransfer></filter><mask id="__lottie_element_103_2" mask-type="alpha"><g filter="url(#__lottie_element_148)"><rect width="500" height="500" x="0" y="0" fill="#ffffff" opacity="0"/><use xmlns:ns2="http://www.w3.org/1999/xlink" ns2:href="#__lottie_element_103"/></g></mask></defs><g clip-path="url(#__lottie_element_85)"><g transform="matrix(1.000003695487976,0,0,0.9999963641166687,-0.0009307861328125,-13.249420166015625)" opacity="1" style="display: block;"><g opacity="1" transform="matrix(1,0,0,1,250,299.50201416015625)"><path fill="rgb(245,197,188)" fill-opacity="1" d=" M56.900001525878906,-7.447999954223633 C56.540000915527344,-3.3580000400543213 54.077999114990234,0.5550000071525574 51.01300048828125,5.51800012588501 C27.475000381469727,43.624000549316406 -29.360000610351562,35.891998291015625 -51.720001220703125,4.831999778747559 C-54.630001068115234,0.7919999957084656 -56.540000915527344,-3.3580000400543213 -56.900001525878906,-7.447999954223633 C-51.90999984741211,-8.39799976348877 -46.7599983215332,-8.887999534606934 -41.5,-8.887999534606934 C-41.5,-8.887999534606934 -33.869998931884766,-8.887999534606934 -33.869998931884766,-8.887999534606934 C-33.869998931884766,-8.887999534606934 -33.79499816894531,-50.33000183105469 -33.79499816894531,-50.33000183105469 C-24.165000915527344,-50.4379997253418 26.684999465942383,-50.444000244140625 33.88999938964844,-50.32699966430664 C34.17499923706055,-50.250999450683594 34,-32.500999450683594 33.880001068115234,-28.128000259399414 C33.880001068115234,-28.128000259399414 33.880001068115234,-8.887999534606934 33.880001068115234,-8.887999534606934 C33.880001068115234,-8.887999534606934 41.5,-8.887999534606934 41.5,-8.887999534606934 C46.7599983215332,-8.887999534606934 51.90999984741211,-8.39799976348877 56.900001525878906,-7.447999954223633z"/></g><g opacity="1" transform="matrix(1,0,0,1,250,364.8190002441406)"><path fill="rgb(144,20,12)" fill-opacity="1" d=" M124.5,8.795000076293945 C124.5,8.795000076293945 124.5,36.55500030517578 124.5,36.55500030517578 C124.5,44.17499923706055 118.79000091552734,50.584999084472656 111.22000122070312,51.45500183105469 C111.22000122070312,51.45500183105469 82.18000030517578,54.814998626708984 82.18000030517578,54.814998626708984 C74.23999786376953,55.73500061035156 66.4800033569336,57.76499938964844 59.11000061035156,60.845001220703125 C40.11000061035156,68.79499816894531 19.90999984741211,72.76499938964844 -0.30000001192092896,72.76499938964844 C-20.399999618530273,72.76499938964844 -40.5,68.83499908447266 -59.41999816894531,60.96500015258789 C-59.41999816894531,60.96500015258789 -59.619998931884766,60.8849983215332 -59.619998931884766,60.8849983215332 C-67.30999755859375,57.685001373291016 -75.41000366210938,55.584999084472656 -83.69000244140625,54.625 C-83.69000244140625,54.625 -111.22000122070312,51.45500183105469 -111.22000122070312,51.45500183105469 C-118.79000091552734,50.584999084472656 -124.5,44.17499923706055 -124.5,36.55500030517578 C-124.5,36.55500030517578 -124.5,8.795000076293945 -124.5,8.795000076293945 C-124.5,-31.78499984741211 -95.37999725341797,-65.55500030517578 -56.900001525878906,-72.76499938964844 C-56.540000915527344,-68.67500305175781 -54.987998962402344,-64.20800018310547 -51.720001220703125,-59.68299865722656 C-29.25,-28.569000244140625 28.784000396728516,-26.033000946044922 51.09700012207031,-58.87799835205078 C54.777000427246094,-64.29499816894531 56.540000915527344,-68.67500305175781 56.900001525878906,-72.76499938964844 C95.37999725341797,-65.55500030517578 124.5,-31.78499984741211 124.5,8.795000076293945z"/></g><g opacity="0.5" transform="matrix(1,0,0,1,161.6699981689453,354.6239929199219)" style="mix-blend-mode: multiply;"><path fill="rgb(144,20,12)" fill-opacity="1" d=" M36.16999816894531,-50.220001220703125 C15.699999809265137,-39.79800033569336 -1.5299999713897705,-28.729999542236328 -7.46999979019165,-18.639999389648438 C-16.950000762939453,-2.549999952316284 -14.899999618530273,62.56999969482422 -14.899999618530273,62.56999969482422 C-14.899999618530273,62.56999969482422 -22.889999389648438,61.650001525878906 -22.889999389648438,61.650001525878906 C-30.459999084472656,60.779998779296875 -36.16999816894531,54.369998931884766 -36.16999816894531,46.75 C-36.16999816894531,46.75 -36.16999816894531,18.989999771118164 -36.16999816894531,18.989999771118164 C-36.16999816894531,18.450000762939453 -36.15999984741211,17.920000076293945 -36.150001525878906,17.389999389648438 C-36.150001525878906,16.93000030517578 -36.130001068115234,16.469999313354492 -36.119998931884766,16.010000228881836 C-36.11000061035156,15.90999984741211 -36.11000061035156,15.8100004196167 -36.11000061035156,15.710000038146973 C-36.09000015258789,15.199999809265137 -36.060001373291016,14.699999809265137 -36.029998779296875,14.199999809265137 C-36.0099983215332,13.8100004196167 -35.9900016784668,13.420000076293945 -35.959999084472656,13.039999961853027 C-35.93000030517578,12.609999656677246 -35.900001525878906,12.1899995803833 -35.849998474121094,11.770000457763672 C-35.84000015258789,11.479999542236328 -35.810001373291016,11.199999809265137 -35.779998779296875,10.920000076293945 C-35.7400016784668,10.4399995803833 -35.689998626708984,9.960000038146973 -35.630001068115234,9.479999542236328 C-35.4900016784668,8.239999771118164 -35.31999969482422,7 -35.119998931884766,5.78000020980835 C-35.040000915527344,5.230000019073486 -34.939998626708984,4.679999828338623 -34.84000015258789,4.130000114440918 C-34.720001220703125,3.4700000286102295 -34.599998474121094,2.809999942779541 -34.459999084472656,2.1600000858306885 C-34.380001068115234,1.7400000095367432 -34.290000915527344,1.3300000429153442 -34.189998626708984,0.9200000166893005 C-33.7599983215332,-1.0499999523162842 -33.25,-2.990000009536743 -32.68000030517578,-4.900000095367432 C-32.560001373291016,-5.309999942779541 -32.43000030517578,-5.71999979019165 -32.29999923706055,-6.130000114440918 C-31.540000915527344,-8.539999961853027 -30.670000076293945,-10.890000343322754 -29.700000762939453,-13.1899995803833 C-29.489999771118164,-13.699999809265137 -29.270000457763672,-14.210000038146973 -29.040000915527344,-14.710000038146973 C-28.299999237060547,-16.389999389648438 -27.5,-18.030000686645508 -26.649999618530273,-19.639999389648438 C-26.3700008392334,-20.170000076293945 -26.09000015258789,-20.690000534057617 -25.799999237060547,-21.200000762939453 C-25.59000015258789,-21.610000610351562 -25.360000610351562,-22.010000228881836 -25.1299991607666,-22.399999618530273 C-24.950000762939453,-22.709999084472656 -24.770000457763672,-23.020000457763672 -24.579999923706055,-23.329999923706055 C-23.40999984741211,-25.299999237060547 -22.15999984741211,-27.219999313354492 -20.829999923706055,-29.079999923706055 C-20.59000015258789,-29.43000030517578 -20.329999923706055,-29.790000915527344 -20.06999969482422,-30.139999389648438 C-19.719999313354492,-30.610000610351562 -19.3700008392334,-31.079999923706055 -19.010000228881836,-31.549999237060547 C-18.649999618530273,-32.02000045776367 -18.290000915527344,-32.47999954223633 -17.920000076293945,-32.939998626708984 C-17.549999237060547,-33.400001525878906 -17.18000030517578,-33.849998474121094 -16.799999237060547,-34.29999923706055 C-16.040000915527344,-35.20000076293945 -15.270000457763672,-36.09000015258789 -14.479999542236328,-36.95000076293945 C-14.079999923706055,-37.38999938964844 -13.680000305175781,-37.81999969482422 -13.270000457763672,-38.2400016784668 C-12.90999984741211,-38.619998931884766 -12.550000190734863,-39 -12.180000305175781,-39.369998931884766 C-12.100000381469727,-39.459999084472656 -12.020000457763672,-39.54999923706055 -11.920000076293945,-39.630001068115234 C-11.550000190734863,-40.0099983215332 -11.170000076293945,-40.380001068115234 -10.789999961853027,-40.7400016784668 C-10.369999885559082,-41.150001525878906 -9.9399995803833,-41.560001373291016 -9.510000228881836,-41.95000076293945 C-9.079999923706055,-42.36000061035156 -8.640000343322754,-42.7599983215332 -8.199999809265137,-43.13999938964844 C-6.880000114440918,-44.310001373291016 -5.519999980926514,-45.439998626708984 -4.130000114440918,-46.52000045776367 C-2.740000009536743,-47.599998474121094 -1.309999942779541,-48.63999938964844 0.15000000596046448,-49.63999938964844 C0.6399999856948853,-49.970001220703125 1.1299999952316284,-50.29999923706055 1.6200000047683716,-50.619998931884766 C2.609999895095825,-51.2599983215332 3.619999885559082,-51.88999938964844 4.630000114440918,-52.4900016784668 C7.179999828338623,-53.9900016784668 9.8100004196167,-55.369998931884766 12.520000457763672,-56.599998474121094 C13.720000267028809,-57.150001525878906 14.9399995803833,-57.66999816894531 16.18000030517578,-58.150001525878906 C16.280000686645508,-58.189998626708984 16.3799991607666,-58.22999954223633 16.479999542236328,-58.27000045776367 C16.559999465942383,-58.29999923706055 16.649999618530273,-58.34000015258789 16.729999542236328,-58.369998931884766 C17.06999969482422,-58.5 17.420000076293945,-58.630001068115234 17.760000228881836,-58.7599983215332 C18.280000686645508,-58.959999084472656 18.809999465942383,-59.150001525878906 19.34000015258789,-59.33000183105469 C19.84000015258789,-59.52000045776367 20.360000610351562,-59.689998626708984 20.8700008392334,-59.86000061035156 C21.760000228881836,-60.150001525878906 22.65999984741211,-60.43000030517578 23.559999465942383,-60.689998626708984 C24.309999465942383,-60.90999984741211 25.06999969482422,-61.11000061035156 25.829999923706055,-61.310001373291016 C25.979999542236328,-61.349998474121094 26.1299991607666,-61.38999938964844 26.280000686645508,-61.43000030517578 C27.09000015258789,-61.630001068115234 27.889999389648438,-61.83000183105469 28.709999084472656,-62.0099983215332 C28.770000457763672,-62.02000045776367 28.829999923706055,-62.029998779296875 28.889999389648438,-62.04999923706055 C29.290000915527344,-62.13999938964844 29.68000030517578,-62.220001220703125 30.079999923706055,-62.29999923706055 C30.3799991607666,-62.369998931884766 30.68000030517578,-62.43000030517578 30.979999542236328,-62.47999954223633 C31.1299991607666,-62.5099983215332 31.280000686645508,-62.540000915527344 31.43000030517578,-62.56999969482422 C31.770000457763672,-58.689998626708984 33.5099983215332,-54.74700164794922 36.16999816894531,-50.220001220703125z"/></g><g opacity="0.5" transform="matrix(1,0,0,1,238.47999572753906,287.53399658203125)" style="mix-blend-mode: multiply;"><path fill="rgb(245,197,188)" fill-opacity="1" d=" M45.380001068115234,-16.15999984741211 C44.959999084472656,-15.510000228881836 31.350000381469727,5.539999961853027 -2.3499999046325684,6.75 C-8.710000038146973,6.980000019073486 -15.220000267028809,8 -21.649999618530273,9.630000114440918 C-21.649999618530273,9.630000114440918 -21.649999618530273,9.619999885559082 -21.649999618530273,9.619999885559082 C-28.1299991607666,11.260000228881836 -34.529998779296875,13.510000228881836 -40.63999938964844,16.15999984741211 C-43.29999923706055,12.319999694824219 -45.040000915527344,8.380000114440918 -45.380001068115234,4.5 C-44.27000045776367,4.289999961853027 -43.150001525878906,4.099999904632568 -42.029998779296875,3.940000057220459 C-41.70000076293945,3.880000114440918 -41.36000061035156,3.8399999141693115 -41.029998779296875,3.799999952316284 C-40.56999969482422,3.7300000190734863 -40.11000061035156,3.6700000762939453 -39.650001525878906,3.619999885559082 C-39.130001068115234,3.559999942779541 -38.599998474121094,3.5 -38.06999969482422,3.450000047683716 C-37.66999816894531,3.4100000858306885 -37.27000045776367,3.380000114440918 -36.869998931884766,3.3499999046325684 C-35.959999084472656,3.2699999809265137 -35.04999923706055,3.2100000381469727 -34.13999938964844,3.1600000858306885 C-33.470001220703125,3.130000114440918 -32.810001373291016,3.0999999046325684 -32.13999938964844,3.0899999141693115 C-31.420000076293945,3.069999933242798 -30.700000762939453,3.059999942779541 -29.979999542236328,3.059999942779541 C-29.979999542236328,3.059999942779541 -22.350000381469727,3.059999942779541 -22.350000381469727,3.059999942779541 C-22.350000381469727,3.059999942779541 -22.274999618530273,-38.36199951171875 -22.274999618530273,-38.36199951171875 C-12.645000457763672,-38.470001220703125 45.52000045776367,-38.358001708984375 45.52000045776367,-38.358001708984375 C46.130001068115234,-38.3650016784668 44.790000915527344,-15.75 45.380001068115234,-16.15999984741211z"/></g><g opacity="1" transform="matrix(1,0,0,1,250.00399780273438,357.25799560546875)"><path stroke-linecap="round" stroke-linejoin="round" fill-opacity="0" stroke="rgb(18,19,49)" stroke-opacity="1" stroke-width="12.04" d=" M0,-0.06400000303983688 C0,-0.06400000303983688 0,0.06400000303983688 0,0.06400000303983688"/></g><g opacity="1" transform="matrix(1,0,0,1,250.00399780273438,410.2539978027344)"><path stroke-linecap="round" stroke-linejoin="round" fill-opacity="0" stroke="rgb(18,19,49)" stroke-opacity="1" stroke-width="12.04" d=" M0,-0.06400000303983688 C0,-0.06400000303983688 0,0.06400000303983688 0,0.06400000303983688"/></g><g opacity="1" transform="matrix(1,0,0,1,250.00399780273438,384.4020080566406)"><path stroke-linecap="round" stroke-linejoin="round" fill-opacity="0" stroke="rgb(18,19,49)" stroke-opacity="1" stroke-width="12.04" d=" M0,-0.06400000303983688 C0,-0.06400000303983688 0,0.06400000303983688 0,0.06400000303983688"/></g></g><g transform="matrix(0.9757634997367859,0,0,1.0107053518295288,6.0529022216796875,-15.660736083984375)" opacity="1" style="display: block;"><g opacity="1" transform="matrix(1,0,0,1,251.10499572753906,93.41100311279297)"><path fill="rgb(173,104,54)" fill-opacity="1" d=" M49.46500015258789,18.475000381469727 C49.46500015258789,22.80500030517578 48.915000915527344,36.96099853515625 47.8650016784668,30.9950008392334 C39.94499969482422,43.880001068115234 29.531999588012695,53.65700149536133 17.415000915527344,59.047000885009766 C11.71500015258789,61.582000732421875 5.545000076293945,63.0890007019043 -1.1050000190734863,63.0890007019043 C-7.744999885559082,63.0890007019043 -13.92300033569336,61.57699966430664 -19.614999771118164,59.047000885009766 C-30.854999542236328,54.05099868774414 -40.625,45.28200149536133 -48.30500030517578,33.75400161743164 C-49.064998626708984,38.8849983215332 -49.46500015258789,22.135000228881836 -49.46500015258789,18.475000381469727 C-49.46500015258789,7.545000076293945 -45.92499923706055,-2.555000066757202 -39.915000915527344,-10.734999656677246 C-39.915000915527344,-10.744999885559082 -39.915000915527344,-10.744999885559082 -39.904998779296875,-10.744999885559082 C-30.915000915527344,-23.014999389648438 -16.385000228881836,-30.9950008392334 0.004999999888241291,-30.9950008392334 C17.135000228881836,-30.9950008392334 32.23500061035156,-22.28499984741211 41.10499954223633,-9.045000076293945 C41.10499954223633,-9.03499984741211 41.1150016784668,-9.03499984741211 41.1150016784668,-9.03499984741211 C46.39500045776367,-1.1649999618530273 49.46500015258789,8.28499984741211 49.46500015258789,18.475000381469727z"/></g><g opacity="0.5" transform="matrix(1,0,0,1,217.92999267578125,94.01300048828125)" style="mix-blend-mode: multiply;"><path fill="rgb(173,104,54)" fill-opacity="1" d=" M16.290000915527344,-28.584999084472656 C-15.475000381469727,-1.9450000524520874 -6.949999809265137,21.625 -6.949999809265137,21.625 C12.819999694824219,71.98699951171875 -12.619999885559082,36.86199951171875 -15.130000114440918,33.0890007019043 C-15.890000343322754,38.220001220703125 -16.290000915527344,21.575000762939453 -16.290000915527344,17.915000915527344 C-16.290000915527344,6.985000133514404 -12.75,-3.115000009536743 -6.739999771118164,-11.295000076293945 C-6.739999771118164,-11.305000305175781 -6.739999771118164,-11.305000305175781 -6.730000019073486,-11.305000305175781 C-0.9900000095367432,-19.135000228881836 7,-25.21500015258789 16.290000915527344,-28.584999084472656z"/></g></g><g mask="url(#__lottie_element_103_2)" style="display: block;"><g transform="matrix(1.0000035762786865,0,0,0.9999954700469971,251.1090087890625,97.5602035522461)" opacity="1"><g opacity="1" transform="matrix(1,0,0,1,0,0)"><path stroke-linecap="round" stroke-linejoin="round" fill-opacity="0" stroke="rgb(18,19,49)" stroke-opacity="1" stroke-width="7" d=" M-49.4640007019043,0 C-49.4640007019043,27.31800079345703 -27.31800079345703,49.4640007019043 0,49.4640007019043 C27.31800079345703,49.4640007019043 49.4640007019043,27.31800079345703 49.4640007019043,0 C49.4640007019043,-27.31800079345703 27.31800079345703,-49.4640007019043 0,-49.4640007019043 C-27.31800079345703,-49.4640007019043 -49.4640007019043,-27.31800079345703 -49.4640007019043,0z"/></g></g></g><g transform="matrix(1.000003695487976,0,0,0.9999963641166687,250,250.00062561035156)" opacity="1" style="display: block;"><g opacity="1" transform="matrix(1,0,0,1,0,0)"><path fill="rgb(245,197,188)" fill-opacity="1" d=" M60.89799880981445,-76.63200378417969 C60.89799880981445,-76.63200378417969 59.57400131225586,-39.5369987487793 59.57400131225586,-39.5369987487793 C58.45800018310547,-7.441999912261963 32.1150016784668,18 0,18 C0,18 0,18 0,18 C-32.1150016784668,18 -58.45800018310547,-7.441999912261963 -59.57400131225586,-39.5369987487793 C-59.57400131225586,-39.5369987487793 -60.64400100708008,-79.66200256347656 -60.64400100708008,-79.66200256347656 M-1.88100004196167,-134.5 C-1.88100004196167,-134.5 2,-134.5 2,-134.5 C35.73400115966797,-134.5 62.6870002746582,-129.031005859375 61.513999938964844,-95.31800079345703 C61.513999938964844,-95.31800079345703 59.57400131225586,-39.5369987487793 59.57400131225586,-39.5369987487793 C58.45800018310547,-7.441999912261963 32.1150016784668,18 0,18 C0,18 0,18 0,18 C-32.1150016784668,18 -58.45800018310547,-7.441999912261963 -59.57400131225586,-39.5369987487793 C-59.57400131225586,-39.5369987487793 -61.513999938964844,-95.31800079345703 -61.513999938964844,-95.31800079345703 C-62.6870002746582,-129.031005859375 -35.6150016784668,-134.5 -1.88100004196167,-134.5z"/></g></g><g transform="matrix(1.000003695487976,0,0,0.9999963641166687,250,250.00062561035156)" opacity="1" style="display: block;"><g opacity="1" transform="matrix(1,0,0,1,0,0)"><path stroke-linecap="round" stroke-linejoin="round" fill-opacity="0" stroke="rgb(18,19,49)" stroke-opacity="1" stroke-width="7" d=" M60.89799880981445,-76.63200378417969 C60.89799880981445,-76.63200378417969 59.57400131225586,-39.5369987487793 59.57400131225586,-39.5369987487793 C58.45800018310547,-7.441999912261963 32.1150016784668,18 0,18 C0,18 0,18 0,18 C-32.1150016784668,18 -58.45800018310547,-7.441999912261963 -59.57400131225586,-39.5369987487793 C-59.57400131225586,-39.5369987487793 -60.64400100708008,-79.66200256347656 -60.64400100708008,-79.66200256347656 M-1.940000057220459,-157 C-1.940000057220459,-157 1.940000057220459,-157 1.940000057220459,-157 C35.67399978637695,-157 62.6870002746582,-129.031005859375 61.513999938964844,-95.31800079345703 C61.513999938964844,-95.31800079345703 59.57400131225586,-39.5369987487793 59.57400131225586,-39.5369987487793 C58.45800018310547,-7.441999912261963 32.1150016784668,18 0,18 C0,18 0,18 0,18 C-32.1150016784668,18 -58.45800018310547,-7.441999912261963 -59.57400131225586,-39.5369987487793 C-59.57400131225586,-39.5369987487793 -61.513999938964844,-95.31800079345703 -61.513999938964844,-95.31800079345703 C-62.6870002746582,-129.031005859375 -35.67399978637695,-157 -1.940000057220459,-157z"/></g></g><g transform="matrix(1.000003695487976,0,0,0.9999963641166687,250,127.53306579589844)" opacity="1" style="display: block;"><g opacity="1" transform="matrix(1,0,0,1,0,0)"><path fill="rgb(173,104,54)" fill-opacity="1" d=" M65.62200164794922,25.756999969482422 C65.62200164794922,25.756999969482422 65.64600372314453,38.9739990234375 65.64600372314453,38.9739990234375 C65.64600372314453,38.9739990234375 39.82099914550781,38.9739990234375 39.82099914550781,38.9739990234375 C39.82099914550781,38.9739990234375 28.917999267578125,6.4629998207092285 28.917999267578125,6.4629998207092285 C28.917999267578125,6.4629998207092285 6.066999912261963,38.9739990234375 6.066999912261963,38.9739990234375 C6.066999912261963,38.9739990234375 -65.64600372314453,38.9739990234375 -65.64600372314453,38.9739990234375 C-65.64600372314453,38.9739990234375 -65.62200164794922,25.756999969482422 -65.62200164794922,25.756999969482422 C-65.56900024414062,-3.614000082015991 -46.6609992980957,-27.874000549316406 -18.513999938964844,-36.266998291015625 C-12.819999694824219,-37.96500015258789 -6.644000053405762,-38.9739990234375 0,-38.9739990234375 C6.644000053405762,-38.9739990234375 12.819999694824219,-37.96500015258789 18.513999938964844,-36.266998291015625 C46.6609992980957,-27.874000549316406 65.56900024414062,-3.614000082015991 65.62200164794922,25.756999969482422z"/></g></g><g transform="matrix(0.9716035723686218,0,0,1.0301063060760498,214.10586547851562,130.32806396484375)" opacity="0.5" style="mix-blend-mode: multiply; display: block;"><g opacity="1" transform="matrix(1,0,0,1,0,0)" style="mix-blend-mode: multiply;"><path fill="rgb(173,104,54)" fill-opacity="1" d=" M28.690000534057617,-37.64500045776367 C16.079999923706055,-29.0049991607666 -25.030000686645508,-7.885000228881836 -28.559999465942383,37.64500045776367 C-28.639999389648438,37.3650016784668 -28.690000534057617,37.07500076293945 -28.690000534057617,36.76499938964844 C-28.690000534057617,36.76499938964844 -28.68000030517578,26.55500030517578 -28.68000030517578,26.55500030517578 C-28.649999618530273,8.914999961853027 -21.81999969482422,-6.885000228881836 -10.260000228881836,-18.5049991607666 C-2.5799999237060547,-26.235000610351562 7.190000057220459,-32.1150016784668 18.43000030517578,-35.46500015258789 C19.139999389648438,-35.67499923706055 19.860000610351562,-35.875 20.59000015258789,-36.064998626708984 C20.8799991607666,-36.14500045776367 21.15999984741211,-36.21500015258789 21.450000762939453,-36.28499984741211 C21.690000534057617,-36.345001220703125 21.93000030517578,-36.404998779296875 22.15999984741211,-36.45500183105469 C22.56999969482422,-36.55500030517578 22.969999313354492,-36.64500045776367 23.3799991607666,-36.73500061035156 C24.25,-36.92499923706055 25.139999389648438,-37.095001220703125 26.040000915527344,-37.244998931884766 C26.459999084472656,-37.32500076293945 26.899999618530273,-37.3849983215332 27.329999923706055,-37.45500183105469 C27.329999923706055,-37.45500183105469 27.360000610351562,-37.45500183105469 27.360000610351562,-37.45500183105469 C27.799999237060547,-37.525001525878906 28.239999771118164,-37.584999084472656 28.690000534057617,-37.64500045776367z"/></g></g><g transform="matrix(1.000003695487976,0,0,0.9999963641166687,250,138.25103759765625)" opacity="1" style="display: block;"><g opacity="1" transform="matrix(1,0,0,1,0,0)"><path fill="rgb(100,110,120)" fill-opacity="1" d=" M-75.52400207519531,95.93000030517578 C-75.52400207519531,95.93000030517578 -75.52400207519531,95.93000030517578 -75.52400207519531,95.93000030517578 C-66.73699951171875,95.93000030517578 -59.54800033569336,88.73999786376953 -59.54800033569336,79.9530029296875 C-59.54800033569336,79.9530029296875 -59.54800033569336,49.047000885009766 -59.54800033569336,49.047000885009766 C-59.54800033569336,40.2599983215332 -66.73699951171875,33.06999969482422 -75.52400207519531,33.06999969482422 C-75.52400207519531,33.06999969482422 -75.52400207519531,33.06999969482422 -75.52400207519531,33.06999969482422 C-84.31099700927734,33.06999969482422 -91.5,40.2599983215332 -91.5,49.047000885009766 C-91.5,49.047000885009766 -91.5,79.9530029296875 -91.5,79.9530029296875 C-91.5,88.73999786376953 -84.31099700927734,95.93000030517578 -75.52400207519531,95.93000030517578z M75.72599792480469,95.97599792480469 C75.72599792480469,95.97599792480469 75.72599792480469,95.97599792480469 75.72599792480469,95.97599792480469 C84.51300048828125,95.97599792480469 91.7020034790039,88.78700256347656 91.7020034790039,80 C91.7020034790039,80 91.7020034790039,49.09299850463867 91.7020034790039,49.09299850463867 C91.7020034790039,40.305999755859375 84.51300048828125,33.117000579833984 75.72599792480469,33.117000579833984 C75.72599792480469,33.117000579833984 75.72599792480469,33.117000579833984 75.72599792480469,33.117000579833984 C66.93900299072266,33.117000579833984 59.75,40.305999755859375 59.75,49.09299850463867 C59.75,49.09299850463867 59.75,80 59.75,80 C59.75,88.78700256347656 66.93900299072266,95.97599792480469 75.72599792480469,95.97599792480469z"/></g></g><g transform="matrix(1.000003695487976,0,0,0.9999963641166687,250.00399780273438,343.1352844238281)" opacity="1" style="display: block;"><g opacity="1" transform="matrix(1,0,0,1,0,0)"><path stroke-linecap="round" stroke-linejoin="round" fill-opacity="0" stroke="rgb(18,19,49)" stroke-opacity="1" stroke-width="12.04" d=" M0.012000000104308128,52.68600082397461 C0.012000000104308128,52.68600082397461 0.012000000104308128,52.81399917602539 0.012000000104308128,52.81399917602539 M0.004000000189989805,26.93600082397461 C0.004000000189989805,26.93600082397461 0.004000000189989805,27.06399917602539 0.004000000189989805,27.06399917602539 M0,-0.06400000303983688 C0,-0.06400000303983688 0,0.06400000303983688 0,0.06400000303983688"/></g></g><g transform="matrix(1.000003695487976,0,0,0.9999963641166687,250,138.25103759765625)" opacity="1" style="display: block;"><g opacity="1" transform="matrix(1,0,0,1,0,0)"><path stroke-linecap="round" stroke-linejoin="round" fill-opacity="0" stroke="rgb(18,19,49)" stroke-opacity="1" stroke-width="7" d=" M-75.52400207519531,95.93000030517578 C-75.52400207519531,95.93000030517578 -75.52400207519531,95.93000030517578 -75.52400207519531,95.93000030517578 C-66.73699951171875,95.93000030517578 -59.54800033569336,88.73999786376953 -59.54800033569336,79.9530029296875 C-59.54800033569336,79.9530029296875 -59.54800033569336,49.047000885009766 -59.54800033569336,49.047000885009766 C-59.54800033569336,40.2599983215332 -66.73699951171875,33.06999969482422 -75.52400207519531,33.06999969482422 C-75.52400207519531,33.06999969482422 -75.52400207519531,33.06999969482422 -75.52400207519531,33.06999969482422 C-84.31099700927734,33.06999969482422 -91.5,40.2599983215332 -91.5,49.047000885009766 C-91.5,49.047000885009766 -91.5,79.9530029296875 -91.5,79.9530029296875 C-91.5,88.73999786376953 -84.31099700927734,95.93000030517578 -75.52400207519531,95.93000030517578z M75.72599792480469,95.97599792480469 C75.72599792480469,95.97599792480469 75.72599792480469,95.97599792480469 75.72599792480469,95.97599792480469 C84.51300048828125,95.97599792480469 91.7020034790039,88.78700256347656 91.7020034790039,80 C91.7020034790039,80 91.7020034790039,49.09299850463867 91.7020034790039,49.09299850463867 C91.7020034790039,40.305999755859375 84.51300048828125,33.117000579833984 75.72599792480469,33.117000579833984 C75.72599792480469,33.117000579833984 75.72599792480469,33.117000579833984 75.72599792480469,33.117000579833984 C66.93900299072266,33.117000579833984 59.75,40.305999755859375 59.75,49.09299850463867 C59.75,49.09299850463867 59.75,80 59.75,80 C59.75,88.78700256347656 66.93900299072266,95.97599792480469 75.72599792480469,95.97599792480469z M-91.54499816894531,49.095001220703125 C-91.54499816894531,49.095001220703125 -91.52200317382812,13.942000389099121 -91.52200317382812,13.942000389099121 C-91.52200317382812,-11.236000061035156 -81.23100280761719,-34.11600112915039 -64.63700103759766,-50.709999084472656 C-48.05799865722656,-67.30400085449219 -25.17799949645996,-77.59500122070312 0,-77.59500122070312 C50.34000015258789,-77.59500122070312 91.52200317382812,-36.39799880981445 91.52200317382812,13.942000389099121 C91.52200317382812,13.942000389099121 91.54499816894531,49.345001220703125 91.54499816894531,49.345001220703125"/></g></g><g transform="matrix(1.000003695487976,0,0,0.9999963641166687,250,250.00062561035156)" opacity="1" style="display: block;"><g opacity="1" transform="matrix(1,0,0,1,0,0)"><path stroke-linecap="round" stroke-linejoin="round" fill-opacity="0" stroke="rgb(18,19,49)" stroke-opacity="1" stroke-width="7" d=" M33.880001068115234,26.690000534057617 C33.880001068115234,26.690000534057617 41.5,26.690000534057617 41.5,26.690000534057617 C87.33999633789062,26.690000534057617 124.5,63.849998474121094 124.5,109.69000244140625 C124.5,109.69000244140625 124.5,137.4499969482422 124.5,137.4499969482422 C124.5,145.07000732421875 118.79000091552734,151.47999572753906 111.22000122070312,152.35000610351562 C111.22000122070312,152.35000610351562 82.18000030517578,155.7100067138672 82.18000030517578,155.7100067138672 C74.23999786376953,156.6300048828125 66.4800033569336,158.66000366210938 59.11000061035156,161.74000549316406 C40.20000076293945,169.64999389648438 20.110000610351562,173.6199951171875 0,173.66000366210938 C-0.10000000149011612,173.66000366210938 -0.20000000298023224,173.66000366210938 -0.30000001192092896,173.66000366210938 C-20.399999618530273,173.66000366210938 -40.5,169.72999572753906 -59.41999816894531,161.86000061035156 C-59.41999816894531,161.86000061035156 -59.619998931884766,161.77999877929688 -59.619998931884766,161.77999877929688 C-67.30999755859375,158.5800018310547 -75.41000366210938,156.47999572753906 -83.69000244140625,155.52000427246094 C-83.69000244140625,155.52000427246094 -111.22000122070312,152.35000610351562 -111.22000122070312,152.35000610351562 C-118.79000091552734,151.47999572753906 -124.5,145.07000732421875 -124.5,137.4499969482422 C-124.5,137.4499969482422 -124.5,109.69000244140625 -124.5,109.69000244140625 C-124.5,63.849998474121094 -87.33999633789062,26.690000534057617 -41.5,26.690000534057617 C-41.5,26.690000534057617 -33.869998931884766,26.690000534057617 -33.869998931884766,26.690000534057617"/></g></g><g transform="matrix(1.000003695487976,0,0,0.9999963641166687,250,295.91845703125)" opacity="1" style="display: block;"><g opacity="1" transform="matrix(1,0,0,1,0,0)"><path stroke-linecap="round" stroke-linejoin="round" fill-opacity="0" stroke="rgb(18,19,49)" stroke-opacity="1" stroke-width="7" d=" M-56.900001525878906,-17.788000106811523 C-56.540000915527344,-13.697999954223633 -54.630001068115234,-9.54800033569336 -51.720001220703125,-5.507999897003174 C-29.360000610351562,25.552000045776367 29.34000015258789,25.552000045776367 51.709999084472656,-5.507999897003174 C54.630001068115234,-9.54800033569336 56.540000915527344,-13.697999954223633 56.900001525878906,-17.788000106811523"/></g></g><g mask="url(#__lottie_element_133_2)" style="display: block;"><g transform="matrix(1.000003695487976,0,0,0.9999963641166687,216.1298828125,267.0715637207031)" opacity="1"><g opacity="1" transform="matrix(1,0,0,1,0,0)"><path stroke-linecap="round" stroke-linejoin="round" fill-opacity="0" stroke="rgb(18,19,49)" stroke-opacity="1" stroke-width="7" d=" M0,9.619999885559082 C0,9.619999885559082 0.12999999523162842,-26.6200008392334 0.12999999523162842,-26.6200008392334 M67.75,9.571000099182129 C67.75,9.571000099182129 67.87999725341797,-26.66900062561035 67.87999725341797,-26.66900062561035"/></g></g></g><g transform="matrix(1.000003695487976,0,0,0.9999963641166687,250,250.00062561035156)" opacity="1" style="display: block;"><g opacity="1" transform="matrix(1,0,0,1,0,0)"><path stroke-linecap="round" stroke-linejoin="round" fill-opacity="0" stroke="rgb(18,19,49)" stroke-opacity="1" stroke-width="7" d=" M60.89799880981445,-76.63200378417969 C60.89799880981445,-76.63200378417969 59.57400131225586,-39.5369987487793 59.57400131225586,-39.5369987487793 C58.45800018310547,-7.441999912261963 32.1150016784668,18 0,18 C0,18 0,18 0,18 C-32.1150016784668,18 -58.45800018310547,-7.441999912261963 -59.57400131225586,-39.5369987487793 C-59.57400131225586,-39.5369987487793 -60.64400100708008,-79.66200256347656 -60.64400100708008,-79.66200256347656"/></g></g><g transform="matrix(1.000003695487976,0,0,0.9999963641166687,260.5050354003906,230.68170166015625)" opacity="1" style="display: block;"><path fill="rgb(18,19,49)" fill-opacity="1" d=" M-3.756999969482422,5.639999866485596 C-3.756999969482422,5.639999866485596 3.756999969482422,5.639999866485596 3.756999969482422,5.639999866485596 C6.859000205993652,5.639999866485596 9.395999908447266,3.1019999980926514 9.395999908447266,0 C9.395999908447266,0 9.395999908447266,0 9.395999908447266,0 C9.395999908447266,-3.1019999980926514 6.859000205993652,-5.639999866485596 3.756999969482422,-5.639999866485596 C3.756999969482422,-5.639999866485596 -3.756999969482422,-5.639999866485596 -3.756999969482422,-5.639999866485596 C-6.859000205993652,-5.639999866485596 -9.395999908447266,-3.1019999980926514 -9.395999908447266,0 C-9.395999908447266,0 -9.395999908447266,0 -9.395999908447266,0 C-9.395999908447266,3.1019999980926514 -6.859000205993652,5.639999866485596 -3.756999969482422,5.639999866485596z"/><g opacity="1" transform="matrix(1,0,0,1,0,0)"><path stroke-linecap="round" stroke-linejoin="round" fill-opacity="0" stroke="rgb(18,19,49)" stroke-opacity="1" stroke-width="7" d=" M-3.756999969482422,5.639999866485596 C-3.756999969482422,5.639999866485596 3.756999969482422,5.639999866485596 3.756999969482422,5.639999866485596 C6.859000205993652,5.639999866485596 9.395999908447266,3.1019999980926514 9.395999908447266,0 C9.395999908447266,0 9.395999908447266,0 9.395999908447266,0 C9.395999908447266,-3.1019999980926514 6.859000205993652,-5.639999866485596 3.756999969482422,-5.639999866485596 C3.756999969482422,-5.639999866485596 -3.756999969482422,-5.639999866485596 -3.756999969482422,-5.639999866485596 C-6.859000205993652,-5.639999866485596 -9.395999908447266,-3.1019999980926514 -9.395999908447266,0 C-9.395999908447266,0 -9.395999908447266,0 -9.395999908447266,0 C-9.395999908447266,3.1019999980926514 -6.859000205993652,5.639999866485596 -3.756999969482422,5.639999866485596z"/></g></g><g transform="matrix(1.000003695487976,0,0,0.9999963641166687,305.4952087402344,213.99176025390625)" opacity="1" style="display: block;"><g opacity="1" transform="matrix(1,0,0,1,0,0)"><path stroke-linecap="round" stroke-linejoin="round" fill-opacity="0" stroke="rgb(18,19,49)" stroke-opacity="1" stroke-width="7" d=" M-36.185001373291016,16.690000534057617 C-36.185001373291016,16.690000534057617 -20.645999908447266,14.427000045776367 -20.645999908447266,14.427000045776367 C-14.246000289916992,13.494999885559082 -8.128000259399414,11.196999549865723 -2.687000036239624,7.699999809265137 C10.972999572753906,-1.0800000429153442 36.185001373291016,-16.690000534057617 36.185001373291016,-16.690000534057617"/></g></g><g transform="matrix(1.000003695487976,0,0,0.9999963641166687,250,127.53306579589844)" opacity="1" style="display: block;"><g opacity="1" transform="matrix(1,0,0,1,0,0)"><path stroke-linecap="round" stroke-linejoin="round" fill-opacity="0" stroke="rgb(18,19,49)" stroke-opacity="1" stroke-width="7" d=" M65.62200164794922,25.756999969482422 C65.62200164794922,25.756999969482422 65.64600372314453,38.9739990234375 65.64600372314453,38.9739990234375 C65.64600372314453,38.9739990234375 39.82099914550781,38.9739990234375 39.82099914550781,38.9739990234375 C39.82099914550781,38.9739990234375 28.917999267578125,6.4629998207092285 28.917999267578125,6.4629998207092285 C28.917999267578125,6.4629998207092285 6.066999912261963,38.9739990234375 6.066999912261963,38.9739990234375 C6.066999912261963,38.9739990234375 -65.64600372314453,38.9739990234375 -65.64600372314453,38.9739990234375 C-65.64600372314453,38.9739990234375 -65.62200164794922,25.756999969482422 -65.62200164794922,25.756999969482422 C-65.56900024414062,-3.614000082015991 -46.6609992980957,-27.874000549316406 -18.513999938964844,-36.266998291015625 C-12.819999694824219,-37.96500015258789 -6.644000053405762,-38.9739990234375 0,-38.9739990234375 C6.644000053405762,-38.9739990234375 12.819999694824219,-37.96500015258789 18.513999938964844,-36.266998291015625 C46.6609992980957,-27.874000549316406 65.56900024414062,-3.614000082015991 65.62200164794922,25.756999969482422z"/></g></g><g class="com" transform="matrix(2.65159010887146,0,0,2.65159010887146,37.9818115234375,480.39056396484375)" opacity="0.2" style="display: none;"><g opacity="1" transform="matrix(1,0,0,1,0,0)"><path fill="rgb(0,0,0)" fill-opacity="1" d=" M141.6959991455078,0 C141.6959991455078,0 144.6699981689453,0 144.6699981689453,0 C144.6699981689453,0 144.6699981689453,-12.715999603271484 144.6699981689453,-12.715999603271484 C144.6699981689453,-12.715999603271484 148.62899780273438,0 148.62899780273438,0 C148.62899780273438,0 151.25399780273438,0 151.25399780273438,0 C151.25399780273438,0 155.2949981689453,-12.715999603271484 155.2949981689453,-12.715999603271484 C155.2949981689453,-12.715999603271484 155.2949981689453,0 155.2949981689453,0 C155.2949981689453,0 158.4530029296875,0 158.4530029296875,0 C158.4530029296875,0 158.4530029296875,-14.829000473022461 158.4530029296875,-14.829000473022461 C158.4530029296875,-14.829000473022461 153.4080047607422,-14.829000473022461 153.4080047607422,-14.829000473022461 C153.4080047607422,-14.829000473022461 150.0240020751953,-4.040999889373779 150.0240020751953,-4.040999889373779 C150.0240020751953,-4.040999889373779 146.88499450683594,-14.829000473022461 146.88499450683594,-14.829000473022461 C146.88499450683594,-14.829000473022461 141.6959991455078,-14.829000473022461 141.6959991455078,-14.829000473022461 C141.6959991455078,-14.829000473022461 141.6959991455078,0 141.6959991455078,0z"/></g><g opacity="1" transform="matrix(1,0,0,1,0,0)"><path fill="rgb(0,0,0)" fill-opacity="1" d=" M128.80499267578125,-7.302000045776367 C128.80499267578125,-8.984000205993652 129.05099487304688,-10.583000183105469 129.89199829101562,-11.609000205993652 C130.48699951171875,-12.368000030517578 131.42999267578125,-12.859999656677246 132.6199951171875,-12.859999656677246 C134.13800048828125,-12.859999656677246 135.38900756835938,-12.0600004196167 136.00399780273438,-10.234999656677246 C136.31199645996094,-9.333000183105469 136.3730010986328,-8.307000160217285 136.3730010986328,-7.589000225067139 C136.3730010986328,-5.230000019073486 135.86000061035156,-4.080999851226807 135.3679962158203,-3.3429999351501465 C134.7729949951172,-2.4200000762939453 133.89100646972656,-1.968999981880188 132.5989990234375,-1.968999981880188 C131.1219940185547,-1.968999981880188 130.36300659179688,-2.5439999103546143 129.91200256347656,-3.1589999198913574 C129.02999877929688,-4.308000087738037 128.80499267578125,-5.88700008392334 128.80499267578125,-7.302000045776367z M125.48200225830078,-7.198999881744385 C125.48200225830078,-5.84499979019165 125.68800354003906,-3.384000062942505 127.30799865722656,-1.6610000133514404 C128.66200256347656,-0.2460000067949295 130.60899353027344,0.36899998784065247 132.55799865722656,0.36899998784065247 C133.78900146484375,0.36899998784065247 136.18800354003906,0.10300000011920929 137.82899475097656,-1.7430000305175781 C139.03900146484375,-3.0969998836517334 139.6959991455078,-5.394000053405762 139.6959991455078,-7.547999858856201 C139.6959991455078,-9.003999710083008 139.38800048828125,-11.321999549865723 137.8090057373047,-13.126999855041504 C136.35299682617188,-14.767999649047852 134.17799377441406,-15.13700008392334 132.5989990234375,-15.13700008392334 C127.26599884033203,-15.13700008392334 125.48200225830078,-11.13700008392334 125.48200225830078,-7.198999881744385z"/></g><g opacity="1" transform="matrix(1,0,0,1,0,0)"><path fill="rgb(0,0,0)" fill-opacity="1" d=" M124.04000091552734,-9.98900032043457 C124.04000091552734,-12.942999839782715 121.76399993896484,-14.91100025177002 118.52300262451172,-14.91100025177002 C114.35900115966797,-14.91100025177002 111.73400115966797,-11.793999671936035 111.73400115966797,-7.0970001220703125 C111.73400115966797,-3.4260001182556152 113.3949966430664,0.3490000069141388 118.50199890136719,0.3490000069141388 C119.85600280761719,0.3490000069141388 121.51699829101562,0.04100000113248825 122.83000183105469,-1.312999963760376 C124.0199966430664,-2.5439999103546143 124.10099792480469,-3.9170000553131104 124.16300201416016,-4.798999786376953 C124.16300201416016,-4.798999786376953 120.81999969482422,-4.798999786376953 120.81999969482422,-4.798999786376953 C120.75800323486328,-2.8299999237060547 119.48699951171875,-1.9900000095367432 118.15399932861328,-1.9900000095367432 C115.05699920654297,-1.9900000095367432 115.05699920654297,-6.193999767303467 115.05699920654297,-7.076000213623047 C115.05699920654297,-10.131999969482422 116.04100036621094,-12.593000411987305 118.4000015258789,-12.593000411987305 C120.55400085449219,-12.593000411987305 120.73799896240234,-10.501999855041504 120.80000305175781,-9.98900032043457 C120.80000305175781,-9.98900032043457 124.04000091552734,-9.98900032043457 124.04000091552734,-9.98900032043457z"/></g><g opacity="1" transform="matrix(1,0,0,1,0,0)"><path fill="rgb(0,0,0)" fill-opacity="1" d=" M106.89299774169922,0 C106.89299774169922,0 109.49700164794922,0 109.49700164794922,0 C109.49700164794922,0 109.49700164794922,-2.7279999256134033 109.49700164794922,-2.7279999256134033 C109.49700164794922,-2.7279999256134033 106.89299774169922,-2.7279999256134033 106.89299774169922,-2.7279999256134033 C106.89299774169922,-2.7279999256134033 106.89299774169922,0 106.89299774169922,0z"/></g><g opacity="1" transform="matrix(1,0,0,1,0,0)"><path fill="rgb(0,0,0)" fill-opacity="1" d=" M91.00700378417969,0 C91.00700378417969,0 94.0009994506836,0 94.0009994506836,0 C94.0009994506836,0 94.0009994506836,-12.305999755859375 94.0009994506836,-12.305999755859375 C94.0009994506836,-12.305999755859375 99.74400329589844,0 99.74400329589844,0 C99.74400329589844,0 104.11299896240234,0 104.11299896240234,0 C104.11299896240234,0 104.11299896240234,-14.829000473022461 104.11299896240234,-14.829000473022461 C104.11299896240234,-14.829000473022461 101.15899658203125,-14.829000473022461 101.15899658203125,-14.829000473022461 C101.15899658203125,-14.829000473022461 101.15899658203125,-3.1589999198913574 101.15899658203125,-3.1589999198913574 C101.15899658203125,-3.1589999198913574 95.60099792480469,-14.829000473022461 95.60099792480469,-14.829000473022461 C95.60099792480469,-14.829000473022461 91.00700378417969,-14.829000473022461 91.00700378417969,-14.829000473022461 C91.00700378417969,-14.829000473022461 91.00700378417969,0 91.00700378417969,0z"/></g><g opacity="1" transform="matrix(1,0,0,1,0,0)"><path fill="rgb(0,0,0)" fill-opacity="1" d=" M77.86900329589844,-7.302000045776367 C77.86900329589844,-8.984000205993652 78.11499786376953,-10.583000183105469 78.95600128173828,-11.609000205993652 C79.5510025024414,-12.368000030517578 80.49400329589844,-12.859999656677246 81.68399810791016,-12.859999656677246 C83.2020034790039,-12.859999656677246 84.4530029296875,-12.0600004196167 85.06800079345703,-10.234999656677246 C85.3759994506836,-9.333000183105469 85.43699645996094,-8.307000160217285 85.43699645996094,-7.589000225067139 C85.43699645996094,-5.230000019073486 84.92400360107422,-4.080999851226807 84.43199920654297,-3.3429999351501465 C83.83699798583984,-2.4200000762939453 82.95500183105469,-1.968999981880188 81.66300201416016,-1.968999981880188 C80.18599700927734,-1.968999981880188 79.4280014038086,-2.5439999103546143 78.97699737548828,-3.1589999198913574 C78.09500122070312,-4.308000087738037 77.86900329589844,-5.88700008392334 77.86900329589844,-7.302000045776367z M74.5459976196289,-7.198999881744385 C74.5459976196289,-5.84499979019165 74.75199890136719,-3.384000062942505 76.37200164794922,-1.6610000133514404 C77.72599792480469,-0.2460000067949295 79.6729965209961,0.36899998784065247 81.62200164794922,0.36899998784065247 C82.85299682617188,0.36899998784065247 85.25299835205078,0.10300000011920929 86.89399719238281,-1.7430000305175781 C88.10399627685547,-3.0969998836517334 88.76000213623047,-5.394000053405762 88.76000213623047,-7.547999858856201 C88.76000213623047,-9.003999710083008 88.4520034790039,-11.321999549865723 86.87300109863281,-13.126999855041504 C85.41699981689453,-14.767999649047852 83.24199676513672,-15.13700008392334 81.66300201416016,-15.13700008392334 C76.33000183105469,-15.13700008392334 74.5459976196289,-11.13700008392334 74.5459976196289,-7.198999881744385z"/></g><g opacity="1" transform="matrix(1,0,0,1,0,0)"><path fill="rgb(0,0,0)" fill-opacity="1" d=" M73.10399627685547,-9.98900032043457 C73.10399627685547,-12.942999839782715 70.8280029296875,-14.91100025177002 67.58699798583984,-14.91100025177002 C63.42300033569336,-14.91100025177002 60.79800033569336,-11.793999671936035 60.79800033569336,-7.0970001220703125 C60.79800033569336,-3.4260001182556152 62.45899963378906,0.3490000069141388 67.56600189208984,0.3490000069141388 C68.91999816894531,0.3490000069141388 70.58100128173828,0.04100000113248825 71.89399719238281,-1.312999963760376 C73.08399963378906,-2.5439999103546143 73.16500091552734,-3.9170000553131104 73.22699737548828,-4.798999786376953 C73.22699737548828,-4.798999786376953 69.88400268554688,-4.798999786376953 69.88400268554688,-4.798999786376953 C69.8219985961914,-2.8299999237060547 68.5510025024414,-1.9900000095367432 67.21800231933594,-1.9900000095367432 C64.12100219726562,-1.9900000095367432 64.12100219726562,-6.193999767303467 64.12100219726562,-7.076000213623047 C64.12100219726562,-10.131999969482422 65.1050033569336,-12.593000411987305 67.46399688720703,-12.593000411987305 C69.61799621582031,-12.593000411987305 69.802001953125,-10.501999855041504 69.86399841308594,-9.98900032043457 C69.86399841308594,-9.98900032043457 73.10399627685547,-9.98900032043457 73.10399627685547,-9.98900032043457z"/></g><g opacity="1" transform="matrix(1,0,0,1,0,0)"><path fill="rgb(0,0,0)" fill-opacity="1" d=" M55.66899871826172,0 C55.66899871826172,0 58.8489990234375,0 58.8489990234375,0 C58.8489990234375,0 58.8489990234375,-14.869999885559082 58.8489990234375,-14.869999885559082 C58.8489990234375,-14.869999885559082 55.66899871826172,-14.869999885559082 55.66899871826172,-14.869999885559082 C55.66899871826172,-14.869999885559082 55.66899871826172,0 55.66899871826172,0z"/></g><g opacity="1" transform="matrix(1,0,0,1,0,0)"><path fill="rgb(0,0,0)" fill-opacity="1" d=" M44.28799819946289,-12.387999534606934 C46.112998962402344,-12.470000267028809 46.95500183105469,-12.368000030517578 47.611000061035156,-12.182999610900879 C49.60100173950195,-11.628999710083008 50.31800079345703,-9.701000213623047 50.31800079345703,-7.609000205993652 C50.31800079345703,-6.890999794006348 50.236000061035156,-4.676000118255615 48.98500061035156,-3.424999952316284 C48.0620002746582,-2.502000093460083 46.893001556396484,-2.4000000953674316 45.53900146484375,-2.4000000953674316 C45.16999816894531,-2.4000000953674316 44.637001037597656,-2.4200000762939453 44.28799819946289,-2.440999984741211 C44.28799819946289,-2.440999984741211 44.28799819946289,-12.387999534606934 44.28799819946289,-12.387999534606934z M41.06800079345703,0 C41.06800079345703,0 45.68299865722656,0 45.68299865722656,0 C47.18000030517578,0 47.79499816894531,-0.061000000685453415 48.3489990234375,-0.164000004529953 C51.159000396728516,-0.6769999861717224 53.599998474121094,-3.055999994277954 53.599998474121094,-7.609000205993652 C53.599998474121094,-9.722000122070312 52.94300079345703,-12.0600004196167 51.07699966430664,-13.434000015258789 C49.292999267578125,-14.746999740600586 46.790000915527344,-14.767999649047852 45.970001220703125,-14.767999649047852 C45.970001220703125,-14.767999649047852 41.06800079345703,-14.788000106811523 41.06800079345703,-14.788000106811523 C41.06800079345703,-14.788000106811523 41.06800079345703,0 41.06800079345703,0z"/></g><g opacity="1" transform="matrix(1,0,0,1,0,0)"><path fill="rgb(0,0,0)" fill-opacity="1" d=" M30.518999099731445,-12.491000175476074 C30.518999099731445,-12.491000175476074 32.652000427246094,-12.491000175476074 32.652000427246094,-12.491000175476074 C33.65700149536133,-12.491000175476074 34.25199890136719,-12.491000175476074 34.74399948120117,-12.142000198364258 C35.03099822998047,-11.956999778747559 35.52399826049805,-11.486000061035156 35.52399826049805,-10.480999946594238 C35.52399826049805,-9.4350004196167 34.92900085449219,-8.92199993133545 34.702999114990234,-8.758000373840332 C34.189998626708984,-8.347999572753906 33.45199966430664,-8.347999572753906 33.08300018310547,-8.347999572753906 C33.08300018310547,-8.347999572753906 30.518999099731445,-8.347999572753906 30.518999099731445,-8.347999572753906 C30.518999099731445,-8.347999572753906 30.518999099731445,-12.491000175476074 30.518999099731445,-12.491000175476074z M27.381000518798828,0 C27.381000518798828,0 30.621999740600586,0 30.621999740600586,0 C30.621999740600586,0 30.621999740600586,-5.988999843597412 30.621999740600586,-5.988999843597412 C30.621999740600586,-5.988999843597412 33.4109992980957,-5.988999843597412 33.4109992980957,-5.988999843597412 C33.944000244140625,-5.988999843597412 34.7239990234375,-5.988999843597412 35.01100158691406,-5.1479997634887695 C35.215999603271484,-4.573999881744385 35.66699981689453,-0.8199999928474426 35.81100082397461,0 C35.81100082397461,0 39.31800079345703,0 39.31800079345703,0 C39.15399932861328,-0.2460000067949295 39.03099822998047,-0.41100001335144043 38.867000579833984,-1.0670000314712524 C38.763999938964844,-1.4769999980926514 38.641998291015625,-2.194999933242798 38.41600036621094,-3.937999963760376 C38.14899826049805,-5.866000175476074 37.98500061035156,-7.138000011444092 35.749000549316406,-7.3429999351501465 C36.46699905395508,-7.547999858856201 38.84700012207031,-8.204000473022461 38.84700012207031,-10.972999572753906 C38.84700012207031,-11.937000274658203 38.47700119018555,-13.02400016784668 37.55400085449219,-13.824000358581543 C36.36399841308594,-14.850000381469727 34.70399856567383,-14.850000381469727 33.0629997253418,-14.829000473022461 C33.0629997253418,-14.829000473022461 27.381000518798828,-14.829000473022461 27.381000518798828,-14.829000473022461 C27.381000518798828,-14.829000473022461 27.381000518798828,0 27.381000518798828,0z"/></g><g opacity="1" transform="matrix(1,0,0,1,0,0)"><path fill="rgb(0,0,0)" fill-opacity="1" d=" M14.489999771118164,-7.302000045776367 C14.489999771118164,-8.984000205993652 14.736000061035156,-10.583000183105469 15.57699966430664,-11.609000205993652 C16.172000885009766,-12.368000030517578 17.114999771118164,-12.859999656677246 18.30500030517578,-12.859999656677246 C19.822999954223633,-12.859999656677246 21.073999404907227,-12.0600004196167 21.68899917602539,-10.234999656677246 C21.996999740600586,-9.333000183105469 22.058000564575195,-8.307000160217285 22.058000564575195,-7.589000225067139 C22.058000564575195,-5.230000019073486 21.545000076293945,-4.080999851226807 21.05299949645996,-3.3429999351501465 C20.45800018310547,-2.4200000762939453 19.576000213623047,-1.968999981880188 18.284000396728516,-1.968999981880188 C16.80699920654297,-1.968999981880188 16.04800033569336,-2.5439999103546143 15.597000122070312,-3.1589999198913574 C14.71500015258789,-4.308000087738037 14.489999771118164,-5.88700008392334 14.489999771118164,-7.302000045776367z M11.166999816894531,-7.198999881744385 C11.166999816894531,-5.84499979019165 11.371999740600586,-3.384000062942505 12.991999626159668,-1.6610000133514404 C14.345999717712402,-0.2460000067949295 16.29400062561035,0.36899998784065247 18.243000030517578,0.36899998784065247 C19.474000930786133,0.36899998784065247 21.87299919128418,0.10300000011920929 23.513999938964844,-1.7430000305175781 C24.724000930786133,-3.0969998836517334 25.381000518798828,-5.394000053405762 25.381000518798828,-7.547999858856201 C25.381000518798828,-9.003999710083008 25.072999954223633,-11.321999549865723 23.493999481201172,-13.126999855041504 C22.038000106811523,-14.767999649047852 19.863000869750977,-15.13700008392334 18.284000396728516,-15.13700008392334 C12.951000213623047,-15.13700008392334 11.166999816894531,-11.13700008392334 11.166999816894531,-7.198999881744385z"/></g><g opacity="1" transform="matrix(1,0,0,1,0,0)"><path fill="rgb(0,0,0)" fill-opacity="1" d=" M1.4149999618530273,0 C1.4149999618530273,0 11.013999938964844,0 11.013999938964844,0 C11.013999938964844,0 11.013999938964844,-2.5230000019073486 11.013999938964844,-2.5230000019073486 C11.013999938964844,-2.5230000019073486 4.656000137329102,-2.5230000019073486 4.656000137329102,-2.5230000019073486 C4.656000137329102,-2.5230000019073486 4.656000137329102,-14.809000015258789 4.656000137329102,-14.809000015258789 C4.656000137329102,-14.809000015258789 1.4149999618530273,-14.809000015258789 1.4149999618530273,-14.809000015258789 C1.4149999618530273,-14.809000015258789 1.4149999618530273,0 1.4149999618530273,0z"/></g></g></g></svg>